/* XPM */
static char *result[] = {
/* columns rows colors chars-per-pixel */
"50 50 198 2 ",
"   c #7C010C",
".  c #77010B",
"X  c #780C15",
"o  c #70121A",
"O  c #771D24",
"+  c #6E262C",
"@  c #7B373D",
"#  c #7B4A4E",
"$  c #76474A",
"%  c #596C6A",
"&  c #7A6065",
"*  c #68726F",
"=  c #6B7673",
"-  c #7D7A7A",
";  c #7C7877",
":  c #82010B",
">  c #8E0008",
",  c #860C17",
"<  c #910911",
"1  c #960D16",
"2  c #8C121D",
"3  c #90121D",
"4  c #A01B27",
"5  c #85252D",
"6  c #8C2128",
"7  c #91222C",
"8  c #8B2D34",
"9  c #9C2B33",
"0  c #94373C",
"q  c #A5222E",
"w  c #AB2531",
"e  c #A82A36",
"r  c #B42D39",
"t  c #A6343E",
"y  c #B6313D",
"u  c #BB313E",
"i  c #9E3B44",
"p  c #A33841",
"a  c #BC3441",
"s  c #C13643",
"d  c #C33946",
"f  c #C23C48",
"g  c #8A444A",
"h  c #95444A",
"j  c #8D4F54",
"k  c #914C52",
"l  c #875054",
"z  c #995157",
"x  c #955257",
"c  c #B64249",
"v  c #A14D50",
"b  c #B8575F",
"n  c #885E61",
"m  c #925F63",
"M  c #8A6F6E",
"N  c #846B6A",
"B  c #9A6265",
"V  c #96676A",
"C  c #8B7373",
"Z  c #847C7A",
"A  c #8C7C7C",
"S  c #83767C",
"D  c #927474",
"F  c #9B7373",
"G  c #967A79",
"H  c #997D7C",
"J  c #977878",
"K  c #AB7675",
"L  c #A27C7C",
"P  c #AD7D7B",
"I  c #BF7C7B",
"U  c #B57879",
"Y  c #A1696A",
"T  c #C36971",
"R  c #C9777E",
"E  c #C27D7B",
"W  c #7A827F",
"Q  c #8F807E",
"!  c #9C807F",
"~  c #BC7C81",
"^  c #758F93",
"/  c #868382",
"(  c #8A8585",
")  c #8D8887",
"_  c #8D8B8A",
"`  c #818B88",
"'  c #938381",
"]  c #9E8483",
"[  c #928C8C",
"{  c #94908F",
"}  c #879898",
"|  c #959392",
" . c #9B9694",
".. c #979996",
"X. c #9B9897",
"o. c #9E9A99",
"O. c #A28584",
"+. c #AA8686",
"@. c #A48C8B",
"#. c #AA8D8D",
"$. c #A18688",
"%. c #B48484",
"&. c #B48887",
"*. c #BD8C8B",
"=. c #B88B8C",
"-. c #A5918F",
";. c #A8908F",
":. c #BB908F",
">. c #A49392",
",. c #AC9595",
"<. c #A29997",
"1. c #AC9997",
"2. c #A29D9C",
"3. c #AC9B9A",
"4. c #B29494",
"5. c #BD9493",
"6. c #B29C9B",
"7. c #BC9B9A",
"8. c #B79897",
"9. c #A4A09F",
"0. c #AAA19F",
"q. c #B4A09F",
"w. c #BEA09D",
"e. c #9FA2A0",
"r. c #A6A2A1",
"t. c #AAA5A4",
"y. c #ACA8A7",
"u. c #AEAAA9",
"i. c #A5ABA8",
"p. c #B4A4A4",
"a. c #BAA5A4",
"s. c #B3A9A7",
"d. c #BBA8A7",
"f. c #B2ADAC",
"g. c #BDACAB",
"h. c #AEB3AF",
"j. c #B5B0AF",
"k. c #B6B2B0",
"l. c #BBB4B3",
"z. c #BEB8B7",
"x. c #BEBAB9",
"c. c #B7B9B5",
"v. c #C58385",
"b. c #C18B8B",
"n. c #C79397",
"m. c #CE9EA2",
"M. c #C1A6A6",
"N. c #C2AEAD",
"B. c #CCA7A5",
"V. c #D4ACAE",
"C. c #DAAAA9",
"Z. c #CEB2AF",
"A. c #C5B4B3",
"S. c #C9B6B6",
"D. c #C3B9B7",
"F. c #CAB8B7",
"G. c #C3BCBB",
"H. c #CCBBBB",
"J. c #D1BEBD",
"K. c #DCBCBB",
"L. c #E5B7B6",
"P. c #F1B9B8",
"I. c #C7C1BF",
"U. c #CAC1BE",
"Y. c #C7C1C0",
"T. c #CBC4C3",
"R. c #CEC8C7",
"E. c #CFC9C8",
"W. c #D4C3C3",
"Q. c #D9C7C7",
"!. c #D1CAC7",
"~. c #D3CCCB",
"^. c #DACDCC",
"/. c #DDCAC6",
"(. c #D7D0CF",
"). c #D9D1CE",
"_. c #D7D2D1",
"`. c #DCD5D3",
"'. c #DFD9D7",
"]. c #E1C6C4",
"[. c #E1CDCD",
"{. c #E3D1CF",
"}. c #E2DAD7",
"|. c #E3DCDB",
" X c #EBDDD9",
".X c #E8D8D5",
"XX c #F3DEDA",
"oX c #DFE1DC",
"OX c #E7E2DD",
"+X c #E9E2DF",
"@X c #ECE5E3",
"#X c #EEEAE5",
"$X c #F1EDE8",
"%X c #F5EBE7",
"&X c #F6F2ED",
"*X c #F8F4EF",
"=X c #F8F5F0",
"-X c None",
/* pixels */
"-X-X-X-X-X-X-X-X-X-X-X-X-X-X-X-X-X-X-X-X-X-Xg.A.F.s.-X-X-X-Xp.#.-X-X-X-X-X-X-X-X-X-X-X-X-X-X-X-X-X-X",
"-X-X-X-X-X-X-X-X-X-X-X-X-X-X-X-X-X-X-X-Xd.A.F.Q.W.S.N.g.d.d.H.S.H -X-X-X-X-X-X-X-X-X-X-X-X-X-X-X-X-X",
"-X-X-X-X-X-X-X-X-X-X-X-X-X-X-X-X] N.N.A.S.S.A.H.H.A.g.g.g.q.N.J.,.-X-X-X-X-X-X-X-X-X-X-X-X-X-X-X-X-X",
"-X-X-X-X-X-X-X-X-X-X-X-X-X-X-XH a.W.Q.H.g.d.,.6.d.d.S.g.w.g.a.H.A.3.-X-X-X-X-X-X-X-X-X-X-X-X-X-X-X-X",
"-X-X-X-X-X-X-X-X-X-X-X-X-X-X-X@.H.W.S.p.4.,.6.@.,.H.W.S.A.N.,.N.Q.A.-X-X-X-X-X-X-X-X-X-X-X-X-X-X-X-X",
"-X-X-X-X-X-X-X-X-X-X-X-X-X-X@.N.W.S.a.N.N.p.@.>.>.>.g.W.H.J.4.N.W.A.3.-X-X-X-X-X-X-X-X-X-X-X-X-X-X-X",
"-X-X-X-X-X-X-X-X-X-X-X-X@.N.J.W.W.a.6.A.^.`.^.U.G.1.$.H.W.a.d.S.A.H.F.#.J -X-X-X-X-X-X-X-X-X-X-X-X-X",
"-X-X-X-X-X-X-X-X-X-X-X-Xd.W.W.W.Q.4.] `.*X=X*X*X*X@Xp.g.N.p.S.N.H.D.W.6.@.4.J -X-X-X-X-X-X-X-X-X-X-X",
"-X-X-X-X-X-X-X-X-X-X-X-Xa.W.W.W.{.q.A..X XK. X+X$X$XW.A.F.S.H.S.g.A.6.,.N.4.N -X-X-X-X-X-X-X-X-X-X-X",
"-X-X-X-X-X-X-X-X-X-X-X-X6.W.W.W.Q.g.^./.{.v.K.V. X&XT.A.F.A.N.A.4.a.d.S.6.] H -X-X-X-X-X-X-X-X-X-X-X",
"-X-X-X-X-X-X-X-X-X-X-X-XJ d./.W.U.6.T.oX'.@X|.#X&X#XG.H.N.g.g.H.J.J.F.6.O.' ] -X-X-X-X-X-X-X-X-X-X-X",
"-X-X-X-X-X-X-X-X-X-X-X-XH 4.W.W.U.,._ # & ^ x.@X#X^.J.A.N.S.N.N.S.g.4.,.>.~ -X-X-X-X-X-X-X-X-X-X-X-X",
"-X-X-X-X-X-X-X-X-X-X-X-X-X@.6.S.U.a.q.H Z ^ ,.J.Q.U.H.g.g.d.g.a.d.,.@.$.] -X-X-X-X-X-X-X-X-X-X-X-X-X",
"-X-X-X-X-X-X-X-X-X-X-X-X-X-XM H M.Z.d.W.n.+X'.G.A.7.W.N.d.d.4.A.g.A.,.,.! -X-X-X-X-X-X-X-X-X-X-X-X-X",
"-X-X-X-X-X-X-X-X-X-X-X-X-X] @.H ! #.q.d.%..X).).'.}.@X).}.@X.XW.A.p.6.#.C -X-X-X-X-X-X-X-X-X-X-X-X-X",
"-X-X-X-X-X-X-X-X-X-X-X-X-X#.S.N.,.@.@.s.L J.#X&X&X&X&X&X=X#XT.p.@.] #.a.#.-X-X-X-X-X-X-X-X-X-X-X-X-X",
"-X-X-X-X-X-X-X-X-X-X-X-X-X-X1.S.J.H.A.g.6.~.&X#X#X#X+X#X=X).j.;.O.@.N.Q.a.-X-X-X-X-X-X-X-X-X-X-X-X-X",
"-X-X-X-X-X-X-X-X-X-X-X-X-X-XJ $.,.w.6.@.#.~.$X*X#X@X&X&X$X!.;.O.>.g.H.M.O.-X-X-X-X-X-X-X-X-X-X-X-X-X",
"-X-X-X-X-X-X-X-X-X-X-X-X-X-X-X-XM H O.8.g.S.T.^.OX#X@X).I.p.O.6.A.S.N.,.H -X-X-X-X-X-X-X-X-X-X-X-X-X",
"-X-X-X-X-X-X-X-X-X-X-X-X-X-Xg.S.] H #.d.l.g.A.D.G.U.D.j.I.G.p.l.p.q.$.-X-X-X-X-X-X-X-X-X-X-X-X-X-X-X",
"-X-X-X-X-X-X-X-X-X-X-X-X-X-Xp.W.A.] ~ e._.x.G.G.U.I.T.|.+X(.R.).2.>.N.] ~ -X-X-X-X-X-X-X-X-X-X-X-X-X",
"-X-X-X-X-X-X-X-X-X-X-X-X-X~ 1.H.U.s.2.Y.@X@X`.E.G.H.).|.`.}.@X#XY.t.A.q.| ] r.-X-X-X-X-X-X-X-X-X-X-X",
"-X-X-X-X-X-X-X-X-X-X-X-X-X,.w.H.Q.W.t.R.@X@X@X'.D.l.~.}.@X@X@X#XT.y.g.N.p.| l.u.r.-X-X-X-X-X-X-X-X-X",
"-X-X-X-X-X-X-X-X-X-X-X|.@X[.d.S.W.F.t.!.#X@X~.h.j.`.@X@X@X@X@X@XY.l.G.F.a.G.|._.x.t.-X-X-X-X-X-X-X-X",
"-X-X-X-X-X-X-X-X-X-X|.OX@X'.}.N.a.g.6.j.}.I.9.j.}.#X@X@X@X@X@X@Xk.l.Q.S.^.`.@X_._.x.o.-X-X-X-X-X-X-X",
"-X-X-X-X-X-X-X-X-XG.~.OX`.`.[.R b 5.3.-.9.o.t.R.@X@X@X#X@X@X@XE.l.M.U *.|.'.`.u.`.~.r.-X-X-X-X-X-X-X",
"-X-X-X-X-X-X-X-X-Xl.OX@X~.Y.V.s s I u.y.9.y.c.`.#X@X@X#X@X@X|.j.G.T f a m.T.i.Y.#X`.r.-X-X-X-X-X-X-X",
"-X-X-X-X-X-X-X-Xj.+X@X@X@Xf.Y.V.n.g.y.2.t.9._ e.!.@X Xk.u.E.x.j.'.R f a ~ ..T.@X@X@Xf.-X-X-X-X-X-X-X",
"-X-X-X-X-X-X-Xo._.`.^.R.G.u...l.c.f.u.o.l.T.c.oXC.P.K.U.x.c.'.~.`.`.7.] _ E.#X#X#X@X`.-X-X-X-X-X-X-X",
"-X-X-X-X-X-X| _.@X|.E.u.../ Z ( n C y.f.OX+X+X).m.P.L.A.oX@X@X@XG.t.X. .| f.(.`.}.|.@X_.-X-X-X-X-X-X",
"-X-X-X-X-X2.`.#X@X'.f.| 2.% ` Q F 5./.XX/.s.<.9.a.].J.&.t.t.r.OX X3.) _ _ ( ^ e.Y.|.@X@XT.-X-X-X-X-X",
"-X-X-X-X-X~.@X}.x.[ ( [ !.i.<.s.^.%XXXK.5.L #.5.v.7.6.&.B...s.G.T.k.f.(.{ - ~ _ 9.T.}.@X@Xh.-X-X-X-X",
"-X-X-X-Xo.`.E.x.t.2.{ X. .[  .l.#X*X+X9.0.9.0.! w.1.1.b.&.q.-.W h.#XOXOXX.{ 0.z.I.R.(._.OX_.-X-X-X-X",
"-X-X-X-X{ x.Y.E.`.l.l.y.l.k.u.>.U.oX~.<.Z.4.! 1.0.s.q.n.>.s. .* ..U.I.9.I.h.c.(.!.}.}.|.~.|.-X-X-X-X",
"-X-X-X-X- j.`.OXT.E.`.`.E.x.~.H.9.* 4.U ! K ! 4.:.b.:.q.9. .U.q.s.I.z.s.+Xc.R.I.R.G.}.@X'.`.u.-X-X-X",
"-X-X-X-X{ `.@XT.E._.T.|.G.l.Y._.h.i.s.8.K q.d.d.:.v h 4.*.+.B.w.w.Z.1.U.i.{ '.!.).G.Y.@X@X|.t.-X-X-X",
"-X-X-X-XG.@X`.!._.`.`.}.I.R.!.t.l.&X+XZ.Y $.0.p.:.! ! h.8.q.+XA.:.8.1.s.| s.!.'.E.E.Y._.@X@X) -X-X-X",
"-X-X-X-X~.@X`.~.E.R.'.|.c.| l.= Z L.C.c 1 < 9 ~ b.7.b.*.E #.=.! ! c.oXh.I.U.c.(.U.T.E.E.@X|._ -X-X-X",
"-X-X-X/ _.|.T._.Y.E.|.`.U.o.~.t.; ) L 6 : > 1 ~ w.:.! 4.w.q.Q Q ....0.| U.).I.(.T.T.T.^.#X|.o.-X-X-X",
"-X-X-X) _.|.T._.Y.D.!.E.}.t.o...' D U U 0 8 m p.1.m z B ] <.[ 9.9.<.o.I.'.U.I.I.l.T.E._.#X|.r.-X-X-X",
"-X-X-X( E.|.`.E.T.D.Y.E.~.G.2. .[ # i D m z z z i r a q 2 X # t.o. .y.`.}._.Y.f.k.T.G._.@X}.t.-X-X-X",
"-X-X-X( Y.`.|._.I.f.Y._.~.}.j.f.[ 5 9 e r s a r a a r e , . + X. . .l._._.E.T.z.G.T.Y.}.@XE.r.-X-X-X",
"-X-X-X` l._.|.~.T.z.G._._.E.G.o.j a f f s s s s a e q 2   . o ; 9.r.E.@X`.`.T.E.I.E.l.|.OXz.9.-X-X-X",
"-X-X-X~ f.G.~.E.~.E.~.`.oX~.h.~ O e a a d d d d d d f d 4 : . @ 9.9.(.@XE.^.}._.T.|.G.|.Y.j.o.-X-X-X",
"-X-X-X~ f.t.G.~.E.E.|.`.Y.c.i.~ o . 2 q r a d d d a a w 2     +  .2.l.`._.|.E.|._.`.~.Y.j.u. .-X-X-X",
"-X-X-X= f.t.9.z.E.x.E.Y.e.e...^ C m k i i p p 9 9 7 6 5 @ i Y ~ o.X.2.Y.`.`.~.|._.E.u.f.j.j.{ -X-X-X",
"-X-X-X-Xu.y. .t.u.2.y.y.9.r.e...o.y.t.y.t.q.3.3.3.3.g.Y.~.'._.r. .r.r.z.I.G.`.`.f.t.o.f.f.f./ -X-X-X",
"-X-X-X-Xy.t. .t.2.o.j.2.r.j.r.| | t.o.x.~._.|.+X`.~.`.}.|._.E.r.r.2.u.r.r.r.k.u.9.t.9.f.f.f./ -X-X-X",
"-X-X-X-Xu.u.9.y.t.9.t.2.f.f.o. ._ 2.R._.oX@XoX`.|.|.|.|.|.~.'.r.y.2.u.9.2.t.r.2.o.r.2.f.f.u.~ -X-X-X",
"-X-X-X-Xu.f.9.y.9.X.r.t.j.u.2.9.~ j.oX_.E.oX`.@XoX'.@X@X+X`.@Xf.r.2.r.2.r.r.y.{ o.u.r.f.f.f.{ -X-X-X"
};
