/* XPM */
static char *result[] = {
/* columns rows colors chars-per-pixel */
"50 50 256 2 ",
"   c #010303",
".  c #01060B",
"X  c #03080A",
"o  c #08090B",
"O  c #040A12",
"+  c #090B13",
"@  c #050918",
"#  c #130D18",
"$  c #180E1E",
"%  c #0D121E",
"&  c #01082A",
"*  c #0A0B28",
"=  c #030D23",
"-  c #170D24",
";  c #1C0D29",
":  c #11182F",
">  c #020E30",
",  c #040D38",
"<  c #1D0D30",
"1  c #1A1F32",
"2  c #230D35",
"3  c #2A0B3F",
"4  c #28073B",
"5  c #201D3B",
"6  c #230829",
"7  c #020C45",
"8  c #091A50",
"9  c #290B42",
"0  c #240B46",
"q  c #3A0A45",
"w  c #230C54",
"e  c #300955",
"r  c #11214C",
"t  c #252D4F",
"y  c #27395C",
"u  c #030E61",
"i  c #14146C",
"p  c #0A1977",
"a  c #250C63",
"s  c #330767",
"d  c #152B6D",
"f  c #183171",
"g  c #480A4A",
"h  c #540A4C",
"j  c #560859",
"k  c #620A5F",
"l  c #520C74",
"z  c #670978",
"x  c #6C086D",
"c  c #4B2C7A",
"v  c #38456C",
"b  c #385079",
"n  c #4A5175",
"m  c #1C0A83",
"M  c #101C86",
"N  c #080D91",
"B  c #173991",
"V  c #1215B4",
"C  c #0C19AB",
"Z  c #2C08AF",
"A  c #1A3DAC",
"S  c #112FB5",
"D  c #6F048E",
"F  c #7E0487",
"G  c #550DA5",
"H  c #6A08A5",
"J  c #214692",
"K  c #295EAF",
"L  c #3F73B9",
"P  c #3766B4",
"I  c #56719F",
"U  c #6A70A7",
"Y  c #1712C7",
"T  c #3F0ECB",
"R  c #1725DE",
"E  c #1234E6",
"W  c #5715CE",
"Q  c #5E0DCA",
"!  c #660BD8",
"~  c #6609C9",
"^  c #462ECC",
"/  c #6C0DE5",
"(  c #2465C9",
")  c #2667D6",
"_  c #1746E8",
"`  c #1C58EC",
"'  c #3957EC",
"]  c #1F68EC",
"[  c #1F7AEE",
"{  c #2261F0",
"}  c #2F66F1",
"|  c #7C40E0",
" . c #6D55EB",
".. c #5F78FC",
"X. c #7B63F3",
"o. c #7868C8",
"O. c #900B83",
"+. c #AA089E",
"@. c #8C09A0",
"#. c #9109B7",
"$. c #B003AE",
"%. c #B502BD",
"&. c #A603AA",
"*. c #9E3CAF",
"=. c #A923B2",
"-. c #C10ABE",
";. c #BA05C5",
":. c #BE06D7",
">. c #9124C6",
",. c #C607DD",
"<. c #D31BD9",
"1. c #C604E4",
"2. c #C90AE7",
"3. c #CC08EA",
"4. c #CB04E7",
"5. c #CC18EC",
"6. c #D118E5",
"7. c #CD26EE",
"8. c #D82BEA",
"9. c #D92EF6",
"0. c #D63AF8",
"q. c #D03EF4",
"w. c #E638F5",
"e. c #8375FA",
"r. c #BA6FE6",
"t. c #D140DD",
"y. c #DC4AF7",
"u. c #DF51F3",
"i. c #D658EB",
"p. c #C062EF",
"a. c #CC72F0",
"s. c #E56DEE",
"d. c #E566F7",
"f. c #E876F2",
"g. c #298AED",
"h. c #3096F4",
"j. c #319FF2",
"k. c #3FA1EB",
"l. c #3DB4F6",
"z. c #38AAF6",
"x. c #4082F8",
"c. c #639DF8",
"v. c #42BBFB",
"b. c #55ACF4",
"n. c #6DAEE5",
"m. c #7BA0E8",
"M. c #49C1FC",
"N. c #5ED4FB",
"B. c #54C3FB",
"V. c #6EC7F8",
"C. c #65DBFD",
"Z. c #7DD0FC",
"A. c #69E7FE",
"S. c #70ECFC",
"D. c #7BF5FC",
"F. c #91A4DF",
"G. c #AEA0F4",
"H. c #A4ADE6",
"J. c #88BDF7",
"K. c #F286F7",
"L. c #F497F9",
"P. c #E8B5EF",
"I. c #F5A6FA",
"U. c #AFC8FD",
"Y. c #B1DDF7",
"T. c #BACAF7",
"R. c #81E4FC",
"E. c #91E2FB",
"W. c #83F8FD",
"Q. c #95F4FB",
"!. c #A2EFFC",
"~. c #B4E7FB",
"^. c #A7F7FB",
"/. c #AEFCFC",
"(. c #B4F8F9",
"). c #BBF7FA",
"_. c #D2D5F2",
"`. c #C6C6E6",
"'. c #EFD9F4",
"]. c #EFD0F4",
"[. c #F3C3F7",
"{. c #CDE7F5",
"}. c #C7F5F7",
"|. c #C9FBF8",
" X c #D8F7F7",
".X c #DBFCF7",
"XX c #D1FCF8",
"oX c #EEE4F1",
"OX c #E0F7F7",
"+X c #ECF9F6",
"@X c #E4FCF9",
"#X c #EEF1F3",
"$X c #F5FAF5",
"%X c #FAFBF5",
"&X c #F3FBF8",
"*X c #FEFEFB",
"=X c #F2F7F5",
"-X c black",
";X c black",
":X c black",
">X c black",
",X c black",
"<X c black",
"1X c black",
"2X c black",
"3X c black",
"4X c black",
"5X c black",
"6X c black",
"7X c black",
"8X c black",
"9X c black",
"0X c black",
"qX c black",
"wX c black",
"eX c black",
"rX c black",
"tX c black",
"yX c black",
"uX c black",
"iX c black",
"pX c black",
"aX c black",
"sX c black",
"dX c black",
"fX c black",
"gX c black",
"hX c black",
"jX c black",
"kX c black",
"lX c black",
"zX c black",
"xX c black",
"cX c black",
"vX c black",
"bX c black",
"nX c black",
"mX c black",
"MX c black",
"NX c black",
"BX c black",
"VX c black",
"CX c black",
"ZX c black",
"AX c black",
"SX c black",
"DX c black",
"FX c black",
"GX c black",
"HX c black",
"JX c black",
"KX c black",
"LX c black",
"PX c black",
"IX c black",
"UX c black",
/* pixels */
"f a 0 3 2 9 z ,.3.1.7.1.8.d.6.&.:.;.,.:.@.%.<.s.y.9.0.8.9.*.3 9 9 < < < < < < < 2 t y y A e.[.oX+X+X",
"9 2 < < < 2 j :.3.1.8.5.8.I.u.:.1.,.3.:.@.$.<.s.y.5.0.8.9.*.4 0 3 < < < < ; $ $ ; 2 < 5 M p.L.P.$X$X",
"< < < < < 3 g @.3.1.7.2.5.].I.8.6.2.;.:.@.%.<.s.y.5.0.5.9.*.4 9 3 ; < < < - # # # # # ; s q.d.P.%X%X",
"< < < < < g g F 3.3.5.1.1.K.K.8.8.6.$.1.&.%.6.s.y.5.0.5.w.O.2 0 9 2 2 < < - # $ $ # # - j 5.0.P.$X$X",
"< < < < < g k @.-.:.1.1.1.d.u.:.6.6.$.;.$.$.3.d.y.1.7.5.9.z < 3 9 9 9 < < < $ # $ # # - z ,.8.P.'.L.",
"< < < < 2 q z &.+.;.3.1.1.8.w.%.,.6.$.;.%.$.3.u.y.2.1.2.0.l < q q 9 9 < < < $ # $ # # - z ,.d.I.L.u.",
"< 2 4 2 2 q h D D @.3.2.1.,.6.$.,.3.:.,.;.$.2.u.y.6.1.1.w.l 4 h g 9 9 < < < $ # $ # # ; z :.d.I.K.q.",
"9 9 9 9 2 g g x z z #.3.4.%.+.+.%.4.2.4.;.$.4.u.y.6.1.1.8.z q k k 9 3 < < < $ # $ # # < z %.y.I.s.5.",
"9 0 w e 9 q g x D D H 2.5.:.@.@.G #.,.6.<.;.5.i.u.8.1.6.6.F h F k 3 9 2 < < - # # # # < j :.9.d.y.2.",
"e s s s i i l H ! Q >.0.y.q.! W Q W 7.u.y.5.0.d.f.y.7.y.y.#.@.:.F g 0 4 4 2 < ; ; ; ; - x 4.3.5.9.&.",
"G G ~ ^ S S ^ | e.r.a.f.f.a.X. . . .d.K.K.u.s.K.L.f.u.f.K.| 5.w.>.G i i a 0 2 2 2 2 2 2 @.3.1.1.0.@.",
"X. .X.e...x.c.J._.oX_.'.'._.Y.U.U.U.'.oX#X'.'.oXoX].I.'.oXG.p.K.r. .^ ^ A f d d d d w i ! 4.4.9.0.l ",
"T.U.U.~.~.!.^./.@X%X%X%X%X%X.X^.XX}.+X%X%X$X+X{.%X$X+X%X%X{._.%XoXT.U.U.c.x.) ( ) _ A ^ | | q.d.p.m ",
"@X.X/./.)./.^.Q.|.%X%X%X%X%X+X/.XX}.@X%X%X#X#X{.%X+X{.&X$XY.@X%X%X$X@X.X!.R.Z.R.R.V.b.m.G.G.G.oXG.Y ",
"@X@X).^.XX^.^.^.(.$X%X$X%X%X%X).{. X X%X%X%X$X&X%X$X+X%X=XY.&X%X%X$X&X+X).E.R./././././.).{..X}.J.c.",
"OXOX|.^.(.^.^.Q.Q.|. X+X%X&X+X~.~.OX{.%X%X%X%X+X}.+X*X%X%X%X%X%X%X$X%X=X~.!.^.|.).XX^.Q.(.@X.X}.XXXX",
"+X+XOX).). X(.S.Q.). XOX%X=X.XE.V.#X{.&X%X XT.m.m.+X{.T.{.%X@X%X%X%X%XoX_.Y. X&X+X(.Q.Q.Q.+X%X=X+X+X",
"%X%X*X@XXX%X/.S.v.R.%X%X$X%X%X$Xm.].oXG.I.G.L B o.[.H.L G.G.o._.%X#X%X#X$X{.=X%X$X&X!.B.R.|.%X@XR.C.",
"!.|.E.z.C.Q.Q.N.z.Z.*X%X%X%X'.[.a.u.u.c @.t.y t c >.*.c =.c v u.r.F.*X%XoXoX%X%X%X%X~.M.^.^.|.@XM.[ ",
"M.g.J B ( [ k.g.J b &X*X%X*XP.d.t.O.O.# + j % 2 6 $ g k 6 + x F l *.I.I.r.+X*X$X%X*XF.h.k.b.l.v.( d ",
"B r * : & & , :     v _.*X$XU 8.8.# + +       o     + %     2 + h +.-.t.t.K.oX*X*X@Xb 8 d B J B * . ",
"@ X                   & U `.h =.<.6 X X             X           g h g i.d.%.`.*XH.t . + % % : . + % ",
"                X   . .   t g O.+.k X                         X X $ g w.8.q v b O               t y ",
"  + 1 +       X O X   X X O O q k g                 X O   X O     ; j -.+.< O           X .   X 5 c ",
"1 v U % % .     X X     O % -   ; +                 O @ X   @ : o # ; h g % @   X             + e l ",
": w G G 2 @ .         X . + ; X                     O O     % r . X o X + 3 2     X .         $ ~ e ",
"# w Z / ~ a > =           O +                       O X X O O @ :       O k 3     X O     O < ~ Q O ",
"< w Z ! ! / Z m 0       X o                         X X X X   o 8       o h 2     X   < a G ! / s X ",
"< w Z ! ! ! T Y m O     O #       %             X     X o   X X , O     $ k 6       , ! / / ! ! 0 % ",
"+ w a Z T ! T m a <     X 1 ;   + v +           X X X           r %   X 9 D -     * Z ! ! ! / G 0 * ",
"  < a m Y Z a 9 2 < # o   < 0 . 1 b %             X X         * a % X + g z X   o < Z / ! ! | m , , ",
"  X i a e 0 ; ; % X       + 9 % $ n l G -         X         c | j + % + q q     $ # 0 T W W W u > = ",
"X X u N o o % O           + - % X U v c.m.8       X     O o.V.K 1 % % X 2 +     o < $ m Y R Z u 7 > ",
"O O 7 V u .               X o O O v v ( A.h.,           B B.M.y 1 1 X   -         - 9 ; Z R V u 7 O ",
"@ = @ C E S 8     O X           + 1 t * f A i         + B B 7 ; 1 :           X   + q 6 V R V u , X ",
"@ , , M ` } { J                   + =               X O X     * *                 . q 0 C R N 7 @ X ",
"= = u N { } _ ..I                   O .             O O O X O >                     0 e V Y 7 , O . ",
"> O N R } e.' { E.m.v & O @ r O       + o               . O > =                     - 0 p > > > O 8 ",
"u = u _ x.Z.n.g.V.!.|.Y.k.b.@Xn       O %   O X       X % % 5 .               X X   + #     u = & ' ",
"C > 7 _ x.E.}.V.Z.).)..XW.A.).Y.:       X   X X       O % % %                             u p @ M ..",
"_ C u _ h.E..X X!..X(. XQ.D.N.x.B                       . o         8 p .               r _ u 7 ' e.",
"{ _ Y E v.).&X%X@XOX}.OX(.D.N.S .                                   8 N K m.I b y y b ( k.S 7 S ..T.",
"` ] _ E z.^.%X&X+X+X+X+X.XQ.M.p                                         n.@X@X+XXX/.A.C.h.N M [ B.Y.",
"{ g.[ _ g.Q.%X+X%X+X$X&X*X/.B.,                                       8 W./.Q.@XXXQ.S.A.] N ` M.R.~.",
"] h.j.] ` C.+X%X%X%X=X!.).).M.O   X                                   J C.j.R.@X).D.D.M.E R v.R.(.OX",
"[ z.v.l.[ j./.%X%X%X*Xn.8 L K .   X                                   8 & d Q.%X(.D.D.h.E g.A.^..X+X",
"] j.v.N.z.g.N.).%X%X*XI O & 7   X                           X     . % @   r )..XQ.W.S.] { N.W.).+X$X",
"_ [ l.C.B.h.z.A.|.*X{.( S = i =                                   O % X   r L N.D.W.l._ z.S.Q..X=X+X",
"` ` j.M.N.v.g.z.k.L L c.( . @ *                                   X X   8 A A f K z.{ ] N.W. X$X%X+X",
"j.` ] h.l.z.A M P n.Z.Z.{ ,     . X                                   O M ) Z.V.K u S l.S.(.%X%X%X!."
};
