/* XPM */
static char *result[] = {
/* columns rows colors chars-per-pixel */
"50 50 256 2 ",
"   c #010305",
".  c #02060C",
"X  c #05080D",
"o  c #000514",
"O  c #0C0713",
"+  c #040A14",
"@  c #0B0C14",
"#  c #050C1B",
"$  c #110912",
"%  c #140E1A",
"&  c #180F1F",
"*  c #0B1117",
"=  c #07101E",
"-  c #0B131B",
";  c #0F191E",
":  c #11131C",
">  c #12191C",
",  c #000524",
"<  c #030D23",
"1  c #00042C",
"2  c #040F29",
"3  c #140D21",
"4  c #1D0C25",
"5  c #1B0C2A",
"6  c #0A1423",
"7  c #0E1A25",
"8  c #06112C",
"9  c #0B152A",
"0  c #0F1B28",
"q  c #101722",
"w  c #121D26",
"e  c #181F23",
"r  c #111E29",
"t  c #000734",
"y  c #00073B",
"u  c #00093F",
"i  c #031035",
"p  c #0E1633",
"a  c #06133E",
"s  c #0E1B3C",
"d  c #101A33",
"f  c #1C1F30",
"g  c #200E2D",
"h  c #260E35",
"j  c #290A34",
"k  c #280E3E",
"l  c #320C3D",
"z  c #211031",
"x  c #172026",
"c  c #1B2225",
"v  c #14202A",
"b  c #1B2229",
"n  c #172133",
"m  c #1C2433",
"M  c #1B263C",
"N  c #202731",
"B  c #212936",
"V  c #242B3C",
"C  c #282C3F",
"Z  c #010F42",
"A  c #051444",
"S  c #0D1B44",
"D  c #07184B",
"F  c #0F1E4C",
"G  c #2B0C44",
"H  c #3B0B44",
"J  c #152547",
"K  c #14234E",
"L  c #1B2B4E",
"P  c #2C2240",
"I  c #242C44",
"U  c #3F2F4A",
"Y  c #2C3545",
"T  c #26314D",
"R  c #2A3649",
"E  c #2E394A",
"W  c #333D4E",
"Q  c #202F55",
"!  c #273354",
"~  c #293454",
"^  c #2D3955",
"/  c #23335C",
"(  c #2E3C5D",
")  c #343E53",
"_  c #3D345A",
"`  c #1F336A",
"'  c #213366",
"]  c #2A3A63",
"[  c #22356C",
"{  c #430C44",
"}  c #420C4A",
"|  c #510D4D",
" . c #4B1842",
".. c #5A0F53",
"X. c #640B55",
"o. c #6D0B56",
"O. c #690B58",
"+. c #7A0B59",
"@. c #41284D",
"#. c #354155",
"$. c #3D4555",
"%. c #38465C",
"&. c #3D485C",
"*. c #334263",
"=. c #3D4A62",
"-. c #36486B",
";. c #3C4C68",
":. c #3F506B",
">. c #294973",
",. c #3F5372",
"<. c #414D61",
"1. c #474C69",
"2. c #435064",
"3. c #4A5366",
"4. c #45546C",
"5. c #4C576C",
"6. c #4D586E",
"7. c #515A6D",
"8. c #435673",
"9. c #4B5973",
"0. c #48567A",
"q. c #4D5C7A",
"w. c #525C72",
"e. c #535F78",
"r. c #635165",
"t. c #54627C",
"y. c #586178",
"u. c #830C5A",
"i. c #556581",
"p. c #5A6681",
"a. c #5B6985",
"s. c #5C6B88",
"d. c #616D85",
"f. c #63718B",
"g. c #6D7A8F",
"h. c #677690",
"j. c #6C7B94",
"k. c #6D7D99",
"l. c #738197",
"z. c #74839A",
"x. c #74849E",
"c. c #77879E",
"v. c #73829B",
"b. c #7B8A9D",
"n. c #7B8BA0",
"m. c #7D8DA2",
"M. c #7C8CA1",
"N. c #808F9F",
"B. c #808F9F",
"V. c #8290A2",
"C. c #8492A1",
"Z. c #8694A5",
"A. c #8391A2",
"S. c #8896A7",
"D. c #8896A7",
"F. c #8D9BAA",
"G. c #8E9CAA",
"H. c #8D9BAA",
"J. c #92A0AD",
"K. c #92A0AD",
"L. c black",
"P. c black",
"I. c black",
"U. c black",
"Y. c black",
"T. c black",
"R. c black",
"E. c black",
"W. c black",
"Q. c black",
"!. c black",
"~. c black",
"^. c black",
"/. c black",
"(. c black",
"). c black",
"_. c black",
"`. c black",
"'. c black",
"]. c black",
"[. c black",
"{. c black",
"}. c black",
"|. c black",
" X c black",
".X c black",
"XX c black",
"oX c black",
"OX c black",
"+X c black",
"@X c black",
"#X c black",
"$X c black",
"%X c black",
"&X c black",
"*X c black",
"=X c black",
"-X c black",
";X c black",
":X c black",
">X c black",
",X c black",
"<X c black",
"1X c black",
"2X c black",
"3X c black",
"4X c black",
"5X c black",
"6X c black",
"7X c black",
"8X c black",
"9X c black",
"0X c black",
"qX c black",
"wX c black",
"eX c black",
"rX c black",
"tX c black",
"yX c black",
"uX c black",
"iX c black",
"pX c black",
"aX c black",
"sX c black",
"dX c black",
"fX c black",
"gX c black",
"hX c black",
"jX c black",
"kX c black",
"lX c black",
"zX c black",
"xX c black",
"cX c black",
"vX c black",
"bX c black",
"nX c black",
"mX c black",
"MX c black",
"NX c black",
"BX c black",
"VX c black",
"CX c black",
"ZX c black",
"AX c black",
"SX c black",
"DX c black",
"FX c black",
"GX c black",
"HX c black",
"JX c black",
"KX c black",
"LX c black",
"PX c black",
"IX c black",
"UX c black",
/* pixels */
"          X * * * * * * * X q f.S.i.u S r 6 r v r r v 7 X 3 l X.u.o.l * * * * * * * * * * * * * * * ",
"          X * * * * * * * X $.c.l.F y ( n 7 r r r 0 7 + @ 3 } +.u.+.X.l * * * * * * * * * * * * * * ",
"      X X * * * * * * * . Y j.m.=.t K 3.7 7 r r r = + @ % 5 } | o.o.u.{ * * * * ; * * * * * * * * * ",
"+ @ + X @ * * * * * * X w a.c.j.a u -.B 7 r r v - . % % % & % 3 5 ..u.O.j * * * * * * * * * * * * * ",
"* * * * * * * * * % % @ 3.l.m.2., S I = r r r r * @ @ % % % g l g } X.o.g + * * * * @ * * * * * * * ",
"* * * * * * * * % % $ q j.Z.m.m , p 6 r r r r r * 3 & % & 3 5 3 % % z ..{ % * * * ; * * : @ @ * * * ",
"* * * * * * * * * % @ , s.J.C.n , = 7 r r r r 0 @ $ % $ % $ $ & 4 g 5 { | g - ; ; r q ; q q q : * * ",
"* * * * * * * * * % b a K J.g.i < 7 r r r r r r m r O B <.#.Y $ $ % & H { q 7 ; ; ; q v v v v r r r ",
"* * * * * * * * * O W ] t :.] y < r r r r v 7 6 w.Q t f.l.n.9.i Y $ % % } h r r v r r r r r r r r r ",
"* * * * * * * * q - V g.A y Z Z 6 v r v r 7   * j.] u c.G.N.F a.L 6 % % h r r r r r r r r r r r r r ",
"* * * * * * @ * v = , k.d.u Z # + 7 0 6 + .   B c.] Z N.J.-.-.0.K 4.X @ % r r r r r r q 0 r r r r r ",
"q q q q q > > q r * 1 K n.:..             = + W S.*.A C.V.K s.D i.L o % & w v r q q ; ; q r r r r r ",
"r r r r r r r r e Y *.t J C 7 - * * * 7 r -   $.S.*.D F.t.L ^ ! 9.S Y $ : r r r r r 7 7 r r r r r r ",
"r r r r r r r ; Y 2.f.*.    - 7 0 0 7 - .     I z.] D c._ I 8 q.J 8.$.: r r r r r r v q > r r r r r ",
"r w w r r r r q 3.$.w.C       .   . . X 6 = . . <.] F d.: . . I k 1.C q N 0 r r r r r r r r r r r r ",
"r b c c v c e N y.B V + # r ; - 6 6 0 v 7 z 4   r Q K W   # { ..} _ 7 m m r r c r r r r r r r w c w ",
"r w c b B N m Y w.*   # 0 r v v v v r 0 - U  .4 + n J d X @. .0.>.$.- R 5 5 e c r r r r r r r w c w ",
"w c c b C C m E E   X 0 v r r r r r r 7 d _ r.P # r M 6 d w.r._ @.W C # 3 P M 7 w r r r v r r v w r ",
"r w c B C V m R 6 o 9 7 r r r r r r 7 B V p ^ < # 9 L Y r M ! P T I r . 7 E y.#.c e c b c r x x r r ",
"b r b C V C V d < 9 6 7 r r r r r 0 r 3.r -.L ~ - o Q c.f.S -.L %.w.w.d.d.h.l.k.e.B 7 x r r r v r r ",
"c r b V V V V # d v r r r r r r r 7 E w.4./ K z.7.M 6.S.J.a.i I 9.k.m.V.V.Z.C.V.l.6.w w r r r r r r ",
"w w m m C V B 6 ) 7 r r r r r r r 6 R 3.p K a.j.k.f.f.l.n.2.8 A D u y ] N.C.m.C.N.h.W 6 r r r r r r ",
"w c m V V B B M %.9 7 r r r 0 r r 0 v V + e.f.t.f.c.c.j.<.<.j.k.K t ] z.C.N.N.V.N.k.3.6 0 r r w r r ",
"c b V C C V V m ) M 7 r r r r r 7 r 6 6 . 7 4.f.f.g.g.9.#.l.c.T u q.F.S.N.N.N.C.N.f.Y 6 r r r r r r ",
"B V V V B V V B I T < 0 r r 7 7 - 7 # # + + . C y.<.W V 2.&.n . ^ l.l.n.C.N.N.b.c.p.6 * v r r r r r ",
"V C C B B C C B b V 6 6 7 7 < < . + - + # = X   @ $.W . +     ; w B 2.j.n.b.c.z.j.6.+ - v r r r r r ",
"V V m B B C V N b r 9 < 9 7 7 6 . . z 3 + + + .     o , 1 t *.h.d.d.a.j.k.j.j.j.d.I + ; v r r r r r ",
"V V V V B V V C B e - # 6 6 # +   3 k 5 . + . @ V T ~ Q S t S 0.c.k.k.h.i.d.f.a.&.< + 7 r r r r r r ",
"V V V V V B V V V B > + # # + @ z G G z + + . M ] *.;.9.h.0.a 1 0.c.j.d.B n ) R - < # r r r r r r r ",
"V V V V V V V V C C = + + - g G } } G z + . r ~ ] I < 1 S i.k.S i h.j.e.r . # , # # 7 v r r r r r r ",
"V V V C V V V V C 7 + + 3 z G G } } G 5   r ;.;.W B 6.9.S 1 9.f.i L d.=.< # < # # ; v r r w r r r r ",
"V V V V V V V C q + + 3 h G k z 5 5 f N n n 9 o r &.p.f.f.K t a.*.1 ( d o * < + ; c c v r c w r r r ",
"V V V V C V V r . + - h G 5 % m R %.:.8.e.e.3.<.4.t.a.a.f.t.i J #.o + + < - # 7 v v c r r w x r r r ",
"V V V V C B C 0 . + 3 5 O > #.4.w.t.e.p.s.s.s.s.a.a.a.a.a.q.r   - X . 6 + # r v r r v c r r r r r r ",
"V V V V C B C m + + +   w 2.9.y.a.y.a.a.a.a.a.s.a.s.s.s.w.T .   # . . - * r b c c c c c w r r r r r ",
"V V V V V V V V # + . q 2.8.7.p.q.w.a.p.a.a.a.w.p.y.t.w.%.# X . - X . + c v r v c w w w r r r r r r ",
"m V V V V C V C m . + &.8.8.4.9.,.4.7.5.9.w.e.9.3.2.8.<.9 # # X +   . 7 b r r r w w w x r r r r r r ",
"m V V V V V C C B + E 9.8.,.,.,.,.,.4.8.,.8.4.I 9 %.4.I o + + . .   - v r r v r w w w x r r r r r r ",
"B V V V V V C C q V 2.8.8.,.,.8.8.8.8.8.9.=.M o n ( ^ #         X * v r r r r w r r r c c v r r r r ",
"m B V V V V C b m =.4.8.8.:.,.9.8.8.8.4.%.M . = m n +         . # r v 0 r r w r r r r r c c w r r r ",
"B V V V V C m r %.2.:.:.<.4.4.=.=.=.) I r # # X       X X . . . # 0 r r r r r r r 0 r r r r r w r r ",
"n V V V C m q T 2.<.<.<.<.%.T n r 9 # + + + X   .   X + = -   + + M 7 r r r c w r w w r r r r c w r ",
"r m C C m q T %.<.<.<.<.^ 9 + # # @ # < <     + # + + + # . + o * ~ r ; r w c w b c c w w c c c w w ",
"0 B C r q I *.2.<.&.=.^ r . * # * - = # .     . .   + +   + < . d ( / ; ; c c c c c c w c c c c w w ",
"r w * r T ^ 2.2.) ~ ^ r . + + # @ # +   . .   X .     + # # + < I ] L L M w > c b w w w b c c c c c ",
"- > B ~ T ^ ) ^ T I r + + # # + .       . . # < 2 # < < # + o 9 ~ d s [ [ / M q e c c c c c c c c c ",
"m T ! T T ! T M 6 + + + + + + .       . + + # # o + + + # + # V s < / [ [ [ / T m w c c c b r w w c ",
"T T T T T T V + . + . . + +     . # < < + + # o o # < 2 < . & d < M [ [ [ [ [ ' ~ M > c b w r w w w ",
"T T T T T C b o # + . + # # +   . < 2 2 2 2 2 2 2 2 8 2 o X % # 9 R / ` ` ` ` ` / ! M e c r r w r r ",
"V I ! I T I r + + + . 6 n < .   + < < 8 2 < 2 < 2 2 2 < +   % < M T / ` ` ` ` ` / T ~ n - r r r r r "
};
