/* XPM */
static char *result[] = {
/* columns rows colors chars-per-pixel */
"50 50 256 2 ",
"   c #000303",
".  c #03060A",
"X  c #080B0E",
"o  c #020A0A",
"O  c #030814",
"+  c #090A14",
"@  c #0C0D18",
"#  c #03061A",
"$  c #170C1B",
"%  c #020828",
"&  c #0A0F29",
"*  c #1B0D2A",
"=  c #120D22",
"-  c #030C30",
";  c #0C163B",
":  c #181C2F",
">  c #210C35",
",  c #260B39",
"<  c #2C092E",
"1  c #1A2237",
"2  c #030D44",
"3  c #141643",
"4  c #171E5B",
"5  c #270941",
"6  c #2C0B43",
"7  c #27094B",
"8  c #350A44",
"9  c #260C56",
"0  c #2D1E57",
"q  c #152249",
"w  c #102454",
"e  c #222B43",
"r  c #2D345A",
"t  c #22225C",
"y  c #161C6E",
"u  c #041074",
"i  c #2B0B6A",
"p  c #2D0B7F",
"a  c #1B326D",
"s  c #0C2172",
"d  c #15337A",
"f  c #0C2067",
"g  c #410A46",
"h  c #480A46",
"j  c #420B4F",
"k  c #49094B",
"l  c #550B4D",
"z  c #4A0A50",
"x  c #5B0A53",
"c  c #57085C",
"v  c #5F095D",
"b  c #530A54",
"n  c #6E095A",
"m  c #580863",
"M  c #610965",
"N  c #600968",
"B  c #64076E",
"V  c #650775",
"C  c #69077B",
"Z  c #6B0A73",
"A  c #770879",
"S  c #75076C",
"D  c #463B70",
"F  c #334166",
"G  c #193E9F",
"H  c #122E8E",
"J  c #081FA6",
"K  c #370FBF",
"L  c #3C10A2",
"P  c #1F35A4",
"I  c #0E2DB5",
"U  c #0B0D89",
"Y  c #411C91",
"T  c #6C0684",
"R  c #670588",
"E  c #700688",
"W  c #730587",
"Q  c #7F0790",
"!  c #750695",
"~  c #6D0A99",
"^  c #532197",
"/  c #19468F",
"(  c #1B52A4",
")  c #1A51B1",
"_  c #2A73BE",
"`  c #356BAC",
"'  c #5E638D",
"]  c #4E5EA1",
"[  c #5A6DA9",
"{  c #133BE4",
"}  c #6F0BC0",
"|  c #7A18C6",
" . c #5236D3",
".. c #6723E1",
"X. c #753BE8",
"o. c #1C40D2",
"O. c #2156CF",
"+. c #2A70D2",
"@. c #285FF0",
"#. c #234DEC",
"$. c #287CF1",
"%. c #714DE3",
"&. c #4267F7",
"*. c #766BEF",
"=. c #8A0696",
"-. c #8E0E83",
";. c #A00D8C",
":. c #8806A2",
">. c #9707A5",
",. c #AC06A9",
"<. c #AC1EA7",
"1. c #B206B6",
"2. c #9C32A9",
"3. c #8922B9",
"4. c #C020B7",
"5. c #BE06CD",
"6. c #B332E7",
"7. c #C30FCD",
"8. c #CF24CA",
"9. c #D12FD2",
"0. c #E029DB",
"q. c #CC07E7",
"w. c #CE08EF",
"e. c #CC0EE1",
"r. c #D81FEF",
"t. c #D537EF",
"y. c #EA31E5",
"u. c #E932F0",
"i. c #B753DA",
"p. c #EB53F3",
"a. c #DC78ED",
"s. c #F278F9",
"d. c #E765F4",
"f. c #398DD4",
"g. c #2B82DC",
"h. c #2C94F5",
"j. c #3093EF",
"k. c #32A6F8",
"l. c #3CB2FD",
"z. c #7593D3",
"x. c #4F99ED",
"c. c #7A81F0",
"v. c #46ABF0",
"b. c #4ABBFB",
"n. c #56BCF3",
"m. c #74B1F9",
"M. c #4BC3FD",
"N. c #52C1FB",
"B. c #55CAFC",
"V. c #5DCFFB",
"C. c #59D0FE",
"Z. c #6DCFF8",
"A. c #65D7FC",
"S. c #7FDEF9",
"D. c #74DCFC",
"F. c #79E6FC",
"G. c #75F0FB",
"H. c #7BF2FC",
"J. c #8482B6",
"K. c #8BA6F9",
"L. c #A4A6F5",
"P. c #F696FC",
"I. c #F28FF8",
"U. c #F8A6FD",
"Y. c #D291E5",
"T. c #B4C0D8",
"R. c #99C1F0",
"E. c #8BDCFB",
"W. c #8EEFFA",
"Q. c #85EBFB",
"!. c #9DECFA",
"~. c #82F4FB",
"^. c #89F5FB",
"/. c #94F6FB",
"(. c #9FF7FC",
"). c #B2E9FA",
"_. c #A4F6FB",
"`. c #A9F5FA",
"'. c #AEF9FB",
"]. c #B3F8F9",
"[. c #BAFAFA",
"{. c #CDCFDD",
"}. c #C4FAF8",
"|. c #C6F2FA",
" X c #DCF6F7",
".X c #D2FAF6",
"XX c #D0F8F9",
"oX c #D8FBF9",
"OX c #D0E4F0",
"+X c #E2FAF6",
"@X c #EBFAF7",
"#X c #FBF7F5",
"$X c #F6F9F5",
"%X c #FCFDF7",
"&X c #FDFEFB",
"*X c #F6FCFE",
"=X c black",
"-X c black",
";X c black",
":X c black",
">X c black",
",X c black",
"<X c black",
"1X c black",
"2X c black",
"3X c black",
"4X c black",
"5X c black",
"6X c black",
"7X c black",
"8X c black",
"9X c black",
"0X c black",
"qX c black",
"wX c black",
"eX c black",
"rX c black",
"tX c black",
"yX c black",
"uX c black",
"iX c black",
"pX c black",
"aX c black",
"sX c black",
"dX c black",
"fX c black",
"gX c black",
"hX c black",
"jX c black",
"kX c black",
"lX c black",
"zX c black",
"xX c black",
"cX c black",
"vX c black",
"bX c black",
"nX c black",
"mX c black",
"MX c black",
"NX c black",
"BX c black",
"VX c black",
"CX c black",
"ZX c black",
"AX c black",
"SX c black",
"DX c black",
"FX c black",
"GX c black",
"HX c black",
"JX c black",
"KX c black",
"LX c black",
"PX c black",
"IX c black",
"UX c black",
/* pixels */
"C l 5 6 , 6 6 5 g g 8 z k h z C z g z n S T T M x C >.>.N x T :.Q g * * > > * , 6 6 > , 5 L ..#.@.@.",
"T v 8 6 , > 6 6 g g 6 k k g N >.v h b x S T T M x C ,.>.N N ! 1.Q g * * > > > , 6 5 6 7 y  .*.@.) K ",
"E Z 8 > > * 6 6 8 8 6 k l l =.w.>.l x x A T T M l V ,.>.V N ! 1.A g * * > * 5 6 6 7 t d O.*.&.H 9 9 ",
"E Z 6 * * > 6 6 6 6 8 k k B 1.w.q.W b x M T E M l V ,.,.T V Q 1.A g * * * > 5 7 9 a H ) @.X.p , , g ",
"C C g > * > 6 6 6 8 j k g A 5.w.q.=.b x x M E N h N ,.,.T R :.1.A 8 * > , 7 9 y H ) ) / Y R , * , l ",
"B W c , * > 6 6 5 j z k h A ,.q.q.Q v x x x C N g b ,.,.T R :.,.C 8 > 5 7 9 d G  .) y 7 M x , , 7 i ",
"N V B 6 * > 5 6 5 8 z z h N =.7.q.=.C x x x C V h c ,.>.C R :.,.N 8 5 9 t d ( ) P 9 , , Z b 5 7 H o.",
"c m A 8 * > , 6 5 6 b x k b E 5.q.,.! v x v E T M V 1.=.C T :.,.c 5 4 d G O.( p m * > 8 W i 4 P c.m.",
"c c W j * > , 6 5 8 l x x x T 5.q.1.1.N l n W =.T =.q.=.V T >.,.c 4 P O.O.G 7 j j * , p } K +.m.(._.",
"A M ! B > , 6 8 5 8 l x x l Q q.q.w.5.B x C =.1.1.,.9.-.T ~ 1.5.Y H &.@.H , * g 8 , y  .*.m.D.'.'.Q.",
">.V W A 8 , g 8 , 6 l x x l >.w.e.q.1.V c =.,.5.w.1.9.;.=.R 5.6.%.&.&.H 5 * , 9 4 H +.R.|.!.F._.'.`.",
"7.W Q =.k 5 j 6 6 8 x Z v h A q.0.r.1.B M 1.1.7.y.7.8.;.,.>.t.d.K.O.H , < < 7 H O.v.!.[.'.H.(.`.`.'.",
"r.>.R :.N 5 9 g h h M E T v c e.y.t.7.B -.7.7.7.y.9.9.-.e.e.s.P.%.s b , , 4 ( x.S./.'.'.(.~.'.`.`.'.",
"r.5.1.7.! , 7 j c h m E ! R h >.y.y.7.S ,.9.8.8.s.i.a.<.r.t.P.s.~ 7 B 4 G f.Z.'.].'.'.`.~.(.[.[.'._.",
"u.r.w.w.} 9 > i ! A V 3.5.:.j v y.8.-.n <.p.p.p.P.a.P.I.6.%.P.s.Z A | +.N.F._.'.`.'.]._.^.'.`.!.S.v.",
"t.6.} ....i < 7 R R ~ p.u.1.m k 0.t.n -.<.p.9.4.d.P.P.U.I.a.P.I.Y i.L.F.F.~.}..X}.'.!.S.W.W.!.W.E.z.",
"c.%.D H  . .3 w _ [ ' Y.Y.2.8 * 4.p.4.n 0.y.,.n 4.s.a.i.I.p.s.I.z.@XoXQ.^._.+X@X}.Q.F.F.XX@X$X[.XX X",
"&X*XR.z.+Xm.u f ( oX&X@X%X&X{.$ Z u.0.$ -.-.< * -.p.2.S 0.>.Y. X X%XoXE.]. X#X$XXX).n.g.E.&XOX' e r ",
"{.T.D F m.k.H O r *X&X%X$X&X&XA A 8.A $ < h O : 9.~ <.A 3.[ @X). X%X).!.%X#X$X$X&XOXf ` k.m.OXO     ",
"e +   & J +.) a e $X&X$X$X&XP.,.4.A $ , O $ : r 2.# ,.^ z. XXXD. X|.). X@X$X$X$X&XT.- f d 2 F .     ",
"      X # 2 ; @   ' *X&X&XOX<.0.0.l + = * # e r < # [ b.D.+XQ.S.).!.%X&XOX$X$X&X&X'   .         . . ",
"  . .       .       F L.&X{.k 0.9.< + o 1 q - @ 1 ( A.V.Z.!.B.D.Z.E.%X{.{.&X&X&Xz.&       .     +   ",
"      . .     . .     O ' J.X A ;.$ o ; a w # ; +.B.B.N.V.N.k.g.g.L.U.p.2.z.T.D     .   . O   = 1   ",
"    X         . O .     + n + . < $ 1 _ ( ; a f.B.B.V.V.M.h.( d d 2.p.u.x O #     . . . . .   1 1 1 ",
"1 ] 0 &         . . .   + < *   o q g.l.) ( k.C.N.V.C.l.+.H 4 & X x 0.4.z , .   . . . . .   @ * * # ",
"y Y i 3 # .     .   . . O O @ . ; +.C.k.g.b.B.N.M.b.h.) q O 4 #   < A n A 8 o . . . .       X 7 ,   ",
"p i K | D # O           . O X = _ C.M.l.b.N.N.B.h.) d &   . & -   . = h S , o .   . O   X   = i = . ",
"K.%...X.s.~ U &     . . X   @ ( M.C.N.N.N.N.M.h./ 3 O   . . . q O     = b < . .   . o & 3 i p 9 O . ",
"[.|.R.K.U.a...K #   . o * t ( M.A.V.N.N.B.l.g.H @     . X   . - %     @ b ,   +   o p ..K K p * @ O ",
"/.}.[.'.oX#XL.&.J       3 +.N.B./.A.V.M.k.) 4 +   . .         2 q     < M =   @ = z } | L p , @ + = ",
"D..X}._.[.+XoXE.N.` P - / E.F.V.].S.l.h.( ;     . . .         r F     , j .   X * j V Q m > = & # # ",
"V._..X`._.].].^.S.Q.D.+.v.Q.D.A.].'.m./ O       . o .     O ^ =.e o @ , *         + 6 b <   % - 2 - ",
"B.F.[.[.'._.~.F.A.Z.V.B.N.Z.Q.B.!.[.E.[ #   .   . .     e c.*.D 1 O X $ X   . .     . O ; u u s ) G ",
"V.A.].[.(./.~.A.N.N.b.N.N.V.A.A.D.`.A.H.g.%   .   .   - m.G._ a 1 =   . . .         F J.L.&.$.N.B.k.",
"k.k.W.[./.H.~.N.b.N.N.N.N.N.b.D.E.!.Q.^.A.)           H h.) 3 3 e .           O D T.&X*X}.~.~.H.B.B.",
"o.I _ _.Z.M.A.b.N.N.N.N.N.N.N.N.D.Q.S.Z.C.$.;       X % %   . ; X   .       r T.&X&X%X+X/.~.^.A.V.A.",
"4 I U &.c.H v.B.N.N.N.N.V.N.N.N.N.B.Z.b.b.B.f.d #   . . . . # O         w z.*X&X%X$X#X X/.~.H.A.B.F.",
". H { #.K.d H b.B.b.b.b.h.k.M.B.B.N.Z.V.b.b.V.V.f./ 2   . O #       ; ` ).&X&X$X$X$X#X}././.F.B.A.(.",
"O 2 { &.S.W.Z.S.S.A.A.b.$.E.R.g.l.M.B.F.b.N.A.A.A.C.k./ % & # ; w _ A.[.&X%X$X$X$X#X X'./.~.A.B.Q.'.",
"- - { h.S.[.[.'.].'.'./.H.oXOXw s ) g.C.A.V.D.V.V.A.A.A.f._ _ v.l.C.'.[.@X#X$X$X$X$X}._./.~.V.A.(.'.",
"u 2 I k./..X+X].[.'./.H.^.}.+X[     % d f.b.N.B.V.V.A.H.'.'.(.~.A.A./.'.$X#X$X$X$X+X[._./.G.V.^.}.+X",
"{ J o.A.].oX@X.X]./.G.G./.[.m.y .       O f ( k.A.H./.}.}.'.].'.^.H.G.].$X$X$X$X$X X[.]./.G.G..X$X$X",
"$.@.h.~.[.+X@X+X`._./.^.'.A.H     . .         d A.'.}..X}._._.}.}._.H.}.#X$X$X$X$X}.[._.~.G./.@X$X$X",
"k.M.A./.[..XoX+X].`.[.'.'.N.2   . . .       w f.C.D.W._.'.'._.}.+X}.'.+X$X$X$X$X$X.X}./.G.H.XX$X$X$X",
"B.~.~.H.`.}.[.@XXX}.W.^.(.n.O   . .   @ & ` l.M.N.b.M.A.Q.(.'.}..XoX.X$X$X$X$X$X@X.X].~.G.`.+X$X$X$X",
"A./._.H./._._.XX@X.XD.+.f.v.#   .   + _ v.C.M.N.N.N.b.b.b.V.H./.[.}..X+X@X$X$X$X@X.X_.G.H.`. X$X$X$X",
"H./.[.^.F.~.H._.@XoXS.% O ; O     w _ B.B.N.N.N.N.N.N.N.N.b.b.V.Q.(.}..X+X#X$X$X$X+X^.G./..X@X$X$X$X",
"H./.'.^.b.B.H./.}.oXx.U % %   . / b.C.N.N.N.N.N.N.N.N.N.N.N.N.b.b.F././..X$X#X$X#XXXG.H.}.@X$X$X$X$X",
"H.~.~.G.l.$.l.n.v.f.x.#.% . q f.C.B.N.N.N.N.N.N.N.N.N.N.N.N.N.N.B.A.B.Q.oX+X+X$X#X.X/.].@X$X$X$X$XXX",
"~.H.A.b.$.P s H ] x.Z.x.2 a b.A.B.N.N.N.N.N.N.N.N.N.N.N.N.N.N.N.N.b.N.`.+X+X+X X X.X.X$X#X$X$X$X$X/."
};
