/* XPM */
static char *result[] = {
/* columns rows colors chars-per-pixel */
"50 50 256 2 ",
"   c #010304",
".  c #030609",
"X  c #04090D",
"o  c #080A0D",
"O  c #0D0510",
"+  c #040A13",
"@  c #090E13",
"#  c #040C1D",
"$  c #080F1B",
"%  c #00031A",
"&  c #110916",
"*  c #1F061C",
"=  c #160A1E",
"-  c #0B141C",
";  c #030E24",
":  c #030E2A",
">  c #010628",
",  c #100C20",
"<  c #180C26",
"1  c #1D0D2F",
"2  c #081228",
"3  c #0E182B",
"4  c #161C2A",
"5  c #050E31",
"6  c #000B3C",
"7  c #021239",
"8  c #09123A",
"9  c #151F32",
"0  c #240C2D",
"q  c #2A0828",
"w  c #360732",
"e  c #300830",
"r  c #320A3A",
"t  c #132039",
"y  c #40083C",
"u  c #031243",
"i  c #02114E",
"p  c #081349",
"a  c #11194F",
"s  c #000F57",
"d  c #000B5C",
"f  c #041253",
"g  c #0B1A5E",
"h  c #172442",
"j  c #252D4A",
"k  c #343753",
"l  c #000C63",
"z  c #07166E",
"x  c #071267",
"c  c #0B1B76",
"v  c #193165",
"b  c #1E387D",
"n  c #122767",
"m  c #233671",
"M  c #480B44",
"N  c #5B054B",
"B  c #430750",
"V  c #4D0B58",
"C  c #540C56",
"Z  c #5C1056",
"A  c #690555",
"S  c #760F6E",
"D  c #6F1D68",
"F  c #44304D",
"G  c #3A4151",
"H  c #314A7F",
"J  c #3C4E74",
"K  c #35476B",
"L  c #44475D",
"P  c #554460",
"I  c #59647B",
"U  c #8D0A7D",
"Y  c #84056F",
"T  c #0D1F80",
"R  c #0C1C8D",
"E  c #0A189F",
"W  c #0F2088",
"Q  c #102584",
"!  c #122789",
"~  c #173889",
"^  c #172A98",
"/  c #020DAD",
"(  c #0E1FA3",
")  c #0714A9",
"_  c #0717BE",
"`  c #0411B3",
"'  c #173CA5",
"]  c #1430AB",
"[  c #0F24B0",
"{  c #3C568D",
"}  c #335B95",
"|  c #394C88",
" . c #2452BE",
".. c #355CAC",
"X. c #3C65B2",
"o. c #4D6595",
"O. c #696A82",
"+. c #757CB0",
"@. c #786CB3",
"#. c #4C6AA6",
"$. c #0A1EC9",
"%. c #102AC2",
"&. c #1335C9",
"*. c #0B21D0",
"=. c #112DDB",
"-. c #1035D4",
";. c #1432E4",
":. c #1637EC",
">. c #163CE8",
",. c #1C42C9",
"<. c #1540DA",
"1. c #2647C3",
"2. c #1B4EE9",
"3. c #1D5BED",
"4. c #1A53EE",
"5. c #1D56F9",
"6. c #1F60F2",
"7. c #2164FD",
"8. c #2B69E8",
"9. c #3A78CE",
"0. c #6177D5",
"q. c #8C1283",
"w. c #9A0C96",
"e. c #9E1B93",
"r. c #991489",
"t. c #953194",
"y. c #99229A",
"u. c #BF0CAB",
"i. c #BB1BB0",
"p. c #BB16B1",
"a. c #BC2FBA",
"s. c #B63CB4",
"d. c #AB27B9",
"f. c #96659E",
"g. c #836387",
"h. c #8360B2",
"j. c #D71DCB",
"k. c #DB27DA",
"l. c #C923C3",
"z. c #E426DC",
"x. c #ED2CE6",
"c. c #EA25E1",
"v. c #F72AEE",
"b. c #E53CE5",
"n. c #F939F6",
"m. c #DC45DF",
"M. c #C948CD",
"N. c #CF62D4",
"B. c #F04CFB",
"V. c #EA56F2",
"C. c #F564FC",
"Z. c #FC71FE",
"A. c #448CBC",
"S. c #3B8EC1",
"D. c #6987DF",
"F. c #7692EB",
"G. c #40A7F9",
"H. c #70BFF5",
"J. c #4D85CA",
"K. c #63D2F9",
"L. c #72D0F6",
"P. c #868FA0",
"I. c #98A6AC",
"U. c #A9A5B7",
"Y. c #9E90D4",
"T. c #99A9C4",
"R. c #B5B6D4",
"E. c #95BEE6",
"W. c #F483FD",
"Q. c #F796FE",
"!. c #FBA5FE",
"~. c #BED1E8",
"^. c #B1C6E7",
"/. c #88E2FE",
"(. c #8FF8FE",
"). c #B4EAFD",
"_. c #A2F7FE",
"`. c #B6FBFE",
"'. c #CCD7E1",
"]. c #C0E6FB",
"[. c #D3F4FE",
"{. c #E7F2FE",
"}. c #EEFDFE",
"|. c #F8FAF6",
" X c #FDFEFC",
".X c #EBE3EE",
"XX c black",
"oX c black",
"OX c black",
"+X c black",
"@X c black",
"#X c black",
"$X c black",
"%X c black",
"&X c black",
"*X c black",
"=X c black",
"-X c black",
";X c black",
":X c black",
">X c black",
",X c black",
"<X c black",
"1X c black",
"2X c black",
"3X c black",
"4X c black",
"5X c black",
"6X c black",
"7X c black",
"8X c black",
"9X c black",
"0X c black",
"qX c black",
"wX c black",
"eX c black",
"rX c black",
"tX c black",
"yX c black",
"uX c black",
"iX c black",
"pX c black",
"aX c black",
"sX c black",
"dX c black",
"fX c black",
"gX c black",
"hX c black",
"jX c black",
"kX c black",
"lX c black",
"zX c black",
"xX c black",
"cX c black",
"vX c black",
"bX c black",
"nX c black",
"mX c black",
"MX c black",
"NX c black",
"BX c black",
"VX c black",
"CX c black",
"ZX c black",
"AX c black",
"SX c black",
"DX c black",
"FX c black",
"GX c black",
"HX c black",
"JX c black",
"KX c black",
"LX c black",
"PX c black",
"IX c black",
"UX c black",
/* pixels */
"          . - X             X       . .   .                             . # .                       ",
"    . .   . - @             . X   . .       .                                                       ",
"      . X @ @ .               @     . .                                                             ",
"@ @ @ o @ @         .         + X X X X .                                       . .                 ",
"@ @ @ @ @                               X                   .         . .   . . . X                 ",
"X   X . X @ @                     .     + +               . . .     . .     + X   X               . ",
"X   X         X                 X       @ + X             @ +     X .   . . X . .               . X ",
"  .     . - -                           .   .         X X X .   . @   + X                       @ @ ",
"          X .   . .                 .   .   X           X X     +     +                         @ . ",
"  . .   .       @ X                   . .   .           X     X . . . .   .   .               X .   ",
".       . . .     X               .   . .             X     . X   .   X     .                 .     ",
"X . .       .     .                 .       .       @   O O         .     .                         ",
"X X .     .                         .         q.S   Z e e.=   O q   + .                             ",
"  . X .                       . X     & q.C * d.C.s.e.b.m.y q.j.q.    .                             ",
"  . @           .                       m.b.u.x.V.C.x.B.b.x.n.n.i.*                               . ",
"                            . & O   S y M.s.N j.j.i.U j.i.i.p.j.x.q   w                       . + . ",
"                          .   O s.t.m.n.n.y.  q A N   M q N * q.x.l.k.e.                      . @   ",
".                           O   N.!.W.z.j.w.    * 0   . y X   = i.v.B.e               . X           ",
"                            r a.N.W.V.A w M + . X       X     0 A r.z.e.D             . .   .       ",
"                      4 I.I.f.Z.Q.b.j.O   @ @ + X             @ + q z.Z.a.O.R.'.U.G       .         ",
"                h G L .X X Xs.V.C.u.A q X   @     . X .     . @ X q r.n.w.R. X X X XP.4 J : - ; h G ",
"        ; v K > m ~. X X|. Xf.k.k.N .       + .   . X X     X X   X C v.U g. X|.|. X X^.m . . . H  X",
"j $ 3 | 8.H.}   . I  X X X.Xt.w.u.q       . +   . . .       X # .   e c.p.U. X|. X X X Xt     + n [.",
"G j j ! ,./.n 4 . . T. X XR.Y N M &       . +   X   . X       b 8   < U w J {. X{.].}.^.3     H ,.F.",
"- X @ ~ ^ 0.~ o.X   # J { H C w     . .   . .   .       X     g f   & M 0 . K ~.o.f m :       9 g b ",
"X   X t 2 3 $ ;           . , = X         . @ X .       + X   ; 1.2 & @ r 0   ; .       .       .   ",
"                          X r 0 .         . + . X     . + +   + W 6     B B .     . + @             ",
"                .     .     @ X   | 4     X + X X .   . .     % W o.    C B   .   X + X         X @ ",
"    @ .       . X . . @ .       - F.j       . X + .   . .   k Y.h.I.    V r   @   X + @ @ + . X     ",
"-     .   X .   X .             - 0.d.Y.L       X . .     P }.{.@.~..   M =   X X + X @ .           ",
"j 3 @                         X   T.@.E.[.+.      X .   F ].`.L.#.T.; $ 0 X   .   .             @ 4 ",
"+ X @ @ @ .                   @   O.+.S.`.`.}     X   . D.(._.S.{ J - X <           X 9 2 # 4 + - @ ",
"        . + .       X         . . 9 X.! K.(.G.%   .   1 G.K.G.x m t .   @           X # + + +       ",
"  X X X X + + + X + ; # .           ~ a a ' ' :       8 Q s > O 8 -     X     . . + + + + + X X + X ",
". + + + + + + # ; ; : ; @ .         ; u       X     +         + +             @ , # ; # + + + + + + ",
". + + + + # # ; : : ; # ,             :             @ +       :               X 1 # ; # ; # + + + + ",
"  + + + + : ; : 7 : # , <             + #           + + # X + +                 0 , # + ; : ; # + + ",
"  + + + # : : 7 7 7 # < <         .     3     - X X X @ h # - .                 0 , + : ; : : : ; + ",
"+ ; : ; : 7 u u i i ; = <         X .   . @ X - + + + + + # @                   0 & + 7 7 7 : ; ; ; ",
"+ ; : : 7 u u s l l 6 = <         X .     . .   + + +   + X                     1 X : f i u 7 : ; ; ",
"; ; : 7 7 u l l z ^ T # &                                                     . & X x l l i u 7 7 5 ",
"; : 7 7 u d d Q ( _ $.p .                                                         f [ W l l l u u u ",
": 7 u i l l W E _ ;.:.R                                               . #       5 =.*.) ^ T l d u u ",
"7 u i l x ! / *.;.;.:.:.5   u u                                         T g     &.:.;.=.[ ( ^ x d f ",
"u s d c ! ) $.;.>.2.3.7.] g &.:   . .                                 . g ! W ' 7.4.;.;.;.*.) ^ z l ",
"s l c ^ ` =.;.>.3.6.3.3.:.%.W 2   X .                                 Q c f 5.7.3.3.3.2.;.;.*.) ( c ",
"l c ( / =.;.;.3.6.3.6.5.R ; ; %.f                                   : ] # 6 &.4.3.6.6.6.>.;.:.=./ ) ",
"! ( _ ;.;.;.;.:.5.4.<.( 6 5 # E z X                         .       u :   ..J. .&.-.3.5.;.;.;.;.=./ ",
"/ _ ;.;.;.;.;.[ R ~ X.A.9.f   + 5 + +                       .     . #   a H._.).E.X.Q [ ;.;.;.;.;.=.",
"` ;.;.;.;.=.z v A.L././.L.'   X + + + X                     .     . X .  ./.).`.`.).H.} x [ ;.;.;.;."
};
