/* XPM */
static char *result[] = {
/* columns rows colors chars-per-pixel */
"50 50 256 2 ",
"   c #000304",
".  c #02060B",
"X  c #040A0E",
"o  c #010713",
"O  c #0A0712",
"+  c #040B14",
"@  c #0C0E15",
"#  c #000619",
"$  c #040C1C",
"%  c #0C0B1C",
"&  c #130D16",
"*  c #150E1C",
"=  c #0B1116",
"-  c #0C131B",
";  c #0D191F",
":  c #12151D",
">  c #030D23",
",  c #030E29",
"<  c #120D24",
"1  c #1A0D24",
"2  c #1E0D2B",
"3  c #0A1222",
"4  c #0F1A24",
"5  c #071028",
"6  c #0D172A",
"7  c #111721",
"8  c #131D26",
"9  c #19152C",
"0  c #111E29",
"q  c #000A32",
"w  c #000439",
"e  c #000A3E",
"r  c #0D1931",
"t  c #04133E",
"y  c #1F1232",
"u  c #111A31",
"i  c #1B1C31",
"p  c #131E3A",
"a  c #220D32",
"s  c #290D32",
"d  c #250C3B",
"f  c #2E0C3C",
"g  c #340C37",
"h  c #350C3D",
"j  c #231039",
"k  c #261A3D",
"l  c #2E1B3C",
"z  c #172126",
"x  c #1C2326",
"c  c #13202A",
"v  c #19222D",
"b  c #1B2435",
"n  c #1E2835",
"m  c #162138",
"M  c #1E273A",
"N  c #1D293E",
"B  c #222737",
"V  c #222937",
"C  c #242B3C",
"Z  c #282E3E",
"A  c #071745",
"S  c #0B1A46",
"D  c #101F48",
"F  c #2B0B44",
"G  c #330A45",
"H  c #3A0C44",
"J  c #291042",
"K  c #321143",
"L  c #3B1246",
"P  c #321B44",
"I  c #122040",
"U  c #1B2244",
"Y  c #15234A",
"T  c #1A284D",
"R  c #182657",
"E  c #1E2E57",
"W  c #232D44",
"Q  c #222E4B",
"!  c #2D2948",
"~  c #332D4D",
"^  c #2C3546",
"/  c #26314E",
"(  c #2D394F",
")  c #303A4C",
"_  c #3F2650",
"`  c #382950",
"'  c #253251",
"]  c #283453",
"[  c #2C3A54",
"{  c #23335A",
"}  c #2D3B5C",
"|  c #323C51",
" . c #1B3875",
".. c #243360",
"X. c #2A3B62",
"o. c #21356C",
"O. c #303C61",
"+. c #460749",
"@. c #4A074A",
"#. c #430D4A",
"$. c #4A0A4E",
"%. c #40144B",
"&. c #540A53",
"*. c #5C0B53",
"=. c #6C0B56",
"-. c #630A58",
";. c #740B58",
":. c #7F0B5B",
">. c #482656",
",. c #403F62",
"<. c #3B4054",
"1. c #364359",
"2. c #3B4559",
"3. c #3D485F",
"4. c #314165",
"5. c #3B4A64",
"6. c #354469",
"7. c #3B4B6C",
"8. c #414A64",
"9. c #455166",
"0. c #4A546B",
"q. c #5A5F6E",
"w. c #435372",
"e. c #4C5A73",
"r. c #515D74",
"t. c #5A6275",
"y. c #54627B",
"u. c #59667D",
"i. c #666E7F",
"p. c #244380",
"a. c #31508C",
"s. c #576683",
"d. c #5B6780",
"f. c #5B6985",
"g. c #606B84",
"h. c #646E88",
"j. c #627086",
"k. c #63738D",
"l. c #6A778F",
"z. c #6A788F",
"x. c #687691",
"c. c #6C7B91",
"v. c #727F94",
"b. c #707F99",
"n. c #74839B",
"m. c #78879D",
"M. c #7D8C9F",
"N. c #7E8CA2",
"B. c #808FA1",
"V. c #8492A3",
"C. c #8896A5",
"Z. c #8896A5",
"A. c #8B99AA",
"S. c #909EAB",
"D. c #93A1B0",
"F. c #A3B1C7",
"G. c black",
"H. c black",
"J. c black",
"K. c black",
"L. c black",
"P. c black",
"I. c black",
"U. c black",
"Y. c black",
"T. c black",
"R. c black",
"E. c black",
"W. c black",
"Q. c black",
"!. c black",
"~. c black",
"^. c black",
"/. c black",
"(. c black",
"). c black",
"_. c black",
"`. c black",
"'. c black",
"]. c black",
"[. c black",
"{. c black",
"}. c black",
"|. c black",
" X c black",
".X c black",
"XX c black",
"oX c black",
"OX c black",
"+X c black",
"@X c black",
"#X c black",
"$X c black",
"%X c black",
"&X c black",
"*X c black",
"=X c black",
"-X c black",
";X c black",
":X c black",
">X c black",
",X c black",
"<X c black",
"1X c black",
"2X c black",
"3X c black",
"4X c black",
"5X c black",
"6X c black",
"7X c black",
"8X c black",
"9X c black",
"0X c black",
"qX c black",
"wX c black",
"eX c black",
"rX c black",
"tX c black",
"yX c black",
"uX c black",
"iX c black",
"pX c black",
"aX c black",
"sX c black",
"dX c black",
"fX c black",
"gX c black",
"hX c black",
"jX c black",
"kX c black",
"lX c black",
"zX c black",
"xX c black",
"cX c black",
"vX c black",
"bX c black",
"nX c black",
"mX c black",
"MX c black",
"NX c black",
"BX c black",
"VX c black",
"CX c black",
"ZX c black",
"AX c black",
"SX c black",
"DX c black",
"FX c black",
"GX c black",
"HX c black",
"JX c black",
"KX c black",
"LX c black",
"PX c black",
"IX c black",
"UX c black",
/* pixels */
"          . = = = = = = = = = = & @ @ + 2 $.$.$.&.*.$.s H &.h - @ = @ @ = = = = = = = = = = = = = = ",
"          . = = = = = = = = = 4 0 4 4 s #.-.;.;.=.-.$.s g #.&.@.s @ @ @ = = = = = = = = = = = = = = ",
"      . X = = = = = = @ = = = 0 4 0 h &.-.&.=.:.-.h h @ * $.=.:.&.s = = @ @ = = - - = = = = = = = = ",
"+ @ + X @ = = = = = = = = = @ * - 9 $.&.h h 2 $.&.h 1 * * 2 *.:.-.$.1 + = @ = = ; = = = = = = = = = ",
"= = = = = = = = = & = @ = @ - - s h s s 2 G f @ s f * & * h &.#.*.&.2 @ @ @ @ = - = = = = = = = = = ",
"= = = = = = = = & & @ : - - c - g f @ @ * 2 h 1 @ 1 2 & * 2 * 2 &.&.&.h @ @ - = = - = = : @ @ = = = ",
"= = = = = = = = @ & : 4 0 c 4 2 $.H f H a * @ 2 h 1 & * * 1 1 1 1 s $.g - - 3 = = 0 8 - 7 7 7 * - ; ",
"= = = = = = = = = = = @ : c - h &.f 2 H a h 2 1 1 s 1 @ 1 1 a 1 s a h h 4 c 4 - - - 8 0 0 c 0 4 c 0 ",
"= = = = = = = = @ @ @ = 4 c 4 2 s * + 2 2 & * * X @ * & @ * 1 2 2 * s H 8 4 c 0 4 - - - 4 ; 4 b ^ 5.",
"= = = = = = = = : 0 4 4 0 4 y H f & * * % + . = 4 . - 9.9.e.Z O * 1 1 s s 4 4 - 8 Z ) 1.Z v | ] t s.",
"= = = = = = @ = 0 0 0 0 4 4 9 #.s * @ .   8 1.u.u.q Y M.V.M.Y Q i @ 2 d 9 ; - ^ j.v.v.n.z.z.z.u.t { ",
"8 8 8 8 8 : : 4 0 0 0 x x z 9 &.#.2 . - 3 Y M.A.v.e R C.D.w.S 7.t 8 & 1 * 8 9.n.V.V.V.V.N.V.Z.A.6.q ",
"0 0 0 0 0 0 0 c 0 x x x x 0 2 $.s @ . 6 f.e f.D.v.e E A.M.A w.t w.^ O & & ^ x.B.V.V.V.V.V.V.C.Z.y.> ",
"0 0 0 0 0 0 0 8 0 x x x x x - * & . v Y y.X.R S.v.e { D.w.E O.E s.q - & 1 j t.N.V.V.Z.V.C.A.Z.e.^ 3 ",
"0 8 0 0 0 0 0 4 4 z z x v V - & & . 5 } Y e.e m.v.w X.S.' w.t w.I } Z @ a y 2.n.A.c.Y S ..6.O.- . # ",
"0 v x x v - 8 ) 3.3.| W G P 1 * $ B Y ' I Q p r.c.w 6.M.U ~ I { I z.Z % L L P j.S.e.w A A q     X + ",
"0 8 x z 3 ^ d.c.b.b.j.| +.$.H C + ) ,.u 4 + @ ! y.e 7.f.2 O c U ` 0.v ; %.$.H 0.Z.{ e z.j.N ^ c.A.D.",
"8 x 0 - 9.n.B.V.V.V.k.` +.$.$._ c m #.$.L %   . 2.t 6.~ . . h @.*.>.c n %.$.+.<.d.e Y k.f.v.F.F.F.N.",
"c 0 + 0.m.Z.V.V.V.V.k.%.@.$.@.%.W c 1. .,.g 1   Z t 4.v & g l X.[ 9.4 C $.$.@._ W > Y V | r.0.3.) V ",
"x o ^ n.B.V.B.V.Z.N.t.H @.$.$.@.~ ^ <.p.7.q.! o $ t / @ d t.i.p.O.2.M #.$.$.$.#.$   ; ; b ) 3.| Z m ",
"$ 0 k.M.C.V.V.N.Z.V.e.H @.$.$.$.#.( 1.j ! ,...i + q N P R a.O.U m 1.M +.$.$.#.#.O + 4 V 2.<.V 4 4 4 ",
"Q A b.N.n.Z.Z.E Y s.y.L @.$.$.$.$.9 4 W Y Y t | + # 4.h.! U S ' U c 4 #.$.$.H a 2 4 0 0 4 4 4 4 0 0 ",
"x.w 7.N.0.9.8.q S t p L $.$.$.$.$.s X I T A w.g.6 > y.N.k.S O.Y m . a $.$.$.#.2 3 - 3 4 0 3 3 4 5 5 ",
"M.E A n.j.6   $ 8.0.m f $.$.$.$.$.L o 5 S w.n.v.r.3.c.b.B.w.t ' $ X l $.$.$.$.9 . + , 5 - + - 4 4 0 ",
"y.e.w T 5 #   o > c B B L K #.$.$.L % o 3.h.2.j.z.l.x.z.e.e.5.o X 3 P $.$.$.$.y   $ - 3 4 0 c c 0 0 ",
"E f.e e T 1.n > > + X y y K $.$.$.L < o 4 9.u.s.x.z.k.f.e.f.^ . o 3 P $.$.$.$.d   . = c c 0 0 0 0 0 ",
"t f.Y D c.x.t.| u $ X % < #.$.$.$.$.< $ . X <.u.f.r.u.u.y.V . $ o - K $.$.$.#.k . + 0 c 0 0 0 0 0 0 ",
"> 1.' q e.u.9.) u > +   v %.$.$.$.G ^ 9.n     n 9.( 1.9.0 . Z Q r $ G $.$.$.L k O 0 c 0 0 0 0 0 0 0 ",
". + 3 . 4 u 5 $ > 3 + + i P $.$.$.G 9 5.| p b   3 V v o . V g.O., $ G $.$.$.f d . + c 0 0 0 0 0 0 0 ",
". . $   . + + + @ @ + < k P $.$.#.J U t , X.d.N #       c e.l.3.I 4 F $.$.$.s 9 O X 8 0 0 0 0 0 0 0 ",
". . $   . = + . .   . < J l $.$.G F ! w.} 7.g.r.W .   . 5.f.l.f.5.3 F $.$.$.l * -   * c 0 8 0 0 0 0 ",
".   +     - 0 v $ o + a F #.$.$.H d i r 1.f.f.d.0.-   8 e.h.l.8., 5 F J F F F @ o . - v 0 x 8 0 0 0 ",
"+ . + - b V Z n . o 1 k G @.$.$.f 2 [ 7.I 7.k.f.w.4   n e.d.k.4./ M F F F F F % X @ x c 0 8 z 0 0 0 ",
"V V V Z W C C C - . y J F P K d a 9 , I 5.s.f.r.w.-   0 9.y.u.e.N $ y F F F F < + 4 v z 0 0 0 0 0 0 ",
"C Z C C Z V C Z n o 2 d j j j a 2 - b u q 4.y.0.( +   # m | 3.M # $ < F F F F % + v c x 0 4 0 0 0 0 ",
"V C C C C V V Z v + 1 d d d d y % o $ m Q [ 1.b $ .   $ > $ 3 $ $ X $ d F F d O X c 0 c 0 0 0 0 0 0 ",
"n C C C C C V Z v . % j d F d < o - > > 5 3 > > $ .   3 V 3 $ > > X   < a d 2 . = v c z 0 0 0 0 0 0 ",
"v C C C C C V C V + 2 y a a 2 +   + > , > > v 5 > .   M } W > > > = + < y y 2 + 0 z z x 0 0 0 0 0 0 ",
"V C C C C C C V Z b 2 a y 2 v - . . + $ > 3 Z V >   . C ( n $ > $ X 3 z 9 a % - c 0 0 x x c 0 0 0 0 ",
"B V C C C C C V V Z y a a y Z v . + + + + $ 0 c @   . 6 4 = $ + . X 0 v 4 1 @ 0 c 0 0 0 x x 8 0 0 0 ",
"V Z C C C C C C V C C 9 2 B V 4 o . + 0 > , $ $ > + $ $ $ - - X + + - 0 0 @ - c 0 4 0 0 0 0 0 8 0 0 ",
"0 C Z C V Z C C V C Z v 3 V 4 > + X . X $ + > 3 > $ + - $ + + . .   X 4 0 4 z z 0 8 8 0 0 0 0 x 8 0 ",
"0 z C C W Q Q Z Z C C C M Z 6 > +   . - . . $ + + + + + X . $ $ . + + 4 c z x 8 v x x 8 8 x x x 8 8 ",
"0 0 B Z W ' ' Z Z / Q W Z 0 + > $     . X .         + + X + >   . + + - c z x x x x x 8 x x x x 8 8 ",
"0 0 C / / / / W W ' ' ^ n > o + $ $ .         X . .   X + $ + . $ , $ 3 ; v x x x 0 8 8 v x x x x x ",
"0 0 V / ' / / / / / ^ 3 $ > > $ . $ , $ .         .       o $ $ , $ X N v - z x x x x x x x x x x x ",
"0 0 b / ' / / ] W v 0 4 5 > > > + . $ , , > $ + + + + $ > > $ $ + o 3 ] ] 0 - = 8 x x x x v 0 8 8 x ",
"0 0 M ' ' ' W c 4 b W ] Z 6 , > , + + + $ $ > > > > $ > > X + + + + m [ Y E E m - = 0 x x 8 0 8 8 8 ",
"z 4 b Z W c 4 n / ] ] ] W r , > + + + > $ + + + + + + + + X + + $ * v Y t o.o.o.{ M - ; x 0 0 8 0 0 ",
"4 0 c 8 4 M ' ] ' / / ' ] r > < +   + , , > > > > $ > > > > 5 $ @ 1 9 > m o.o.o...] ' r @ 0 0 0 0 0 "
};
