/* XPM */
static char *result[] = {
/* columns rows colors chars-per-pixel */
"50 50 256 2 ",
"   c #010304",
".  c #02060A",
"X  c #05090E",
"o  c #030711",
"O  c #040A14",
"+  c #0A0B13",
"@  c #00061C",
"#  c #040C1D",
"$  c #0B0D1B",
"%  c #110C14",
"&  c #140E1A",
"*  c #180F1F",
"=  c #0B1117",
"-  c #0B141C",
";  c #11151D",
":  c #000327",
">  c #040E23",
",  c #00072D",
"<  c #030E29",
"1  c #120D21",
"2  c #190E23",
"3  c #1C0C2C",
"4  c #0B1524",
"5  c #0E1A25",
"6  c #07132F",
"7  c #08132E",
"8  c #0E192C",
"9  c #121622",
"0  c #121D26",
"q  c #111E29",
"w  c #000535",
"e  c #000D33",
"r  c #000339",
"t  c #00083C",
"y  c #1D0730",
"u  c #091333",
"i  c #101B30",
"p  c #220B35",
"a  c #2B0D34",
"s  c #211031",
"d  c #27123B",
"f  c #162127",
"g  c #1B2225",
"h  c #142029",
"j  c #1A222B",
"k  c #162137",
"l  c #1D2533",
"z  c #1B243C",
"x  c #212936",
"c  c #242B3B",
"v  c #292E3F",
"b  c #010F44",
"n  c #061444",
"m  c #0E1E42",
"M  c #2D0D45",
"N  c #360B40",
"B  c #3D0C42",
"V  c #2C1645",
"C  c #281941",
"Z  c #132144",
"A  c #1E2945",
"S  c #14244B",
"D  c #122450",
"F  c #1B2D58",
"G  c #232E42",
"H  c #292E45",
"J  c #232E4D",
"K  c #293143",
"L  c #26314D",
"P  c #2C374A",
"I  c #36364C",
"U  c #343C4E",
"Y  c #262B51",
"T  c #273251",
"R  c #2A3552",
"E  c #2E3A52",
"W  c #23325B",
"Q  c #2C3B5C",
"!  c #333F55",
"~  c #1F336A",
"^  c #243664",
"/  c #20346E",
"(  c #460B45",
")  c #410B49",
"_  c #4C0B49",
"`  c #500647",
"'  c #561E4C",
"]  c #560B51",
"[  c #5A0F54",
"{  c #620B59",
"}  c #6E0B58",
"|  c #7A0B58",
" . c #4C2943",
".. c #4E2D56",
"X. c #462A5B",
"o. c #394255",
"O. c #35425B",
"+. c #3A465E",
"@. c #3F4B5F",
"#. c #314164",
"$. c #3D4B60",
"%. c #3A4A6B",
"&. c #3B4C71",
"*. c #3F5372",
"=. c #464C5E",
"-. c #54485E",
";. c #424E62",
":. c #465165",
">. c #43536C",
",. c #485369",
"<. c #4D596E",
"1. c #545B6E",
"2. c #414E72",
"3. c #435573",
"4. c #485974",
"5. c #4D5E7B",
"6. c #535E74",
"7. c #54627D",
"8. c #5A657D",
"9. c #830C5A",
"0. c #566481",
"q. c #5A6781",
"w. c #5C6A86",
"e. c #5E6C89",
"r. c #616E88",
"t. c #65738B",
"y. c #6A768C",
"u. c #6D798F",
"i. c #687690",
"p. c #6B7A94",
"a. c #707F97",
"s. c #728196",
"d. c #728196",
"f. c #73829A",
"g. c #75849C",
"h. c #76869C",
"j. c #75849B",
"k. c #78889E",
"l. c #79899F",
"z. c #7C8B9F",
"x. c #7E8D9F",
"c. c #7B8A9F",
"v. c #808F9F",
"b. c #808FA3",
"n. c #8290A0",
"m. c #8594A6",
"M. c #8492A2",
"N. c #8A98A7",
"B. c #8F9DAB",
"V. c #8F9DAB",
"C. c #92A0AC",
"Z. c #92A0AC",
"A. c black",
"S. c black",
"D. c black",
"F. c black",
"G. c black",
"H. c black",
"J. c black",
"K. c black",
"L. c black",
"P. c black",
"I. c black",
"U. c black",
"Y. c black",
"T. c black",
"R. c black",
"E. c black",
"W. c black",
"Q. c black",
"!. c black",
"~. c black",
"^. c black",
"/. c black",
"(. c black",
"). c black",
"_. c black",
"`. c black",
"'. c black",
"]. c black",
"[. c black",
"{. c black",
"}. c black",
"|. c black",
" X c black",
".X c black",
"XX c black",
"oX c black",
"OX c black",
"+X c black",
"@X c black",
"#X c black",
"$X c black",
"%X c black",
"&X c black",
"*X c black",
"=X c black",
"-X c black",
";X c black",
":X c black",
">X c black",
",X c black",
"<X c black",
"1X c black",
"2X c black",
"3X c black",
"4X c black",
"5X c black",
"6X c black",
"7X c black",
"8X c black",
"9X c black",
"0X c black",
"qX c black",
"wX c black",
"eX c black",
"rX c black",
"tX c black",
"yX c black",
"uX c black",
"iX c black",
"pX c black",
"aX c black",
"sX c black",
"dX c black",
"fX c black",
"gX c black",
"hX c black",
"jX c black",
"kX c black",
"lX c black",
"zX c black",
"xX c black",
"cX c black",
"vX c black",
"bX c black",
"nX c black",
"mX c black",
"MX c black",
"NX c black",
"BX c black",
"VX c black",
"CX c black",
"ZX c black",
"AX c black",
"SX c black",
"DX c black",
"FX c black",
"GX c black",
"HX c black",
"JX c black",
"KX c black",
"LX c black",
"PX c black",
"IX c black",
"UX c black",
/* pixels */
"          . = = = = = =   x i.m.#.r W c 4 5 0 q q q = + + 2 B } | | N $ = = = = = = = = = = = = = = ",
"          . = = = = = X 0 8.z.0.t n 6.l 5 q q q 5 = + & & 3 ] | 9.| { a O = = = = = = = = = = = = = ",
"      . X = = = = = O ; 8.f.g.A r Q @.5 0 q q 5 $ 2 + & % p N ( ] ] 9.( = = = = - = = = = = = = = = ",
"O + O X + = = = = = . P g.g.6.@ n K 4 5 q q q $ & & & $ & * % 1 1 [ 9.{ a = = = = = = = = = = = = = ",
"= = = = = = = = = % > #.B.l.x @ e 4 5 0 0 q q & 2 & O & & & a a 2 N _ } 3 O = = = = = = = = = = = = ",
"= = = = = = = = % g Z Q C.b.l : # 5 q q q q 0 & & 2 * & 2 2 2 & 2 & p ] ) & = = = - = = ; + + = = = ",
"= = = = = = = = + v W n N.n.8 , - 5 q q 0 q 8 + + % & % & % % 2 2 2 2 _ _ 9 = - - 0 0 - 9 9 9 ; - - ",
"= = = = = = = = . c 7.w 7.8.t < 5 q q q q q # O j 4 # U <.;.o.O % 2 2 N B 0 5 - - - 0 h h h h q q q ",
"= = = = = = = = + u a.D w n b 4 f q q q q =   K r.S n g.x.m.#.m U + 2 & B a q q h q q q q q q q q q ",
"= = = = = = = = 0 e 3.l.n t < O 5 q q 5 X   9 t.b.F n n.B.d.n t.S 8 % & 3 q q q q q q q q q q q q q ",
"= = = = = = + = l J t z.g.Z     . .     .   U b.N.W n n.B.Q 4.%.^ <.O + & 0 q q q q q 0 5 q q q q q ",
"0 0 0 0 0 ; ; - f 8.e m >.l 4 = O O O $ X 9 Z x.C.W S N.g.D 0.n w.m 4 & & 0 h 0 9 9 - - 0 q q q q q ",
"q q q q q q q 5 l u.5.,   X 0 q q 0 -     ! m 8.C.^ D C.3.Y H >.%.m o.& ; q q q q 0 5 5 q q q q q q ",
"q q q q q q 0 - ;.y.t.=   .     .     = 4 z l H a.^ D l.I v 8 5.m 5.=.9 f 0 q q q q h 9 9 q q q q q ",
"q 0 q q q q 5 l <.8.U   - 5 = = = - 5 c K . .   U W F r.= . o C ) ..G - l 0 q q 5 q q q 0 q q q q q ",
"0 j g j j g 9 U o.G -   q q q q q q 5 :.I ` 2   0 Z W o.  1 _ [ B X.q G l 0 q g q q q q q 0 0 0 g 0 ",
"0 0 g g c x q @.c . . - q q q q q 4 P w.U  .' 2 O 7 J j O .. .2.^ ;.- H 3 0 f f q 0 q q q 0 q 0 g 0 ",
"0 g g g c c l $.O   = q q 0 0 0 5 5 <.u.! -.1.C $ # A 4 3 ,.-.X.V U c 9 y y 5 f f q 0 q h q q h 0 0 ",
"q 0 g c c c c P   - 8 q q 0 q q 4 c t.f.K u W > # , W U 1 c R z Q T j $ V C j g g g g g g q h h q q ",
"j q g c c c l 8 o 8 8 q f 0 q q 4 K y.a.k 3.S %.l @ W l.y.S &.F S 9   & ;.8.;.0 g j f h 0 q q h q q ",
"g 0 g c c c j @ 4 q q 0 0 q q q 5 x r.t.>.W W l.8.G 6.m.B.w.n 4.A = 0 0 j 8.p.+.0 g f f 0 q q q q q ",
"0 0 l l c c l > 8 8 q 0 0 0 q q 0 5 <.<.u S ;.t.p.y.t.f.g.o.u A 0.y.u.t.y.g.l.p.o.9 f 0 q 0 q q q q ",
"0 g l c c c x z l > 5 q q q q 5 q 4 O.G . 6.:.6.l.p.f.p.,.m S b t n %.M.m.M.M.z.w.c 0 q q 0 q 0 q q ",
"g g c c c c c c c 4 5 q q q q 4 0 0 l = . 4 ;.r.p.d.l.,.8.l.5.t n %.t.M.n.v.n.M.p.U - q q 0 q q q q ",
"x c c c x c c c c 4 4 q q q 8 - O 8 > O O O o c 6.@.v 8.f.+.r ^ x.C.n.l.M.v.x.x.i.+.- 0 q 0 q q q q ",
"c c c c l c c x 0 5 > 8 4 5 > > . O 2 2 O - X   = x K :.c @ #.g.g.g.x.a.z.z.l.g.t.K - q q 0 q q q q ",
"c c l c c c c x j - 4 4 4 0 5 4 . O p 2 o O o .   . $ .   . 0 +.t.p.a.p.p.p.p.p.8.q = q q 0 q q q q ",
"c c c c c c c c c ; O # > > # O . 2 d 3 . . o o > , : , P =.P l U i.p.p.p.p.p.w.$.# - q q q q q q q ",
"c c c c c c c c c c O O # # O + s M M 3 . l O.%.2.>.T e n 2.p.r.w.t.y.t.t.t.w.:.q # 5 q q q q q q q ",
"c c c c c c c c K c O . O 1 p M ) ) M $ O m m m Z +.t.p.J : 3.l.y.0.! O.@.,.K > @ 4 q 0 q q q q q q ",
"c c c c c c c v c = o O 3 p M M ) ) p > Q 5.8.Q R n w 3.l.Z w 0.t.7.8 . > 4 # @ - h q 0 q 0 q q q q ",
"c c c c c c v q o o $ 3 p p p d p y @ c $.o.K @.t.e.W : %.0., m 0.+.> # # O > O g g g h q g 0 q q q ",
"c c c c c v x O o O 3 3 2 l c H L R G 0 - x ! 7.w.e.i.Q , 5.Q , G 0 O = > $ > 0 q q g q 0 0 f q q q ",
"c c c c c c c O o O $ K $.>.3.>.<.8.8.5.>.>.<.0.w.w.w.4.< z +.# O O = # O = f f q q h g q q q q q q ",
"c c c c c c v 9 . - +.4.<.8.6.6.w.8.q.e.w.8.0.w.w.0.3.K X . O   O # X . - q f g g g g g 0 q q q q q ",
"c c c c c c K 0 4 @.3.<.6.0.<.8.7.6.w.q.w.e.w.6.0.3.G @ X   X   O O + - j q 0 h g 0 0 0 q 0 q q q q ",
"l c c c c v l 4 @.3.3.>.3.*.>.4.*.>.1.<.4.8.6.>.>.! # > O . # . o + + 0 j q q q 0 0 0 f q q q q q q ",
"l c c c v l 4 O.>.3.*.*.*.*.*.3.*.*.>.3.3.O.E >.$.8 # > o . # .   . = q 0 q h q 0 0 0 f q q q q q q ",
"x c c v c 4 E >.3.3.*.*.3.*.*.3.3.3.>.@.c # E >.G o o o . X .   X = h q 0 q q 0 q q q g g h q q q q ",
"l x v c 9 L ;.>.3.*.>.3.3.>.>.3.>.;.O.8 . j Q A X   .     .   . $ q h 5 0 q 0 q 0 q q q g g 0 0 q h ",
"x v c ; c ;.;.>.>.;.>.>.>.$.O.E P z 4 o O - =     .   X . . . . $ 5 q 0 q q q q q 5 q q q q q 0 q q ",
"j x = z +.;.@.@.@.;.@.E G k 4 > # # O O .       . . O = $ X . O = j 4 q 0 0 g 0 q 0 0 q q q q g 0 q ",
"5 = z O.;.@.@.@.;.O.A # O @ O O # = O     . . X . O O O O   O o = T 0 5 0 0 g 0 j g g 0 0 g g g 0 0 ",
"- c Q ;.;.@.$.;.Q A O o $ O = $ = O .     .         O o . O > . i Q W ; 0 g g g g g g 0 g g g g 0 0 ",
"L T ! @.+.O.O.Q G # o O O O O O X   . . . .   X .   . O # # O # A ^ W J l 0 0 g g 0 0 0 j g g g g g ",
"T T R T T T G q O o O O O o . O . .   . > > > > > > > > O O @ 8 E k m / ^ W z 9 0 g g g g g g g g g ",
"L L T J q # o o O o   . o O o .   .   . O O O O # O O O O o # c z > W / / / W L q 0 g g g j 0 0 0 g ",
"L L T l . o o . o . . - O o o   . # > > O O # # # # > < > . & l # z ^ / / / / ^ R z ; g g 0 0 0 0 0 ",
"L L K 9 o O O . o 0 G R A 7 o   . > < < < < < < < < > > > . % $ 4 P W ~ ~ ~ ~ / W T z 9 g q q 0 q q ",
"H H L 4 o O . O l R R T R L O   o > > 6 < > < > < < < > > . & 1 z L W ~ ~ ~ ~ ~ W L R k - q q q q q "
};
