/* XPM */
static char *result[] = {
/* columns rows colors chars-per-pixel */
"50 50 256 2 ",
"   c #010303",
".  c #03050A",
"X  c #08070B",
"o  c #05090E",
"O  c #030517",
"+  c #030911",
"@  c #080B12",
"#  c #050A1A",
"$  c #100B17",
"%  c #180E1F",
"&  c #10141C",
"*  c #0F0F2E",
"=  c #030C27",
"-  c #1B0D2D",
";  c #1D0D27",
":  c #171734",
">  c #141330",
",  c #240829",
"<  c #210D32",
"1  c #290B3C",
"2  c #1E273B",
"3  c #020C45",
"4  c #1F0F5E",
"5  c #041052",
"6  c #2A0B41",
"7  c #260A43",
"8  c #320A45",
"9  c #380A40",
"0  c #3A0A4A",
"q  c #260954",
"w  c #271644",
"e  c #172340",
"r  c #0B2057",
"t  c #2F2C50",
"y  c #2F3953",
"u  c #272446",
"i  c #000D63",
"p  c #071767",
"a  c #20126B",
"s  c #112168",
"d  c #1D3568",
"f  c #13297A",
"g  c #312D62",
"h  c #430A49",
"j  c #490B4B",
"k  c #520B4E",
"l  c #590A54",
"z  c #570957",
"x  c #590962",
"c  c #570D74",
"v  c #630A61",
"b  c #62086B",
"n  c #6E086E",
"m  c #670876",
"M  c #6D067E",
"N  c #681C71",
"B  c #344673",
"V  c #44506F",
"C  c #101585",
"Z  c #0C0E9D",
"A  c #2C0A83",
"S  c #163C92",
"D  c #060EA8",
"F  c #2407B3",
"G  c #2125A0",
"H  c #6E0684",
"J  c #6D0C88",
"K  c #75058D",
"L  c #700B9F",
"P  c #6A0493",
"I  c #4A3080",
"U  c #60389C",
"Y  c #5A0AB9",
"T  c #6906B9",
"R  c #5B058D",
"E  c #20569D",
"W  c #2B6CBB",
"Q  c #3766A4",
"!  c #4A75BF",
"~  c #7546A5",
"^  c #1323D3",
"/  c #2232C8",
"(  c #173FEA",
")  c #480CCF",
"_  c #493BD8",
"`  c #6F1CE0",
"'  c #780DC8",
"]  c #1C59D8",
"[  c #2852CA",
"{  c #2974CE",
"}  c #1F5EEC",
"|  c #284EF1",
" . c #2278E8",
".. c #3866F1",
"X. c #414CD2",
"o. c #785CC1",
"O. c #7A5FE4",
"+. c #6A45E5",
"@. c #736CF3",
"#. c #84069A",
"$. c #931188",
"%. c #9806A3",
"&. c #AB08B1",
"*. c #B407B0",
"=. c #BE14B2",
"-. c #AC04C3",
";. c #9C34DC",
":. c #C00ECE",
">. c #C509DB",
",. c #C90AE9",
"<. c #D328EF",
"1. c #D136F5",
"2. c #ED2AEA",
"3. c #B84EC5",
"4. c #9D4BE9",
"5. c #BD7FF9",
"6. c #D84AF3",
"7. c #E655F4",
"8. c #EC6EF5",
"9. c #CD69E1",
"0. c #3383D0",
"q. c #298AEF",
"w. c #2C93ED",
"e. c #3A95E8",
"r. c #39AAFC",
"t. c #3BB7F8",
"y. c #618BDC",
"u. c #669FFA",
"i. c #48BBFC",
"p. c #50BFFA",
"a. c #58A8EB",
"s. c #66B1FC",
"d. c #71A8FC",
"f. c #4786F2",
"g. c #4AC7FD",
"h. c #55C4FB",
"j. c #5BCEFC",
"k. c #51CAFE",
"l. c #62CCFB",
"z. c #65DAFC",
"x. c #6EDCFD",
"c. c #6AD2FC",
"v. c #6FEDFC",
"b. c #7BE8FB",
"n. c #7CF2FC",
"m. c #AAAFDF",
"M. c #A0ADC4",
"N. c #8E87F8",
"B. c #A894F4",
"V. c #A7B4F2",
"C. c #F188F6",
"Z. c #E08BED",
"A. c #87C6FD",
"S. c #81DBFB",
"D. c #98C2FB",
"F. c #B4CEF7",
"G. c #8DEDFC",
"H. c #86F5FB",
"J. c #8EF8FC",
"K. c #99F6FB",
"L. c #94EDF9",
"P. c #AAE0F6",
"I. c #A1EEFB",
"U. c #BFE8FA",
"Y. c #ADF6FA",
"T. c #A8F9FB",
"R. c #B4FBFA",
"E. c #BEF5F8",
"W. c #B6C9D5",
"Q. c #D5D0F3",
"!. c #F1D9F5",
"~. c #C8EBF8",
"^. c #C1FBF8",
"/. c #C8FAF8",
"(. c #DAFDF6",
"). c #D8F9F8",
"_. c #D3E4F5",
"`. c #E8EBF3",
"'. c #ECF7F6",
"]. c #E5F9F6",
"[. c #ECFAF9",
"{. c #E3FAFA",
"}. c #F4F9F6",
"|. c #FBFBF6",
" X c #FAFEFE",
".X c #FDEFF9",
"XX c black",
"oX c black",
"OX c black",
"+X c black",
"@X c black",
"#X c black",
"$X c black",
"%X c black",
"&X c black",
"*X c black",
"=X c black",
"-X c black",
";X c black",
":X c black",
">X c black",
",X c black",
"<X c black",
"1X c black",
"2X c black",
"3X c black",
"4X c black",
"5X c black",
"6X c black",
"7X c black",
"8X c black",
"9X c black",
"0X c black",
"qX c black",
"wX c black",
"eX c black",
"rX c black",
"tX c black",
"yX c black",
"uX c black",
"iX c black",
"pX c black",
"aX c black",
"sX c black",
"dX c black",
"fX c black",
"gX c black",
"hX c black",
"jX c black",
"kX c black",
"lX c black",
"zX c black",
"xX c black",
"cX c black",
"vX c black",
"bX c black",
"nX c black",
"mX c black",
"MX c black",
"NX c black",
"BX c black",
"VX c black",
"CX c black",
"ZX c black",
"AX c black",
"SX c black",
"DX c black",
"FX c black",
"GX c black",
"HX c black",
"JX c black",
"KX c black",
"LX c black",
"PX c black",
"IX c black",
"UX c black",
/* pixels */
"H K x 9 8 6 7 j 0 h j j l j 6 j k 8 7 j v m M H M l b L %.b k M &.#.j < - < < < < < < & % - 0 j < - ",
"H H z 6 6 6 6 8 8 8 j j l k h j m k 6 j v M m H m k b L %.b k H *.#.h < < < < < < 6 1 - - 1 h k < - ",
"K H v 8 6 < - 9 h 8 j 0 j j j m -.m 9 k n H H H b k b %.%.v l K *.H 9 - < < < < < < 1 < < < j h 7 < ",
"%.H v h 7 < - 8 j j h 8 j j k #.,.%.k k n M m H b j b &.#.b x #.*.M 9 < < < < < < < < < - < l 0 1 < ",
"-.H m h < < - 1 8 0 j h j j b &.,.>.H l v M M H b j b *.%.M m #.*.m 9 < < < < < < < < < - 8 l 1 < < ",
"-.m M j < - < 1 7 8 j j j h K :.,.>.K v k v M H m j x &.&.M P %.*.n 9 < < < < < < - < < - j l < - 1 ",
"-.b m z 8 < - 1 6 6 j j j h m &.,.>.K x l k v K m j x *.%.m J %.*.n 1 - < < < < < 1 < - < k j - < 6 ",
":.b b M h < < 1 8 8 j j j j x #.,.>.K J v l m H m l v *.%.m H #.*.x < - < < < < < 0 < - 1 v 8 - < 6 ",
"<.b l M j 8 6 6 6 9 j k v k v K ,.>.&.%.M M M H #.m M :.%.m J %.%.j 1 < < - < < 1 j - - 8 l 6 - < 6 ",
"6.H m K x 8 q q 8 q q b K M M T ,.<.,.>.K P P #.=.-.&.2.&.K K &.-.j < 1 < - < 7 j 0 - < j k < - < 6 ",
"8.' P T T a a C C C G T T T Y ` 7.7.6.1.' ) ` ,.<.1.<.6.*.-.L :.-.l 7 q q 7 1 1 h 1 - 6 l h - - 1 6 ",
"8.1.` +.+._ / X._ _ _ +.@.@.O.N.C.C.8.5.N.@.9.8.8.C.8.C.;.4.` 1.<.Y f f a 4 u u q 6 1 q m q 1 1 6 6 ",
"!.C.B.B.F.N.u.D.A.A.D.F.F.F.V.F.`.}.`.`.U.U.`.!.`.`.`.!.m.Q.5.C.8.O.[ X.S S f f f s 4 A R 4 q q 4 8 ",
"}.}.'.).[./.Y.R.R.R.T.^.(.(./.^.}.}.}.}.(.[.|.}.}.|.].].~.}.Q.}.!.F.A.D.s.e. .q. .[ [ X./ C C G G f ",
"}.|.|.[.|.).T.T.Y.Y.R./.(.(.].R.).}.}.}.(.[.|.|.|.}.'.}.'.'.].}.|.^.U.~.G.b.S.G.L.S.A.A.u.{ } @.| ( ",
"}.|.}.[.}.{.Y.Y.Y.E.(.(.}.}.[.~.^.}.'.~.[.].|.|.|.|.|.|.|.).~.|.|.~.~.^.b.S.G.R.^.R.R.R.G.x.b.A.s.s.",
"}.}.[././.(.Y.H.G.R.R./.}.|.].P.P.}.|.~.).}.|.'.).].}.|.}.|.|.|.}.P.]._.S.S.T.).].).I.b.n.R./.(.(.].",
"}.}.[./.R.].).n.H.R.].].}.|.}.P.e.F.|.}.a._.Q.V.y.V.!.F.D..XQ.`.].P.|.`.S.x.^.|.}.^.I.G.n.(.|.|.}.(.",
"|.|.|.(.^.[.^.b.t.c.|.|.}.}.|.|.! y.!.Z.S y.@.E S B.5.B.O.B.! Q.m.~..Xm.l.(.|.|.|.|.E.g.x.^.|.}.G.k.",
"b.R.S.w.i.n.K.x.i.s.|.|.}.}.|..X3.3.3.I t g d : - &.g 3.N J ~ 6.I Z.8.o.m.!.|.|.}.|.~.g.G.T.T.(.l.q.",
"h.{ S f E ] e.{ E s Q. X X|.[.9.:.<.n X & $   X ; j   l $ , $.x 9 $.J 3.7.8.|.|.|. XF. .0.e.r.r.{ s ",
"S 3 # & # O = *     e M.'. XW.n 2.2.9 @         $ @   $   $ k . ; , N C.8.Z. X|. X{.Q 5 r f S f *   ",
".                       y Q.m., =.=.X                     X @   .   $.8.=.9.[. XM.e   . + # &     > ",
"              . + .       - N + 9 v o               + +   . o       $.7.2.M d B .               2 y ",
"  @ u > .       . o     + O j $   @                 + #     +     . v 2.2.j .                 X e e ",
"y d X.a > +           . .   ; $                     + +     + e #   h =.n b 1     . o         & - - ",
"w w q A A * o .           o .                       + . o + o e #   $ 9 k n 1     . # .   .   @ q - ",
"q R c Y ` 3.q =       . .                           o   . . . + : .   . < l 1     . .     & * q q # ",
"7 Y ) F ` 8.;.Y a       + @ @   .               . .   . o     o : +     $ h 6         < I A F A 7 + ",
"@ A ) F F 4.6.` F =       $ -     2             . . .           = *     @ x 1     $ < L ` ) F q - = ",
"  q ) F F ) 4._ C 5 # X   $ < o   V >               .           e B     < x X   @ - z K #.c q * = # ",
"  # F ) F D ) ) 5 = - < . X - # o V t             . .         - N t   + w ,       $ 1 j m 0 $ = = = ",
".   C ^ F D D Z * + & $     & >   B c U w                   U O.P e   # - @         @ , - . O 3 3 f ",
"#   * ( ^ D Z 5 +   .       o &   y V { a.d             . o.A.{ d : @ X $     .         t o./ / W r.",
"= @ = ^ ^ i i 5 .               & 2 V S j.r.s           f i.i.S e 2 @               V W.`.U.c.x.n.j.",
"= * + C | i = =                 @ : d - 5 f r         X s f 3 O : e           O V W. X X}.R.J.H.x.h.",
"# 3 i i ..G   .                     # +               o       + #         . d m. X X|.|.].K.H.H.l.h.",
"= = D D ..@.=           .             @                       =         r y.{. X|.}.}.|.).H.H.n.j.j.",
"3 + p ( | d.W = . .     . . e >       o o               + . + O O # r ! I. X|.|.}.}.|.].T.H.H.b.h.x.",
"C = 3 ( ..d.A.q.] e.0.0.0.a./.M.        & . $ @       . @   > * E 0.i.K./.}.}.}.'.].[.^.J.n.H.z.c.G.",
"^ 5 = / ..u.c.h.r.j.z.z.v.J./. Xy       . $ X X           d W e.k.k.z.T.^.}.}.}.}.[.].^.K.K.n.z.n./.",
"| ^ 5 D  .a.l.S.l.j.x.b.n.J.E.P.X.        X . .       * Q l.i.j.h.h.b.H.E.|.|.[.}.|.].Y.Y.K.v.z.Y.].",
"} } ^ ^  .t.x.Y.K.v.n.H.n.K.K.[ .               @ B Q a.n.k.i.h.p.h.j.z.R.|.|.}.}.|.(.Y.Y.H.v.K.].}.",
"}  .| ^  .g.x.R./.J.K.Y.K.T.l.i               O E c.b.z.h.i.i.h.p.p.i.h.R.|.|.}.}.}./.^.K.n.v.^.|.}.",
"} q.q.( } z.v.L.(.^.R.T.T.R.a.O   .         e { g.z.j.h.p.i.i.h.p.p.i.c./.|.}.}.|.]././.H.v.K.{.}.}.",
"} q.t.w.} i.H.K.].].(.b.i.v.h..   .     d W p.g.h.p.p.p.p.p.p.p.p.p.i.b.K.).}.}.|.]./.Y.n.n.R.}.}.}.",
" .w.t.i.q.e.J.H.Y.[.(.x.i r E +       d i.k.h.i.p.p.p.p.p.p.p.p.p.p.p.l.g.P.|.|.}.].).K.v.H.E.[.|.}.",
"} w.t.j.t.q.z.H.K.(. Xa.3 O .     = { g.h.h.p.p.p.p.p.p.p.p.p.p.p.p.j.z.g.S.|.|.[.].).n.v.T.}.|.}.'.",
"(  .t.j.j.w.w.z.n.K.P.f./ = = . d e.j.h.p.p.p.p.p.p.p.p.p.p.p.p.p.h.x.h.l.b.I.).].].T.v.H.).}.}.}.}.",
"} } q.r.i.r.] ] W S W s...O = E h.j.h.p.p.p.p.p.p.p.p.p.p.p.p.p.p.h.h.i.G.(.E.L.L.R.n.v.R.}.|.}.}.}."
};
