/* XPM */
static char *result[] = {
/* columns rows colors chars-per-pixel */
"50 50 256 2 ",
"   c #010303",
".  c #02060A",
"X  c #04080C",
"o  c #060B12",
"O  c #0B0A12",
"+  c #00021A",
"@  c #030919",
"#  c #0D0B1A",
"$  c #140B19",
"%  c #180E1F",
"&  c #0E101B",
"*  c #040D24",
"=  c #000422",
"-  c #1C0D2B",
";  c #140E24",
":  c #0C1329",
">  c #040A33",
",  c #1E0D31",
"<  c #0D1431",
"1  c #121D3F",
"2  c #220C25",
"3  c #240B3C",
"4  c #260C37",
"5  c #370A3A",
"6  c #1B253F",
"7  c #030D49",
"8  c #0A1640",
"9  c #091158",
"0  c #2A0B44",
"q  c #3B0B46",
"w  c #330A48",
"e  c #220A52",
"r  c #21154F",
"t  c #1B2B5A",
"y  c #27304F",
"u  c #342A59",
"i  c #020E69",
"p  c #080D7B",
"a  c #1E0D69",
"s  c #2B0866",
"d  c #360B7E",
"f  c #142F68",
"g  c #122B62",
"h  c #112E75",
"j  c #323F65",
"k  c #410A4A",
"l  c #4A0A4D",
"z  c #480842",
"x  c #520B4F",
"c  c #460A57",
"v  c #560A52",
"b  c #58095B",
"n  c #5C0A51",
"m  c #640A58",
"M  c #611C5E",
"N  c #550A61",
"B  c #640964",
"V  c #6D0969",
"C  c #670674",
"Z  c #69067C",
"A  c #7D0877",
"S  c #435572",
"D  c #564E7B",
"F  c #8D0C79",
"G  c #210899",
"H  c #270789",
"J  c #1A3F85",
"K  c #153899",
"L  c #0B2788",
"P  c #0613BF",
"I  c #150BBE",
"U  c #171FB1",
"Y  c #571098",
"T  c #6E0683",
"R  c #6E088B",
"E  c #600680",
"W  c #790880",
"Q  c #6C0892",
"!  c #72099E",
"~  c #790694",
"^  c #700CAA",
"/  c #691CBB",
"(  c #4A08BA",
")  c #21559C",
"_  c #294B94",
"`  c #1D54A2",
"'  c #1956B0",
"]  c #3467BB",
"[  c #687A95",
"{  c #6E7BB0",
"}  c #4F4D86",
"|  c #081EC7",
" . c #2405C3",
".. c #1022CF",
"X. c #143FE0",
"o. c #5307CB",
"O. c #6210D9",
"+. c #1F64C1",
"@. c #3371CC",
"#. c #3863D4",
"$. c #1548EC",
"%. c #1D57F0",
"&. c #1F6AEA",
"*. c #316DF7",
"=. c #297EF1",
"-. c #3778F6",
";. c #1D51D7",
":. c #7449E7",
">. c #89069A",
",. c #9D089F",
"<. c #960F8A",
"1. c #9506A4",
"2. c #A605A6",
"3. c #B107AA",
"4. c #B709AD",
"5. c #B307BA",
"6. c #BF19B8",
"7. c #B721B1",
"8. c #B335B3",
"9. c #922D8C",
"0. c #BE0AC7",
"q. c #8C36E0",
"w. c #A32DEB",
"e. c #BC14EC",
"r. c #D423CF",
"t. c #C33DC2",
"y. c #DD24D5",
"u. c #CC27CA",
"i. c #E228DA",
"p. c #D610E6",
"a. c #D313EA",
"s. c #E828E6",
"d. c #E732E2",
"f. c #E53CE7",
"g. c #B547E9",
"h. c #D253E3",
"j. c #EC52F3",
"k. c #E153EF",
"l. c #E16AEE",
"z. c #F062F7",
"x. c #E178F6",
"c. c #7A8CAA",
"v. c #2E8FDE",
"b. c #379EEC",
"n. c #2E93F2",
"m. c #2888EC",
"M. c #33A2F6",
"N. c #3CACFB",
"B. c #3BB7F9",
"V. c #6893D0",
"C. c #519CF1",
"Z. c #779CE8",
"A. c #4AA8F0",
"S. c #53BBFD",
"D. c #47BBFA",
"F. c #49C2FC",
"G. c #4EC8FE",
"H. c #58CCFD",
"J. c #5BD3FD",
"K. c #6ADEFE",
"L. c #66D2FC",
"P. c #7DDBFC",
"I. c #74C7F3",
"U. c #73E9FD",
"Y. c #7AF5FC",
"T. c #819DBE",
"R. c #93A4C1",
"E. c #ACA6CA",
"W. c #8993FB",
"Q. c #A9A3F8",
"!. c #F58CFC",
"~. c #E785F3",
"^. c #DABAFA",
"/. c #F9A0FD",
"(. c #F6B2FB",
"). c #ADC2DA",
"_. c #82CEFC",
"`. c #AED6F5",
"'. c #84EAFD",
"]. c #80F7FD",
"[. c #8BF7FD",
"{. c #99FEFD",
"}. c #95F3FB",
"|. c #A6F8FB",
" X c #BCFEFC",
".X c #B1EAFA",
"XX c #DAE2E6",
"oX c #C5F7F7",
"OX c #CEFCF8",
"+X c #D7FDF6",
"@X c #D2F5F5",
"#X c #ECFBF8",
"$X c #E2FAF6",
"%X c #F7F8F5",
"&X c #FAFAF6",
"*X c #FDFEFB",
"=X c #F5FCF8",
"-X c #F0E8F2",
";X c #CCD2D4",
":X c black",
">X c black",
",X c black",
"<X c black",
"1X c black",
"2X c black",
"3X c black",
"4X c black",
"5X c black",
"6X c black",
"7X c black",
"8X c black",
"9X c black",
"0X c black",
"qX c black",
"wX c black",
"eX c black",
"rX c black",
"tX c black",
"yX c black",
"uX c black",
"iX c black",
"pX c black",
"aX c black",
"sX c black",
"dX c black",
"fX c black",
"gX c black",
"hX c black",
"jX c black",
"kX c black",
"lX c black",
"zX c black",
"xX c black",
"cX c black",
"vX c black",
"bX c black",
"nX c black",
"mX c black",
"MX c black",
"NX c black",
"BX c black",
"VX c black",
"CX c black",
"ZX c black",
"AX c black",
"SX c black",
"DX c black",
"FX c black",
"GX c black",
"HX c black",
"JX c black",
"KX c black",
"LX c black",
"PX c black",
"IX c black",
"UX c black",
/* pixels */
"! R l 4 l l l l l l T C q 3 , , , , 3 l n b 1.p.>.b >.! 2.3.3.4.,.x 4 - , , % $ $ % % $ % 3 w l 4 4 ",
"! Q l 3 l l l q k l B b 0 3 , , , , 3 l B C 5.p.C 5 T ! 2.3.3.4.<.l 4 - , , % $ $ % - - - 3 w l 4 4 ",
">.1.N 5 l x n l l l x v q 3 - , , - 3 x V Z 6.a.Z 5 R ! 1.3.3.4.W q , - , , % $ % % , , 3 0 q q 3 q ",
"R 2.T q k v B l q l l l l 3 , , , - 3 x V C 6.a.T 5 R ! >.3.3.4.W q 3 - , , % $ - , , - 3 k l 0 0 k ",
"Z 2.>.c q l B x 0 q l x l 3 , , , , 3 b Z C 5.a.R 5 R ! 1.3.3.4.W q 3 - , , % $ - , , - q v q , 4 B ",
"Z ,.1.N q l n v 3 0 l x l w 3 , , , 4 b T Z 5.p.T z ~ ! 2.3.3.4.W q 3 - , , % $ % , , - l m 0 - 4 Z ",
"Z >.1.C q l B b w 0 l l l w 3 , , - 3 b T Z 1.p.C x ,.>.,.3.3.4.W q 3 - , , % % - , , , x x 3 - q Z ",
"Z R 1.R k l T B k w l l l w 3 - , - 4 b T Z ! p.W v 2.1.2.3.3.4.C 3 , , , , % - w , - 4 m l , - b C ",
"~ Q ! ~ x l T B q 0 l v x k 3 , , , 4 b T E >.0.<.V 5.1.2.2.1.5.V 4 , , , , , w l , - 5 m q , 4 C C ",
"5.Q ! ~ B q b b l q C B n l 0 0 0 3 3 N >.2.2.4.,.2.p.0.5.5.1.p.V 4 , , , , , k q - - q v 0 - c ~ C ",
"p.~ Q ~ B q q q l l b m n v 0 0 k q q B 2.3.2.6.u.0.d.r.s.y.1.p.W , - , , , 3 q q - , x l 3 ; C ~ b ",
"z.5.~ ! B l 0 3 0 w l v l v q q l x x V 4.3.0.r.r.r.k.u.f.u.>.s.,.4 3 , , , 3 k 5 - 4 v q , 4 R R l ",
"/.f.2.Q C 5 3 0 3 0 l x x n l 5 W ~ m V y.i.y.j.t.f.~.8.!.8.<.s.2.4 l 4 3 , 3 0 4 - 4 l 0 ; w ~ R l ",
"~./.0.^ R 3 4 0 e k m C C C x B 0.p.<.x i.d.f.j.l.~.x.h.(.9.9.z.,.q m 4 0 3 q q 4 3 0 w , , E ^ E s ",
"k.(.w.O.o.e 4 0 e C ~ ^ ! ! Z 5.s.d.i.B h.f.d.7././.x.!./.t.8./.A V <.3 0 0 l v l q c 0 % 3 s E s 7 ",
"q.x.q.( o.H 4 - r s Y q.w./ C r.s.i.d.6.l.f.<.V !.!.!.z.j.f.l./.M t.F 5 l N ^ ! T l 5 - y } R.V.V.R.",
").Q.{ J V.Z.g 9 @.Z.R.E.^.E.D ,.4.y.d.s.d.6.5 l i.f.u.2.6.F t.z.t.z.V n z Y x.l.Y r y 7 V.*X=X`.).).",
"*X*X`.A.OX_.L 8 9 `.*X*X*X*X*X~.4.t.7.n F l   2 <.4.A z $ O 4.s.f.x.V F M XX*X*XXXR.< * ] +X#XS @ & ",
"c.c.6 8 @.-.@.8 6 XX*X&X%X%X*X(.k.j.3.  5 2 X o m n m 5   5 <.V 9.z.7.u.;X*X%X&X*XXX@ g =.;.`.y     ",
"< .   O 9 K K h & E.*X*X%X&X-Xd.j.i.A o & O   & z $ 4 & o $ 5 # <.s.6.8.;X*X%X%X*XXX< 8 8 > 8 o     ",
"X         @ & X   1 ).*X*X*XE.s.s.<.5 X X     O q . O &   X   $ F m 9.9.;X*X&X*X*X[ .               ",
"      .             + S #X#Xu y.4.5 &         . -   O X   .   # 5 $ 7.B 9.;X*X#XD + .   .       &   ",
"                .       6 [ # <.F X                           X   x <.<.z S [ 6         X X   & j O ",
"  o o         . o .   X   ; ; 2 5                   X X   X X     m F <.2 4 .             X   ; 6 , ",
"6 } Y : .       . X     o % $   o                   o @     < *   - l 2 5 x X               o & * o ",
"u s o.! <               ; - X .                     o o     1 *   X X   k k   X   X X         4 , X ",
"d o.o.e.w.a *           X & .                       o . X o o : o       k k   X   . o X X o 4 s < X ",
"G O.o.O.j.w.( a         O $                         X   . .   : @       c k   X   . @ : : e s e @ o ",
"H O.o.o.g.g.O. .7       * 5     &               . .   . X     @ *       c 5   X   . e s H  .G e & @ ",
"9 o.O.o.g.h.O.I G >     O %     [ 6             . . .         * _     $ b # X X   O 0 H  . . .3 & ; ",
"> o.:.:.:.^.:...| ..>   O 4 #   { j               . .         r D     % q       $ 3 - a  . .G * * < ",
"h #.W.W.W.XX).Z.-.*.C.h 8 J _ > [ :./ u                   # d ! y   o # ;       ; c b 0  . .9 * > * ",
"F.J.+XoX@X#X=XOX|.|.[.L.b.S.S.+.V.`.I.`.T.t < < < + .   u #.#._ y . X X O       X 4 c B G I 7 > 7 X ",
"K.J.|.$X+X#X%X X|.}.[.U.J.K.H.K.'.OX{. X X}.b.v.v.] _ ` _.Y.v.` t &     X           4 N d p 7 7 * X ",
"P.J.'.$X@XoX=X XU.P.K.H.H.H.G.J.[. X|.|.|.|.U.J.J.J.J.].[.U.b.C.@.1 : O .     .     $ 0 s 9 7 i @ X ",
"K.U.L.oX+X|.|.S.N.N.M.M.n.n.M.n.N.H.J.M.N.N.A.M.M.D.H.J.G.G.L.].G.M.v.` J t : o X   X 2 0 9 i i X o ",
"=.S.F.L. X'.b.' L f f f f f f f g f ` h g f f f f ` ' ' +.m.G.D.N.B.G.G.G.N.v.) f 8 * ; e p | >   7 ",
"L K =.&.C.-.h < .   . .             X o           * * < > 1 ` J J _ +.@.b.M.F.F.N.n.+.h L %.U + > | ",
"> > X.$.$...+           X h {         o O   .           . & @   X X : < 9 L &.N.S.P.'._.I.K.&.L U *.",
"i * U %.$.| @       + J A.[.+XS       . O . o .       o o &       . +.' _ E.@X$X#X*X$X X{.Y.J.G.K._.",
"P 9 p *.*.p     < ) A.J.U.|._.*.*         .     .     o & X       * %.&..X*X&X&X#X$X|.K.U.G.F.].OX+X",
"$...P =.N._ j ] S.K.U.U.].[.] = .           . . X . o o .   . .   X 7 K #X*X%X#X$X@XD.N.n.X.&.'. X$X",
"&.$...%.B.H.{.Y.K.U.[.].].Y.`                   . .       . . .       S *X=X%X%X&X}.F.M.X.p ;.S.|.#X",
"n.n.$.$.F.J.U.{.Y.Y.U.].[.[.)         .         . .     . . . .       T.*X*X%X%XoXY.J.n.P | M.N._.#X",
"n.F.n.$.N.Y.U.|.}.Y.D.N.K.].]     . .           .     . . . . .       Z.`.$X&X#X|.U.J.&.P =.U..X#X=X",
"M.F.H.m.=.U.[.|.oX].N.7 h ' h     X .           .     . . . . .     * > + ).*X#X|.{.J.$.$.[.OX*X&X%X",
"n.B.L.F.m.G.{.|.+X{.A.> + p +   .                       . . . .   . 8 +   oX#X{.[.].N.$.D. X%X%X%X%X",
"&.M.H.L.N.M.U.|. X{.] ..* 8 8                     .   . . . .     o *   + c.I.J.U.J.&.=.Y.|.%X%X%X+X",
"%.m.B.J.H.n.N.L.A.) ] -.7   * X                 .                 X   > #.] J ` b.n.$.D.Y.|.%X%X=XP.",
"&.%.n.B.F.n.K K ] V.P.S.K   o .                 . .                 . h C.P.P.V._ L m.J.Y.$X%X&XOXM."
};
