/* XPM */
static char *result[] = {
/* columns rows colors chars-per-pixel */
"50 50 256 2 ",
"   c #010302",
".  c #030509",
"X  c #02090D",
"o  c #080B0E",
"O  c #0C0913",
"+  c #040819",
"@  c #110F16",
"#  c #140D1B",
"$  c #000422",
"%  c #0F0A26",
"&  c #140F21",
"*  c #1A0D2A",
"=  c #07102B",
"-  c #060D3B",
";  c #1F0D32",
":  c #0C1432",
">  c #17152B",
",  c #240B2B",
"<  c #260D37",
"1  c #260B3E",
"2  c #2A0B3F",
"3  c #34093B",
"4  c #43093F",
"5  c #0E1D41",
"6  c #0E1E59",
"7  c #240A45",
"8  c #300A43",
"9  c #3B0B40",
"0  c #3C084C",
"q  c #280F51",
"w  c #0E204B",
"e  c #182241",
"r  c #272F4E",
"t  c #0D0F71",
"y  c #230B60",
"u  c #133169",
"i  c #16387D",
"p  c #233363",
"a  c #450A47",
"s  c #4B0B4B",
"d  c #550A4E",
"f  c #490851",
"g  c #48095D",
"h  c #5A0A52",
"j  c #59095C",
"k  c #54055F",
"l  c #4D1756",
"z  c #660755",
"x  c #58086D",
"c  c #591A76",
"v  c #620A65",
"b  c #720967",
"n  c #680774",
"m  c #630872",
"M  c #69067E",
"N  c #7F0D70",
"B  c #730778",
"V  c #3E4C7A",
"C  c #264179",
"Z  c #1F078B",
"A  c #0E118F",
"S  c #2506AE",
"D  c #2003B4",
"F  c #2408BC",
"G  c #3206BF",
"H  c #351EA0",
"J  c #6C0687",
"K  c #6D068E",
"L  c #6A0797",
"P  c #790496",
"I  c #730484",
"U  c #4508B2",
"Y  c #6A0AA8",
"T  c #14428E",
"R  c #16489A",
"E  c #274988",
"W  c #1F5EB2",
"Q  c #174EB2",
"!  c #2657A6",
"~  c #2E64B6",
"^  c #3973BA",
"/  c #5B6F99",
"(  c #717E99",
")  c #5071B3",
"_  c #110EC1",
"`  c #151DD2",
"'  c #1133CE",
"]  c #5705C0",
"[  c #7B18C6",
"{  c #5234D0",
"}  c #6C2BDA",
"|  c #226ACA",
" . c #2C7BCA",
".. c #2C7DDF",
"X. c #1640E7",
"o. c #1752EC",
"O. c #3A53F3",
"+. c #2068EA",
"@. c #287BF1",
"#. c #6967ED",
"$. c #860399",
"%. c #9E1191",
"&. c #930786",
"*. c #8D05A3",
"=. c #9704A8",
"-. c #A605A5",
";. c #AB10A2",
":. c #A603B3",
">. c #B507BC",
",. c #BF12B3",
"<. c #8829B3",
"1. c #AA20B1",
"2. c #BE27B8",
"3. c #AA36AD",
"4. c #922B90",
"5. c #B843BB",
"6. c #BD04CB",
"7. c #AD05CE",
"8. c #C304D8",
"9. c #CF1AD8",
"0. c #DB27DE",
"q. c #D12FDA",
"w. c #E228D9",
"e. c #C903E4",
"r. c #D00AEC",
"t. c #D51EE7",
"y. c #D115E3",
"u. c #DC31EC",
"i. c #D93AF6",
"p. c #D729F3",
"a. c #E037E6",
"s. c #E830E0",
"d. c #E93EED",
"f. c #EB27E3",
"g. c #8772ED",
"h. c #C742C5",
"j. c #DA46F8",
"k. c #DB4DE8",
"l. c #E256EB",
"z. c #E152F8",
"x. c #E15DF3",
"c. c #DB60E4",
"v. c #E471EA",
"b. c #ED6CF9",
"n. c #E977F2",
"m. c #EB71F5",
"M. c #7A84A9",
"N. c #3591E0",
"B. c #3097F3",
"V. c #2787F0",
"C. c #3AAFF8",
"Z. c #5D9FDF",
"A. c #508EEA",
"S. c #45BCFC",
"D. c #4DBAF8",
"F. c #56BFF1",
"G. c #51C1FB",
"H. c #50CBFE",
"J. c #5ACEFE",
"K. c #5DD5FD",
"L. c #68CFFD",
"P. c #7EC6F9",
"I. c #66DAFC",
"U. c #7DDCFC",
"Y. c #73ECFB",
"T. c #72E2FC",
"R. c #7BF1FB",
"E. c #8389B7",
"W. c #8B9DCB",
"Q. c #BFB5D9",
"!. c #8AB3F6",
"~. c #968EEA",
"^. c #F68EFD",
"/. c #F386FC",
"(. c #F898FE",
"). c #FBA7FD",
"_. c #ECA4F6",
"`. c #C1A1E8",
"'. c #AFC5F2",
"]. c #89F4FC",
"[. c #98F6FB",
"{. c #A6F7FB",
"}. c #ABF8FA",
"|. c #BFF6F7",
" X c #B1FCFC",
".X c #B6F8FA",
"XX c #A2E7FA",
"oX c #D4D9F7",
"OX c #CFE0E2",
"+X c #C9F9F6",
"@X c #C5F6FA",
"#X c #D4FAF5",
"$X c #DBF9F6",
"%X c #E2FAF7",
"&X c #E7FBF8",
"*X c #EEF8F8",
"=X c #ECFCF7",
"-X c #F5FBF7",
";X c #FBFBF5",
":X c #FDFEFC",
">X c #F6F6F5",
",X c #EBE6F8",
"<X c #C6D0DE",
"1X c black",
"2X c black",
"3X c black",
"4X c black",
"5X c black",
"6X c black",
"7X c black",
"8X c black",
"9X c black",
"0X c black",
"qX c black",
"wX c black",
"eX c black",
"rX c black",
"tX c black",
"yX c black",
"uX c black",
"iX c black",
"pX c black",
"aX c black",
"sX c black",
"dX c black",
"fX c black",
"gX c black",
"hX c black",
"jX c black",
"kX c black",
"lX c black",
"zX c black",
"xX c black",
"cX c black",
"vX c black",
"bX c black",
"nX c black",
"mX c black",
"MX c black",
"NX c black",
"BX c black",
"VX c black",
"CX c black",
"ZX c black",
"AX c black",
"SX c black",
"DX c black",
"FX c black",
"GX c black",
"HX c black",
"JX c black",
"KX c black",
"LX c black",
"PX c black",
"IX c black",
"UX c black",
/* pixels */
"; ; ; ; 9 v K :.*.x a a a m J v d n J n s B y.z.j.i.j.0.e.e.:.P x ; * ; ; ; 1 7 0 a & 8 j 6.r.n.x.q.",
"; ; < ; 0 P -.8.6.m a s a j J v d n J n d I 9.x.j.0.j.i.0.y.6.&.x 1 ; ; ; ; 1 7 0 3 ; s h :.p.n.n.9.",
"< ; 7 1 f P 6.r.e.B 4 a a v J M h m J M m I y.z.j.p.l.z.j.r.8.*.m 1 * ; ; ; ; ; 8 ; < h v *.i.n.v.>.",
"1 ; < 7 f P -.e.8.&.s a a j J J h m J M P $.9.z.z.i.n.x.i.e.6.=.m < ; ; ; ; ; ; 1 * 9 v M $.i./.t.-.",
"1 ; ; 8 f K P 6.r.6.n j s j J J h n J M -.-.y.z.v.x.n.x.t.8.-.-.m ; 7 ; ; ; ; ; ; * a n J :.z.m.>.-.",
"1 0 ; 8 s m J 7.r.p.$.M d j J J m J J M -.>.9.j.z.x.v.z.t.8.-.>.m ; 7 ; ; ; * ; * * f M $.e./.a.P -.",
"< s 1 1 9 s j =.r.i.>.*.j s J J m M M M -.8.t.t.t.u.v.x.t.6.-.8.v 1 7 ; ; ; & * & * x M >.z.^.:.$.-.",
"1 d s 7 7 8 0 *.e.u.u.6.v a J n h h d m :.8.t.9.e.i.n.k.t.>.>.r.n ; 2 ; ; ; # @ @ ; j I 9.^.l.P L *.",
"; 0 j 8 1 1 8 I 6.i.p.6.n 9 m v h h d n >.e.t.w.t.i.z.0.0.e.6.e.v 1 7 ; ; ; & @ # < x *.i.).9.P L L ",
"8 0 d 0 ; ; 1 0 1.z.j.8.&.a h h s v j B 6.r.w.a.i.l.j.0.s.0.e.0.b a 1 ; # @ & & & 9 n 6./.(.9.P L L ",
"x 8 d s 7 * ; 0 1.^.b.e.=.f s s s b z b 6.y.s.u.d.v.j.a.s.w.r.w.&.j 9 ; & @ @ @ * a P i.)./.y.P L L ",
"K a s s 8 ; ; k 7.(.v.e.6.B a 8 7 h z j 6.t.w.9.d.v.l.0.a.0.9.s.>.n s ; # @ * * ; f :.j.(.u.:.L L K ",
"P v v v a ; ; 0 7.b.x.t.e.:.0 ; ; s h 0 -.s.w.l.k.n.v.h.^.q.8.s.9.b z ; # @ * * < I d.b.u.7.J P P L ",
"$.K L P g 7 ; ; L j.j.z.p.e.m ; ; v N 3 ,.w.a.x.c.^.v.h.).4.1.z.2.&.b * * & ; ; 4 >.m.q.[ ] Y <.Y P ",
"<.Y Y [ U q < < 7 k.b.n.n.p.=.9 ; v 0.j k.d.a.2.).(.m.^.).3.5.^.&.&.N % ; ; < 1 k 9.b.*.L ] L Y K x ",
"} Y M U _ t , * 7 [ m._._.i.=.d 9 b f.2.v.d.-.N ^.(.^.v.l.d.n.).v 2.N * ; ; f g $.*.c 7 U { M. .M.M.",
"Q.E.V C #.) 6 6 ) Z.~.Q.,X~.c z h 1.d.f.d.,.4 l s.k.h.,.,.%.h.b.3.b.k 3 , x <.} Y q w - !.:X&XXX'.'.",
":X:X'.Z.&XP.t 6 u |.:X>X;X:X=Xc.;.h.;.z &.s   , ,.,.b z , O ,.f.d.n.k z l OX:X-X'.E.5 + ^ :XoXV = : ",
"W.E.r r A.B.! : r ,X:X-X>X-X:X_.x.z.%.  3 #   O b z z ,   3 %.z 4.l.%.q.Q.:X;X;X:X<X  p @...@Xe     ",
"> .   @ 6 Q Q i : <X:X;X>X:X).a.d.f.N X # O   @ 4 # 9 @ O , 9 O %.f.2.3.OX:X>X>X:X<X= w 6 - w X     ",
"X     .   $ = X   r OX:X:X:X`.a.w.%.a O X     O s   # @   @   # &.N <.4.OX:X>X:X:X( .               ",
"                    : / :X&Xl f.;., #         . ,   O .       , s , 2.d <.oX:X*X/ $ .           O   ",
"                .       V M.O ;.N               .             O   s &.N a ) E.r         . X   & r . ",
"  . .         . + .     . * O 4 a                   X X   . X     N &.&.* % .             X   > r y ",
"e p e & .       . X     X @ #   O                   X +     : .   < d , 0 a X   .           X + 0 x ",
"q 7 7 > & X             & * X .                     X X     e +   X X   d 9 X .   X X         7 K n ",
"1 q y q 7 5 + X         @ & X                       X . X X + : .       g 0   X   . X     X ; J P y ",
"y Z y y S G Z y         # O                         X   X .   5 +       g 3   .     O & - Z S G S y ",
"y G U t G ] G } 7   .   & <     + .             .     . o     $ $       g ,   X   . t S F F F F Z y ",
"Z ] } G G } ` { { $     O >   . / =             . . .         : V     O v O X .   O Z S F D D D S S ",
"_ { g.g.{ #.O.O.#.F +   O ; O X E.r               . .         p V   . & 9       # < * Z F D D D D D ",
"A.'.oX>XoX'.!.~.'.A.| w - p E = ( <.H 5                   . c <.r   O O &       * g g q S D _ ` ` ` ",
"}.&X;X;X;X;X%X.X+X.X].D...D.D.W W.'.P.XX/ - & & O .     l { ~ V r + X . O         , k k Z ` O.A.!.Z.",
"}.#X>X>X>X>X-X.X}.[.].T.K.I.J.I.U.#X[.@X@XP.N. .~ E i R P.Y. .! p +     X         O y Y { !.'..X XU.",
"{.@X-X>X>X>X-X.XT.U.I.J.H.J.H.I.[..X{.{. X XT.H.J.J.J.].].T.N.A.| : + +       O : u | !..X X X X[.Y.",
"]. X-X>X>X;X$XG.S.S.C.B.B.B.B.B.D.I.K.C.D.G.D.S.S.S.K.K.H.H.L.R.D.N. .R i i E R N.H.I.[. X}.}.}.].I.",
"I.T.#X;X;X:XP.Q T u i u u u u u u u W i u u i ! ! W W | V...H.S.S.H.H.I.R.].].I.Y.R.Y.].}.{.{.}.R.J.",
"+.V.A.'.:XoXi : .   .               + +       . . % = - e w Q R | N.I.]..X X X X}.{.[.].{.|.|.{.Y.Y.",
"` X.o.O.~.#.$           . p V         + O                 O % u | D.I.Y.[.{.{.{..X+X@X#X#X*X#X{.R.].",
"_ X.o.o.O.#.+       + C Z.U.L.5       . O . @           + i ~ D.S.J.[.T.].|.|.#X*X*X*X>X>X>X&X|.{.}.",
"A o.+.@.o.A     5 ( '. X].I.V.' .         .           e ) C.H.J.G.I.[.].+X-X$X*X*X$X%X>X>X*X$X+X#X#X",
"t o.C.S.C.t V W.$X:X:X.X].Y.' $                 > 6 ! J.J.C.G.G.G.I.I.Y.%X-X#X%X#X#X$X*X$X+X{.{.|.%X",
"_ ' S.J.J.P.:X:X:X=X%X%X{.].T                 :  .G.I.K.S.S.G.G.G.G.S.U.-X%X+X$X+X+X$X$X.X[.R.]..X#X",
"X.` @.J.K.[.=X-X>X*X>X:X#X[.T             . i B.J.J.G.G.D.S.G.G.G.G.S..X;X#X+X$X+X#X#X#X{.R.R.Y.{.{.",
"@.X.X.G.J.].#X*X>X*X$X#X@X[.!         @ u ^ S.H.G.G.G.G.G.D.G.G.G.D.G..X.X.X%X$X#X#X$X+X].R.R.[.[.R.",
"V.@.o.B.J.Y..X>X>X&XU.i ~ | u       +  .H.J.G.G.G.G.G.G.G.G.D.G.G.D.J.I.H.[.=X%X$X$X$X.XR.R.].{.R.R.",
"C.B.+.+.H.K.[.=X;X=XZ.+ $ t .     u N.H.H.G.G.G.G.G.G.G.G.G.G.G.D.G.].I.S.+X=X$X&X*X$X].R.R.[.[.R.R.",
"C.C.V.o.B.K.I. X%X.X~ A X 6 - + ! D.J.G.D.G.G.G.G.G.G.G.G.G.G.G.G.T.I.G.J.}.+X&X*X&X|.R.R.].[.R.R.].",
"C.S.C.+.X.B.H.C.G.^ ~ @.$   i A.J.H.G.G.G.G.G.G.G.G.G.G.G.G.G.G.G.L.G.T.}.XX].XX+X|.].R.R.[.].Y.]..X",
"C.C.C.B.X.' W T ! A.U.L.i T H.I.G.G.G.G.G.G.G.G.G.G.G.G.G.G.G.G.G.G.J.[.$X&X$X.X].].R.R.R.[.R.Y.{.*X"
};
