/* XPM */
static char *result[] = {
/* columns rows colors chars-per-pixel */
"50 50 256 2 ",
"   c #010304",
".  c #02060B",
"X  c #07090D",
"o  c #010613",
"O  c #040A13",
"+  c #0A0B11",
"@  c #0E071B",
"#  c #040D1C",
"$  c #0F0C1E",
"%  c #110A15",
"&  c #150F1A",
"*  c #0B1117",
"=  c #0A121C",
"-  c #0E181F",
";  c #11141D",
":  c #12191D",
">  c #000123",
",  c #030C23",
"<  c #00062B",
"1  c #040F29",
"2  c #1A0E22",
"3  c #1C0B2B",
"4  c #0B1523",
"5  c #0E1A24",
"6  c #07122E",
"7  c #0A152A",
"8  c #0D1928",
"9  c #111721",
"0  c #1A1422",
"q  c #121D26",
"w  c #181B25",
"e  c #111E29",
"r  c #000436",
"t  c #010B33",
"y  c #00073D",
"u  c #010D3A",
"i  c #160D32",
"p  c #0B1732",
"a  c #0E1A36",
"s  c #141E35",
"d  c #1A1F32",
"f  c #131E39",
"g  c #210D2B",
"h  c #220E33",
"j  c #290A34",
"k  c #2A0C39",
"l  c #25143D",
"z  c #172026",
"x  c #1B2226",
"c  c #14202A",
"v  c #1C242B",
"b  c #172133",
"n  c #1D2533",
"m  c #15213C",
"M  c #1D253D",
"N  c #212735",
"B  c #212937",
"V  c #242B3C",
"C  c #36233E",
"Z  c #000B40",
"A  c #031345",
"S  c #0B1A45",
"D  c #2B0B43",
"F  c #320B47",
"G  c #3E0B46",
"H  c #122142",
"J  c #1F2944",
"K  c #14244B",
"L  c #1A2A4D",
"P  c #1D2D52",
"I  c #2A2040",
"U  c #252D42",
"Y  c #232E48",
"T  c #2B3244",
"R  c #26314C",
"E  c #29344B",
"W  c #333B4C",
"Q  c #3C3F4D",
"!  c #202F52",
"~  c #273251",
"^  c #293453",
"/  c #2E3951",
"(  c #23335B",
")  c #2C3A5D",
"_  c #373555",
"`  c #303C57",
"'  c #303559",
"]  c #1F336A",
"[  c #1F396F",
"{  c #223362",
"}  c #263867",
"|  c #2F3F60",
" . c #21346A",
".. c #440C48",
"X. c #4D0B4D",
"o. c #560D52",
"O. c #610B55",
"+. c #690B58",
"@. c #700F54",
"#. c #750B5A",
"$. c #7D0B58",
"%. c #354152",
"&. c #3C4557",
"*. c #35425B",
"=. c #39455D",
"-. c #3F495E",
";. c #2F4064",
":. c #3F4C61",
">. c #384668",
",. c #3C4B6C",
"<. c #3F5271",
"1. c #414C5D",
"2. c #434E62",
"3. c #404F68",
"4. c #445065",
"5. c #485265",
"6. c #43536E",
"7. c #4C566A",
"8. c #57566D",
"9. c #525B6D",
"0. c #404671",
"q. c #435572",
"w. c #4B5975",
"e. c #4C5D7D",
"r. c #515C73",
"t. c #605E70",
"y. c #54617A",
"u. c #58647C",
"i. c #820B59",
"p. c #5A6783",
"a. c #5B6985",
"s. c #5E6C88",
"d. c #616D85",
"f. c #65738B",
"g. c #697790",
"h. c #6D7C95",
"j. c #72819A",
"k. c #74839C",
"l. c #73829B",
"z. c #78879C",
"x. c #78879C",
"c. c #7C8BA0",
"v. c #7F8EA1",
"b. c #7E8DA1",
"n. c #808FA4",
"m. c #808FA4",
"M. c #8391A1",
"N. c #8694A5",
"B. c #8391A2",
"V. c #8B9AA8",
"C. c #8E9CAA",
"Z. c #8B9AA8",
"A. c #92A1AE",
"S. c #92A1AE",
"D. c black",
"F. c black",
"G. c black",
"H. c black",
"J. c black",
"K. c black",
"L. c black",
"P. c black",
"I. c black",
"U. c black",
"Y. c black",
"T. c black",
"R. c black",
"E. c black",
"W. c black",
"Q. c black",
"!. c black",
"~. c black",
"^. c black",
"/. c black",
"(. c black",
"). c black",
"_. c black",
"`. c black",
"'. c black",
"]. c black",
"[. c black",
"{. c black",
"}. c black",
"|. c black",
" X c black",
".X c black",
"XX c black",
"oX c black",
"OX c black",
"+X c black",
"@X c black",
"#X c black",
"$X c black",
"%X c black",
"&X c black",
"*X c black",
"=X c black",
"-X c black",
";X c black",
":X c black",
">X c black",
",X c black",
"<X c black",
"1X c black",
"2X c black",
"3X c black",
"4X c black",
"5X c black",
"6X c black",
"7X c black",
"8X c black",
"9X c black",
"0X c black",
"qX c black",
"wX c black",
"eX c black",
"rX c black",
"tX c black",
"yX c black",
"uX c black",
"iX c black",
"pX c black",
"aX c black",
"sX c black",
"dX c black",
"fX c black",
"gX c black",
"hX c black",
"jX c black",
"kX c black",
"lX c black",
"zX c black",
"xX c black",
"cX c black",
"vX c black",
"bX c black",
"nX c black",
"mX c black",
"MX c black",
"NX c black",
"BX c black",
"VX c black",
"CX c black",
"ZX c black",
"AX c black",
"SX c black",
"DX c black",
"FX c black",
"GX c black",
"HX c black",
"JX c black",
"KX c black",
"LX c black",
"PX c black",
"IX c black",
"UX c black",
/* pixels */
"          . * * * * * * * * * . 7.n.z.K y 4 e n c e e e c * 2 O.i.#.h * * * * * * * * * * * * * * * ",
"          . * * * * * * * * % + y.v.) r H e e e e e e c # O G #.i.$.O.k * * * * * * * * * * * * * * ",
"      . X * * * * * * * * * X T j.p.Z A :.e e e e e e 4 O 2 G X.@.O.i...* * * * = * * * * * * * * * ",
"O + O X + * * * * * * * * O = a.h.>.r ) %.5 e e e 8 O + & 2 & & 3 X.i.+.j * * * * * * * * * * * * * ",
"* * * * * * * * * & & & &   %.k.r.f u ` q 5 e e c O . & & & 2 k 3 X.+.+.g O * * * * * * * * * * * * ",
"* * * * * * * * & & & & . x f.n.9.< a e 4 e e e e * & & 2 2 g 2 & & g o.G ; * * * = * * ; + + * * * ",
"* * * * * * * * * & & & . -.c.A.r.< 4 4 e e e e 5 % & % % % + 2 2 g 2 G o.h * = = e q - 9 9 9 ; * * ",
"* * * * * * * * * & ; + . ;.A.v.S < 5 e e e e e 8 4 % w W V B * + & & G ..q 5 = = - q c c c c e e e ",
"* * * * * * * * * & * O 1 S V.6.< 1 e e e e e 5 V ) t y.k.j.p.6 B % & 2 G h e e c e e e e e e e e e ",
"* * * * * * * * q e = x ) y ( S u 4 e e e e c = T >.Z h.C.V.! q.( , & & h e e e e e e e e e e e e e ",
"* * * * * * + * e c = n f.S y A t 5 e c c c 4   &.,.Z h.A.y.) u.A 3.+ + & e e e e e e q 5 e e e e e ",
"q q q q q ; ; 4 e e O o g.a.u t . O ; - * O   . 7.,.Z k.V.P s.S e./ o & & q c e 9 9 = = q e e e e e ",
"e e e e e e e e x x B > K h.E           . o * * t.,.Z v.f.K *.K w.S T + ; c e e e e 5 5 e e e e e e ",
"e e e e e e e x = 1.2.` u 7 q c 5 4 ; 5 e e X + d.,.Z k.*.M 6 ,.L <.2.$ q e e e e e c 9 9 e e e e e ",
"e q q e 5 5 e : B a.%.q.t     = 4 5 e 5 = . . . -.>.A r.O o   B l 2.T = v e e e e e e e e e e e e e ",
"e v x x c x x 9 &.d.n H , * .     . o . . - 4   e ) K %.  O j o.X._ c q e - 9 w e e e e e e e q x q ",
"e q x v B v B e 7.4.. < p c e 5 * * 4 5 e e w & # M H e . G C q.[ 1.4 U d T V x 9 5 e e e e e q x q ",
"q x x v V V V n 2.7   R Y 5 e e c c c e e = Q C O s a 4 i 8.t.0.' W e =.p.g.f.u.%.5 5 e c e e c q e ",
"e q x V V V B n s , # W V 5 e e e e e e 5 , E # = e K / i J _ I J E f.N.V.N.M.v.j.r.v w x e c c e e ",
"v e v V V V U e , s = n B 5 e e e e e e 4 ` L a o , L z.d.A ,.H / w.e.w.y.h.N.M.M.k.9.c 5 e e c e e ",
"x e v V V V V 4 E E 5 e e e e e e e e 4 E ( S g.W e w.V.A.e.S f S L A r r q.N.M.M.v.f.B 5 e e e e e ",
"q q n n V V B e 2.T 5 e e e e e e e e e 6 S f.k.h.a.f.j.z.h.Y y.k.f.S A f.V.v.v.M.M.g.M = e e e e e ",
"q x N V V B B d %.E 5 e e e e e e e e 4 # y.h.u.a.h.h.p.r.&.7.j.u.7 t a.n.n.M.v.M.M.g.d O c e q e e ",
"x v V V V V V n V %.5 e e e q q e 4 4 4 . e r.f.a.w.w.a.a.W &.B o   O v W d.M.M.M.z.d.d O c e e e e ",
"B V V V B V V B n / 7 4 e e 8 8 4 # 4 = O . = Q a.3.-.g.&.O o . o B / *.2.a.z.c.z.h.r.4 = c e e e e ",
"V V V B B V V N c B m , 4 4 , 1 = O = + O = .   ; &.5.n   o < t ( h.h.h.j.j.a.f.g.d.W . = c e e e e ",
"V V n B B V V v v v e , 1 4 4 4 o . + + O O o O .   X w ! ( K u t P h.j.h.h./ M 4.-.4 O 5 e e e e e ",
"V V V V B V V V B x q # , , , #   X h 3 . O . O * . R 6.q.*.r.s.! < L h.h.f.E . # , o = c e e e e e ",
"V V V V V B V V V B q O # = O O @ D F h O O O O . 7 m K , o t ;.k.;.> | j.u.n O # , # 9 c e e e e e ",
"V V V V V V V V V V # o O O $ h G G F k O o . O T ,.7.B v w.K > L z.! t y.7.4 , , # 7 c e e e e e e ",
"V V V V V V V V U e O O O 2 l D X.X.D h . o O = s 4 O q 5.s.g.) < | u.t U M , # O = c e e q e e e e ",
"V V V V V V V V B O O O h D l I F j $ e E =.4.6.2.4.4.w.p.a.s.f.L t :.e . O , O = x x c e x q e e e ",
"V V V V V V B V 4 o O h D k l D @ w %.q.r.p.a.p.a.s.s.s.a.p.a.a.3.o O X   = , 5 c c x e e q z e e e ",
"V V V V V B V n o o 2 h 3 D D @ n 6.y.p.a.a.a.a.a.a.a.a.a.a.s.y./ . . +   # e c e e c x e e e e e e ",
"V V V V V B V B O o O $ h D 3 n q.r.a.a.a.p.p.a.a.a.a.a.y.p.e.=.=   . +   = c x x x x x q e e e e e ",
"V V V V V V V V q . $ h h 3 q 2.6.r.a.p.a.a.a.r.u.y.u.w.q.e.3.e O O o o   5 c c x q q q e e e e e e ",
"n V V V V V V V V 9 3 h 3 $ %.6.q.q.9.7.w.r.r.6.7.7./ 7 / q./ o O . . . * c e e q q q z e e e e e e ",
"n V V V V V V V V U d h @ U q.q.q.<.6.6.<.<.q.q.q./ , e ` ` e     . + = c c c e q q q z e e e e e e ",
"B V V V V V V V V V V ; e 2.q.q.q.q.q.q.q.q.q.6./ # # n M =     O * q c e e e q e e e x x c e e e e ",
"n B V V V V V V V V n 4 ` 4.q.q.q.q.q.6.6.6.=.E = O O .         # e c e e e q e e e e e x x q e e c ",
"B V V V V V V V V B q R 4.3.3.4.4.:.*./ R s 4 O # X     . . o o O 5 e e e e e e e 5 e e e e e q e e ",
"b V V V V V V V U w n :.2.:.2.-.E s 4 O o o O O O   . O = *   O O M 4 e e e x q e q q e e e e x q e ",
"e n V V V V V U c e ` 2.:.2.=.Y # O O , , = = .   . O O # . O o * ^ e - e q x q v x x q q x x x q q ",
"e n V V V R E e e ~ =.4.4.*.Y = O = = = = * .       O o   O # . a ) { : 9 x x x x x x q x x x x q q ",
"e n V U ^ U e d R ` 2.*.` R 4 . * = O O .     . O .   O O # O # J }  .! n 9 : x v q q q v x x x x x ",
"e c U B 5 ; B ^ R E ^ R U 5 o O o .       . O # , , , , O O O p E s H [ } ( M q w x x x x x x x x x ",
"e c e 4 n E E ~ ~ ~ U 5 O o o .       . O O O # # O O O O o = M a , {  .] [ ( R b : x x x v e q q x ",
"c e ; R R V T R U E e o O O       O , , O O # # # # , 1 , . 0 a , m }  . . . .{ ^ M : x v q e q q q ",
"x 9 c R R V n 4 M E q o O O     O 1 1 1 1 1 1 1 1 1 6 , # X ; , 7 E ( ] ] ] ] ] ( ^ M w x e e q e e ",
"5 o O V T n . e ^ U 4 o O O .   O 1 , 6 1 , 1 , 1 1 1 , o . $ , M R ( ] ] ] ] ] ( R ^ b = e e e e e "
};
