/* XPM */
static char *result[] = {
/* columns rows colors chars-per-pixel */
"50 50 256 2 ",
"   c #010304",
".  c #02060B",
"X  c #09060C",
"o  c #050B0E",
"O  c #000312",
"+  c #080515",
"@  c #050B13",
"#  c #0B0D13",
"$  c #000518",
"%  c #040C1C",
"&  c #0A0E18",
"*  c #120D15",
"=  c #120718",
"-  c #140E1A",
";  c #0B1117",
":  c #0C131C",
">  c #12161E",
",  c #12191E",
"<  c #030D23",
"1  c #030D29",
"2  c #160D22",
"3  c #1A0E24",
"4  c #1B0D2A",
"5  c #061027",
"6  c #0D1522",
"7  c #0E1A24",
"8  c #04102C",
"9  c #0B152A",
"0  c #0F1829",
"q  c #151623",
"w  c #131D26",
"e  c #181D21",
"r  c #111F29",
"t  c #181E2C",
"y  c #000436",
"u  c #000E33",
"i  c #000739",
"p  c #000E3D",
"a  c #011136",
"s  c #081533",
"d  c #0D1936",
"f  c #021139",
"g  c #1F1033",
"h  c #121D35",
"j  c #200C2C",
"k  c #201029",
"l  c #230D30",
"z  c #2A0D33",
"x  c #260C39",
"c  c #320C3D",
"v  c #380B3F",
"b  c #271034",
"n  c #281537",
"m  c #2A123F",
"M  c #1C2225",
"N  c #15202A",
"B  c #1A222A",
"V  c #162033",
"C  c #1B2433",
"Z  c #15213C",
"A  c #1B243A",
"S  c #212032",
"D  c #212836",
"F  c #242B3C",
"G  c #061640",
"H  c #081741",
"J  c #0E1E46",
"K  c #061648",
"L  c #0B1B48",
"P  c #2B0B43",
"I  c #3C0D45",
"U  c #3B1343",
"Y  c #132144",
"T  c #192443",
"R  c #1D2943",
"E  c #1B2949",
"W  c #1C2C54",
"Q  c #232D44",
"!  c #282D44",
"~  c #242D4B",
"^  c #293345",
"/  c #24314B",
"(  c #2B364C",
")  c #323A4B",
"_  c #232755",
"`  c #263252",
"'  c #2A3653",
"]  c #2C3953",
"[  c #24345B",
"{  c #29385F",
"}  c #343E54",
"|  c #3F3957",
" . c #303D59",
".. c #1F336A",
"X. c #233565",
"o. c #2C3B62",
"O. c #20346E",
"+. c #273B6C",
"@. c #410B46",
"#. c #4D0A47",
"$. c #450B4A",
"%. c #4C0A4E",
"&. c #4F0D53",
"*. c #540B51",
"=. c #5A0A54",
"-. c #630B54",
";. c #6C0B55",
":. c #7A0C56",
">. c #740B59",
",. c #7C0B5B",
"<. c #611F57",
"1. c #4A2E59",
"2. c #583457",
"3. c #344154",
"4. c #394253",
"5. c #35405C",
"6. c #3C455B",
"7. c #3F495E",
"8. c #344263",
"9. c #3B4760",
"0. c #3E4B62",
"q. c #36476B",
"w. c #394A6C",
"e. c #40475C",
"r. c #414B5F",
"t. c #424E62",
"y. c #4A4A69",
"u. c #445065",
"i. c #4B5467",
"p. c #44536B",
"a. c #4B576E",
"s. c #525463",
"d. c #505769",
"f. c #435473",
"g. c #4E5A73",
"h. c #4D5D7C",
"j. c #545D73",
"k. c #566178",
"l. c #59657E",
"z. c #5F697F",
"x. c #800B58",
"c. c #556481",
"v. c #596784",
"b. c #5C6985",
"n. c #5C6A88",
"m. c #606D85",
"M. c #657186",
"N. c #65728A",
"B. c #6A768B",
"V. c #667590",
"C. c #6B7993",
"Z. c #707D95",
"A. c #728097",
"S. c #75849B",
"D. c #78879E",
"F. c #7C8A9D",
"G. c #7C8CA1",
"H. c #82909F",
"J. c #808FA1",
"K. c #8492A2",
"L. c #8595A7",
"P. c #8391A2",
"I. c #8997A7",
"U. c #8997A7",
"Y. c #8D9BAA",
"T. c #909FAB",
"R. c #96A4AE",
"E. c #96A4AE",
"W. c black",
"Q. c black",
"!. c black",
"~. c black",
"^. c black",
"/. c black",
"(. c black",
"). c black",
"_. c black",
"`. c black",
"'. c black",
"]. c black",
"[. c black",
"{. c black",
"}. c black",
"|. c black",
" X c black",
".X c black",
"XX c black",
"oX c black",
"OX c black",
"+X c black",
"@X c black",
"#X c black",
"$X c black",
"%X c black",
"&X c black",
"*X c black",
"=X c black",
"-X c black",
";X c black",
":X c black",
">X c black",
",X c black",
"<X c black",
"1X c black",
"2X c black",
"3X c black",
"4X c black",
"5X c black",
"6X c black",
"7X c black",
"8X c black",
"9X c black",
"0X c black",
"qX c black",
"wX c black",
"eX c black",
"rX c black",
"tX c black",
"yX c black",
"uX c black",
"iX c black",
"pX c black",
"aX c black",
"sX c black",
"dX c black",
"fX c black",
"gX c black",
"hX c black",
"jX c black",
"kX c black",
"lX c black",
"zX c black",
"xX c black",
"cX c black",
"vX c black",
"bX c black",
"nX c black",
"mX c black",
"MX c black",
"NX c black",
"BX c black",
"VX c black",
"CX c black",
"ZX c black",
"AX c black",
"SX c black",
"DX c black",
"FX c black",
"GX c black",
"HX c black",
"JX c black",
"KX c black",
"LX c black",
"PX c black",
"IX c black",
"UX c black",
/* pixels */
"          . ; ; ; ; ; ; ; ; ; ; ; @ j *.,.:.:.:.:.x.:.;.;.x.x.#.3 - ; ; ; ; ; ; ; ; ; ; ; ; ; ; ; ; ",
"          . ; ; ; ; ; ; ; ; - # l $.;.x.:.:.x.x.:.-.$.3 v ;.:.x.>.c @ ; ; ; ; ; ; ; ; ; ; ; ; ; ; ; ",
"      . o ; ; ; ; ; ; ; ; ; * - I >.;.;.x.>.$.-.*.4 2 # : v ,.x.x.-.z ; ; ; ; ; ; ; ; ; ; ; ; ; ; ; ",
"@ # @ o # ; ; ; ; ; ; ; ; ; @ 4 *.x.*.I =.;.I - l 3 * - z &.=.-.:.,.2 o ; ; ; ; ; ; ; ; ; ; ; ; ; ; ",
"; ; ; ; ; ; ; ; ; - - - - : @ - -.-.- # v z z 4 # - - - j k 2 I -.,.=.l ; ; ; ; ; ; ; ; ; ; ; ; ; ; ",
"; ; ; ; ; ; ; ; - - - - ; ; - $.,.#.4 z $.*.z z j - - - - - z q z v -.@.# ; ; ; : : ; ; - # ; ; ; ; ",
"; ; ; ; ; ; ; ; ; - - - : : g =.>.%.$.%.&.I j k c l - - 3 4 3 - * z -.=.j : ; # : r w 6 q w w - * : ",
"; ; ; ; ; ; ; ; ; - : : 7 7 k *.I 3 - x k z 4 & * 3 2 * * * - 3 x z $.%.4 7 : # : 6 7 N r r N w > r ",
"; ; ; ; ; ; ; ; ; - ; ; ; : q =.v - - 3 #   . . @ . : q : * - * 3 j v $.2 N D B 7 7 r r r r r r r r ",
"; ; ; ; ; ; ; ; w w w r r r I *.k - -     : F s.^ 1 0.B.v.e.$ & - - - j ! d.z.l.i.D : r r r r r r r ",
"; ; ; ; ; ; # ; r r r r w N g x - -   . $ g.S.L.f.y v.T.Y.W [ / O - * = 4.B.S.F.D.m.^ : r r r r r r ",
"w w w w w > > 6 r r e N B B q 2 - &   N o.o.Y.T.f.y c.R.N.K n.J 5.& * * ) C.P.K.K.D.l.N 7 r r r r r ",
"r r r r r N r 7 , e e , : @ # - -   B J h.W S.R.h.y n.R.[ 8.o.o.f.< * * - l.I.H.P.P.A.) ; r r r r r ",
"r r r r r r : D r.d.j.u.C . @ @ - . Q 8.[ w.f.R.h.y N.H.J c.K m.J 8.- . ^ C.P.H.J.K.D.7.# r r r r r ",
"r w w r r @ } Z.G.H.K.S.l.: O @ * D T 8.T 5._ L.l.y V.B.Y | ~ [ X.l.= * 6 l.J.K.P.I.D.u.@ r r r r r ",
"r B M M : 4.S.P.K.P.T.l.f %   : @ 4.6.Y 9 + 4 z.h.y n.r.= . ^ R y.6.; k + F D.I.Y.S.D.) @ r r w B w ",
"r w M e ^ Z.I.K.P.P.I.N.y ~ # e : ( &.v S @   C g.p f.:   % x #.<.C . S 4 @ b.G.a.J V.r : r r w M w ",
"w M M , j.G.K.J.D.C.M.a.1 ] B B t ^ ^ _ <.n . o 4.G ] . 4 v 1.W 3.6 : ! m @ V G y K ] 9 : w w w w r ",
"r w e B m.G.J.C.9.B @ .   # 0 9 F C 7.+.d.2.n . V H E 0 1.s.j.X.4.7 A I %.=   8 W < $ R % M M w r r ",
"B w e ^ B.Z.Z.A O C ( F .   : $ 6 3.r.m 1.y.~ - @ f 9.4.~ j.F ! E ^ b %.*.k @ 6 0   F E : r w w r r ",
"M r e ^ M.S.a.9 z.C.g.8.f O o 5 @ 6 A / Y W d 6 @ u m.Z.Y o.E [ ^ : n %.%.m @ @ . V W Y B r r r r r ",
"w w B B j.B.4.N.f.G K W 8.[ 6 . @ . @ E q.J f.0 O E S.R.N.f h.Y @ = %.%.%.b .   @ R u A 4.: r r r r ",
"w M D B ^ j.M.o.G o.9.h.q.w.} @ . @ . A Y w.G.j.9 u.D.I.K.8.Y ^   b %.%.$.2 . . @ V % 5 u.w r w r r ",
"M B F F t } [ K n.^ < Y W L 8   @ @ . . 6.B.g.C.v.m.B.C.p.B./ O % I %.%.$.& @ ; @ $ A G 6.D 7 w r r ",
"D F F F D r G c.J O 7.C.S.C.7.#     . @ q j.a.( 4.4.3.Q d.j.0 $ : U %.%.I @ ; @ @ N m.`  .F 7 r r r ",
"F F F D N < h.W d % 4.m.l.) 0 @ .   @ j + : r.} F ^ 1 u } : @ : : I %.*.z . % @ B k.Z.` ` N 7 r r r ",
"F F C D w ^ 8.J j.: D u.0   . . . . & l n % . ^ 9.R a f u . r < 6 I %.$.2 . w N u.N.C.E / e N r r r ",
"F F F F C ] p h.m.0 $ 5 0 ) 6.) C @ = x m 4   . < u f f f 1 u / n P P P @ @ ^ ) m.B.m.J D e w r r r ",
"F F F F D 9 W V.l.0 . ) k.z.m.m.l.u.S 4 m P . @ 1 f f f u W v.u.g P P g @ % } a.M.Z.f.9 e r r r r r ",
"F F F F D $ 0.V.p.$ 4.m.m.N.N.b.N.m.a.n x m @ < 8 f f a 1 p.p.a g P P = @ % 4.b.N.B.` % w r r r r r ",
"F F F F F 6 ( g.g.t.b.n.b.v.n.n.N.m.n.p.g j & 1 8 f f f a E J / n P P % & : ( j.m.m.E % N r r r r r ",
"F F F F F D @ A l.N.n.v.n.k.j.b.b.n.n.l.} 4 % a a f f f f f d 9 g P 4 # @ @ 6 C t.g.T : N r r r r r ",
"F F F F F ^ w 6 u.v.m.n.n.l.0.4.l.b.n.l.g.F < f a 8 f f f f u % j P 4 # % A 6 . 9 V 5 t M N r r r r ",
"F F F F F D D t ] ^ l.n.l.b.l.A r r.j.g.h.D 1 f a a a a f f 8 o 4 P 4 # Q / < 4 j $ % 7 N r r r r r ",
"F F F F F D F : t 9 6.l.b.k.l.f.r . Q p.0.% a f 1 1 < 1 f f 5 @ - l 3 , V % < 9 # .   . r r r r r r ",
"F F F F F D F B   . Q f.l.g.g.f.f.t . t r 1 1 1 d } } ' J f 1   = l 2 @ . @ . . . .     w r r r r r ",
"C F F F F F F ^ ;   . / u.f.f.f.f.p.V . $ u V ^ u.0.7.4.d u 1 . : l : @           .     7 r r r r r ",
"C F F F F F F F C     . 0 Q 0.p.f.f.u.A Q ] a.p./ % $   % u < $ , = 7 ;           . .   7 r r r r r ",
"D F F F F F F F ^ :   . . . 6 / 0.u.t.) p.a.3.9 O . % 6 < 1 @ @ < o B 7         . . . . M N r r r r ",
"C D F F F F F F F D @ .     . @ V 5.5.] ^ 6 6 % . @ ~ ] V 5.t . < 7 N r : : @ : r 7 r r N M w r r r ",
"D F F F F F F F D D F e @         @ V ^ ( R } ( @ t 5.u.t.0.V $ % N r r r r r r r r r r r r r w r r ",
"V F F F F F F F F F F D ; . . .     . ^ u.0.u.0.( ( 0.u.u.] t $ : R 7 r r r M N r w w r r r r M w r ",
"r C F F F F F F F F F % . . 5 < @     / 0.t.t.u.0.0.u.7.] F % @ 6 ' V : r w M w B M M w w M M M w w ",
"r C F F F Q Q ~ ~ Q F 5 <   . 5 1   . / 9.t.0.} ' ] ] ' A % $ O V { [ w r M M M M M M w M M M M w w ",
"r C F ! ` ` ` ` ~ 6 < < 1 < . @ < < $ 6 Q ' ' / N : : 6 $ $ @ < ~ X.O.[ V q e M B w w w B M M M M M ",
"r w F F ` ` ` / R r h r < < < @ @ % % @ @ : e & @ @ @ $ @ @ $ h ' T W O.X.[ Z : M B M M M M M M M M ",
"r w F Q ` ` Q F ` ' ~ R A 5 < 1 % . @ @ @ . . . @ @ @ % % o @ ^ T 8 X.O...O.X.~ w e B M M B r w w M ",
"w r F ' ~ V A / ` [ [ Y H V 9 < . @ < 5 < % $ $ $ % < 1 < . . t < V X...O.O.O.X.` r e B M w r w w w ",
"M C F A r Q ` ` / X.O.' ` h s :   % 1 1 1 1 1 1 1 1 1 1 < .   % 5 / [ ..........' ` r M M r r w r r ",
"r r : t ` ` ` ` ` ....[ ( ` 5 & . . 1 1 1 1 1 1 1 1 1 1 <   X - t ( [ ..........[ ` ` w r r r r r r "
};
