/* XPM */
static char *result[] = {
/* columns rows colors chars-per-pixel */
"50 50 256 2 ",
"   c #010304",
".  c #02060A",
"X  c #03090F",
"o  c #000515",
"O  c #030914",
"+  c #0C0B14",
"@  c #040B1A",
"#  c #0A0F18",
"$  c #130D17",
"%  c #140F1A",
"&  c #0B1116",
"*  c #0C131C",
"=  c #11141D",
"-  c #12181E",
";  c #030D23",
":  c #00072E",
">  c #040E2B",
",  c #120723",
"<  c #140C21",
"1  c #190D24",
"2  c #1D0E29",
"3  c #0B1422",
"4  c #0E1B24",
"5  c #051028",
"6  c #0A152A",
"7  c #131521",
"8  c #181327",
"9  c #131D26",
"0  c #111E29",
"q  c #000934",
"w  c #000C3E",
"e  c #1F0F30",
"r  c #071330",
"t  c #03123B",
"y  c #121D35",
"u  c #200C27",
"i  c #210D2C",
"p  c #270D33",
"a  c #240C39",
"s  c #2F0C3D",
"d  c #320E39",
"f  c #25153D",
"g  c #1B2225",
"h  c #152029",
"j  c #1B222B",
"k  c #172035",
"l  c #1C2433",
"z  c #14203F",
"x  c #19243D",
"c  c #212837",
"v  c #222738",
"b  c #242B3C",
"n  c #2F2D38",
"m  c #091642",
"M  c #0D1C46",
"N  c #06174A",
"B  c #0C1E56",
"V  c #2B0B43",
"C  c #340C40",
"Z  c #3C0C44",
"A  c #2B1741",
"S  c #132345",
"D  c #17264D",
"F  c #1B2B4E",
"G  c #1A2A55",
"H  c #1D2D5A",
"J  c #212C43",
"K  c #232D4B",
"L  c #263046",
"P  c #2B3444",
"I  c #273248",
"U  c #28334E",
"Y  c #2F384A",
"T  c #313847",
"R  c #343C4F",
"E  c #273253",
"W  c #2C3750",
"Q  c #2F3B54",
"!  c #23325D",
"~  c #2F3E5E",
"^  c #323C52",
"/  c #1F336A",
"(  c #223466",
")  c #293862",
"_  c #20346D",
"`  c #243B6A",
"'  c #440B47",
"]  c #4B0C4B",
"[  c #540B4B",
"{  c #5A0B54",
"}  c #6B0B57",
"|  c #650B58",
" . c #790B59",
".. c #58285B",
"X. c #4B3B5E",
"o. c #364156",
"O. c #394356",
"+. c #39475F",
"@. c #3F485C",
"#. c #354364",
"$. c #384766",
"%. c #3E4C67",
"&. c #3D4C6D",
"*. c #3A4C72",
"=. c #37507C",
"-. c #424B5D",
";. c #414D62",
":. c #465166",
">. c #495367",
",. c #43526B",
"<. c #4B556A",
"1. c #4D586C",
"2. c #525B6E",
"3. c #415173",
"4. c #4D5A74",
"5. c #475979",
"6. c #505E79",
"7. c #546077",
"8. c #55637C",
"9. c #5A637A",
"0. c #810B59",
"q. c #546482",
"w. c #596782",
"e. c #5C6984",
"r. c #5E6C88",
"t. c #616E83",
"y. c #616F88",
"u. c #647186",
"i. c #65738D",
"p. c #69768C",
"a. c #697791",
"s. c #6B7A94",
"d. c #6E7E99",
"f. c #717F97",
"g. c #728197",
"h. c #75849B",
"j. c #78879E",
"k. c #7D8B9E",
"l. c #7C8CA1",
"z. c #818F9F",
"x. c #808EA2",
"c. c #8493A4",
"v. c #8695A4",
"b. c #8391A1",
"n. c #8896A5",
"m. c #8B99A7",
"M. c #8E9CAB",
"N. c #92A0AD",
"B. c #92A0AD",
"V. c black",
"C. c black",
"Z. c black",
"A. c black",
"S. c black",
"D. c black",
"F. c black",
"G. c black",
"H. c black",
"J. c black",
"K. c black",
"L. c black",
"P. c black",
"I. c black",
"U. c black",
"Y. c black",
"T. c black",
"R. c black",
"E. c black",
"W. c black",
"Q. c black",
"!. c black",
"~. c black",
"^. c black",
"/. c black",
"(. c black",
"). c black",
"_. c black",
"`. c black",
"'. c black",
"]. c black",
"[. c black",
"{. c black",
"}. c black",
"|. c black",
" X c black",
".X c black",
"XX c black",
"oX c black",
"OX c black",
"+X c black",
"@X c black",
"#X c black",
"$X c black",
"%X c black",
"&X c black",
"*X c black",
"=X c black",
"-X c black",
";X c black",
":X c black",
">X c black",
",X c black",
"<X c black",
"1X c black",
"2X c black",
"3X c black",
"4X c black",
"5X c black",
"6X c black",
"7X c black",
"8X c black",
"9X c black",
"0X c black",
"qX c black",
"wX c black",
"eX c black",
"rX c black",
"tX c black",
"yX c black",
"uX c black",
"iX c black",
"pX c black",
"aX c black",
"sX c black",
"dX c black",
"fX c black",
"gX c black",
"hX c black",
"jX c black",
"kX c black",
"lX c black",
"zX c black",
"xX c black",
"cX c black",
"vX c black",
"bX c black",
"nX c black",
"mX c black",
"MX c black",
"NX c black",
"BX c black",
"VX c black",
"CX c black",
"ZX c black",
"AX c black",
"SX c black",
"DX c black",
"FX c black",
"GX c black",
"HX c black",
"JX c black",
"KX c black",
"LX c black",
"PX c black",
"IX c black",
"UX c black",
/* pixels */
"          . & & & & & & & & & & & i ]  .0. .} 0. .} ' 1 1 Z } 0.} Z # & & & & & & & & & & & & & & & ",
"          . & & & & & & & & % $ % ] | ] [  .] d [ { ] % + p | 0.0.} d = & & & & & & & & & & & & & & ",
"      . X & & & & & & & & & % % p }  .' C ] [ p & s C $ % s ] }  .} ] 1 & & & & & & & & & & & & & & ",
"O + O X # & & & & & & & & & & & 2 0.] # 2 Z 1 p i 1 p % % % u d p | [ % & & & & & & & & & & & & & & ",
"& & & & & & & & & % % % % & & = [  .p % i p u 1 s p % % % % 2 i 1 d ] Z = & & & & & & & & & & & & & ",
"& & & & & & & & % % % % & & % Z | ] p 2 2 p p 2 i Z i $ 1 2 2 1 $ % C Z 1 & & & * * & & % # & & & & ",
"& & & & & & & & & % % % * 4 4 ' Z 1 $ % 2 u i 1 + % 2 $ $ + $ % i Z i Z Z 7 & # * 0 9 3 7 9 9 % $ * ",
"& & & & & & & & & % * * 4 4 = ] { 2 $ 2 2 + . . + # # % 8 8 7 + u p 2 ' C 4 4 * * * 4 h 0 0 h 9 - 0 ",
"& & & & & & & & & % & & & * 7 ] Z 1 % % + # 9 Y 2.y q 8.y.u.K @ % $ $ 1 p 8 0 0 0 0 0 0 0 0 0 0 0 0 ",
"& & & & & & & & 9 9 9 0 0 0 e ] C % % X X 0 p.l.k.M w j.M.f.t &.y % % $ % 7 0 0 0 0 0 0 0 0 0 0 0 0 ",
"& & & & & & # & 0 0 0 0 0 0 0 e u % X   Y F q.N.v.D w k.N.~ ) 3.N O.+ $ 7 0 * * 4 4 0 0 0 0 0 0 0 0 ",
"9 9 9 9 9 - - 3 0 0 h 9 9 - # # % + . Y D 3.G m.n.G m b.k.m e.m q.K + % + b -.o.k 4 4 9 0 0 0 0 0 0 ",
"0 0 0 0 0 0 0 0 g 9 9 9 * O O + % . . ,.E #.G t.N.H m m.6.! &.G 7.M Y + $ O.a.f.i.1.l * - 0 0 0 0 0 ",
"0 0 0 0 0 0 0 9 9 P ;.4.w.O.0 O $ . b J ,.y z #.N.~ m k.~ ~ D 4.K 5.O.. 1 ^ g.v.b.j.e.9 # 0 0 0 0 0 ",
"0 9 9 0 4 4 9 g >.s.h.l.j.y.z > c * 1.x 6 . . l g.#.M 8.= & @ J F i.n + 2 K s.c.b.v.h.O.* 0 0 0 0 0 ",
"0 j g h g g - @.g.b.v.v.h.4.0 . O X b k , < .   -.&.B ^   @ % d ] X.9 = a A t.b.v.m.j.2.4 4 0 9 j 9 ",
"0 9 g g b j l i.c.b.b.h.I o y z S E ) ;.X.Z u   l ~ m *   f ....E -.O j a V 8.n.n.p.x.t.0 * 0 9 g 9 ",
"9 g g g b k T h.v.v.h.I O L E 3.3.) ! ! F S e + * Y Q P b < n =.` O.L l a a 8.g.E M k.y.0 9 9 9 9 0 ",
"0 9 g v b j O.h.v.c.>.o z #.w.D m 5.j.l.s.&.U >.y.g.l.l.h.y.:.I > W c . Z A J t : N d.<.O g g 9 0 0 ",
"j 0 g b b j ;.h.m.p.y 6 %.p.m M i.f.y.t.g.x.v.c.v.b.b.v.b.b.l.g.6.0   % ] A o S H N s.P O 9 9 9 0 0 ",
"g 0 g b b j O.h.m.t.E m :.9 o x 0 o 6 7.b.v.b.b.b.z.z.z.z.b.b.v.l.t.v , ] C 7 u.$.N e.* * 0 0 0 0 0 ",
"h 9 l l b 9 Y s.v.b.z 5.;.. # O * P y.l.v.b.b.z.z.z.z.z.z.z.z.b.b.l.y.R f 1 . P S D P * 3 0 0 0 0 0 ",
"9 g l b b l l e.x.s.t s.D M e.9.u.s.d.h.l.x.b.b.b.z.z.z.z.z.z.z.b.b.j.i.>.b * .   . o 6 k * 0 9 0 0 ",
"g g b b b b j O.j.e.M p.w *.x.d.d.d.i.8.y.a.f.h.k.b.b.z.z.z.z.z.z.z.v.l.s.i.t.7.:.T y S S @ 4 4 4 4 ",
"c b b b v b b 0 ~ %.S y.w w.N.h.d.d.i.c 3 c @.r.s.j.b.b.b.z.z.z.b.b.z.b.b.h.d.d.d.s.s.i.4.R b k 0 4 ",
"b b b v c b b l o q t 8.N G 4.6.2.t.i.r.P @ o j 6.s.h.b.x.k.k.k.k.k.b.b.k.g.s.s.s.s.d.d.d.s.t.9.2.;.",
"b b l v c b b l 9 z m $.E q : .   b @.-.o.z o   * ^ 4.i.d.h.d.d.s.s.f.d.s.s.y.8.s.s.s.s.s.s.s.s.a.r.",
"b b b b c b b b v 4 3 0 U r E 0 .         . . .     o 6 K +.4.r.a.s.s.a.a.i.o.Q p.p.s.s.s.s.s.d.i.7.",
"b b b b b b b b v @ . @ 1 O l J 3 X . . . . X * O     .   . @ r x W ~ ;.<.,.6 J p.p.s.s.s.s.s.r.q.O.",
"b b b b b b b b b @ o 3 p 2 % % = # % @ @ * 7 0 6 3 9 ; @ X             . X   0 7.u.a.s.s.p.8.8.7.1.",
"b b b b b b b b b 3 o 2 V V f V A p e y 4 @ , @ ; 6 0 0 5 ; ; ; @ O   . .     O +.e.u.a.p.y.,.k T 2.",
"b b b b b b b b b v @ 2 f e l b V V 1 0 ^ W k @ ; 3 4 3 ; 5 6 6 3 @ 6 o.;.o.0   3 %.9.e.e.6.e.-.k ;.",
"b b b b b b v b b b l < # 2 A b V V 1 * 6 r U W x X   O k U J 3 ; 5 O.4.9.7.,.P o ; o.6.7.o.:.9.7.>.",
"b b b b b v b b b b b * + V V V V 2 # ; 3 j k k 0 @   X 4 y 6 ; o J 1.9.e.e.8.4.J   o J ;.4.<.,.F 6 ",
"b b b b b v b b b b b j 1 a V V < * @ @ ; 5 ; @ @ o X 4 1 1 ; O @ O.,.w.e.e.r.4.,.j   . 7 J j t : ; ",
"b b b b b v b v b b b v 2 e p 1   . 6 3 o @ 0 b ; ; ; 6 2 Z ; ; 5 z +.2.e.e.e.7.5.Q   O X . . o ; 5 ",
"l b b b b b b b b b b b l e 2 X X   # c 3 o 0 0 O O ; ; X . . @ > t $.4.4.7.4.5.%.6 @ g 9 4 4 X . o ",
"l b b b b b b b b b b b b j %   X #   @ ; ; ; .     . O ; X X X   5 +.3.$.E K y ; ; g g 0 0 0 0 4 & ",
"c b b b b b b b b b b b l 6 ; O . X @ ; @ O ;         . . . . X . @ Q x ; @ ; 3 4 0 0 g g h 0 0 0 0 ",
"l c b b b b b b b b v v 3 > ; X O .   # * @ ;   . .   . X     O @ O 0 3 3 4 9 0 9 9 0 0 g g 9 0 0 0 ",
"c b b b b b b b b v b v 6 ; .   . @ .   X X O X .     . X     X O * 9 0 0 0 0 0 0 4 0 0 0 0 0 9 0 0 ",
"k b b b b b b b b b b j @ 5 @ X     X     .   @ X             . * l 4 0 0 0 g 9 0 9 9 0 0 0 0 g 9 0 ",
"0 l b b b b b b b b b ; o O 5 5 @ X . .   .     . @ O . .     . 0 U 0 - 0 9 g 9 j g g 9 9 g g g 9 9 ",
"0 l b b b J J K K b c 5 ; . O > > > ; . . X .       O @ @ X . o y ) ! 9 0 9 g g g g g 9 g g g g 9 9 ",
"0 l b J E E E E U 3 @ ; 5 ; . O ; > 5 ; @ @ @ X . O @ ; @ O O ; I ( _ ! J j 9 g g 9 9 9 j g g g g g ",
"0 9 b b E E E J k k y 5 ; ; ; O O O @ ; 5 ; 5 > ; ; ; ; O O @ z K r H _ ( ! J - 9 g g g g g g g g g ",
"0 9 b J E E J k K E W I y ; ; ; O O O O O O @ o O O O @ @ X * J > y ` _ / _ ! E k - g g g j 0 9 9 g ",
"9 0 b E E k 0 K E K z x J y ; . . ; ; ; @ @ @ @ @ @ ; 5 ; . + 6 ; J ( _ _ _ _ ( E x - g g 9 0 9 9 9 ",
"g l b J y x E E U ! M ; ; 0 = X . ; 5 > > > > > > > 5 5 o . + @ y U ! / / / / / E E x 9 g 0 0 9 0 0 ",
"0 9 0 9 K E E E E _ _ K 6 @ % # @ 5 > ; > > > > > > > @ .   + ; b U ! / / / / / ! E E k * 0 0 0 0 0 "
};
