/* XPM */
static char *result[] = {
/* columns rows colors chars-per-pixel */
"50 50 256 2 ",
"   c #010305",
".  c #02060C",
"X  c #050B0D",
"o  c #000612",
"O  c #040A13",
"+  c #0A0F15",
"@  c #000419",
"#  c #040C1B",
"$  c #0B0A1B",
"%  c #140E1B",
"&  c #0B1117",
"*  c #0B141C",
"=  c #11121B",
"-  c #10191E",
";  c #040E24",
":  c #00062F",
">  c #020C29",
",  c #160E24",
"<  c #1D0B25",
"1  c #1A0F2C",
"2  c #0A1422",
"3  c #0E1A24",
"4  c #051028",
"5  c #0B152B",
"6  c #111721",
"7  c #131D26",
"8  c #191A25",
"9  c #111E29",
"0  c #000035",
"q  c #000B3D",
"w  c #1F0E30",
"e  c #0D1933",
"r  c #03123C",
"t  c #0D173A",
"y  c #121C32",
"u  c #200B2A",
"i  c #220B35",
"p  c #250E3C",
"a  c #280D3F",
"s  c #35093D",
"d  c #241231",
"f  c #172026",
"g  c #1B2225",
"h  c #13202A",
"j  c #1B232B",
"k  c #162133",
"l  c #1D2433",
"z  c #1B253B",
"x  c #212735",
"c  c #222937",
"v  c #21273A",
"b  c #2A273F",
"n  c #242B3C",
"m  c #0D1C40",
"M  c #061548",
"N  c #0B1B48",
"B  c #2B0C44",
"V  c #3E0641",
"C  c #320C43",
"Z  c #122244",
"A  c #182540",
"S  c #1F2A45",
"D  c #13234D",
"F  c #192751",
"G  c #1A2B53",
"H  c #1D2D59",
"J  c #242D44",
"K  c #392240",
"L  c #273143",
"P  c #2B3443",
"I  c #26314C",
"U  c #29334A",
"Y  c #2D384B",
"T  c #343E4F",
"R  c #202D52",
"E  c #263252",
"W  c #293353",
"Q  c #2D3A53",
"!  c #23335C",
"~  c #2F3B5D",
"^  c #303D54",
"/  c #313659",
"(  c #1E3265",
")  c #1F336B",
"_  c #263667",
"`  c #293961",
"'  c #22366D",
"]  c #480947",
"[  c #400A49",
"{  c #4E094E",
"}  c #5D0B51",
"|  c #670B56",
" . c #6E0B58",
".. c #760B59",
"X. c #7D0B59",
"o. c #374050",
"O. c #394356",
"+. c #34415A",
"@. c #3A465D",
"#. c #3D485C",
"$. c #334265",
"%. c #3C4A62",
"&. c #38496A",
"*. c #3F5069",
"=. c #3B4C71",
"-. c #394A7F",
";. c #3F5177",
":. c #414D62",
">. c #485164",
",. c #42526B",
"<. c #49566C",
"1. c #4D586D",
"2. c #515365",
"3. c #415472",
"4. c #4D5B75",
"5. c #495B79",
"6. c #525D73",
"7. c #546077",
"8. c #54627B",
"9. c #5A667B",
"0. c #596680",
"q. c #5C6985",
"w. c #5E6D8A",
"e. c #616E85",
"r. c #64728A",
"t. c #69778C",
"y. c #687790",
"u. c #6D7A92",
"i. c #707F98",
"p. c #738195",
"a. c #74839B",
"s. c #78869C",
"d. c #7A899E",
"f. c #7A8AA1",
"g. c #7F8EA2",
"h. c #7A8AA1",
"j. c #82909F",
"k. c #8392A2",
"l. c #8190A4",
"z. c #8493A4",
"x. c #8795A4",
"c. c #8897A6",
"v. c #8B9AA9",
"b. c #8E9DAB",
"n. c #8B9AA9",
"m. c #95A3AE",
"M. c black",
"N. c black",
"B. c black",
"V. c black",
"C. c black",
"Z. c black",
"A. c black",
"S. c black",
"D. c black",
"F. c black",
"G. c black",
"H. c black",
"J. c black",
"K. c black",
"L. c black",
"P. c black",
"I. c black",
"U. c black",
"Y. c black",
"T. c black",
"R. c black",
"E. c black",
"W. c black",
"Q. c black",
"!. c black",
"~. c black",
"^. c black",
"/. c black",
"(. c black",
"). c black",
"_. c black",
"`. c black",
"'. c black",
"]. c black",
"[. c black",
"{. c black",
"}. c black",
"|. c black",
" X c black",
".X c black",
"XX c black",
"oX c black",
"OX c black",
"+X c black",
"@X c black",
"#X c black",
"$X c black",
"%X c black",
"&X c black",
"*X c black",
"=X c black",
"-X c black",
";X c black",
":X c black",
">X c black",
",X c black",
"<X c black",
"1X c black",
"2X c black",
"3X c black",
"4X c black",
"5X c black",
"6X c black",
"7X c black",
"8X c black",
"9X c black",
"0X c black",
"qX c black",
"wX c black",
"eX c black",
"rX c black",
"tX c black",
"yX c black",
"uX c black",
"iX c black",
"pX c black",
"aX c black",
"sX c black",
"dX c black",
"fX c black",
"gX c black",
"hX c black",
"jX c black",
"kX c black",
"lX c black",
"zX c black",
"xX c black",
"cX c black",
"vX c black",
"bX c black",
"nX c black",
"mX c black",
"MX c black",
"NX c black",
"BX c black",
"VX c black",
"CX c black",
"ZX c black",
"AX c black",
"SX c black",
"DX c black",
"FX c black",
"GX c black",
"HX c black",
"JX c black",
"KX c black",
"LX c black",
"PX c black",
"IX c black",
"UX c black",
/* pixels */
"          . & & & & & & & & & + * ] | X.X.X...X.] P u.a.! 0 ~ e.y 7 0.r.O.* 9 9 9 h 3 & & & & & & & ",
"          . & & & & & & & & = = s |  .| | X.| V b t.y.F 0 ! 9.l # <.6.Y 3 7 9 9 9 9 * & & & & & & & ",
"      . X & & & & & & & & & = * C .. .[ , u V u 9.q.t 0 $.9.9 & T :.l * 9 9 9 9 h * & & & & & & & & ",
"O + O X + & & & & & & & & & O , ] ] < w w O . o.8.q 0 =.u.z * v U 9 3 9 9 9 9 h * & & & & & & & & & ",
"& & & & & & & & & % % % % & , { ..} u < , n <.:.t 0 =.s.T * 9 h 7 3 9 9 9 9 h 3 & & & & & & & & & & ",
"& & & & & & & & % % % % & + = { | { i K 6.u.>.o : $.r.Y 3 9 9 3 9 9 9 9 9 9 - & * * & & = + + & & & ",
"& & & & & & & & & % % % * - 1 { V < #.y.f.p.8 @ r I 9 * 9 9 9 9 9 9 9 9 9 h * O = 9 7 * 6 6 6 = * * ",
"& & & & & & & & & % * * 7 3 1 s u <.f.b.z.%.@ ; = 2 3 9 7 9 9 9 9 9 9 9 h 9 + * * * 7 h h h h 9 9 9 ",
"& & & & & & & & & % & & & 3 7 % S l.b.8.r @ t 3 9 7 9 9 9 9 9 9 9 7 7 h 3 + 3 h h 9 9 9 9 9 9 9 9 9 ",
"& & & & & & & & 7 7 7 9 9 9 8 m 5.m.&.0 D ,.#.3 9 9 9 9 9 9 9 7 7 h 9 2 + 3 h 9 9 9 9 9 9 9 9 9 9 9 ",
"& & & & & & + & 9 h h 9 3 * j D u.4.0 =.s.6.h 3 9 9 9 9 9 9 9 9 9 7 & o O 3 3 3 3 9 9 7 3 9 9 9 9 9 ",
"7 7 7 7 7 - - 3 9 h - 2 P o.S D &.q ;.p.T 3 3 9 9 9 9 9 9 3 9 3 7 O O + 8 l n n 7 O + * 7 9 9 9 9 9 ",
"9 9 9 9 9 9 9 h g - h <.i.4.! D 0 ! 9.k * 3 9 9 9 9 9 3 ; z z S W S j . n r.u.u.9.:.h + 9 9 9 9 9 9 ",
"9 9 9 9 9 9 9 g 7 6 8.l.v.5.! F M :.7 2 9 9 9 9 9 9 3 n k b e $.D <.l j :.a.c.v.l.g.r.L & 9 9 9 9 9 ",
"9 7 7 9 3 3 7 g & :.i.p.z.<.H &.m k 3 7 9 9 9 9 9 9 9 U * O . l p :.7 k u.b.c.r.p.c.l.r.c 3 9 9 9 9 ",
"9 j g g h g j 8 l r.R > l r M w.#   7 h h h h h h * 5 L   + u V s W * k u.0.F q p.x.k.d.7.2 3 7 g 7 ",
"9 7 g j n j n l o.R : # . ` N ~ 7   . * 2 3 * 2 + . y 9 . d K -.) o.+ o.D q 0 3.v.j.j.k.u.n 2 7 g 7 ",
"7 g g j n n n j ; r I O l s.,.@ 3 3 o     .   . & 4 5 J t :.2.-._ P j t G ` M d.x.j.j.j.u.Y & 7 7 9 ",
"9 7 g n n n n 2 k 8.k O k 0.q.#   9 h 2 & * 2 & O > Z r.R G / B J ^ S ` r.y @ ,.x.j.k.k.u.l * h 9 9 ",
"j 9 j n n n n 9 <.#.# 3 9 >.>.3 . . & 2 3 * O   . ; D z.u.q &.m W P ^ ,.6   x y.z.k.z.f.0.2 & h 9 9 ",
"g 9 j n n n l L 6.l 3 9 3 J L 3 h 2 O       . 3 # 5 5.c.m.=.N 3.5 O J #   7 y.g.x.l.s.r.P o 3 h 9 9 ",
"7 7 l l n n l L :.y 3 9 9 9 h 9 9 h h 9 3 * * :.#.L r.i.s.t.R m 2 O & O y u.z.z.r.r.6.l o O 9 9 9 9 ",
"7 g x n n n c n %.e 3 7 9 9 9 9 9 9 9 9 3 z Y +.<.>.,.6.%.L u.v . O + > H q.p.v.4.5 4 @ # & 7 7 9 9 ",
"g j n n n n n c U y 3 7 9 9 7 7 7 9 4 2   Y <.k O O O O ; <.>.+ . @ > r r 0 q ` 0.9 O ; O 3 h 9 9 9 ",
"c n n n n n n c x l ; 3 h h 5 5 9 * ; 3 O . n :.Y x x z ^ O.o . # R ,.w.p.r.G 0 Z ^ O # & h 7 9 9 9 ",
"n n n n c n n x j j ; ; 4 5 ; ; *   & O O O   = Q %.$.+.L . . l $.$.R G G =.a.%.: A O . 9 h 9 9 9 9 ",
"n n l n c n n l j j ; ; ; 4 2 4 .   O % O O O     * h * O   L Q r r H H H q F f.W > # - h 9 9 9 9 9 ",
"n n n n c n n n x j j # ; ; ; O   % p B $ o O z j     . ; 2 Z : N y.a.e.s.r.q ` r.5 o 7 9 9 9 9 9 9 ",
"n n n n n n n n n n g O # # O + i B B B 1 . * %.+.    + O ; r r 8.7.Y 0.i.a.8.> &.8   7 9 9 9 9 9 9 ",
"n n n n n n n n n l O o O O % B [ [ B B i o ; &.*.O   O O S Z S L o @.u.r.r.e.z @ O O h 9 7 9 9 9 9 ",
"n n n n n n n n n 2 O O O # a B ] { C B p O # $.3.#   O k v o o . v 7.q.q.8.U +   X * h 9 7 9 9 9 9 ",
"n n n n n n n n v O O O O w B v C ] C a a $ l 5.%.o   # 5 . 7 L %.7.0.q.q.:.@ o . O g g 9 g 7 9 9 9 ",
"n n n n n n n n l o O O O i w d B C B a B $ y 4.^   . 9 L :.6.8.0.q.q.q.8.U ; 5 . + j 7 9 7 f 9 9 9 ",
"n n n n n v n n n # o O + $ i B B C B B p $ L o.n Q ,.5.9.0.9.q.w.q.q.0.<.z 2 O . 7 h g 9 9 9 9 9 9 ",
"n n n n n v n n n k . o % i B B B B B B a $ O L 4.q.w.q.7.0.q.q.8.4.,.+.%.5 .   8 j g g 7 9 9 9 9 9 ",
"n n n n n n n n n n 9 % w w a B B B B B w $ Y 6.0.9.8.4.0.q.0.4.3.I ; J U .   * j 7 7 7 9 9 9 9 9 9 ",
"l n n n n n n n n n n l 1 i a B B a B i % ^ <.<.1.<.,.6.7.6.4.3.I @ ; ~ h   7 h 7 7 7 f 9 9 9 9 9 9 ",
"l n n n n n n n n n n n j i w w w B a < J <.3.3.3.3.<.<.<.3.3.%.2 . l J   & j 9 7 7 7 f 9 9 9 9 9 9 ",
"c n n n n n n n n n n n l 1 i w w i u l *.3.,.3.3.3.3.3.3.3.,.W o O 9     7 h 7 9 9 9 g g h 9 9 9 9 ",
"l c n n n n n n n n x c 3 ; 1 u w u w ^ 3.,.*.3.3.3.3.,.*.:.^ 7 o o   . 9 h 7 9 9 9 9 9 g g 7 9 9 9 ",
"c n n n n n n n n v n x 2 > #   O O J *.,.:.3.3.*.,.,.+.J y # .     O h h 9 9 9 9 3 9 9 9 9 9 7 9 9 ",
"k n n n n n n n n n n x 5 ; O .   2 +.,.%.:.:.:.:.@.S 2 # O   .     3 h 9 9 g 7 9 7 7 9 9 9 9 g 7 9 ",
"9 l n n n n n n n U n # ; ; # . 6 W :.:.:.:.:.:.+.k o O # .     . 9 9 3 9 7 g 7 j g g 7 7 g g g 7 7 ",
"9 l n n n J J J J U v ; ; O O 7 W @.:.:.:.:.#.~ z   o O       . & ` ! * 7 g j g g g g 7 g g g g 7 7 ",
"9 l n J I W W W I 2 ; ; 4 * l ^ %.:.@.^ Q ^ W J +         . O # z _ ( G l - - g j 7 7 7 j g g g g g ",
"9 7 n n E S S v 7 2 k v J W W Q Q W E E J z 2         . O O # 5 U e m ' ' ! z 6 8 j g g g g g g g g ",
"9 7 n U 9 * 9 l J U U U I W E E E W I k # o . . . O O # # o 2 S e ; ( ' ) ) ! W k - g j g j 9 7 7 g ",
"7 9 J W 2 l L E I U k 9 J E E E U k # O     O O # # ; 4 ; . % 5 ; A _ ' ' ' ' _ W z - g j 7 9 7 7 7 ",
"g l n l # ; 6 J U 2 O l W E E U - o O O O ; ; ; > > 4 ; #   + $ 5 U ! ) ) ) ) ) W E z 8 g 9 9 7 9 9 ",
"9 9 j & O o o J l + n W E J W v o o O O ; ; > ; > > ; ; #   % , z I ! ) ) ) ) ) ! E W k * 9 9 9 9 9 "
};
