/* XPM */
static char *result[] = {
/* columns rows colors chars-per-pixel */
"50 50 256 2 ",
"   c #010304",
".  c #02060B",
"X  c #05090D",
"o  c #080B0F",
"O  c #000612",
"+  c #040A13",
"@  c #0B0F15",
"#  c #040C1B",
"$  c #0B0D18",
"%  c #120D16",
"&  c #11051C",
"*  c #140D19",
"=  c #0B1116",
"-  c #0C131B",
";  c #12151D",
":  c #141C1F",
">  c #000524",
",  c #040D24",
"<  c #00012A",
"1  c #040F29",
"2  c #120A22",
"3  c #1A0D27",
"4  c #1E0C2E",
"5  c #071122",
"6  c #0B1523",
"7  c #0E1B25",
"8  c #061129",
"9  c #0A1429",
"0  c #111724",
"q  c #181022",
"w  c #131E26",
"e  c #1A1A26",
"r  c #111E29",
"t  c #181D2D",
"y  c #000134",
"u  c #00053B",
"i  c #020E3E",
"p  c #061633",
"a  c #08163D",
"s  c #1F1333",
"d  c #151E32",
"f  c #250A2C",
"g  c #230C33",
"h  c #250939",
"j  c #280A3D",
"k  c #340C3B",
"l  c #172026",
"z  c #1B2225",
"x  c #13202A",
"c  c #1B232B",
"v  c #1C2433",
"b  c #17233C",
"n  c #1B253E",
"m  c #1F2A3A",
"M  c #212736",
"N  c #2B2536",
"B  c #222937",
"V  c #22273E",
"C  c #242B3B",
"Z  c #282D3F",
"A  c #031142",
"S  c #0B1A48",
"D  c #101E4A",
"F  c #2B0E42",
"G  c #3A0C42",
"H  c #1D2740",
"J  c #14234F",
"K  c #1A274C",
"L  c #1A2B57",
"P  c #242D44",
"I  c #222E4B",
"U  c #2D2A4D",
"Y  c #2A3345",
"T  c #26314E",
"R  c #2C334A",
"E  c #2D394A",
"W  c #233156",
"Q  c #2A3554",
"!  c #2E3A51",
"~  c #22325E",
"^  c #2F3E5F",
"/  c #313D55",
"(  c #393956",
")  c #1F336A",
"_  c #263767",
"`  c #2C3A61",
"'  c #20366D",
"]  c #440A48",
"[  c #480A4A",
"{  c #510C50",
"}  c #5B0A57",
"|  c #6A0957",
" . c #780B58",
".. c #432E5C",
"X. c #364052",
"o. c #35435D",
"O. c #3A485C",
"+. c #3B4961",
"@. c #3B4A6C",
"#. c #3E4F71",
"$. c #3F5372",
"%. c #40495B",
"&. c #4C485C",
"*. c #414E62",
"=. c #404D68",
"-. c #514E6C",
";. c #425267",
":. c #495265",
">. c #43536A",
",. c #4B5069",
"<. c #4C586D",
"1. c #525B6D",
"2. c #435573",
"3. c #4A5974",
"4. c #4D5D7D",
"5. c #515D76",
"6. c #55627B",
"7. c #5A667B",
"8. c #566583",
"9. c #596783",
"0. c #5C6A86",
"q. c #5F6D88",
"w. c #616D82",
"e. c #627085",
"r. c #64728B",
"t. c #68758C",
"y. c #6C7A8E",
"u. c #687791",
"i. c #6C7B94",
"p. c #707F96",
"a. c #738295",
"s. c #73839C",
"d. c #79879D",
"f. c #7D8B9E",
"g. c #7C8BA1",
"h. c #7E8EA2",
"j. c #7D8DA2",
"k. c #808F9F",
"l. c #82909F",
"z. c #82909F",
"x. c #808FA0",
"c. c #808FA0",
"v. c #8391A2",
"b. c #8493A3",
"n. c #8795A4",
"m. c #8493A3",
"M. c #8897A6",
"N. c #8897A6",
"B. c #8A99A7",
"V. c #8A99A7",
"C. c #8C9AA9",
"Z. c #8E9CA9",
"A. c #8D9BA9",
"S. c #94A2AE",
"D. c #94A2AE",
"F. c #9BA8B2",
"G. c #9BA8B2",
"H. c black",
"J. c black",
"K. c black",
"L. c black",
"P. c black",
"I. c black",
"U. c black",
"Y. c black",
"T. c black",
"R. c black",
"E. c black",
"W. c black",
"Q. c black",
"!. c black",
"~. c black",
"^. c black",
"/. c black",
"(. c black",
"). c black",
"_. c black",
"`. c black",
"'. c black",
"]. c black",
"[. c black",
"{. c black",
"}. c black",
"|. c black",
" X c black",
".X c black",
"XX c black",
"oX c black",
"OX c black",
"+X c black",
"@X c black",
"#X c black",
"$X c black",
"%X c black",
"&X c black",
"*X c black",
"=X c black",
"-X c black",
";X c black",
":X c black",
">X c black",
",X c black",
"<X c black",
"1X c black",
"2X c black",
"3X c black",
"4X c black",
"5X c black",
"6X c black",
"7X c black",
"8X c black",
"9X c black",
"0X c black",
"qX c black",
"wX c black",
"eX c black",
"rX c black",
"tX c black",
"yX c black",
"uX c black",
"iX c black",
"pX c black",
"aX c black",
"sX c black",
"dX c black",
"fX c black",
"gX c black",
"hX c black",
"jX c black",
"kX c black",
"lX c black",
"zX c black",
"xX c black",
"cX c black",
"vX c black",
"bX c black",
"nX c black",
"mX c black",
"MX c black",
"NX c black",
"BX c black",
"VX c black",
"CX c black",
"ZX c black",
"AX c black",
"SX c black",
"DX c black",
"FX c black",
"GX c black",
"HX c black",
"JX c black",
"KX c black",
"LX c black",
"PX c black",
"IX c black",
"UX c black",
/* pixels */
"          . = = = = = = = = = = % f [ }  . . . .| f Z 9.p.f.l.Z.q.u D p.<.r 7 r r r = = = = = = = = ",
"          . = = = = = = = = = 7 q k { [ [  .} [ G ( e.d.l.l.Z.y.i i r.e.t 7 r r r - @ = = = = = = = ",
"      . X = = = = = = $ = = = 7 0 G } G G ] G & E i.h.b.x.Z.a.i y 4.i.v - r r r 7 = = = = = = = = = ",
"+ @ + X @ = = = = = = = = = @ ; G } f @ q g 2 M e.g.b.x.C.s.S y #.d.E - r r r x 7 = = = = = = = = = ",
"= = = = = = = = = % = @ = @ - 3 { ] 3 g g f & >.d.b.x.B.f.D y ` g.*.- 7 r r r r - = = = = = = = = = ",
"= = = = = = = = % * @ ; - - 7 g { k k j 3 $ e r.b.l.M.l.K y ~ h.6.7 7 r r r r = = - = = ; @ @ = = = ",
"= = = = = = = = @ % ; 7 r x 0 4 g * % * & . %.g.b.M.n.W y J d.w.v 6 r r r r 6 = = r 0 - 0 0 0 ; = = ",
"= = = = = = = = = = = @ ; x - k k % % $ C %.t.b.M.M.Q y i 0.t.m 6 r r r r 7 7 - - - 0 x x x x r r r ",
"= = = = = = = = @ @ @ = 7 r r G f X 6 <.r.7.x.M.C.o.y > b <.v 6 r r r r 7 = r r x r r r r r r r r r ",
"= = = = = = = = ; r 7 7 r 7 t 4 @ , @.f.X.7.Z.b.^ > O + m v 6 r r r r r 6 r r r r r r r r r r r r r ",
"= = = = = = @ = r r r r r r 0 e o.i q.O.Y g.g.+.O   o x r 7 r r r r 7 # $ 0 r r r r r 0 7 r r r r r ",
"0 0 0 0 0 ; ; 7 r r r l l l - +.3.y v m u.d.0.O   . x x r r r r r 6 6 % ; 7 x r 0 0 - - 0 r r r r r ",
"r r r r r r r x r l l z z w , 9.4.y 3.b.C.r.0   . r r r r r r r # d E * ; r r r r r 7 7 r r r r r r ",
"r r r r r r r w r z : C r r A 0.t.y 3.F.y.d   6 d 9 7 r r 7 5 P p 3.%.0 l r r r r r x 0 0 r r r r r ",
"r w r r r r r w r w X.6.r :.A 3.M.A J 6.i > b E 7 7 r x 7 O + V F -.E = c r r r r r r r r r r r r r ",
"r c z c c z c v w *.i.7.B i.A W F.2.y u i J ! x 7 r r r X # G { ] ..v C v w w l r r r r r r r w l w ",
"r w z c B v Z t E i.h.w.>.C.W u a.C.J u a C r 7 r r x - . G N @.' :.- ! h s l l r r r r r r r w l w ",
"w z l c C C B t 7.h.M.y.y.S.8.y L g.3.,   o r x x x r O 4 -.&...U E C B h j g 0 w w r r x r r x w r ",
"r w z B C C v Y i.b.v.s.C.f.~ i y v c 7 .     @ 6 # 9 v 2 P ( V Q P v & F U ( R l z l z l r x x r r ",
"c r c C C C v %.d.n.C.f.6.a y p     + x x 7 +       n t.w.S #.W Q d   e >.r.u.u.:.: r w r r r x r r ",
"l r c C C C t :.M.B.e.I y a I r -     . $ 7 7 # 6 t =.h.S.6.S 8.a   = - M r.b.v.i.O.w w r r r r r r ",
"w w M M C B t 5.3.D < 9 #.6.C 7 x r @ .       r <.w.r.s.d.7.K i o.3.r.r.e.a.l.b.f.r.C 6 r r r r r r ",
"w l M C C C v b < D I M 7.Y 6 r r r x r 5 # C 3.i.i.s.g.u.a K q.b.n.d.h.n.b.x.l.x.i.%.6 7 r r w r r ",
"l c C C C C v > +.i.X.- v r r r r r 7 6 5 6 o.0.i.p.l.i.S D f.F.M.l.v.b.l.k.l.l.b.s.,.7 7 r r r r r ",
"B C C B B C M C r.w.v 6 7 r 7 7 r 6 5 r - @ + C 5.<.%.o.W L J @.x.Z.f.d.v.k.f.f.d.i.,.r 7 r r r r r ",
"C C C B v C C v >.5.v 6 9 7 r r r 6 7 7 + # +   @ X.! ^ 4.r.4.D a 0.C.s.f.g.d.s.i.7.R t r r r r r r ",
"C C v C C C C c Y ;.r 5 9 r r 9 r 7 7 $ + # + .     a S i u ` u.+.< 6.f.i.u.u.u.e.*.7 x r r r r r r ",
"C C C C B C C C v T 7 5 6 6 7 9 r 8 , + + + . X + n q.s.r.@.i u 6.>.y 9.s.i.i.5.<.d + r r r r r r r ",
"C C C C B B C C C M 7 5 6 5 r $ , 5 g q + .   + 1 >.0.w.q.s.i.W < 6.@.a u.i.9.! H # 6 r r r r r r r ",
"C C C C C C C C Z B @ # 5 5 9 + , 4 j 2 . O + 5 d P H Y 5.i.s.d.Q < 8.K Q i.*., # $ r r r r r r r r ",
"C C C C C C C C Z v . + # 1 # . 4 F j O - Y O.3.6.6.6.6.q.t.u.t.i.K a 4.a ;.m O # w x r r w r r r r ",
"C C C C C C C C Y t . . = $ @ s F h 2 m >.6.0.0.0.0.0.0.0.e.w.w.t.0.i ^ P 6 , . ; c z x r l w r r r ",
"C C C C C C B Z t + + @ @ q h F g q E 3.6.0.0.0.0.0.0.0.0.9.0.0.0.r.Q , 9 . # 7 x w z r r w l r r r ",
"C C C C C M Z v O O + 3 g j g g e O.6.9.0.0.0.0.0.0.0.0.8.6.6.5.6.6.E   +   ; c r r x l r r r r r r ",
"C C C C C B Z 7 O + 2 g g g 3 s O.5.0.0.0.0.0.0.0.0.0.6.3./ 6 ! 3.+.9   X X w l l l l l w r r r r r ",
"C C C C C C Z t O + 4 g 4 3 Z ;.3.5.0.9.0.0.0.5.6.6.3.2.Y . + ! +.v O . + w x x l w w w r r r r r r ",
"v C C C C C Z M O $ g 4 4 R ;.3.2.<.1.<.3.5.6.3.>.;.+.V @ . t P 0     . 7 c r r w w w l r r r r r r ",
"v C C C C C C Z - $ 4 s X.;.2.2.$.$.2.2.>.>.+.! ! v 9 , + X # .     @ r r r x r w w w l r r r r r r ",
"B C C C C C C Z M % t O.>.2.$.2.2.2.>.+./ v 6 # , O . + .       . @ x x 7 r r w r r r z l x r r r r ",
"v B C C C Z Z B v P +.2.2.>.2.2.>.=.o.d O + # , +         o X . @ x x 7 7 r w r r r r r l l w r x x ",
"B C C Z Z v 0 d Q =.2.>.=.>.>.;./ H 6 O + @ + .       X # - X . # r r 7 r r r r r 7 r r r r r w r r ",
"t C Z v = 0 P o.=.*.*.*.*.*.o.! v # + @ .       . . @ $ # @ . # 8 - r r r r l w r w w r r r r l w r ",
"r t C = b ! *.*.*.*.+./ / P v = + + .       . + = $ # + +   + , 0 v - r r w z w c z z w w z l z w w ",
"r x 7 v o.O.+.*.+./ r 9 6 + .           o + X + X   + +   + 1 # 0 Q b ; w l z z z l z w l z z z w w ",
"r 7 0 Q +.O.+.*.O.T # O + +   + . . + + .     .       + # , + O H _ _ d 7 : z z z r w w c l z z z z ",
"r - P Q T o.*.*./ T 6 O + + . + . X 1 1 # + + + + + # 1 # + O 8 Q I K ' ~ H 7 : z z z z z z z l l l ",
"= v Q T T T T / Q T -   + # # + O   . , 1 , , , 1 1 # @ @ X , V H 8 ~ ' ' ' ~ v w : z z z c r w w l ",
"; P T T T T T T T T - . # 1 ,   . # , # + + + + + + # , ,   * M # n _ ' ' ' ' _ T r : z z w r w w w ",
"B P P I T T T T T P # O 6 p +   . , 1 1 1 1 1 1 1 1 1 1 , . % # 9 R ~ ) ) ) ) ' Q Q r w z r r w r r ",
"C v 0 V Q T T T T v O O t b .   X , 1 8 1 1 1 1 1 1 1 1 ,   o 2 H T W ) ) ) ) ) ~ T Q r - r r r r r "
};
