/* XPM */
static char *result[] = {
/* columns rows colors chars-per-pixel */
"50 50 256 2 ",
"   c black",
".  c #000103",
"X  c #010403",
"o  c #010406",
"O  c #040607",
"+  c #000208",
"@  c #01060A",
"#  c #04070B",
"$  c #00050C",
"%  c #09060C",
"&  c #03080F",
"*  c #050B0D",
"=  c #000610",
"-  c #000514",
";  c #0D0712",
":  c #060D10",
">  c #030914",
",  c #050B15",
"<  c #060C14",
"1  c #060E17",
"2  c #080F12",
"3  c #0A0E14",
"4  c #000619",
"5  c #00071E",
"6  c #030A19",
"7  c #030B1D",
"8  c #050C1C",
"9  c #0C0B19",
"0  c #0E0E1B",
"q  c #120B15",
"w  c #120E16",
"e  c #120718",
"r  c #130F19",
"t  c #150E19",
"y  c #130D1E",
"u  c #160F1C",
"i  c #0A1015",
"p  c #0B1117",
"a  c #0D1016",
"s  c #08101B",
"d  c #0C131B",
"f  c #0F121A",
"g  c #08101F",
"h  c #0B161E",
"j  c #12161E",
"k  c #010A22",
"l  c #040D21",
"z  c #060F23",
"x  c #020C24",
"c  c #040E28",
"v  c #000C2D",
"b  c #010F2F",
"n  c #110B22",
"m  c #180D22",
"M  c #1A0E25",
"N  c #1A0E29",
"B  c #1B0C2E",
"V  c #061027",
"C  c #0B1220",
"Z  c #0D1720",
"A  c #0C1426",
"S  c #0D1922",
"D  c #0E1B25",
"F  c #03102D",
"G  c #0A152D",
"H  c #171021",
"J  c #101727",
"K  c #111920",
"L  c #141C22",
"P  c #111825",
"I  c #111A24",
"U  c #131B26",
"Y  c #111D26",
"T  c #101D27",
"R  c #141F27",
"E  c #161F26",
"W  c #181D21",
"Q  c #111A2B",
"!  c #101F29",
"~  c #141D2A",
"^  c #131C2F",
"/  c #181E2C",
"(  c #000532",
")  c #000437",
"_  c #000C37",
"`  c #1F0F31",
"'  c #021136",
"]  c #081533",
"[  c #0D1933",
"{  c #021239",
"}  c #111C34",
"|  c #131F37",
" . c #210D2A",
".. c #230E33",
"X. c #270D31",
"o. c #2D0F36",
"O. c #310C39",
"+. c #300F3E",
"@. c #182024",
"#. c #1A2224",
"$. c #1D2326",
"%. c #132029",
"&. c #19212A",
"*. c #1D2429",
"=. c #18222E",
"-. c #172130",
";. c #172132",
":. c #1C2431",
">. c #1F2632",
",. c #182235",
"<. c #1D2636",
"1. c #15213C",
"2. c #1B2438",
"3. c #1B243C",
"4. c #212235",
"5. c #222937",
"6. c #242A3B",
"7. c #232C38",
"8. c #232B3F",
"9. c #272B3E",
"0. c #041441",
"q. c #081741",
"w. c #0A1B43",
"e. c #0E1E47",
"r. c #2A0D41",
"t. c #2D0C46",
"y. c #3C0C43",
"u. c #331144",
"i. c #3B1343",
"p. c #122046",
"a. c #192140",
"s. c #1E2841",
"d. c #172549",
"f. c #12224C",
"g. c #1A2A51",
"h. c #1D2E54",
"j. c #262E40",
"k. c #222B44",
"l. c #252F45",
"z. c #2F2D45",
"x. c #212C48",
"c. c #252F4A",
"v. c #2B3342",
"b. c #2A3347",
"n. c #2E3847",
"m. c #24314C",
"M. c #24324E",
"N. c #2A344E",
"B. c #323A4B",
"V. c #313C4F",
"C. c #263150",
"Z. c #263353",
"A. c #273456",
"S. c #2D3652",
"D. c #2B3755",
"F. c #213158",
"G. c #22335D",
"H. c #2C3A59",
"J. c #29385F",
"K. c #3F3152",
"L. c #383E52",
"P. c #303D59",
"I. c #1F336A",
"U. c #273763",
"Y. c #213264",
"T. c #243667",
"R. c #20346E",
"E. c #410B46",
"W. c #450B4B",
"Q. c #4B0A4E",
"!. c #4D0A4D",
"~. c #490C4C",
"^. c #520D51",
"/. c #590B52",
"(. c #600A55",
"). c #680B55",
"_. c #720B57",
"`. c #7A0B59",
"'. c #7D0B59",
"]. c #4C365A",
"[. c #553A5F",
"{. c #334052",
"}. c #374154",
"|. c #36425A",
" X c #33405D",
".X c #3A475E",
"XX c #364665",
"oX c #3E4B62",
"OX c #3A4B6A",
"+X c #40495C",
"@X c #434C5E",
"#X c #424F63",
"$X c #474F62",
"%X c #534D60",
"&X c #435065",
"*X c #475265",
"=X c #4B5467",
"-X c #43526E",
";X c #46556E",
":X c #48556B",
">X c #4B566D",
",X c #4F596F",
"<X c #535869",
"1X c #445370",
"2X c #425275",
"3X c #465677",
"4X c #4C5870",
"5X c #4F5C77",
"6X c #435578",
"7X c #475978",
"8X c #485C7B",
"9X c #4D5C7B",
"0X c #545E74",
"qX c #535F78",
"wX c #515F7D",
"eX c #576075",
"rX c #586378",
"tX c #59647A",
"yX c #59667F",
"uX c #5D677D",
"iX c #800B5A",
"pX c #830C5A",
"aX c #566580",
"sX c #576684",
"dX c #5C6881",
"fX c #5B6986",
"gX c #5B6A89",
"hX c #5E6C89",
"jX c #606C84",
"kX c #646E84",
"lX c #637088",
"zX c #63708A",
"xX c #67748A",
"cX c #62718E",
"vX c #64738E",
"bX c #69758A",
"nX c #6A768E",
"mX c #6C7991",
"MX c #6E7B93",
"NX c #717E95",
"BX c #728097",
"VX c #72819B",
"CX c #74839D",
"ZX c #77869D",
"AX c #79879C",
"SX c #7C8A9D",
"DX c #7F8D9E",
"FX c #818FA0",
"GX c #8290A1",
"HX c #8492A1",
"JX c #8492A4",
"KX c #8796A6",
"LX c #8A99A7",
"PX c #8F9EAB",
"IX c #94A2AD",
"UX c black",
/* pixels */
"o o o o X # p p p p p p p p p p a p  ./.'.'.'.`.'.'.(.O./.pX'._.X.H p p p p p p p p p p p p p p p p ",
"o o o o X # p p p p p p p p t a H E.).'.pX_.).pX`.).O.w O.!._.iX`.O.: p p p p p p p p p p p p p p p ",
"o o X # * p p p p p p p p p w u O._._.E.!.`.O.X.Q...H w y ~.'.pXpX(.X.p p p p p p p p a p p p p p p ",
": 2 : * 3 p p p p p p p p p 2 y ^.pX(.O.O.~.E.H r M r w o.W.y././.iX .* p p p p p p p a p p p p p p ",
"p p p p p p p p p r u r r a 2  .).`. .2  .+.N M r H M t M u w 0 y.'.(.X.p p p p p p p p p p p p p p ",
"p p p p p p p p r t t r p p m ^.iX(.N M  . .M ..+...M t t M ` H M O.(.E.a p p p d d p a r 3 p p p p ",
"p p p p p p p p a u u u d S N !.!.O.X.O.O.+.M u  .+.N w m M u u u N /./.N p p 3 d T I Z K I I u w d ",
"p p p p p p p p p r d d D D 0 W.y.u w N H u e % % t t ; ; q t u  .O.y.W.N ! h 2 d Z D %.! ! %.I j ! ",
"p p p p p p p p a r p p p h H (.Q.H M m ;   * =.-.$ I v.5.W w q u N  .E. .S -.=.D S ! ! ! ! ! ! ! ! ",
"p p p p p p p p I I I ! ! T y.^.X.H %     {.dXBX-X( 3XCXCX-Xx K q r r q / $XuXdX=X<.Z ! ! ! ! ! ! ! ",
"p p p a a p 3 p ! ! ! ! R %.J ..u w   p 1.OXKXPX9X) sXPXGXw.OXM.4 t t e B.xXZXSXZXdX5.Z ! ! ! ! ! ! ",
"I I I I I j j Z D D L R *.#.d u u < d ] 6Xp.DXIX9X) aXIXqXe.yXw.;X9 q ; 5.vXJXHXHXAXtXR D ! ! ! ! ! ",
"! ! ! ! ! %.T S R *.*.R p O + q u   n.U.XX X7XIX9X) hXIXZ.3XF.7XOXG t r B ,XKXGXGXJXBXv.p ! ! ! ! ! ",
"! ! ! ! ! S D }.0XkXjXeXn.$ = & r a | 1Xp.6Xg.IXwX) vXFXd.9Xf.lXp.4Xt & }.MXGXGXFXHXAXB.# ! ! ! ! ! ",
"! R R ! h K ,XBXSXFXJXMX4XC = s q V.M.D.k.S.p.CXdX) vXxXp.K.S.M.XXtXe w A yXFXHXGXLXAX}.# %.! ! ! ! ",
"T &.$.R d 0XAXGXHXHXPXqX( k   I d 5.].a.! > 0 +XwX) gX=Xe + ,.a.[.z.@ N ; n.AXKXLXBXZXv.< I T R &.R ",
"T R $.K }.CXJXHXHXJXLXvX_ M.O L ^ :.K.y.u.>   3 oX0.3Xd @ n u.y.^.4.: 4.N Z nXJXOXf.lXJ s T T R $.R ",
"R $.#.R tXSXHXJXZXlXqXoXx x.&.d 8.I {.I.[.i.e X V.w.H.o ` i.[.h.{.T %.9.r., l.p.( w.N.z s R R R R T ",
"! R W 7.lXSXJXrX,.C d +   # [ 5 =.8.@Xu.K.%Xz.% I q.x.:.9.<X*Xd.c.v.4.u.~.;   ] h.k 5 p.-.#.$.R ! ! ",
"&.R #.n.nXVXjXz B.rXtX.X# X h c = 7.N.d.x.Z.| H < _ -XeX| oXa.H.x.=. .!.^. .: Z I   1.h.5.S R R ! ! ",
"#.T W v.bXVXc.:XkXH.e.f.0.5 & V < = C h.G.F.e.Q = ' lXKX7Xp.9Xe.K @ +.!.!.o.2 < @ =.d.A.7.S ! ! ! ! ",
"R R *.#.eXeX=XXX_ J.XXXX6X-X/ o < > o ,.U.0.cXV.- #XZXLXPXA.J. X+ H ~.Q.!.` O o p e._ Z.=XZ T ! ! ! ",
"R #.:.=.j.+XA.q.sX,XI q.q.d.s.* # 9 & # ] wXBXbX&XuXCXHXAXCXd.g # o.!.Q.~.n @ O < k.z G ,X~ D R ! ! ",
"#.*.9.j.j 2.f.wXh.4 n.vXwXG.b o < : q ; R jXjXyXnXnXlXfXhXnX6.= s i.Q.Q.W.0 2 3 < 6 k.w.+X7.D R ! ! ",
"5.6.9.9.K [ 9Xe.F.p L.MXMX5XJ   # X e ..% W tXvXqX@XtXcXyX:.= A 0 i.Q.Q.y.< p < = :.kXh.P.7.D ! ! ! ",
"9.9.6.6.8  Xd.J.rX@ B.$X/ 5 , O * X N ..n + < +X0X+XqX{.3   7.j.< y.!.^.X.$ > p C ,XNXg.Z.-.D ! ! ! ",
"6.6.<.5.R D.p.NX0X< A Q R Q <   & 9 ..` V F k - R B.I + +   | ] / y.!.W.n * p =.v.bXMXd.s.L R ! ! ! ",
"6.6.9.6.7.w.2XNX,X- A *XtXeX=X<.@ 0 ..c b { { F +     + L k.0.OXz.r.t.r.9 : ~ S.4XNXjXw.I R R ! ! ! ",
"6.6.6.9./ F fXvXN.A <XjXlXxXlXyX{.H N ' { { { F 8 O + 3 @XdXvXoXB t.t.` < , <.&XuXNX1Xz K %.! ! ! ! ",
"6.6.6.9.:.Z :XdX.XqXhXaXkXbXxXhXdXs.k { { { { ' V O   n.uXMXXXb ` t.t.n < d J >XkXMXP.- R ! ! ! ! ! ",
"6.6.6.9.j.d I ,XjXhXfXaX:XgXhXhXsX{ _ { { { { ' g O   |.lX;Xw.M.` t.r.8 , K , .X,XlX|.8 R ! ! ! ! ! ",
"6.6.6.6.j.I I @XqXgXfXhXoXb.qXlX1X_ ' { { { { { c &   |.aXqXM.c B t.B 3 , K , <.2.{.|.b.~ T ! ! ! ! ",
"6.6.6.6.9.:.N.M.}.dXgXgXuXb.C <X{.b ' { { { { { { 7   :.|..X| 6 B r.N 3 & =. XB.7 4 | l.N.%.T ! ! ! ",
"6.6.6.6.j.I ^ | l.eXfXgXyX5X=.& [ ' { ' { ' { { { z X @ > z g : B r.` # d 8.1.V 7 m n 5 A %.! ! ! ! ",
"6.6.6.6.j./     =.:XeXfXfX4X7XI 4 { { ' b b b _ { F & : ~ J p < y ..M : *.I 5 z 0 0 ; @ + D ! ! ! ! ",
"6.6.6.6.9.6.*   * .X;X5XrX4X8XV.4 ' { b | 1.2.1.{ F & I S.<.< X 9 ..y #.&.# o & & & X X o Z %.! ! ! ",
"<.9.6.6.6.j.<.o   -.oX1X;X1X8X2.5 b 5 M.:X:X>Xl.b c 7 / <.< o @ 0 ` 9 R #.o X X X @ @ o X d %.! ! ! ",
":.9.6.6.6.6.j.~     J 8.V.oXoX| ' a.+X*Xc.I Z G ' b 4 @ 2 < > 6 j e h &.*.2   X X # @ X   Z %.! ! ! ",
"5.9.6.6.6.6.9.6.> X   $ = ^ l.V.:X:X#X-.$ + $ C [ [ C A g < & > z * R ! &.K * * # @ # o # R ! ! ! ! ",
":.5.9.6.6.6.6.j./ = + @ X o d 8.|.B.|     # s.M.2.&XP.< & # X > z D %.! T ! %.%.T D T T R *.R T ! ! ",
"5.9.6.6.6.6.6.9.9./ s < & X   ,.[ 3.D.Q   -. X&X#X&XN.@ = # & z z %.T ! ! ! ! ! ! ! ! ! ! ! ! R ! ! ",
"-.6.6.6.6.6.6.6.6.j.j.&.& X   3. X&XoX|.x.H.&XoX&X.X,.& & @ < z s s.S ! ! ! #.R ! R R ! ! ! ! #.R ! ",
"T <.9.6.6.6.6.6.6.9.9.C & X   3.|.&XoX&X.X|.#X#XoXD.8 @ > & z > A D.-.h ! R $.R &.$.$.R R $.#.$.R R ",
"T <.9.6.6.l.l.c.c.l.7.V k @   3. X&X#X#XoX.XoX XD.I   # 6 z 7 - ,.J.G.R T #.$.$.$.#.$.R #.$.$.$.R R ",
"T :.9.j.Z.Z.Z.Z.c.C z x c z + I D.P.P.P.H.x.M.M.Q o # z z 6 > z x.T.R.G.-.K L $.*.R R R &.#.$.$.$.$.",
"T R 6.9.Z.Z.Z.M.s.Q | ^ z x 7 , / s.x.c.-.& * 3 > z z 8 > > 4 | D.a.g.R.T.F.1.h #.*.$.$.$.$.$.#.#.#.",
"T R 6.l.Z.Z.k.8.Z.D.c.s.2.V x x - # < s & @ @ @ , , > , 8 & > b.a.F Y.R.I.R.U.x.I W *.$.$.&.T R R #.",
"R T 8.D.c.-.2.M.Z.G.F.p.q.-.G z O & x k z 8 8 7 7 8 z c c @ # ^ x ,.T.I.I.I.I.T.Z.Q W *.$.R T R R R ",
"#.:.8.2.^ k.Z.Z.M.Y.R.A.Z.} ] g X 6 c c c c c c c c c c z @ o 6 V M.G.I.I.I.I.I.A.Z.Q #.#.T ! R ! ! ",
"! T h / Z.Z.Z.Z.Z.I.I.G.N.Z.V 9 # # c c c c c c c c c c z X % t / N.F.I.I.I.I.I.G.Z.Z.I T ! ! ! ! ! "
};
