/* XPM */
static char *result[] = {
/* columns rows colors chars-per-pixel */
"50 50 238 2 ",
"   c #0E111C",
".  c #0D1224",
"X  c #111524",
"o  c #181A2A",
"O  c #0A1D34",
"+  c #171C33",
"@  c #201729",
"#  c #241E34",
"$  c #2A1E37",
"%  c #381A34",
"&  c #1F202C",
"*  c #1D2338",
"=  c #242539",
"-  c #24293E",
";  c #35253C",
":  c #45193A",
">  c #40253F",
",  c #1A1E43",
"<  c #252A47",
"1  c #2B2C43",
"2  c #352A46",
"3  c #2E3147",
"4  c #2C314D",
"5  c #343246",
"6  c #33344C",
"7  c #34394D",
"8  c #39394E",
"9  c #352B57",
"0  c #2D3254",
"q  c #2A335A",
"w  c #323554",
"e  c #383757",
"r  c #363A53",
"t  c #3B3B54",
"y  c #333559",
"u  c #36395C",
"i  c #3B3D5D",
"p  c #2A376A",
"a  c #3C3E64",
"s  c #353C68",
"d  c #482846",
"f  c #52294B",
"g  c #47324D",
"h  c #453756",
"j  c #56375A",
"k  c #692C54",
"l  c #752F57",
"z  c #66375C",
"x  c #4C3C67",
"c  c #6C3966",
"v  c #3F4258",
"b  c #344267",
"n  c #3D4164",
"m  c #3E426C",
"M  c #2E5371",
"N  c #42425B",
"B  c #4A495C",
"V  c #574659",
"C  c #434664",
"Z  c #4C4C62",
"A  c #4A4866",
"S  c #41446C",
"D  c #464B6D",
"F  c #564864",
"G  c #52536C",
"H  c #57586B",
"J  c #434773",
"K  c #454973",
"L  c #4E4F70",
"P  c #4B4C74",
"I  c #495377",
"U  c #4C517A",
"Y  c #535474",
"T  c #595A76",
"R  c #555B7C",
"E  c #69466A",
"W  c #76496F",
"Q  c #784C73",
"!  c #7C4A75",
"~  c #655C7A",
"^  c #705177",
"/  c #59636E",
"(  c #5D6275",
")  c #5C627A",
"_  c #666679",
"`  c #706975",
"'  c #72757E",
"]  c #883869",
"[  c #993E75",
"{  c #83436E",
"}  c #8D4272",
"|  c #824D79",
" . c #9A477E",
".. c #85537A",
"X. c #86517D",
"o. c #9A6A79",
"O. c #396680",
"+. c #585B81",
"@. c #645D84",
"#. c #795182",
"$. c #4E6A8C",
"%. c #5C6489",
"&. c #636484",
"*. c #686A87",
"=. c #62658C",
"-. c #6A6C8C",
";. c #726E8B",
":. c #6F7281",
">. c #6D738B",
",. c #74748C",
"<. c #757A8B",
"1. c #787888",
"2. c #6B6C92",
"3. c #706A92",
"4. c #6D7492",
"5. c #6C7699",
"6. c #777994",
"7. c #73749A",
"8. c #7B7C9C",
"9. c #7B7DA1",
"0. c #8C5483",
"q. c #8A588A",
"w. c #915986",
"e. c #925488",
"r. c #AA4E8B",
"t. c #A7558A",
"y. c #B75898",
"u. c #8C6B8A",
"i. c #847B97",
"p. c #9C789A",
"a. c #AA6991",
"s. c #817FA3",
"d. c #B877A6",
"f. c #7E828D",
"g. c #7C849A",
"h. c #7C86A5",
"j. c #7F91AC",
"k. c #84868C",
"l. c #888795",
"z. c #8C8B9C",
"x. c #96829B",
"c. c #8E919A",
"v. c #939396",
"b. c #A1919A",
"n. c #8283A5",
"m. c #8889AB",
"M. c #968CA5",
"N. c #8A93AA",
"B. c #9797A8",
"V. c #8996B4",
"C. c #9899B5",
"Z. c #9A9CBC",
"A. c #AA87A9",
"S. c #AF98AD",
"D. c #96A1B2",
"F. c #9CA2B2",
"G. c #9AA7BA",
"H. c #A4A4B5",
"J. c #ACABB3",
"K. c #A8A9B6",
"L. c #ABACBB",
"P. c #B4B5BD",
"I. c #BAB8BB",
"U. c #C490B5",
"Y. c #C3B6BC",
"T. c #979EC2",
"R. c #9DA7C3",
"E. c #A3AAC4",
"W. c #A4A9C7",
"Q. c #ABACCB",
"!. c #B4ADCA",
"~. c #AAB6C6",
"^. c #B7B9C6",
"/. c #ABB3D3",
"(. c #B4BAD7",
"). c #BCBEE1",
"_. c #C2BDC9",
"`. c #D2B0C8",
"'. c #E0BCD0",
"]. c #BDC4C9",
"[. c #BAC5D7",
"{. c #BDC3DC",
"}. c #BCC5E2",
"|. c #B5CEF0",
" X c #C3C4CC",
".X c #C9CACB",
"XX c #C6C8D2",
"oX c #CCCDD3",
"OX c #D2C7D1",
"+X c #CDD1D4",
"@X c #C5D4DB",
"#X c #D1D3D5",
"$X c #D3D5DA",
"%X c #D7D9D9",
"&X c #DBDCDB",
"*X c #E1C7D3",
"=X c #E3DADD",
"-X c #DEE0DF",
";X c #E3E1DE",
":X c #E7E7DF",
">X c #C2C4E1",
",X c #C3CCE4",
"<X c #C6CFEA",
"1X c #C5D3E9",
"2X c #CBD3EB",
"3X c #C8D8EB",
"4X c #D7D9E6",
"5X c #CDDBF3",
"6X c #C8DBF5",
"7X c #D2DCF5",
"8X c #CFE3E7",
"9X c #D6E2E5",
"0X c #DAE5E9",
"qX c #CDE2F4",
"wX c #D4E2F7",
"eX c #DAE8F5",
"rX c #D5E5F9",
"tX c #D3E9F9",
"yX c #DBEBFA",
"uX c #DDF3FA",
"iX c #E6E7E6",
"pX c #E8E7E3",
"aX c #ECECE5",
"sX c #EDEDEA",
"dX c #F1EFE7",
"fX c #F1EFE9",
"gX c #EBF0E9",
"hX c #EEF1EB",
"jX c #F1F0E7",
"kX c #F0F0E8",
"lX c #E2EEF6",
"zX c #E4F4F5",
"xX c #EBF4F2",
"cX c #E3F4FD",
"vX c #E8FAFB",
"bX c #EAFCFD",
"nX c #F3FEFE",
"mX c #F8FFFF",
/* pixels */
"kXkXkXkXkXkXkXkXkXkXhXfXkXkXkXkXkXkXkXfXfX:X=X=X=X*X=XdXdXkXkXkXkXkXkXkXkXkXjXkXkXkXkXkXkXkXkXkXkXkX",
"kXkXkXkXkXkXkXkXkXkXjXjXkXkXdXjXkXkXkXdX*Xd.y.y.y.t.t.`.'.kXdXkXkXkXkXkXkXkXkXkXkXkXkXkXkXkXkXkXkXkX",
"kXkXkXkXkXkXkXkXkXkXkXkXkXkXkXhXkXkXaXd.d.y.y.{ y.c r.y.y.`.aXkXkXkXkXkXfXkXkXkXkXkXkXkXkXkXkXkXkXkX",
"kXkXkXkXkXkXkXkXkXkXkXjXkXkXkXkXkXkXw.y.[ :  . .] % % ] y.U.;XkXkXkXkXkXkXkXkXkXkXkXkXkXkXkXkXkXkXkX",
"kXkXkXkXkXkXkXkXhXjXdXkXkXkXkXkXkXkX . .{ : f : z l k k l  .'.dXkXkXkXkXkXkXkXkXkXkXkXkXkXkXkXkXkXkX",
"kXkXkXkXkXkXkXkXkXkXkXkXhXkXkXkXjX=X} t.[ k 5 2 ; g ; : k e.'.fXkXkXkXkXkXkXkXkXkXkXkXkXkXkXkXkXkXkX",
"kXkXkXkXkXkXkXkXkXkXkXkXjXjXkXkXkXV : k ; - ^.L.:. XD _ > W `.aXkXkXkXkXkXkXkXkXkXkXkXkXkXkXkXkXkXkX",
"kXkXkXkXkXkXkXkXkXkXkXkXkXfXkXkXkX` ; ; ' P XX^.4.^.8.q Z k U.dXkXkXkXkXkXkXkXkXkXkXkXkXkXkXkXkXkXkX",
"kXkXkXkXkXkXkXkXkXkXkXkXkXkXkXkXkXkX$ ; D *.[.].6.5.i.m.-.z A.:XkXkXkXkXkXkXkXkXkXkXkXkXkXkXkXkXkXkX",
"kXkXkXkXkXkXkXkXkXkXkXkXkXkXkXkXjXaX].!.i.L B ^.4./ X x ;.@ I.jXkXkXkXkXkXkXkXkXkXkXkXkXkXkXkXkXkXkX",
"kXkXkXkXkXkXkXkXkXkXkXkXkXkXkXkXkXjXg.- V a.8 H.*.g.o.9 ^.^.;XjXkXkXfXfXkXkXkXkXkXkXjXkXkXkXkXkXkXkX",
"kXkXkXkXkXkXkXkXkXkXkXkXkXkXkXkXkXkX0X1.&.z.i.r >.L.v.Y ^.B.;XjXkXjXjXfXkXkXkXkXkXkXjXhXkXkXkXkXkXkX",
"kXkXkXkXkXkXkXkXkXkXkXkXkXkXkXkXkXkXkX].D %..XB ].&XU W.<.xXaXkXkXxXkXfXkXkXkXkXkXkXkXkXkXkXkXkXkXjX",
"kXkXkXkXkXkXkXkXkXkXkXkXkXkXkXjXkXkX;Xl.< K.$X4X4X%X&Xs # j q.g bXnXmXxXkXkXkXkXkXkXkXkXkXkXkXkXkXkX",
"kXkXkXkXkXkXkXkXkXkXkXkXkXjXjXfXpX^.$ $ F v.#XP.H..XF.2 t j q.q.iXnXnXnXxXkXkXkXkXkXkXkXkXkXkXkXkXkX",
"kXkXkXkXkXkXkXkXkXkXkXkXkXsXjXOXA.q.c ; - = V  XJ.k.+ 8 8 x q.q.A.,X>XnXbX%XkXkXkXkXkXkXkXkXkXkXkXkX",
"kXkXkXkXkXkXkXkXkXkXkXkXjXjX<.C #.q.q.W 5 = . & o & X T P.u.X.q.#.q o v g.( C.kXhXjXjXjXkXkXkXjXjXjX",
"kXhXkXkXkXkXkXkXkXkXkXaX%XnXbXbXE.w.q.0.^ < T T L ' C.s ^.A.X.w.! h < w @XR.V.E.oXjXjXjXjXhXkXkXhXjX",
"kXkXkXkXkXkXkXkXkXkXkXsXbXnXnXbX@Xu.0.! ..S 1.*.s C.B.s R i.X.0...V :.m j.I V.$.P.].jXjXjXjXjXjXjXjX",
"kXkXkXkXkXkXkXkXkXkXkXhXnXnXbX~.U 2 ! j | a ].P.U F.iX+X%XS.| w...E N.[.s b r G.vXlXaXhXjXjXjXjXhXjX",
"kXkXkXkXjXjXkXkXkXkXkXxXbXbXxXzX9.4.E d | P..X&Xg.D.:X-XK ~ 0.0.X.E H I +.~.v H uXvXvXgXgXgXjXgXjXhX",
"kXkXkXkXhXjXkXkXkXkXhXxXvXvXgX-X;.< h V | h a =Xz.c.-X4XB.A.| 0...^ 7 ( >.m n * 8XvX@Xc.&XjXjXgXjXjX",
"kXkXkXkXjXjXjXjXjXjXkXxXvXgX0XH.Z o o d | c ~.$Xf.Z ].oXR #.| 0.W ` .XP.7 n B o :.uXuXj.+XjXjXhXkXkX",
"kXkXkXkXhXjXjXjXjXjXjXJ.].9X#Xc.t o o W | } _.L.1 3 v t Z F X.q.W ` kXkXkXkXB.G.0XzXuXj..XjXjXjXkXkX",
"kXkXkXkXkXkXkXkXkXkXkXkX^.F.z.8 H :.q ; W ! 8 t < v N N :.~ X.0.Q F Y.dXfXOXF.4X0X@X~.N.aXkXkXkXkXkX",
"kXkXkXkXkXkXkXkXkXkXkXfXc.l.v G J.oXq 1 j W t B.&.8.B.N oXx.! 0.^ ..J.dXdX[.9X9Xf.XXG.F.kXkXkXkXkXkX",
"kXkXkXkXkXkXkXkXkXkXkXkX) +., u K m p t $ z z.^.1.5 P..XZ.m.p.0.X.b.aXkXdX8X0X:.- 9XG.F.hXjXkXkXkXkX",
"kXkXkXkXkXkXkXkXkXkXkXkXg.%.I 0 %.Q.J.6.$ g h t - 5 H - R H.S.p.#XkXkXkXaX^.g.( +X~.4.kXjXjXkXkXkXkX",
"kXkXkXkXkXkXkXkXkXkXkXkX^.j.5.Y >.=.q < # # _ l.H Z ,.7 g.].hXhXkXkXkXkX:XG P.8Xg.%.^.jXkXkXkXkXkXkX",
"kXkXkXkXkXhXkXkXkXaXjXfX-XR.I %.G t H.X X = t B 5 8 B.+ +.<.&XdXkXkXkXgXgX@X8XN.p %XjXjXkXkXkXkXkXkX",
"kXkXkXiXaXgXXXK.0XeXG.gXgXf.$X%X$XG 7 X o 5 B.c.7 6.K.6 < j.<.<.@X@X0XzXeX8X@X*.;XgXjXjXkXkXkXkXkXkX",
"kXkXgX@XtXyXyXyXeXeXeXtXtX>.B.$X#Xl.7     = ; & & 8 ( %.4./.|.h.p p g.G.[.].V./.0XhXaXgXkXkXkXkXkXkX",
"fXhXyXyXrXrXrXrX7XrXrXrXrX5XW.oX+XOXB.  & 6 7 r e *.Z.W.$.O.$.p p p p T.5X}.1XrXuXcXzXzX XaXkXkXjXhX",
"sX9XwXwXrX7XrX7X7X7X7X7X7X5X>XXX+X#X^.O O * < O b M M M 2 d./.z d h m.6X7XrXyXuXbXbXbXbXcXcXzXkXjXgX",
"xXtXqXwX7X7X}.h.V.7X7X7X5X<XE.l.+X$X XA 2 y S 0 I =.m >.d ] !.2XY R R.5X7X7X2XyXcXcX0X~.eXcXcXcXvXgX",
"#X|.6X6X2X<X,X>Xm.7.W.2.W.(.W.J.oX#XoXB.d 9 Z.= ) }.R.[.% ] `.2.>X(.7X7X4X2X2XV.) 7XG.u >.cXvXcXuXgX",
"N.|.}.).).m m./.Q.o R 2.x K Q._.oX$X#X Xu.x K Q.(.Z.{.2Xl l l XX2X7X<X2X>XA m.C.,X3X2X1XwX[.yXuXtX0X",
"/.%.s 9.m.m.a a 9.s.P C.=.m Y _.oX$X$XoX1.8.+.# Y C.Q.i.| { W W.m.(.<X>XT.C.m.,X,X2X3X3X5X8XqXtXtX~.",
"G.b m s s =.J m m m u +.2.S Y ^.+X#X#XXX4.S =.P n.5.m.>X>XQ.9.9.(.(._.9.x +.(.).>X,X1X3X3X3X3XqXqXtX",
"+Xm m m J m a m J J J P U S S 1. XoX+X X,.a m J K m W.(.W.P =.(.Q.8.m.K U < 9.Q./././.[.}.,X1X3X3X6X",
"&XY m m m m J S S K K P S . w w l. XoX X9.J m m m m m.a S +.n.=.K U a D U a 4 a C a n n *.Z.W.(.(.L.",
"jXoX=.m S m m 0 4 S @.U S 1 8 5 B P. X^.-.m S S J m m a S S m a x w = a K K Y e i a a a t u n h.W.pX",
"jXfX$XT n m K &.*.7.7.S y 6 6 4 3 H._.L.*.x a L B.L.A n 2 f F 8 3 3 3 u a x S &.-.y y u a u y K  XdX",
"kXkXhXhXsX0 a =.7.3.y 4 1 6 6 6 3 S.!.K.u.V :XhXkXaXG 6 2 : p.t 3 1 3 < u u u y *.3.@.a 0 q v K.kXkX",
"kXkXkXkXkX_ y u u u ( _ _ ' :.' u.M.H.C.M.B :XhXkXkXk.3 5 2 Q a.A ;.' t t N y y y I L u 4 y +.z.kXkX",
"kXkXkXkXhX;XK.( 4 L.%X;XaXfXfX=X_.l.M.M.6.T pXjXkXkXpX< 6 B ; ..x.OXkXI.I.^.,.4 0 4 < < s +.-..XkXkX",
"kXkXkXkXkXkXjXaXpXaXkXkXjXdXjXjX' ;.i.i.i.8.6.aXkXkXjX1 < N _ ;XaXaXkXkXkXkXaX( < r  X:XpXpXaXjXkXkX",
"kXkXkXkXkXkXkXkXkXkXkXkXkXdXdX&X_ &.4.;.,.3.5.kXkXjXB.- - * C _ kXkXkXkXkXkXkXaXhXhXkXkXkXkXkXjXkXkX",
"kXkXkXkXkXkXkXkXkXkXkXkXjXkXjXv.8 T ~ R ~ &.m kXkXkXl.* * * 1 3 kXkXjXjXjXkXkXkXkXkXkXkXkXkXkXkXkXkX",
"kXkXkXkXkXkXkXkXkXkXkXkXkXkXdXv.5 Z L G Y Y , kXjXhXpX*         k.kXjXjXjXkXkXkXkXkXkXkXkXkXkXkXkXkX"
};
