/* XPM */
static char *result[] = {
/* columns rows colors chars-per-pixel */
"50 50 128 2 ",
"   c #010405",
".  c #03060A",
"X  c #04090E",
"o  c #09090D",
"O  c #050B13",
"+  c #0A0E14",
"@  c #070D19",
"#  c #090F19",
"$  c #100F16",
"%  c #160F1A",
"&  c #0B1116",
"*  c #0D1319",
"=  c #12141B",
"-  c #14191E",
";  c #0E1922",
":  c #141B23",
">  c #191C22",
",  c #111F29",
"<  c #1C1E28",
"1  c #162027",
"2  c #1C2226",
"3  c #14202A",
"4  c #1C232B",
"5  c #1D2330",
"6  c #22252E",
"7  c #212732",
"8  c #232936",
"9  c #282E37",
"0  c #252C3B",
"q  c #292E3A",
"w  c #2A313D",
"e  c #30353F",
"r  c #282F41",
"t  c #2C3443",
"y  c #2B3348",
"u  c #2F3848",
"i  c #313442",
"p  c #343946",
"a  c #313B4E",
"s  c #313A4D",
"d  c #333A49",
"f  c #313B51",
"g  c #353E50",
"h  c #353F53",
"j  c #323D54",
"k  c #37404F",
"l  c #374256",
"z  c #384151",
"x  c #394250",
"c  c #3D4350",
"v  c #3C4351",
"b  c #3D4352",
"n  c #384355",
"m  c #3B4355",
"M  c #3A4458",
"N  c #3F475B",
"B  c #424D5A",
"V  c #414A5E",
"C  c #404B5F",
"Z  c #434C5C",
"A  c #434D5E",
"S  c #444D61",
"D  c #444F63",
"F  c #465163",
"G  c #485260",
"H  c #4B5361",
"J  c #495366",
"K  c #4C5264",
"L  c #4D5767",
"P  c #49556A",
"I  c #4F576A",
"U  c #52586C",
"Y  c #515A6E",
"T  c #595F6F",
"R  c #535D70",
"E  c #565F71",
"W  c #586172",
"Q  c #5B6475",
"!  c #5E6779",
"~  c #656A76",
"^  c #616979",
"/  c #677287",
"(  c #687589",
")  c #717B8A",
"_  c #707C8D",
"`  c #717E8F",
"'  c #758090",
"]  c #7D8492",
"[  c #848B98",
"{  c #8A93A0",
"}  c black",
"|  c black",
" . c black",
".. c black",
"X. c black",
"o. c black",
"O. c black",
"+. c black",
"@. c black",
"#. c black",
"$. c black",
"%. c black",
"&. c black",
"*. c black",
"=. c black",
"-. c black",
";. c black",
":. c black",
">. c black",
",. c black",
"<. c black",
"1. c black",
"2. c black",
"3. c black",
"4. c black",
"5. c black",
"6. c black",
"7. c black",
"8. c black",
"9. c black",
"0. c black",
"q. c black",
"w. c black",
"e. c black",
"r. c black",
"t. c black",
"y. c black",
"u. c black",
/* pixels */
"          . & & & + + & & & .   % O   X .     . . X O + .         . & . O O O O & & & * & X & * & & ",
"          . & & * - = O X & # . + +           . . X O + .         . .   & & & & & + & + X   & + X & ",
"      X X & & & * 2 t * X = > + + +                 & :           . . X & & + X .           . .   . ",
"O + + X + & & & & 2 h :   * > + # = + +     o       + 1               . . + .     .   . .   . X     ",
"* & & = & & & & + > h 8   . : : . 9 w w .   . o .   O X     .       . O   .     + + . O . O # .   O ",
"> = + > * & & & + > n 8     # 5   w G S . .     o X X +   . X .   X + .     . & * X . O   + &     O ",
": t * * > & & & X - n d     . 8 + 5 L U . + O     + o + . + O O o : O   . + = * & X X O X & +   . + ",
"& l w O - & & & + * i z O .   7 p w B T X & X   . X + = + * .   . +   O + 1 1 * * & & O + & . X @ & ",
"X 0 h & > & & * + = s M + .   = I U A W + + O   + + + e : +   . O X   + = 8 : ; * & & O @ O . O & & ",
"X * y : = * & & & = y C * .   . V R A ( + + O + O . & K 4 .   X . .   * > r : * + * O . O   O & & & ",
". X 4 > * - + & * O 7 M : X   . f S v / + + .     . # Z 4 .   + X +   = < t $ * & * O . O O & & & & ",
"&   : : : 1 = : ; O 5 M 4 O .   d U n ` - = .       # N 4 o X +   . . $ 8 0 = * & & X   O & & & & & ",
";   * 3 - 1 3 3 , + - l 5 O +   : R C ` > = .     . + N : . . +     @ 4 d 4 = & & * .   @ & & & & & ",
": X X : = > , 1 1 & + s w X + . + U J ' > * .     . + p & . @ O     o 4 n 4 - & & O     O & & & & + ",
", & O O & : , : 1 - + w a + & . X T B ` 6 = .     . O w *   O .     + > s 4 - + # .   . & & & & @ O ",
", * + X + - 2 - 2 > + - 7 @ & .   I G ) 6 : .       O 7 +   X O + . + 6 u 4 + . O .   X * = & + @ O ",
"3 : & & @ * 2 - 2 2 + = 8 + + .   z L { 4 : X       . 4 *     X = . - w 7 > . . O     + = & & & & X ",
": 2 = + . O > : - 2 - $ 7 - $ O   d Q ` : : @ .   O   w 7 .   X O   - 0 6 5 . . O     - - & & & +   ",
": 2 > + + . = > - 4 4 + > - * + X v W [ 4 : # . . +   h 4     X O X > 2 0 4         . - * & = * X . ",
"> 4 4 & & O & 2 - 4 4 & $ = @ + + p K ' 6 = + X O +   G 2     X O X > - 1 =     . X O * & & = &   + ",
"4 2 4 * & > = > = - - & & & + O & d G [ 6 = + . + O   B -   . O . + > 4 4 O . . . X * * & & % X   4 ",
"h 4 7 - + 2 4 > > = 2 - & & + O * z G ] 6 & O   X O   U =   . O   & 4 4 1 O @ .   O & & & & &   + 0 ",
"S 1 2 2 & * > - 2 = - = & & & O * 9 v ) 9 + O   O & . ~ =   . X   - w - * @ X   . * = & & & & . > r ",
"R 4 > > & $ = & > & + + & & & O + 6 d ! e + O   . : * p +   . O O < t $ + &     X - * # = * O O 8 0 ",
"( t > 2 = $ % @ = = & & & + X . X 6 t ^ e O X   . = < e O   . O O 6 8 + + O     & * & & * + . : 8 : ",
"^ n > 2 = = 2 * - 2 & + + .     O 2 : G p O O X   = w 7 X . . O O 4 > + O O . . = + & & & X . 1 4 + ",
"^ ! 8 2 = & 2 - + - & O . .     X - > v p X @ . . = v : . X O O O < - @ O @   X * @ @ * & @ * 2 : + ",
"P Q w > - + 2 > @ + & + . .     . & 5 k d O O X . = d > . X .   = 7 * @ @ O   O + O O * @ O : 1 & & ",
"S R s > - # : 7 * + = @ . . . .   + - p d O . X . $ w : O X     = = & O O . . * + O @ & O O 3 0 : ; ",
"y J F 4 - # & 8 - + + @ . . & * . + + i d +     . = - * X     . = = O O O   . * + O O @ . * 7 7 1 > ",
"7 C W w - & O 4 6 X + +   . & &   . & 4 0 +     . O o + O .   . - = O O X   O & @ . X @ O 1 t 3 , = ",
"7 s R z > = O 1 y = O & . X & O   . + 1 0 =       . + O O .   X * +       X & + O X O + & 2 4 , , ; ",
"4 0 C C 4 = + * r 1 O & * > = O   . + > 7 =       X 4 # O .   X * X       O * + O O & O = 4 1 , , * ",
"4 2 n P w & + X 2 0 + X + - = .     O * 2 -       X i + .     O & O .     . @ O O # O X 4 7 , ; = + ",
"2 > w P h $ + O - w -   X * = @   . O = 2 -       o w .     . @ # O .       O . X O O * 2 1 , : & X ",
"2 > 2 f j > + O + 6 7 .   + = O . X   + - = .     + 9 . . O O # @ O             . . X - 2 = * + + * ",
"2 - > 8 r 4 * + . > 0 +   O * + O O   + = - .   . O w .   X   O @ X .       . X O X O : : + + * ; , ",
"2 > = 2 0 0 = O . & q -   + & + . O     * 2 .     X 8         X O X O .     . + X   + 2 = & & , 2 2 ",
"2 > + = 8 0 = + . O 6 2     O + O + O . & > .     X 9       X O O .               . * - & & & : 1 1 ",
"% > = + > 0 2 O   O - 2 X     O . + O O O = .   X X 5     + + O . O         .     O = * & & $ : 3 , ",
"2 2 > + * 2 > & + . + 2 &     O X .   . . + . . X X * X   + O O X @ X     O X     + = & & & = : ; * ",
"- > 2 & & - > = & . O : = .     X X . X . + .   . X @ * X O X .     O     .     . & * & & & & & & & ",
"* > = + & + % & @ .   o = X     O .       O X O X O O 3 X . O   . O O .         @ & & @ + & & & & : ",
"& = = & & & = * + .   . * + X . O .       . . .   . + 7 @ X     X O . O       . * & +   + & & + & = ",
"& = & & & & & & & X   . & + O O . . . .       X . . . 5 @ . X O X   . X .     . & & X . + * O O & & ",
"* + O & O O + & * O   . @ * X . .       X .   .   . . 7 . . O O   X O   . .   . + + O O O O   X & & ",
"X     .   X . & & + . . . O . . . X .   o O . . . . X : . . O . O O .       X X O + & O X     + & & ",
"              O & + O           . O O X X X . . . .   * O . O O @ +         .   . + & @ .   O & & + ",
"            .   + O O           . O O . . . O O O O O O O . X O X X             . @ O .     O O O . ",
"      . .       . O .           O . .       . . . . .   . .     o               . O O . .     O .   "
};
