/* XPM */
static char *result[] = {
/* columns rows colors chars-per-pixel */
"50 50 256 2 ",
"   c #010304",
".  c #02060B",
"X  c #04090F",
"o  c #000414",
"O  c #040A13",
"+  c #0B0D13",
"@  c #00071D",
"#  c #040C1A",
"$  c #090F18",
"%  c #110E16",
"&  c #140E1A",
"*  c #0B1117",
"=  c #07101C",
"-  c #0D141C",
";  c #11151E",
":  c #11191D",
">  c #030D24",
",  c #00072F",
"<  c #030D29",
"1  c #160A25",
"2  c #1B0E24",
"3  c #1A0E2A",
"4  c #071127",
"5  c #0B1424",
"6  c #0E1B23",
"7  c #051028",
"8  c #0C162E",
"9  c #0D192A",
"0  c #111721",
"q  c #121D26",
"w  c #181C23",
"e  c #111E29",
"r  c #1A1928",
"t  c #000634",
"y  c #010B3C",
"u  c #041130",
"i  c #0A1631",
"p  c #02123D",
"a  c #131E33",
"s  c #131E39",
"d  c #210C2B",
"f  c #210D31",
"g  c #2D0C36",
"h  c #240E38",
"j  c #330C3B",
"k  c #172026",
"l  c #1B2325",
"z  c #14202A",
"x  c #1C232A",
"c  c #172133",
"v  c #1C2534",
"b  c #1A243D",
"n  c #1E283A",
"m  c #212537",
"M  c #212937",
"N  c #222738",
"B  c #242B3C",
"V  c #2A303F",
"C  c #071540",
"Z  c #0E1B43",
"A  c #101F4C",
"S  c #2B0B44",
"D  c #330C45",
"F  c #3B0C44",
"G  c #291243",
"H  c #1F2842",
"J  c #17264A",
"K  c #1D2A4C",
"L  c #132250",
"P  c #1E2D56",
"I  c #242E45",
"U  c #212C48",
"Y  c #293242",
"T  c #25304D",
"R  c #29334A",
"E  c #2F394A",
"W  c #323C4D",
"Q  c #273252",
"!  c #2A3655",
"~  c #22325A",
"^  c #303C53",
"/  c #313E5A",
"(  c #1F336A",
")  c #233362",
"_  c #293861",
"`  c #22366B",
"'  c #440B46",
"]  c #470A4C",
"[  c #4B0A4E",
"{  c #500A4E",
"}  c #580B4A",
"|  c #550A53",
" . c #5D0B55",
".. c #640B55",
"X. c #6A0B57",
"o. c #760C56",
"O. c #750B5A",
"+. c #7D0B58",
"@. c #394355",
"#. c #36435B",
"$. c #3A465C",
"%. c #3E4B5F",
"&. c #354462",
"*. c #3E4C63",
"=. c #364569",
"-. c #3B4A6B",
";. c #3F5173",
":. c #414C5F",
">. c #424F62",
",. c #435067",
"<. c #44526A",
"1. c #49566C",
"2. c #4D586D",
"3. c #425573",
"4. c #4D5A72",
"5. c #4A5A7B",
"6. c #525E75",
"7. c #505F7A",
"8. c #566176",
"9. c #57647D",
"0. c #596479",
"q. c #810B59",
"w. c #566683",
"e. c #596680",
"r. c #5D6A84",
"t. c #5D6B88",
"y. c #626F86",
"u. c #616F89",
"i. c #647187",
"p. c #65728A",
"a. c #68758B",
"s. c #6C7A8F",
"d. c #657590",
"f. c #687791",
"g. c #6B7A94",
"h. c #717F97",
"j. c #798696",
"k. c #738299",
"l. c #78879C",
"z. c #7C8C9F",
"x. c #7C8BA1",
"c. c #808E9F",
"v. c #808FA2",
"b. c #8492A2",
"n. c #8694A3",
"m. c #8392A5",
"M. c #8695A7",
"N. c #8392A2",
"B. c #8897A7",
"V. c #8897A7",
"C. c #8B99A7",
"Z. c #8C9AA9",
"A. c #8E9CAB",
"S. c #909FAE",
"D. c #92A0AD",
"F. c black",
"G. c black",
"H. c black",
"J. c black",
"K. c black",
"L. c black",
"P. c black",
"I. c black",
"U. c black",
"Y. c black",
"T. c black",
"R. c black",
"E. c black",
"W. c black",
"Q. c black",
"!. c black",
"~. c black",
"^. c black",
"/. c black",
"(. c black",
"). c black",
"_. c black",
"`. c black",
"'. c black",
"]. c black",
"[. c black",
"{. c black",
"}. c black",
"|. c black",
" X c black",
".X c black",
"XX c black",
"oX c black",
"OX c black",
"+X c black",
"@X c black",
"#X c black",
"$X c black",
"%X c black",
"&X c black",
"*X c black",
"=X c black",
"-X c black",
";X c black",
":X c black",
">X c black",
",X c black",
"<X c black",
"1X c black",
"2X c black",
"3X c black",
"4X c black",
"5X c black",
"6X c black",
"7X c black",
"8X c black",
"9X c black",
"0X c black",
"qX c black",
"wX c black",
"eX c black",
"rX c black",
"tX c black",
"yX c black",
"uX c black",
"iX c black",
"pX c black",
"aX c black",
"sX c black",
"dX c black",
"fX c black",
"gX c black",
"hX c black",
"jX c black",
"kX c black",
"lX c black",
"zX c black",
"xX c black",
"cX c black",
"vX c black",
"bX c black",
"nX c black",
"mX c black",
"MX c black",
"NX c black",
"BX c black",
"VX c black",
"CX c black",
"ZX c black",
"AX c black",
"SX c black",
"DX c black",
"FX c black",
"GX c black",
"HX c black",
"JX c black",
"KX c black",
"LX c black",
"PX c black",
"IX c black",
"UX c black",
/* pixels */
"          . * * * * * * * * * * O j  .+.+.+.o.+.+.O.] & 2 { o.+.X.F $ * * * * * * * * * * * * * * * ",
"          . * * * * * * * * & % d { X.} ..O. .' .. .] & % f ..+.q.X.j ; * * * * * * * * * * * * * * ",
"      . X * * * * * * * * * % & F O.X.D 3 d ' g % g F & % d [ ..o.X.[ 2 * * * * * * * * * * * * * * ",
"O + O X + * * * * * * * * * + - F ..g 2 2 d % j g 2 g & & & f g f ..{ $ * * * * * * * * * * * * * * ",
"* * * * * * * * * & & & & * * F O.X.d d F F d g [ g & & & & 2 d 2 j | ' & O * * * * * * * * * * * + ",
"* * * * * * * * & & & & * O & [ ..' g g d d f 3 2 j d & 2 3 2 2 & & ] ' 2 + * * - - * * % + + + O - ",
"* * * * * * * * * & & & - 6 r [ F & & & 2 & & & + % 2 & % % % & 2 F 2 j F 0 O O % e 0 - - - * + w @.",
"* * * * * * * * * & - - 6 6 3 [  .d 2 2 & & X . & $ O r x r r % & 1 + f d 6 - + * * - 6 e v W 4.<./ ",
"* * * * * * * * * & * * * 6 5 | [ g & % + O q $.0.s t 7.p.p.T o + r V @.1.8.8.8.8.4.4.6.r.h.i.! y C ",
"* * * * * * * * q q q e e e f { ] 2 & + . > r.x.N.P y k.A.i.a ^ 8.p.k.k.z.v.v.v.v.m.C.A.h.#.y p ^ E ",
"* * * * * * + * e e e 6 0 6 5 j d % O   n J 5.D.Z._ y x.j.8.l.B.M.N.b.b.b.N.N.n.A.C.s./ y t J I v 6 ",
"q q q q q ; ; 6 e e - q v B Y Y B 0 . B P ;.~ C.S._ t r.g.n.n.N.N.N.c.c.N.n.Z.N.9.K u , u v z q 6 e ",
"e e e e e e e z w : W 6.d.s.p.0.^ a O I ^ #.u / j.-.C p.B.N.c.c.c.c.b.C.A.c.6.A t t u e e e e e e e ",
"e e e e e e e k : :.k.x.x.k.0.a . 5 > b c.P y y.C.v.g.b.N.c.c.c.b.Z.B.g.=.Z t , 8 9 9 0 0 e e e e e ",
"e q q e 6 6 e : $.g.b.n.z.e.*   #./ y x.t.t 5.S.p.0.n.N.c.c.b.Z.n.0.P y , , u 9 e e e e 0 e e e e e ",
"e x l l z l w B a.m.b.n.p.5   @.u.y =.A.A L g.$.b a.C.b.b.C.C.9.L t t , u 9 e e e e e e e e e e x q ",
"e q l x M x v <.z.n.c.k.M . ^ k._ t p.6., n 6 5 a.x.z.x.m.a.P t t t > 9 e e e e e e e 6 6 0 e q l q ",
"q l l x B M B r.v.b.x.<.  ^ k.r.o # v - .   5 e.h.9.>.$.V # @ > < 6 0 e e e e e e e 6 v n - q q q e ",
"e q l M B m B p.A.A.c.M %.x.M.4.o . .     B y.g.#.> o         * e z e e e e e e e e B <.B * x e e e ",
"x e x B B B e s 5.g.i.0.h.l.S.>.t -.2.9 @ / 3.V . . . O   O 6 z e e e e e e e = > $.0.R - - z q e e ",
"l e x B B B M J y t t y y p A Z y 7.M._ y y , @ < > < > = e z e e e e e e e e B C y &.v # 0 e e e e ",
"q q v v B M v 8.d.r.-.~ L A C y y 5.M.3.y C Z i u 4 4 5 9 6 q e z e e 6 # o i 4.x.3.t > $ q e e e e ",
"q l m B B M v @.s.x.l.v.n.N.x.-.t ! 4.E @ 5 M e e e e e 5 5 b 9 # o * v B U p , K z.w.>   e e q e e ",
"l x B B B B M v 1.0.B r.g.g.k.<.@ . @ 6 .   5 z e e e 5 > #.$.O . x 2.p.g.k.j.-.t y 5.W   e z e e e ",
"M B B B M B B v I #.@ a 2.1.I 4 O   O a 5   . e z 6 6 v #.@.# . $ 4.y.g.h.k.z.B.w.y , e O q e e e e ",
"B B B M M B B v x v < @ 5 5 @ > 5 .   * 9 #   . O 9 R #.Y . . . W u.l.b.v.h.d.g.k.@.    * e e e e e ",
"B B v M M B B v x k > > > > = O # =     O 4 # $ O - v - O   - >.p.g.k.g.g.g.g.g.d.r.Y   . e e e e e ",
"B B B B M B B B v x * # > < #   + f h 1   5 , ! <.O   . @ e 1.d.s.f.g.g.g.g.p.8.W b *.Y   0 e e e e ",
"B B B B B B B B B e O O # # O % S S S h X v J 3.r.k     0 2.p.f.g.g.g.g.g.f.0.v o 9 1.1.- - e e e e ",
"B B B B B B B B B # O O O & f S F F S S O n 3.t.0.x   5 <.r.a.g.g.g.g.g.a.r.R o O R ,.#.= O z e e e ",
"B B B B B B B B m O O O 1 S G G ] { D G - 5 p w.r.q O ,.t.r.g.g.f.d.p.u.e.,.5 o 5 v a >   + z e e e ",
"B B B B B B B B M # O O h S h m D ] D S O U -.t.r.B >.e.t.r.r.y.r.e.6.<.^ a @ O > < # . . 0 z e e e ",
"B B B B B B M B B e . O 2 1 1 B S S S S O @ Q u.7.8.t.t.r.r.r.e.6.#.s 4 > > e 9 > #   . 6 z k e e e ",
"B B B B B N B B B B = . O 1 G S S D S h # 9 R 2.w.t.t.r.t.r.6.,.n @ @ > > < e # O     0 z e e e e e ",
"B B B B B N B B B B M = 1 S S S S S S 3 # @ v 1.r.t.t.r.8.4.#.0 . > > < 9 4 O       + x e e z e e e ",
"B B B B B M B M B B B v 3 f h S S S h + = b *.4.0.0.8.4.3.^ > @ > > < < = X       . 0 z e e e e e e ",
"v B B B B B B B B B B M r f h S S S % . E <.3.3.2.1.3.<.R > # > < > # O         O 0 z k e e e e e e ",
"v B B B B B B B B B B B m f f f f 1 0 @.<.3.3.3.3.3.<.I o O # # O .         O O e z e k e e e e e e ",
"M B B B B B B B B B B B v 9 1 d r B %.<.3.3.3.<.<.$.v @ # O . . .     X $ - e z e e e l l z e e e e ",
"v M B B B B B B B B M B 6 > i I #.,.,.3.3.<.^ ^ I 5 . . o     . . . * z z z z e e e e e l l q e e e ",
"M B B B B B B B B N M v e H Q *.>.>.3.3.<.>.I o .     . X     . O # 0 e e e e e e 6 e e e e e q e e ",
"c B B B B B B B B B B B v H $.$.$.>.*.*.*.>.! = .   . . . .   X > > 6 z e e l q e q q e e e e l q e ",
"e v B B B B B B M I e 5 s Q #.$.%.:.:.:.>.*.T .   # O .     O > > H a 6 e q l q x l l q q l l l q q ",
"e v B B B I R R R I a U ! U %.>.>.>.>.>.>./ v       X # # > u @ 9 _ ) - 0 k x l l l l q l l l l q q ",
"e v B I Q ! I 5 b ! ! Q 9 b / >.>.:.#./ / T = . O O # > > # # > U ) ( P b e : l x q q q x l l l l l ",
"e q B B Q H # @ 4 b Q H v Q Q ! ! ! Q U b 5 > < < < > > O O o s T < L ` ` ) b - w x l l l l l l l l ",
"e q B I ! K @ > < > Q ! Q Q Q b H b 6 # . . # # O O O # # X 5 I u u ` ( ( ( ~ Q v : l x l x e q q l ",
"q e B ! Q n 5 < > > s H Q Q T + - # o # # # # # # # > 7 < . & 8 > H ` ` ( ( ( ) ! b ; l x q e q q q ",
"l v B I v v Q i > > > 4 Q ! e .   # > > < < < < < < 7 > # . % # 9 R ) ( ( ( ( ( ! Q b w l e e q e e ",
"e q e e U Q ! b O > > < 8 m * . # < > > < < < < < < < > X   % 5 M R ~ ( ( ( ( ( ~ Q ! c - e e e e e "
};
