/* XPM */
static char *result[] = {
/* columns rows colors chars-per-pixel */
"50 50 235 2 ",
"   c #11131B",
".  c #0E1324",
"X  c #191C2E",
"o  c #141828",
"O  c #1C1E34",
"+  c #101F31",
"@  c #271E34",
"#  c #361F37",
"$  c #1B2237",
"%  c #28263A",
"&  c #36243B",
"*  c #20212F",
"=  c #44223D",
"-  c #262B42",
";  c #2B2D44",
":  c #2B2F4A",
">  c #252A48",
",  c #352C45",
"<  c #2D314A",
"1  c #33344C",
"2  c #36354B",
"3  c #2D3354",
"4  c #27375B",
"5  c #343553",
"6  c #353954",
"7  c #3A3B53",
"8  c #333659",
"9  c #36395B",
"0  c #393C5D",
"q  c #383750",
"w  c #292E50",
"e  c #2B3A6C",
"r  c #3B3E63",
"t  c #353D66",
"y  c #432C49",
"u  c #562848",
"i  c #493654",
"p  c #553757",
"a  c #492F52",
"s  c #643055",
"d  c #77335D",
"f  c #62254B",
"g  c #5E3C60",
"h  c #783A64",
"j  c #633C60",
"k  c #3E4158",
"l  c #324355",
"z  c #3D4164",
"x  c #3E426B",
"c  c #35476A",
"v  c #314C71",
"b  c #43445C",
"n  c #484858",
"m  c gray32",
"M  c #4E4657",
"N  c #4A4B63",
"B  c #41456C",
"V  c #44496B",
"C  c #474A6A",
"Z  c #554A66",
"A  c #4E5167",
"S  c #55556B",
"D  c #454A72",
"F  c #4A4C74",
"G  c #424770",
"H  c #524F74",
"J  c #47517A",
"K  c #4B547B",
"L  c #4C5476",
"P  c #545373",
"I  c #5C5C73",
"U  c #53557B",
"Y  c #5A5C7D",
"T  c #565979",
"R  c #66466A",
"E  c #74466E",
"W  c #7B5B6F",
"Q  c #7A4B75",
"!  c #655C75",
"~  c #795676",
"^  c #675474",
"/  c #5E6179",
"(  c #65647A",
")  c #72627B",
"_  c #63636F",
"`  c #863D6A",
"'  c #834E7A",
"]  c #874673",
"[  c #984579",
"{  c #86507C",
"}  c #87557D",
"|  c #846B7B",
" . c #545D83",
".. c #5C5D83",
"X. c #4B5B8A",
"o. c #685C81",
"O. c #7F5588",
"+. c #436681",
"@. c #5B6184",
"#. c #5C648B",
"$. c #5E688D",
"%. c #646383",
"&. c #6C6C82",
"*. c #63658A",
"=. c #66698C",
"-. c #696A88",
";. c #6D7287",
":. c #76788A",
">. c #6A6D93",
",. c #6E7595",
"<. c #697697",
"1. c #737492",
"2. c #747599",
"3. c #787A97",
"4. c #76698C",
"5. c #6776A1",
"6. c #7B7BA1",
"7. c #8C5584",
"8. c #8B5788",
"9. c #985E89",
"0. c #95538A",
"q. c #A24A82",
"w. c #AD5993",
"e. c #B55797",
"r. c #8A6C8A",
"t. c #88788A",
"y. c #90798A",
"u. c #827D9B",
"i. c #8D7A97",
"p. c #936F8E",
"a. c #A77A9C",
"s. c #AC6999",
"d. c #B671A2",
"f. c #7B8199",
"g. c #7B85A5",
"h. c #6485A0",
"j. c #888287",
"k. c #828293",
"l. c #88889B",
"z. c #919191",
"x. c #918B98",
"c. c #858BA4",
"v. c #8689A8",
"b. c #948BA3",
"n. c #8C91A6",
"m. c #9C9CAC",
"M. c #9696A6",
"N. c #8C99B4",
"B. c #9599B4",
"V. c #8D8DB1",
"C. c #A185A9",
"Z. c #A19FAA",
"A. c #B096B3",
"S. c #9BA5B9",
"D. c #93A1B7",
"F. c #A5A4AF",
"G. c #A7ABBB",
"H. c #A9A8B7",
"J. c #AFB3BD",
"K. c #A3B0BC",
"L. c #B2B3BD",
"P. c #B9B2BE",
"I. c #C690B7",
"U. c #98A6C3",
"Y. c #A5A7C5",
"T. c #ABB2CC",
"R. c #ABB6C7",
"E. c #B9B6C1",
"W. c #BCBBC4",
"Q. c #BCBEC9",
"!. c #B3B8C5",
"~. c #A9B6D2",
"^. c #B4BBD4",
"/. c #B7BAD7",
"(. c #BAAAC1",
"). c #C2B5C8",
"_. c #CCAFC6",
"`. c #BDC2CB",
"'. c #B2C2CD",
"]. c #BBC4DA",
"[. c #BCC8E4",
"{. c #B3CAEA",
"}. c #C3C4CC",
"|. c #C6C9CF",
" X c #CBCCD2",
".X c #C5C9D4",
"XX c #CED1D6",
"oX c #CCD5DC",
"OX c #C5D1DA",
"+X c #D1D2D6",
"@X c #D3D5DA",
"#X c #D5D9DD",
"$X c #DADBDE",
"%X c #DBD6DD",
"&X c #D7C9D5",
"*X c #C2CCE3",
"=X c #C6CBE5",
"-X c #CCDBE3",
";X c #C6D4EA",
":X c #CCD5EB",
">X c #CADBED",
",X c #C5D5E5",
"<X c #D3DCE3",
"1X c #DBDCE3",
"2X c #D9DFE9",
"3X c #CCDBF3",
"4X c #C8DBF4",
"5X c #D2DEF5",
"6X c #D4E2E5",
"7X c #DCE3E4",
"8X c #DBE4E9",
"9X c #D6E6EB",
"0X c #CCE2F4",
"qX c #D4E3F6",
"wX c #D5E4F8",
"eX c #DBEAFA",
"rX c #D7EAF7",
"tX c #DDF2F6",
"yX c #CDE0E9",
"uX c #E2E2E6",
"iX c #E3E5EA",
"pX c #EBEBEE",
"aX c #E2EAED",
"sX c #EDEEF1",
"dX c #E2EDF0",
"fX c #F1EEF2",
"gX c #ECF2F4",
"hX c #E3F5FC",
"jX c #E5FCFD",
"kX c #EBFCFD",
"lX c #E3F2F3",
"zX c #F4F4F5",
"xX c #F3FFFF",
"cX c #FFFFFF",
"vX c #F8F7F9",
/* pixels */
"m z.z.z.z.z.z.z.z.z.z.z.z.z.z.z.z.z.z.z.z.z.y.y.p.y.y.z.z.z.z.z.z.z.z.z.z.z.z.z.z.z.z.z.z.z.z.z.z.m ",
"z.cXcXcXcXcXcXcXcXcXcXcXcXcXcXcXcXcXcXcXvX_.d.e.e.e.d.I.&XvXcXcXcXcXcXcXcXcXcXcXcXcXcXcXcXcXcXcXcXz.",
"z.cXcXcXcXcXcXcXcXcXcXcXcXcXcXcXcXcXcX&XI.w.e.[ [ [ [ e.e._.cXcXcXcXcXcXcXcXcXcXcXcXcXcXcXcXcXcXcXz.",
"z.cXcXcXcXcXcXcXcXcXcXcXcXcXcXcXcXcXvXa.e.] ] [ [ ` u ] e.s.%XcXcXcXcXcXcXcXcXcXcXcXcXcXcXcXcXcXcXz.",
"z.cXcXcXcXcXcXcXcXcXcXcXcXcXcXcXcXcXuXw.[ h u u u u ` d h q._.cXcXcXcXcXcXcXcXcXcXcXcXcXcXcXcXcXcXz.",
"z.cXcXcXcXcXcXcXcXcXcXcXcXcXcXcXcXcX&X` [ [ p & o y , & f [ a.zXcXcXcXcXcXcXcXcXcXcXcXcXcXcXcXcXcXz.",
"z.cXcXcXcXcXcXcXcXcXcXcXcXcXcXcXcXvXt.s ] & m u.0 F.m.N # h s.zXcXcXcXcXcXcXcXcXcXcXcXcXcXcXcXcXcXz.",
"z.cXcXcXcXcXcXcXcXcXcXcXcXcXcXcXcXcXm.& @ ( >.`.D W.3.,.%.s 9.sXcXcXcXcXcXcXcXcXcXcXcXcXcXcXcXcXcXz.",
"z.cXcXcXcXcXcXcXcXcXcXcXcXcXcXcXcXcX X& V %.4.H.J (.o.3.*.y a.vXcXcXcXcXcXcXcXcXcXcXcXcXcXcXcXcXcXz.",
"z.cXcXcXcXcXcXcXcXcXcXcXcXcXcXcXcXcXzX:.:.F q x.K Q.q P %.:.%XcXcXcXcXcXcXcXcXcXcXcXcXcXcXcXcXcXcXz.",
"z.cXcXcXcXcXcXcXcXcXcXcXcXcXcXcXcXcXcX;.x.W W _ K x.) | j.) zXcXcXcXcXcXcXcXcXcXcXcXcXcXcXcXcXcXcXz.",
"z.cXcXcXcXcXcXcXcXcXcXcXcXcXcXcXcXcXcXl.=.o.t.Z t ).y.t.1.f.vXcXcXcXcXcXcXcXcXcXcXcXcXcXcXcXcXcXcXz.",
"z.cXcXcXcXcXcXcXcXcXcXcXcXcXcXcXcXcXcXpXm.,.v.M.f.$XJ.,.=. XzXvXpXpXcXcXcXcXcXcXcXcXcXcXcXcXcXcXcXz.",
"z.cXcXcXcXcXcXcXcXcXcXcXcXcXcXcXcXcXcX$X_ ( XX@X+X$X@X,.< i 8.i.xXxX8XpXcXcXcXcXcXcXcXcXcXcXcXcXcXz.",
"z.cXcXcXcXcXcXcXcXcXcXcXcXcXcXcXcXxXP., % S }.W.F.}.`.:.q a 8.8.gXxXcXgXsXcXcXcXcXcXcXcXcXcXcXcXcXz.",
"z.cXcXcXcXcXcXcXcXcXcXcXcXcXcXcX1Xa.O.p @ % n F.P.}.! ; N Z 8.8.(.-X-XkXlXvXcXcXcXcXcXcXcXcXcXcXcXz.",
"z.cXcXcXcXcXcXcXcXcXcXcXcXcXvX7X-.8.8.8.p 1 O o M X . b }.r.7.8.^ 4 8 G.`.^.9XcXcXcXcXcXcXcXcXcXcXz.",
"z.cXcXcXcXcXcXcXcXcXcXcXcXsXaXxXtXl.0.8.' M ; N < N :.L |.x.7.7.Q q X -.].5.R.^.cXcXcXcXcXcXcXcXcXz.",
"z.cXcXcXcXcXcXcXcXcXcXcXzXaXxXxXkX].Q 7.} p.b ( *.l.f.T U o.{ 7.Q i T J S.<.U.D.8XcXcXcXcXcXcXcXcXz.",
"z.cXcXcXcXcXcXcXcXcXcXcXsXaXxXxXoXX.g E Q ~ K H.l.g.#XW.}.P.{ 7.{ M k.$.v P V yXlXaXcXcXcXcXcXcXcXz.",
"z.cXcXcXcXcXcXcXcXcXcXcXaXkXxXkX7X@.:.a E '  X7XG.J uXoXg.U { 7.{ i N J f.f.X '.jXtXzXcXcXcXcXcXcXz.",
"z.cXcXcXcXcXcXcXcXcXcXcX7XjXkXgX7X,.- & s ' &.L.J.> @X|.c.b.{ 7.{ ) - / ,.c $ f.jXjXOX8XcXcXcXcXcXz.",
"z.cXcXcXcXcXcXcXcXcXcXcXaXlXlX8X`.N X % p { b.XXJ.. J.@XF.H { 7.Q t.J.n < A - k 6XjXf.D.cXcXcXcXcXz.",
"z.cXcXcXcXcXcXcXcXcXcXcXzXoX9X#Xz.k o * E { 4.)._ . i &.1.S ] 7.E m vXcXcXH.A J.6XjXD.R.cXcXcXcXcXz.",
"z.cXcXcXcXcXcXcXcXcXcXcXcX+XJ.m.S S &.> p ] R N 7 o 7 7 A ! { 7.g R sXcXvXB.`.7X7XlX<.<XcXcXcXcXcXz.",
"z.cXcXcXcXcXcXcXcXcXcXcXcXsX:.k b H.|.c @ R R b l.9 b.I m.P.{ 7.g 7.iXcXuXOX6X+XM.9X$.vXcXcXcXcXcXz.",
"z.cXcXcXcXcXcXcXcXcXcXcXcXiXB.6 A B.@.t , y R M.W.- H.H.!.=.~ ' 7.A.cXcXoX6X6Xf.J.'.v.cXcXcXcXcXcXz.",
"z.cXcXcXcXcXcXcXcXcXcXcXcX X . .k ..n.G.Z @ i A b . S ;.J B.p.p.|.cXcXcX}.D.( M.#Xg.1XcXcXcXcXcXcXz.",
"z.cXcXcXcXcXcXcXcXcXcXcXcXuXN.S.1.T @.c @ @ , k.) $ F.;.v.|.pXvXcXcXcXcXH.;.'.OX<.c.cXcXcXcXcXcXcXz.",
"z.cXcXcXcXcXcXcXcXcXcXcXcXsX$.J J k L Y $ * , _ I 7 I N U D.vXcXcXcXcXcX|.oX6Xg.<.aXcXcXcXcXcXcXcXz.",
"z.cXcXcXcXzXsX1X8X2X2X2X8XzXJ.<X#XW.7 k o * n :.A n L.:.- <.].OX8XOX7X#X-X6XR.<.vXcXcXcXcXcXcXcXcXz.",
"z.cXcXcXpXoX>XrXeXeXrXrXqX>XS.`.@X+X&.%   o ; n % q I I L T.{.~.$.+.S.yXoX].f.G.sXcXcXcXcXcXcXcXcXz.",
"z.cXcXsX3XwXeXwXwXwXwXwXwXwX3X&. X+X|.n   % : - % 6 3.v.U.h.+.v e e e v.*X;X4XwXrX9X9XaXcXcXcXcXcXz.",
"z.cXvXoXwXwXqXqX[.3X5X0X5X5X3X/.}.+X+Xk.+ + - > c <.K v l ! ~.D a 8 g.4X5XwXwXhXkXkXkXtX<X-XsXcXcXz.",
"z.cXsX[.5X5X5X5XT.3.;XqX5X5X:XY.F.+XXXF.* 1 4 w l v K K ) d u.A.r.! [.5XqX:X].eXhXkXlXtXjXhXrXiXcXz.",
"z.cX-X0X4X3X3X=X=X^.2./.B.~.].Y.M. X#XW.I y o./ =.U.N.'.^ u a.T.V.].[.5X5XR.[.'.^.R.T ;.9XjXhX9XgXz.",
"z.cX].{.{.*X~.Y././.%.-.6.t *.u.P.XX#X X!.y B 6.f.f.Y.*Xp u ] =X:XT./.:X=X/.f.3.:X>XR.;.S.hXtXtX8Xz.",
"z.cXU.5.#.v.V...r =.1.9 v.6.g G ). X#XXX|.R o.D 7 3.^.v.{ u ] /.v.T.=X=Xu.3.g.=X;X>X0X>X3XqXrXrXrXz.",
"z.cXv.c t t  .X.r r t t D o.X.t H.W.+X+X|.Y o. .>.B...Y./.Y.V.%.Y./.].2.r 6./.[.*X;X>X>X0X0X0X0XtXz.",
"z.cXS.x G r i G i G x G D G r t k.H.+X X}.Y t D 2.D >././.u.V V./.Y.B.D i =.Y./././.[.,X,X{.0X0XeXz.",
"z.cX#XF x x x x J x D D J F 9 9 b f. X XE.C x x x x >.u.J x >.g.=.=.G F F 9 r U T T *.3.B.^.].[.:Xz.",
"z.cXcXG.x x G B x x r r F G 9 q 2 ! }. XJ.B x G G B G B r B r r i B q F F V 7 1 9 0 0 0 B *.V.U.1Xz.",
"z.cXcXvXl.t x z t B o.6.G r 1 q 6 N `.).G.i x r B K B r r a R 6 8 3 : r i x Y Y 0 8 9 9 t 8 x `.cXz.",
"z.cXcXcXcXXX/ F >.6.6.F 8 : , 1 1 q !.E.m.E -.iXcXcXJ.1 5 u ~ q < < < : r t r ..1.Y r 8 8 3 M.cXcXz.",
"z.cXcXcXcXcX}.8 9 9 9 8 7 2 7 A _ p b.H.m.^ l.cXcXcX).1 < = R ~ i i 6 - : 9 8 8 D Y D 9 3 ...XcXcXz.",
"z.cXcXcXcXcXzXn.V 3 0 m.%X+XuXzXzXC.&.M.b.S m.cXcXcXzXn ; 7 y d 9.W.7XF.x.I 3 3 w w : < D ..1XcXcXz.",
"z.cXcXcXcXcXcXcXcX1XpXcXcXcXcXcXcXM.! i.l.3.v.iXcXcXcX( - I S L.iXvXcXcXcXvXl.w ; 8 I 3.m.pXcXcXcXz.",
"z.cXcXcXcXcXcXcXcXcXcXcXcXcXcXcXgXN 1.1.1.1.1.G.cXcXpXl % ; P M.cXcXcXcXcXcXcXXX$XcXcXcXcXcXcXcXcXz.",
"z.cXcXcXcXcXcXcXcXcXcXcXcXcXcXcXL.2 ( %.%.o...c.cXcX$X- $ $ % / cXcXcXcXcXcXcXcXcXcXcXcXcXcXcXcXcXz.",
"m z.z.z.z.z.z.z.z.z.z.z.z.z.z.z.m % P A P P k A z.z.j.- X $ + * j.z.z.z.z.z.z.z.z.z.z.z.z.z.z.z.z.m "
};
