/* XPM */
static char *result[] = {
/* columns rows colors chars-per-pixel */
"50 50 256 2 ",
"   c #010304",
".  c #02060C",
"X  c #05090B",
"o  c #010514",
"O  c #040A12",
"+  c #0C0D14",
"@  c #00061A",
"#  c #050C1A",
"$  c #080F1A",
"%  c #120D17",
"&  c #150F1B",
"*  c #0B1116",
"=  c #0C131A",
"-  c #12151D",
";  c #10181F",
":  c #030C22",
">  c #00062D",
",  c #030E29",
"<  c #170D21",
"1  c #1B0F23",
"2  c #1D0D2A",
"3  c #071022",
"4  c #0A1524",
"5  c #0E1B24",
"6  c #06112B",
"7  c #0B162C",
"8  c #0F182C",
"9  c #131623",
"0  c #121D26",
"q  c #111E29",
"w  c #000635",
"e  c #010B3B",
"r  c #041135",
"t  c #0F1732",
"y  c #061339",
"u  c #131E31",
"i  c #220E33",
"p  c #2C0C34",
"a  c #270C3A",
"s  c #340C3E",
"d  c #162026",
"f  c #1B2326",
"g  c #15202B",
"h  c #1B232B",
"j  c #162133",
"k  c #1E2533",
"l  c #162038",
"z  c #1B253B",
"x  c #1F293E",
"c  c #222736",
"v  c #222937",
"b  c #242B3B",
"n  c #282D3F",
"m  c #061442",
"M  c #0B1A43",
"N  c #06174A",
"B  c #3D0B43",
"V  c #142143",
"C  c #1E2943",
"Z  c #1A2A4B",
"A  c #192A56",
"S  c #242C41",
"D  c #242F4B",
"F  c #322A43",
"G  c #273146",
"H  c #2B3545",
"J  c #26314D",
"K  c #2C3548",
"L  c #313C4F",
"P  c #253253",
"I  c #283451",
"U  c #2E3A53",
"Y  c #22325D",
"T  c #283559",
"R  c #343F54",
"E  c #1F336A",
"W  c #223467",
"Q  c #2C3B64",
"!  c #21356F",
"~  c #273A6B",
"^  c #450B4A",
"/  c #4D0B4D",
"(  c #550E53",
")  c #5E0A58",
"_  c #640C57",
"`  c #730B58",
"'  c #7D0B58",
"]  c #35425B",
"[  c #3A455B",
"{  c #3E495D",
"}  c #3E4E66",
"|  c #3C4C69",
" . c #414E61",
".. c #435066",
"X. c #44546C",
"o. c #4A566D",
"O. c #4E5A6F",
"+. c #425573",
"@. c #4F5C74",
"#. c #4C5C78",
"$. c #505B73",
"%. c #505F7C",
"&. c #556076",
"*. c #596275",
"=. c #54617C",
"-. c #5A657C",
";. c #576684",
":. c #5A6782",
">. c #5C6985",
",. c #5D6B88",
"<. c #626E84",
"1. c #657287",
"2. c #67758D",
"3. c #64728C",
"4. c #6A778F",
"5. c #6A778F",
"6. c #667591",
"7. c #697792",
"8. c #6D7B92",
"9. c #6C7B95",
"0. c #6F7D96",
"q. c #6C7B95",
"w. c #717F96",
"e. c #717F96",
"r. c #768397",
"t. c #738198",
"y. c #76859C",
"u. c #74839B",
"i. c #7D8C9F",
"p. c #7D8C9F",
"a. c #7787A0",
"s. c #7787A0",
"d. c #7B8AA1",
"f. c #7F8EA2",
"g. c #7E8DA2",
"h. c #8390A0",
"j. c #8190A3",
"k. c #8391A3",
"l. c #8493A3",
"z. c #8795A4",
"x. c #8593A4",
"c. c #8997A5",
"v. c #8997A5",
"b. c #8C9AA7",
"n. c #8E9CAA",
"m. c #8E9CAA",
"M. c #919FAC",
"N. c black",
"B. c black",
"V. c black",
"C. c black",
"Z. c black",
"A. c black",
"S. c black",
"D. c black",
"F. c black",
"G. c black",
"H. c black",
"J. c black",
"K. c black",
"L. c black",
"P. c black",
"I. c black",
"U. c black",
"Y. c black",
"T. c black",
"R. c black",
"E. c black",
"W. c black",
"Q. c black",
"!. c black",
"~. c black",
"^. c black",
"/. c black",
"(. c black",
"). c black",
"_. c black",
"`. c black",
"'. c black",
"]. c black",
"[. c black",
"{. c black",
"}. c black",
"|. c black",
" X c black",
".X c black",
"XX c black",
"oX c black",
"OX c black",
"+X c black",
"@X c black",
"#X c black",
"$X c black",
"%X c black",
"&X c black",
"*X c black",
"=X c black",
"-X c black",
";X c black",
":X c black",
">X c black",
",X c black",
"<X c black",
"1X c black",
"2X c black",
"3X c black",
"4X c black",
"5X c black",
"6X c black",
"7X c black",
"8X c black",
"9X c black",
"0X c black",
"qX c black",
"wX c black",
"eX c black",
"rX c black",
"tX c black",
"yX c black",
"uX c black",
"iX c black",
"pX c black",
"aX c black",
"sX c black",
"dX c black",
"fX c black",
"gX c black",
"hX c black",
"jX c black",
"kX c black",
"lX c black",
"zX c black",
"xX c black",
"cX c black",
"vX c black",
"bX c black",
"nX c black",
"mX c black",
"MX c black",
"NX c black",
"BX c black",
"VX c black",
"CX c black",
"ZX c black",
"AX c black",
"SX c black",
"DX c black",
"FX c black",
"GX c black",
"HX c black",
"JX c black",
"KX c black",
"LX c black",
"PX c black",
"IX c black",
"UX c black",
/* pixels */
"          X * * * * * * * * * * % & p ^ ` ' ` ' _ B B 1 1 / ` ' ' _ s * * * * * * * * * * * * * * * ",
"          X * * * * * * * * * 9 9 s ( / / ` / / ) p 2 & % a ) ' ' ' s * O * * * * * * * * * * * * * ",
"      X X * * * * * * $ * * * q ; s ) B s ^ B < p s % % & s B / _ ) _ B < * * * ; = * * * * * * * * ",
"O + O X + * * * * * * * * * * * p ) s % & p 2 p & % 1 & & & < s i _ ' _ s * * * 5 = * * * * * * * ; ",
"* * * * * * * * * % * + * + = 2 / ( 1 & 2 2 i p B s 1 & 1 2 2 2 & B ( ) ^ & * * = * * * * * * * + n ",
"* * * * * * * * % & + - = = 5 2 / ^ s a 2 1 1 & & p 2 & 1 & & i B s / _ 2 * * * * = * * - + + + * [ ",
"* * * * * * * * + % - 5 q g 5 2 p 1 & 1 2 & & % % % 1 % + + % 1 1 p p / B & = * * q 0 = 9 9 9 % 0 o.",
"* * * * * * * * * * * + - q = p s & & 1 & * . . O . O k K c H * + s i p ^ 9 5 = = = 0 g q g 5 = n *.",
"* * * * * * * * + + + * 5 q 5 B p O * * . * q R @.V w 3.w.y.#.6 c + 2 1 p 2 q q g q q 5 5 = q L $. .",
"* * * * * * * * - q 5 5 q g q i 2 + & . . C 0.f.f.A e y.M.f.m | U . & % + 5 5 4 4 4 4 5 h [ <.| V o.",
"* * * * * * + * q q q q q q q 2 1 & +   U M 3.M.b.Y e i.M.X.A #.y K X * 9 v H K K L [ *.0.2.D > V L ",
"0 0 0 0 0 - - 5 q q q f f d q & & & * z Z Q D b.b.Y M h.z.V #.y l ..O.<.<.1.w.r.r.y.h.y.| r y D b q ",
"q q q q q q q g q f f f f f d + & % . [ M | M 3.M.Y m c.8.> L o.r.h.l.l.h.h.h.z.M.n.>.V > V n q 5 q ",
"q q q q q q q 0 q f f f f f h 9 = * x Z ] 8 i [ l.T N c.*...d.n.z.h.h.h.h.h.c.n.2.Z w r j g q 5 q q ",
"q 0 q q q q q q d h f h c b f h q = R a K O . < -.Q N 8.t.b.z.h.h.h.h.h.c.M.r.Q w > 7 q q 5 q q q q ",
"q h f h h f h k c b n k 9 ; 9 1 4 $ [ ( _ s j   q A N r.c.h.h.h.h.h.c.b.r. .e > , 4 d q q q q q q d ",
"q 0 f h v k b b n v ; 0 H [ ..o.] ; H D T F t K { | o.z.h.h.h.h.z.n.r.Q e > : 4 q q q q q q q d d d ",
"q f f h n n b b k q { <.w.9.:.K 3 $ o J 3.e P d.a.4.h.h.h.h.l.n.f.X.m w : 3 q d q q q q q q q d d q ",
"q 0 f v n b b v 0 @.a.i.d.1.z . j C e i.+.e y.j.} &.b.h.h.c.b.:.M e e , 4 q q q q f d q q q f d q q ",
"h q h n b n n g R u.z.f.8.S . b &.e | n.M ~ a.L ] a.h.f.c.w.P w e , 3 9 q q q q q f q q q q q g q q ",
"f q h b b b k v 3.h.z.a...o 7 1.| w 6.>.> G 0 G t.w.6.6.X.6 : , , 5 q q q q q q q q 5 q q q q q q q ",
"0 q h k n b k [ 0.z.f.4.8 o &.1.M r [ q     k 2.2.] l 4       X q q q q q q q q 5 q q 5 q q q q q q ",
"0 f k b b b k o.w.l.d.o.o ..t. ..   .     b 6.6.J o .       = q q q q q q q 5 5 q q 4 4 q q q 0 q q ",
"f h b n n v n -.u.z.a.R ..y.j.;.> j b = # ] +.v . o : : O = q q q q q q q 5 8 6 t 4 : , q q q q q q ",
"v b b v v b v { q.i.0.-.6.3.q.o.w Q u.o., e > : : , , , 3 q q q 5 5 5 3 . # O.=.r o $ 4 q q q q q q ",
"b n n v k n v 4 y N N m e e e e e Q f.<.y e M u 7 4 4 4 3 7 4 3 q 8 4 z H , e %.=.# X ; q q q q q q ",
"b b k v n b v R | ] T Y Y Y Y Y e M :.o.6 # h q q q q q 3 # o V O.o.@.:.8.>.M > | H   = q q q q 5 5 ",
"b b n n v b v n =.4.1.2.w.t.y.9.Z @ 8 6 o . . 4 q q 4 # o # C %.6.6.6.6.7.a.3.y : 4 . + q q q q 5 5 ",
"b b b b v b b c U &.H k O.:.-.{ q     : 7 $   O 4 6 @ . v o.6.w.9.q.q.q.q.6.>.q   . O + q q q q q q ",
"b b b b b b b b v U h . 7 L C : : O   O 4 3 $ . . . 3 [ :.7.q.q.7.q.q.9.7.,.=.[ * . O = q q q q q q ",
"b b b n b b b b b v ; O $ : # : : = O O O O $ o   k X.:.3.4.4.3.3.4.2.3.:.o.U H x   . 5 q 0 q q q q ",
"b b b b b b b b n k O O * $ $ $ X 2 1 O X O + + n o.:.>.,.1.<.<.<.<.,.:.[ = @ $  .0   q g f g q q q ",
"b b b b b n v b n v O O * * + & i a i O     = L %.>.>.,.>.:.,.,.,.>.=.} 4 . # D | z X d q 0 d q q q ",
"b b b b b c v b n g O O O $ 2 a i a i + . k | =.,.>.>.,.;.&.=.=.=.$.{ u # O q D z 3 . q q q q q q q ",
"b b b b n v b n h O O O $ i i 2 2 2 i k R X.;.>.>.,.,.=.+.{ K z j t 4 O O # 3 #       f q q q q q q ",
"b b b b b n n b $ O O $ i 2 2 i F L [ X.=.>.,.$.-.=.#.| S $ O . .   . . .           * q q q q q q q ",
"k b b b b b n v O O O % 2 k H } X.+.O.O.#.&.@.o.o.X.] 8 O X .         X O . . . X ; q d q q q q q q ",
"k b b b b b n n O O . 9 R ..+.+.+.+.o.+.+.+.X...[ z #     X     X X O # 6 , # $ d q d f q q q q q q ",
"v b b b b b b n q . = { X.+.+.+.+.X.X...| ] G 0 O         X O : 3 3 6 , , $ + q q q q f f g q q q q ",
"k v b b b b b n n $ K X.+.X.+.| z z H z 4 O         O $ # = 3 : 3 # # # $ O q q q q q q f f 0 q q q ",
"v n b b b b b b b x ] ........X.j           . X X $ # # 3 = O . $ O X O = q q q q 5 q q q q q 0 q q ",
"q b n b v n b b b J  . . .{  .{ D : . X   X X X . O $ $ # O   # : 4 q q q q f 0 q 0 0 q q q q f 0 q ",
"q d b b S D J n v U {  .} }  .[ D $ .       . .   + $ O O   O : , 4 q q q 0 f 0 h f f 0 0 f f f 0 0 ",
"q q c n S P P n S ] [ { } }  .] S         X .       O O   . , : 3 C = d q f f f f f f 0 f f f f 0 0 ",
"q q b J J J P n S J U  . . .] I ; . .         . .     . # , : o 4 Q z * ; d f f f q 0 0 h f f f f f ",
"q q v J P P J b S J I U ] R P z   O , # .     . . . # : , : # o C T Y A l 9 ; f f f f f f f f f f f ",
"q q k J P I b h g G C D D P S O . X $ , , : # , , , , # $ O O 6 C t A ! ! Y V = = f f f f h q 0 0 f ",
"q q v I J z q # k x z I C z k   . # # # O # # : $ # O O $ . O u : l W ! W ! ! Y g $ 9 f f 0 q 0 0 0 ",
"q q g 0 4 q q $ G 7 C I J 7 $   . , , , : : : $ O $ : : : . + # 7 I Y E E E E ! T C # 9 f q q 0 q q ",
"q + = k v q c z I q D I I q .   O : , r , , , , , , 6 , #   + & x J Y E E E E E Y I D = 5 q q q q q "
};
