/* XPM */
static char *result[] = {
/* columns rows colors chars-per-pixel */
"50 50 256 2 ",
"   c #010303",
".  c #03060A",
"X  c #040A0D",
"o  c #090B11",
"O  c #040919",
"+  c #100B15",
"@  c #130D1F",
"#  c #13101B",
"$  c #060D24",
"%  c #02072B",
"&  c #1C0C2C",
"*  c #170B24",
"=  c #0D162F",
"-  c #080E35",
";  c #1E0C32",
":  c #161B31",
">  c #220A2C",
",  c #230A38",
"<  c #280A3A",
"1  c #200D31",
"2  c #390737",
"3  c #1A2339",
"4  c #080D43",
"5  c #0A194D",
"6  c #071051",
"7  c #2B0A41",
"8  c #220848",
"9  c #370B48",
"0  c #3E0841",
"q  c #211F47",
"w  c #200757",
"e  c #2A0A51",
"r  c #1A274C",
"t  c #18265A",
"y  c #303153",
"u  c #080D60",
"i  c #0E1672",
"p  c #270F61",
"a  c #250D6E",
"s  c #102762",
"d  c #0E2272",
"f  c #162A71",
"g  c #1A367A",
"h  c #460949",
"j  c #4B0842",
"k  c #510A4F",
"l  c #480952",
"z  c #5B0B57",
"x  c #620A5B",
"c  c #550A6E",
"v  c #630E68",
"b  c #66057A",
"n  c #73086F",
"m  c #364375",
"M  c #394169",
"N  c #060C82",
"B  c #1F059D",
"V  c #190786",
"C  c #173F88",
"Z  c #17308C",
"A  c #0C14A8",
"S  c #200CBE",
"D  c #0D22A2",
"F  c #1438A9",
"G  c #720797",
"H  c #7C0588",
"J  c #640AA2",
"K  c #4F0889",
"L  c #2D518E",
"P  c #27569D",
"I  c #1945A2",
"U  c #1D51B2",
"Y  c #205DAF",
"T  c #266BB4",
"R  c #596A9D",
"E  c #4E5CB3",
"W  c #7074AA",
"Q  c #0E1FC7",
"!  c #341CC9",
"~  c #0C21D9",
"^  c #1936E2",
"/  c #481CCB",
"(  c #752AE3",
")  c #6026D2",
"_  c #1957C0",
"`  c #215DDE",
"'  c #1F60CA",
"]  c #2E75C1",
"[  c #2160D2",
"{  c #1D53ED",
"}  c #2443EB",
"|  c #1C73EF",
" . c #3065F1",
".. c #405DF3",
"X. c #4E64F6",
"o. c #6C77F6",
"O. c #87069C",
"+. c #890E99",
"@. c #930596",
"#. c #821584",
"$. c #A7049B",
"%. c #A6119E",
"&. c #9907A2",
"*. c #AA04A6",
"=. c #B106AA",
"-. c #AC04BA",
";. c #B90DB8",
":. c #8D2790",
">. c #A00DC6",
",. c #BC03CC",
"<. c #B331C7",
"1. c #C816CF",
"2. c #C408DB",
"3. c #C10AC8",
"4. c #DF20DE",
"5. c #C622CB",
"6. c #E22BDA",
"7. c #C705E3",
"8. c #CC0AE9",
"9. c #D219E9",
"0. c #D11CF0",
"q. c #DC3BEA",
"w. c #D435F8",
"e. c #E634E2",
"r. c #EB2EE2",
"t. c #BB69EA",
"y. c #B85BE0",
"u. c #DD48FB",
"i. c #D954E1",
"p. c #E84CEF",
"a. c #DF6CF1",
"s. c #EE67F7",
"d. c #ED7AF9",
"f. c #7D88B9",
"g. c #3083D0",
"h. c #2784E6",
"j. c #2B95F3",
"k. c #319DF2",
"l. c #3A89F7",
"z. c #38B3FB",
"x. c #35A9F8",
"c. c #4D80EC",
"v. c #43ADF6",
"b. c #57A0F0",
"n. c #40B7FB",
"m. c #4DBAFB",
"M. c #53AEF3",
"N. c #6AAEE6",
"B. c #4AC2FD",
"V. c #54C4FC",
"C. c #54CCFE",
"Z. c #5CCDFB",
"A. c #5CD3FD",
"S. c #66CEF7",
"D. c #6ECBFB",
"F. c #6DD6FA",
"G. c #68D9FC",
"H. c #79D0F9",
"J. c #6BE3FC",
"K. c #77E6FB",
"L. c #7BF0FC",
"P. c #8E94B9",
"I. c #A58BD2",
"U. c #B0B4D7",
"Y. c #999DF9",
"T. c #F68EFA",
"R. c #FC9CFE",
"E. c #EBB1F4",
"W. c #80DDF7",
"Q. c #89D5FB",
"!. c #9CCDF9",
"~. c #8DEFFB",
"^. c #88E5FB",
"/. c #83F8FC",
"(. c #9BF5FB",
"). c #B6E1F6",
"_. c #A3F8FC",
"`. c #ACF8FB",
"'. c #BAF8F8",
"]. c #B6F9F9",
"[. c #A9E7F9",
"{. c #ADD2FB",
"}. c #F0C8F6",
"|. c #E2C3EA",
" X c #CBEEF8",
".X c #C3F9F8",
"XX c #C9FAF8",
"oX c #D2F9F6",
"OX c #DFFAF5",
"+X c #DCF3F5",
"@X c #D5EDF5",
"#X c #ECFAF6",
"$X c #E9FCFA",
"%X c #F7F9F5",
"&X c #FBFCF6",
"*X c #FCFEFB",
"=X c #F2F3F8",
"-X c #C8C6D9",
";X c black",
":X c black",
">X c black",
",X c black",
"<X c black",
"1X c black",
"2X c black",
"3X c black",
"4X c black",
"5X c black",
"6X c black",
"7X c black",
"8X c black",
"9X c black",
"0X c black",
"qX c black",
"wX c black",
"eX c black",
"rX c black",
"tX c black",
"yX c black",
"uX c black",
"iX c black",
"pX c black",
"aX c black",
"sX c black",
"dX c black",
"fX c black",
"gX c black",
"hX c black",
"jX c black",
"kX c black",
"lX c black",
"zX c black",
"xX c black",
"cX c black",
"vX c black",
"bX c black",
"nX c black",
"mX c black",
"MX c black",
"NX c black",
"BX c black",
"VX c black",
"CX c black",
"ZX c black",
"AX c black",
"SX c black",
"DX c black",
"FX c black",
"GX c black",
"HX c black",
"JX c black",
"KX c black",
"LX c black",
"PX c black",
"IX c black",
"UX c black",
/* pixels */
"( ) a w e e e x k h @.&.&.=.*.G G G *.=.@.h b 1.0.7.7.=.=.,.G b z 9 7 ; ; 1 1 & , p g Z ` o.!.oX#X&X",
"J b e < ; < 7 h h h &.-.G &.O.G G G *.=.@.l &.9.w.7.8.,.=.&.b x z 9 7 ; 1 1 1 & ; e p f [ o. X$X#X#X",
"n 9 , ; & ; & 9 k k >.8.G &.&.O.G =.=.3.-.b -.0.q.7.7.8.;.O.z z x 9 7 ; 1 1 1 ; ; w p f ` Y.@X|.|.E.",
"x 7 & & ; ; & 9 v b <.s.-.@.=.*.*.=.=.2.2.*.2.8.q.2.7.8.;.O.z z z h 7 , & & ; > e p g F { o.Y.d.a.a.",
"c , & ; & & & , c -.2.d.5.$.=.=.&.O.&.2.7.,.8.w.w.7.7.8.,.H k k z k 9 p < , 7 q f Z U _ F / >.w.w.d.",
"x , & ; @ & ; ; l -.8.d.q.=.=.=.G J O.3.7.,.0.u.u.7.7.8.2.v 0 l x z 9 w 7 7 q g I _ I a p b 2.u.a.}.",
"k 7 & ; & & ; , 9 H 7.d.s.;.*.=.O.G O.=.2.,.0.u.u.9.7.4.-.z h h b v 0 7 e t g I U Z e , 2 @.u.E.=X&X",
"; ; ; ; ; ; ; & < H 8.q.d.1.*.*.*.O.b H =.,.9.q.u.9.7.r.%.z k k &.O.l i Z I _ C t > & > 9 >.R.&X&X%X",
"& ; ; ; ; ; ; & ; H 7.9.s.2.$.*.=.O.b b $.,.9.e.q.9.8.r.%.v z z -.-.c F [ _ g , > > , , K a.&X&X%X%X",
"; ; ; ; ; ; ; ; , c ,.0.u.1.&.=.&.O.b v &.,.9.u.6.4.6.e.;.$.@.b 8.<.! X.` d ; > > < 8 i o.=X&X%X%X%X",
"; ; ; ; ; ; ; ; , l ,.w.u.6.&.*.G &.&.b -.7.4.u.6.6.e.q.5.4.;.&.u.t.o.X.d * & < < i F c. X&X%X%X%X%X",
"; ; ; ; ; ; ; & ; l ,.w.u.u.>.&.H &.=.H =.4.e.q.6.6.q.q.5.p.5.<.T.Y.} ! & > : r Z ` M.(.#X&X%X%X%X%X",
"; & ; & & ; ; & ; l ,.0.u.u.>.@.@.&.=.@.%.e.6.q.p.q.p.a.<.R.y.t.R.y.K c > q g [ b.K./.`.#X%X%X%X%X%X",
"7 < , < < ; & & , c ,.0.a.u.5.$.=.@.;.%.#.r.6.q.s.i.E.a.I.%XW t.R.&.b c d U b.^._._._.oX%X%X%X&X&X#X",
"e 8 < 7 e 7 & & , J 0.u.T.T.s.;.-.=.1.5.z i.p.6.<.R.+XE.}.&XI.t.T.@.%.) h.D.(.].`._.'.&X&X&X%XOXOX[.",
"w w 8 , w w & * @ a ( w.}.E.d.1.1.3.6.e.;.a.e.$.:.R.E.}.}.}.d.d.T.#.|.{.^.^.`.'.].`..X XXX$X.X'._._.",
"U.P.R M g E E s d g.N.W -X=XU.v =.$.6.q.r.e.%.2 v s.T.T.i.q.;.a.}.U.#X'.[.W..XOXOXXX(.^.G..X&X$XXX).",
"*X*X*X!.N.#XH.i 5 C XX*X#X&X*XOXi.%.i.%.x %.j o h q.s.:.H j y E.*X*X#X'. X[.$X%X%XOX(.h.[ D.*X@Xm - ",
"R U.P.r t c.l.P $ y *X*X&X%X%X*XT.p.p.#.  h * + q W %.n 2 r N.$X X+X&X$X$X#X&X%X%X*X).i Y l.c.[.$   ",
": :     = i ' F f : @X*X&X%X&X|.q.p.4.x X & @ : y c > x L M.^.[.W.oX&X&X X=X&X%X%X*X-X% 6 t 4 r X   ",
": .       . % = X   M @X*X*X&XI.4.6.$.2 X : : 3 y k = E H.A.W.S.W.+X X@XQ.#X*X%X*X*XW               ",
".     .           .   = f.*X+Xz 4.$.2 * X 3 y = @ m T F.G.m.S.B.D.).N.).R I.=X*X=XR O           . # ",
". .           . . . .     m W * %.n + o 3 g 5 O t v.C.A.Z.V.z.h.l.g.o.<.&.0 W f.r       . . .   : y ",
"    . X       . O .   . X   * o j j @ s ] I 5 C k.C.V.A.A.n.j.I s t :.@.n > % .     . . . X .   3 q ",
"+ & m q +       . . .   X o @ + o > t k.z._ ' n.C.V.C.C.z.' g t $ @ 2 z + j 7     . . . . .   X @ 8 ",
": , p p # X .       . . . * * o X q h.C.z.j.B.C.V.B.x.h.I 6   r O . X X   k 7   . . X         X 8 a ",
"5 = - B B 4 * o       .   # +   : ] A.m.z.V.V.V.B.h.U f $ . . O $       . l <     . O     X X & p p ",
"M.g.I ) ( ! B V 4     . . + + * T C.Z.m.V.V.V.z.h.g $ .   . . o : .     . c <     . .   - - w a a p ",
"K.G.K.^.{.Y.X.} ! %       # m Y B.G.Z.V.V.B.x.' g O   . X . . . $ $   . X c > .   . . J / p p p V p ",
"F.G.~.(.$XOXXX{.Y.} %     r c.B.G.].F.C.m.k.I 5 o   .   . . .   = m     # c + .     $ ( / V e e B 6 ",
"S.K.W.(.XX$X#XXX]._.N.t % L ^.J.S.XX^.n.h.C $     . .           p m   . > 0 .   . @ > e S S N V B - ",
"Z.J.^.(.`.#X$X'.`.].'.^.g.m.~.^.Z.]..XQ.L       . . . .     + c +.q X # # +     . & 9 0 w B A S N i ",
"C.G.L.~.`.$X#XXX`.`.].`.J.C.H.K.A.[.XX~.f.q       . .     y E ' L 3 . . X .   .   . ; z z a S / N B ",
"n.C.L.~.`.oX#X.X`.~.^.^.G.V.S.S.G.^..XJ.L.m.5           4 b.C.Y m 3 o   . .   . . . O 9 z a ! / N ~ ",
"' _ v.K.(..X$X'.(.S.S.S.V.V.V.V.Z.~.`.K.^.A._           Z [ C 4 q r X   .   . X . . . & 0 p ) S Q ^ ",
"f 6 u ` v.~..X].F.S.S.V.m.V.V.V.m.F.^.W.S.C.j.t       o O     o = o   .   . . .   .   o > a ! A X...",
"O $ % N ~ { c.D.S.F.V.V.V.V.V.V.V.m.V.G.V.V.C.x.P 5 O         O .   . . . .       .     o a ~ ..o.o.",
"O O O 4 Q ~ ~ _ S.S.V.V.n.j.j.z.C.C.V.F.Z.m.V.A.A.v.T 5 O     $ X   . . .                 u ..o.o...",
"$ $ $ $ D } ..v.S.V.V.x.` D c.N.' k.n.C.K.C.V.F.A.G.G.m.T = = O . .             . $ 3 y y E Y.o.X.^ ",
"$ % % % D l.H.G.V.B.x.| ` N.$X&Xr 4 C ' v.G.Z.F.Z.A.A.G.J.v.Y O     O Y L R P.U.U.).$X$X+X!.!.o.{ X.",
"- - % 6 Q D.K.V.B.V.H.).`./.~.'.]     O 5 Y k.B.A.Z.V.Z.F.L.V.] 5   5 | V.*X*X*X*X*X#X$X+X).H.M.{ ..",
"6 4 u D h./.K.W.[.$X#X#X'./.J._ -           - g g.V.A.G.G.V.V.A.v.L 6 N U $X&X#X#X&X$XOX^.H.W.b...X.",
"N u A | J./.(.$X&X&XoXoX#X`./.f     .   .       $ s Y x.B.B.V.V.C.C.g.% W *X&XOX#XOXoX`.C.S.F.h.v.M.",
"A Q { A./././.].OX#XoX`.*X$X_.g       . . . .         4 C h.m.C.V.V.C.x.[.&X.X'.&X.X].~.J./.v.j.v.Q.",
"A { B././.L.K./.~.'..XG.^..X(.L   . .                     $ C g.n.C.V.A.XXXXL.OX#X`.]./.(.~.x.n.H.[.",
"^ x.L././.A.z.Z.K././.N.i T ] s   . . . .                     % g h.n.G.W.A.].&X$X'..X`.].F.x.F._.W.",
"| J././.K.n.| k./././.g.  % u   . . . . .                         % I C.A.Z.#X&X%XOXoXXX`.C.n.`.^.K.",
"S.L./.K.C.j.{ | J.`./.U D O i -   . . .                             $ d U n. X%X*X$XOXoXG.B.S./.~.oX",
"/././.J.k.{ { { j.v.P U  .%   O . . . . .                           X   5 m.G.H.[.oXOX(.J.n.K._.'.#X",
"_._.J.B.h.^ ^ F Z P g.H.M.s   . . . . . .                         .     Z b.^.`.^.^.`._.K.C.(.'._.(."
};
