/* XPM */
static char *result[] = {
/* columns rows colors chars-per-pixel */
"50 50 256 2 ",
"   c #010303",
".  c #03070B",
"X  c #02080D",
"o  c #080B0C",
"O  c #030A12",
"+  c #090B11",
"@  c #030A1A",
"#  c #0D0C19",
"$  c #010515",
"%  c #050E22",
"&  c #030623",
"*  c #160C20",
"=  c #09122E",
"-  c #11182A",
";  c #1B192F",
":  c #020D37",
">  c #1D0A35",
",  c #200A25",
"<  c #350B3A",
"1  c #280B39",
"2  c #450A3C",
"3  c #020E48",
"4  c #0A0E4D",
"5  c #1B0D45",
"6  c #161C47",
"7  c #020D5C",
"8  c #200858",
"9  c #280A5D",
"0  c #1A2858",
"q  c #32325F",
"w  c #273158",
"e  c #050F6B",
"r  c #06166F",
"t  c #210B6E",
"y  c #371164",
"u  c #260C7F",
"i  c #1D2B6F",
"p  c #102270",
"a  c #490950",
"s  c #680A5A",
"d  c #790B72",
"f  c #79207B",
"g  c #38425E",
"h  c #3F4771",
"j  c #4E5776",
"k  c #8E0D79",
"l  c #85086B",
"z  c #0F1486",
"x  c #22098D",
"c  c #172A88",
"v  c #10239A",
"b  c #1E378B",
"n  c #20229A",
"m  c #0910A1",
"M  c #1B05B2",
"N  c #071AB7",
"B  c #2306BC",
"V  c #231BAE",
"C  c #183BAE",
"Z  c #66189B",
"A  c #66168C",
"S  c #1D4394",
"D  c #1649BE",
"F  c #1A53AD",
"G  c #315EA6",
"H  c #2851A5",
"J  c #316AAD",
"K  c #376DB4",
"L  c #2D4C8B",
"P  c #4A5B86",
"I  c #6C5E97",
"U  c #657390",
"Y  c #775DB0",
"T  c #0B1ECC",
"R  c #1A1DCF",
"E  c #1226CC",
"W  c #0F25DA",
"Q  c #162CDF",
"!  c #3438DB",
"~  c #1539E2",
"^  c #2D0ACA",
"/  c #4810C4",
"(  c #6A15DC",
")  c #5828D2",
"_  c #1E56D7",
"`  c #1A68DF",
"'  c #3576CB",
"]  c #2B75D9",
"[  c #1A4EEF",
"{  c #1D5CED",
"}  c #3443EC",
"|  c #3E5EEF",
" . c #2270F0",
".. c #3B78F5",
"X. c #7447E2",
"o. c #586BF1",
"O. c #6968F7",
"+. c #950B83",
"@. c #8D0898",
"#. c #9E029C",
"$. c #9406AD",
"%. c #B00CAA",
"&. c #B726B2",
"*. c #B845B6",
"=. c #BA17DC",
"-. c #8A2ADE",
";. c #951ED4",
":. c #D113DC",
">. c #D925D3",
",. c #E228DC",
"<. c #DB1FE5",
"1. c #E635E4",
"2. c #E23CF5",
"3. c #8E55D4",
"4. c #CE4FD0",
"5. c #D944FA",
"6. c #DC54E0",
"7. c #E84DEB",
"8. c #E14FF5",
"9. c #E768F3",
"0. c #E77DF9",
"q. c #E164E8",
"w. c #7582BD",
"e. c #7B89A3",
"r. c #2181ED",
"t. c #328CF3",
"y. c #39ADF8",
"u. c #3EB5F9",
"i. c #4A96F5",
"p. c #6A8DF4",
"a. c #7381FC",
"s. c #42A4EE",
"d. c #44BCFA",
"f. c #59B1F5",
"g. c #6CA8EB",
"h. c #4EC6FB",
"j. c #6BC5FA",
"k. c #65D5FB",
"l. c #78D6F7",
"z. c #7CD9FB",
"x. c #72D1F4",
"c. c #76C3EE",
"v. c #76EBFC",
"b. c #7DF1FB",
"n. c #8097BD",
"m. c #9F92FC",
"M. c #A29FFE",
"N. c #B389F8",
"B. c #9AB4E9",
"V. c #A9ABF8",
"C. c #B792DD",
"Z. c #F587FB",
"A. c #F29EF6",
"S. c #ED90F9",
"D. c #D2B0EB",
"F. c #E3B0F0",
"G. c #F2A9F6",
"H. c #B7C2CD",
"J. c #80DEFB",
"K. c #84D0FA",
"L. c #B3C9FB",
"P. c #ADC3F5",
"I. c #85E0FA",
"U. c #85E8FB",
"Y. c #91E9FB",
"T. c #9DE9FA",
"R. c #8AF8FD",
"E. c #9AF6FB",
"W. c #ADE4FA",
"Q. c #A3F5FB",
"!. c #ACF9FA",
"~. c #A9F3FB",
"^. c #B5F5F8",
"/. c #BAF7F9",
"(. c #C4D2E7",
"). c #E7CCF1",
"_. c #F1DDF4",
"`. c #EDD0F3",
"'. c #DEE5E9",
"]. c #D1E2EC",
"[. c #CFEFF7",
"{. c #C4ECF8",
"}. c #CBF8F7",
"|. c #C5F9F8",
" X c #DAF9F6",
".X c #D2FAF7",
"XX c #EDF3EF",
"oX c #E3EFF1",
"OX c #E2F9F7",
"+X c #EEFAF7",
"@X c #EAF7F9",
"#X c #E6F9FA",
"$X c #F5F7F5",
"%X c #F5FBF6",
"&X c #F9F9F5",
"*X c #FDFEFB",
"=X c #F8FBF9",
"-X c black",
";X c black",
":X c black",
">X c black",
",X c black",
"<X c black",
"1X c black",
"2X c black",
"3X c black",
"4X c black",
"5X c black",
"6X c black",
"7X c black",
"8X c black",
"9X c black",
"0X c black",
"qX c black",
"wX c black",
"eX c black",
"rX c black",
"tX c black",
"yX c black",
"uX c black",
"iX c black",
"pX c black",
"aX c black",
"sX c black",
"dX c black",
"fX c black",
"gX c black",
"hX c black",
"jX c black",
"kX c black",
"lX c black",
"zX c black",
"xX c black",
"cX c black",
"vX c black",
"bX c black",
"nX c black",
"mX c black",
"MX c black",
"NX c black",
"BX c black",
"VX c black",
"CX c black",
"ZX c black",
"AX c black",
"SX c black",
"DX c black",
"FX c black",
"GX c black",
"HX c black",
"JX c black",
"KX c black",
"LX c black",
"PX c black",
"IX c black",
"UX c black",
/* pixels */
".X!.E.b.z.T.!.~.Q.}.@XOX#X#X X.X.X.X#X#XW.{.XX%X$X$X$X@X#X X|.!.W.K.i.| C v c i b D _ i.K./. XoX#X$X",
"^.Y.z.z.z.z.~.!.Q..X$X X#X#X#X#X#X#X#X#XW. X%X&X&X$X$X@X#X X^.Q.^.~.I.j.i._ C i i c c _ p.L.'.$X%X$X",
"Y.z.z.z.z.z.T.^.W. X&X@X#X#X#X#X#X#X#X@X X+X&X&X&X$X$X$XOX.X!.~.!.T.I.!.U.j.t.D v c i p ! m.D.XX$X$X",
"I.z.z.z.z.z.Y.^.oX@X&X$X#X#X#X X#X#X#X@X#X$X&X&X&X$X$X$XOX/.Q.~.!.W.T.Y.J.I.J.f...C c p V X.0.A.).%X",
"J.z.z.z.z.z.Y.^.#X%X&X$X#X#X#X XOX#X#X+X@X&X&X&X&X$X&X$X X^.Q.!.^.W.~.T.z.z.I.U.l.i._ C ) -.9.9.`.%X",
"Y.z.z.z.z.z.I.W.].XX%X%X#XoX@XOX.X X#X$X+X&X&X&X&X$X&X$X.X~.~./.}.T.Y.Q.z.z.z.J.U.J.j.o.O.9.Z.G.$X).",
"I.z.z.z.z.z.z.T.{.).'.*XXX].'.'.'.].].#XXX%X&X&X&X$X&X+X{.Q.~.[.OX^.b.Y.z.z.z.z.z.J.R.T.P.).$X%X_.9.",
"z.z.z.z.J.z.l.I.P.S.G.$X).V.P.L.L.L.L.(.'.+X%X&X&X&X&X+X/.^.W. X+X^.R.Y.z.z.z.z.z.z.b.!.OX%X*X%X).0.",
"z.z.z.J.J.l.x.x.V.N.9.A.0.m.M.M.M.M.m.M.V.).%X%X%X%X&X+X}. X{. X+X^.b.Y.z.z.z.z.z.z.z.E.%X%X&X=X'.G.",
"z.z.J.J.j.j.f.i.p.5.2.9.8.-.=.3.O.X.) X.9.Z.).).).XX%XoX'.@X X$X@XQ.E.U.z.z.z.z.z.z.I.{.%X&X&X&X%X_.",
"J.J.l.j.f.i. .[ X.-.<.5.5.=.#.$.;.%.@.$.2.8.Z.0.Z.G._.F.).XX[.%X+XT.E.U.z.z.z.z.z.z.J.|.&X&X&X&X&X%X",
"l.x.j.f.r.D D c x ;.<.8.2.=.@.@.@.%.#.@.1.1.8.7.Z.Z.Z.N.F.).(.%X$XT.W.I.z.z.z.z.z.z.Y. X&X&X&X&X&X$X",
"x.f.s. .D i i i y $.:.5.5.=.@.#.$.%.#.+.1.,.<.7.6.9.G.w.%XV.N.&X XK.W.I.z.z.z.U.I.U.^.&X&X&X&X&X&X@X",
"l...` ~ z 1 > 5 A =.:.9.9.5.%.%.#.%.%.s >.1.1.7.q.A.D.6.`.w.Y *XD.a.L.x.l.J.E.Q.!.!. X&X&X&X&X&X$X.X",
"g._ c c t > * * A 5.5.A.A.Z.,.%.%.:.,.s 4.7.1.&.A.G.S.Z.Z.6.*.*X3.3.N.i.x.J.Q.!.Q.^.+X%X&X$XOX}.^.~.",
"o.D e 8 8 4 , @ t ) -.F._.0.%.%.%.>.1.>.q.1.#.s 0.Z.Z.7.7.1.7.G.A 6.X.{ p.z.|.}./..X^.E. XOX.X}..X.X",
"[.P.w.L g.g.p r ] c.B.H.&XD.I k +.&.1.>.,.%.2 2 >.1.>.+.%.d &.9.4.Z.Z V ! I.+X$X}.Q.T.b./.&X$X+X#XOX",
"*X*XW.w.{.K.v - 3 P.*X*X%X*X*XA.&.4.&.< k a   + +.%.l 2 .   %.,.,.Z.f @.Y #X*X&X$X Xk.k.!.+X&X^.k.z.",
"U U = & _ ..' r 6 '.*X&X&X%X*XF.7.8.%.  , , X o s a s <   , l s d 9.&.>.D.*X&X&X&X$Xu.z.^.Q.OXY.d.h.",
"-     + 7 n c i @ e.*X*X$X*X_.1.7.1.l # + +   # 2 . 1 * + # < . +.>.&.&.H.*X$X%X*X@X' u.h.h.k.k.h.h.",
".     X   X @ o   % n.#X*X*XC.<.>.+.< O + .   + a . # #   . . + k s f @.H.*X*X*X*Xw.p S F ` r.y.d.h.",
"  . . .         .   $ w (.*Xq :.%.* # .   .   . ,   o .       * a # &.s f H.*XoXh $ % = 6 S F ` j.u.",
"      . .     . . .     = j * d k o .               .   .     . . 2 +.+.a g P 6         O - 0 H k.u.",
"  # # .       . O . . .   # # , < .                 X O . X X   . s l k , 1       . . .     . h ' f.",
"; q i # o       . X .   + * # . #                 . O @ .   = # . , < * < a X . . . . . .   o ; m } ",
"* 1 t 5 # O     .     . # > X .                   . O O     6 =   o .   < a O . . X .     . . > u n ",
"+ * x M t 5 = o         # * X                 .     O X X O O = #       < a . .   . X . X # > 9 9 > ",
"% * x ^ ^ B M t .   . . # ,                   .     X . . . . = %   .   a a . . . . & 5 5 8 9 u t # ",
"@ * y ( ( / B ^ t   . + + 1     - X           . . .   . o . . % :     . a 1 . +     / ( t 9 9 t 8 # ",
"% > 8 / ( ( B Q R 4   . # *     U 0           . . . .     .   : P .   # a # . .   . Z ) x 9 9 u 5 > ",
"= = 8 n X.X./ T Q R 3   . * #   U h               . .         y h X . * < . .   # 1 , u M 9 t M : z ",
"@ : 7 m X.X.) B B ^ R :   * ; . j I Z y     .     . .     , u A q . # + *       . < a 9 u M B z 7 B ",
"X 3 7 M ! O.X.T M m z 7   + - @ g n.H g.J .     . . .   h o.] L g . o . +   .     * a d 9 M ) z m B ",
". : e T ! O.O.W 7 : % X . X . O ; e.b h.h.S       .   : i.h.J q w #   . . .   . . . > s y R } z W ~ ",
". @ r N Q O.} m O o .           - P i 6 S c @       . 4 C r # 6 6 . .     .   . .   + < 9 ) R R ! ~ ",
"O O 7 N Q ! R & o . .           . % 3       .       X O     . : .   . . . . .       . # 5 E T o.O.! ",
"O X : N W N e o +   . .   .         # @             O O O . % @         . .     . .   . 8 W | O.O.! ",
"@ @ % N W N @ o X   . .             . @   .         . . O @ %                           : | a.O.} } ",
"% % @ r T T &           & I H.o       + +   .       .   . = %   . . $       % - 0 h j U w.M.a.O.} O.",
": : = 3 T m $       : G f.|.*XU         . . .       . X O # .     . ` ' n.H.'.oX@X*X=X=XL.P.p.| | o.",
": : : 3 Q p   $ 0 w.[..XR.v.T.p.$         .           . O         & [ t.#X*X*X*X*X#X#X[.T.K.j. .| | ",
": 3 : 3 E D P B.#X X.X XR.R.] &     . . . .           . .   .   . . : z [.*X$XOX&XOX XI.k.l.f...i.p.",
"7 7 7 7 m  .v.#X#XOX^.+X|.E.J             .         .   .       . .   h *X*X|.+X&X}.^.k.k.x.r.t.f.B.",
"z e e e m { d.E..X}.E.#X+X^.J   .         .         .                 w.*XQ.Q.&X}.}.T.k.R.h.t.s.K.K.",
"m v m m N ~ h.v.E.!.k.g.^.R.'     . .               .                 ' i.r..X%XQ.|.R.E.R.u.u.z.T.j.",
"T E N W Q ~ y.v.R.R.k.3 0 F p   . X .               .   .           # 4   K *X+X/.}.^.^.l.y.k.!.I.z.",
"E [ ~ ~ ~ [ r.b.!.R.s.: $ p &   .   . .         . . . . . . .     X 5 &   c.#X.X|.|..X^.h.d.T.U.v. X",
"W { { ~ { { { d.E.R.J N & = 4 .   . . . . .       . . .           # %   $ G f.R.R.^.}.k.h.h.R.R. X&X",
"{ ~  . .[ { [ ` ' H G i.r   X X . .             . . . . .         X . : ' ' S S s.R.k.h.y.k.!.^. X^.",
"d.{ { { ~ E v b K f.z.j.C     . . .           . .   . .               c i.l.Y.g.G F t.y.y.b.!.Q.Q.v."
};
