/* XPM */
static char *result[] = {
/* columns rows colors chars-per-pixel */
"50 50 256 2 ",
"   c #010404",
".  c #01050B",
"X  c #09060C",
"o  c #03080E",
"O  c #000512",
"+  c #040A14",
"@  c #0B0B14",
"#  c #030B1C",
"$  c #090E1C",
"%  c #120E16",
"&  c #150E1B",
"*  c #051011",
"=  c #0B1117",
"-  c #0B121B",
";  c #12161E",
":  c #12181E",
">  c #030D24",
",  c #030E2A",
"<  c #160D21",
"1  c #1C0E26",
"2  c #1E0E2A",
"3  c #061027",
"4  c #0B1422",
"5  c #0D1A23",
"6  c #05122B",
"7  c #0D162E",
"8  c #101721",
"9  c #131D26",
"0  c #191E22",
"q  c #16152B",
"w  c #111E2A",
"e  c #181E2C",
"r  c #000436",
"t  c #010F31",
"y  c #000738",
"u  c #000E39",
"i  c #021134",
"p  c #091635",
"a  c #02123A",
"s  c #08173E",
"d  c #0F1C3D",
"f  c #121D36",
"g  c #230D2D",
"h  c #250C33",
"j  c #2C0D36",
"k  c #300B3E",
"l  c #291036",
"z  c #201438",
"x  c #1B2225",
"c  c #152029",
"v  c #1B232B",
"b  c #172131",
"n  c #1B2434",
"m  c #1F2935",
"M  c #15213A",
"N  c #1B243A",
"B  c #1E293D",
"V  c #222937",
"C  c #232639",
"Z  c #242B3C",
"A  c #42243E",
"S  c #061543",
"D  c #081741",
"F  c #0B1B46",
"G  c #101943",
"H  c #101C4D",
"J  c #360D40",
"K  c #3C0C42",
"L  c #2A1943",
"P  c #261F49",
"I  c #3E1041",
"U  c #331D45",
"Y  c #152444",
"T  c #192140",
"R  c #1E2841",
"E  c #12214A",
"W  c #18284C",
"Q  c #1C2C52",
"!  c #292646",
"~  c #222D45",
"^  c #232F4B",
"/  c #263041",
"(  c #2A3144",
")  c #25304B",
"_  c #2C354A",
"`  c #2E394A",
"'  c #323C4E",
"]  c #263251",
"[  c #2B3755",
"{  c #2C3954",
"}  c #24335D",
"|  c #2B3B5C",
" . c #313D54",
".. c #323F58",
"X. c #3B3C5E",
"o. c #1F336A",
"O. c #243566",
"+. c #20346E",
"@. c #303F64",
"#. c #293973",
"$. c #420B45",
"%. c #4A0A42",
"&. c #450B4B",
"*. c #4B0A4F",
"=. c #4A1D43",
"-. c #4E0A50",
";. c #530B50",
":. c #5A0B53",
">. c #5A1858",
",. c #610B55",
"<. c #680C58",
"1. c #710B57",
"2. c #7A0B56",
"3. c #7C0B5B",
"4. c #4A3E5A",
"5. c #364154",
"6. c #3A4254",
"7. c #34415D",
"8. c #38445C",
"9. c #3D485B",
"0. c #3C4962",
"q. c #36466A",
"w. c #424E62",
"e. c #414B6F",
"r. c #425066",
"t. c #445269",
"y. c #495569",
"u. c #4E596D",
"i. c #425573",
"p. c #4B5A72",
"a. c #49567C",
"s. c #465878",
"d. c #4C5C79",
"f. c #535E74",
"g. c #5B6477",
"h. c #556179",
"j. c #58647D",
"k. c #830B5A",
"l. c #224781",
"z. c #596681",
"x. c #5D6A84",
"c. c #5E6C89",
"v. c #616D85",
"b. c #667186",
"n. c #62718B",
"m. c #6A778C",
"M. c #687792",
"N. c #6E7C94",
"B. c #707F97",
"V. c #75849B",
"C. c #7A899D",
"Z. c #7D8CA1",
"A. c #82909F",
"S. c #808FA1",
"D. c #8493A3",
"F. c #8997A7",
"G. c #8B99A7",
"H. c #909EAB",
"J. c #909EAB",
"K. c #95A3AE",
"L. c #96A4AE",
"P. c black",
"I. c black",
"U. c black",
"Y. c black",
"T. c black",
"R. c black",
"E. c black",
"W. c black",
"Q. c black",
"!. c black",
"~. c black",
"^. c black",
"/. c black",
"(. c black",
"). c black",
"_. c black",
"`. c black",
"'. c black",
"]. c black",
"[. c black",
"{. c black",
"}. c black",
"|. c black",
" X c black",
".X c black",
"XX c black",
"oX c black",
"OX c black",
"+X c black",
"@X c black",
"#X c black",
"$X c black",
"%X c black",
"&X c black",
"*X c black",
"=X c black",
"-X c black",
";X c black",
":X c black",
">X c black",
",X c black",
"<X c black",
"1X c black",
"2X c black",
"3X c black",
"4X c black",
"5X c black",
"6X c black",
"7X c black",
"8X c black",
"9X c black",
"0X c black",
"qX c black",
"wX c black",
"eX c black",
"rX c black",
"tX c black",
"yX c black",
"uX c black",
"iX c black",
"pX c black",
"aX c black",
"sX c black",
"dX c black",
"fX c black",
"gX c black",
"hX c black",
"jX c black",
"kX c black",
"lX c black",
"zX c black",
"xX c black",
"cX c black",
"vX c black",
"bX c black",
"nX c black",
"mX c black",
"MX c black",
"NX c black",
"BX c black",
"VX c black",
"CX c black",
"ZX c black",
"AX c black",
"SX c black",
"DX c black",
"FX c black",
"GX c black",
"HX c black",
"JX c black",
"KX c black",
"LX c black",
"PX c black",
"IX c black",
"UX c black",
/* pixels */
"          o = = = = = = = = = = = * 2 :.3.2.2.2.2.2.2.3.2.k.1.1 * % - - = = = = = = = = = = = = = = ",
"          o = = = = = = = = & % g K <.3.2.2.2.2.2.1.;.K :.3.2.1.:.g * = = = = = = = = = = = = = = = ",
"      o o = = = = = = = = = % < &.1.k.2.2.2.2.3.&.h g @ 1 $.1.k.k.:.2 = = = = = = = = = = = = = = = ",
"+ @ + o @ = = = = = = = = = + 1 ;.k.:.;.1.k.,.j J & % % 2 &.<.1.k.1.< * = = = = = = = = = = = = = = ",
"= = = = = = = = = & & & & - = = %.,.2 j &.%.,.g < 1 % % h $.j ;.3.2.$.g - = = = = = = = = = = = = = ",
"= = = = = = = = & & & & = = = K 3.K < j -.g g K 1 % & & & % 1 J $.,.<.$.= = = = - - = = & @ = = = = ",
"= = = = = = = = = & & & - 5 l :.1.:.*.;.:.:.k j K & % & < 2 h % @ J ,.;.1 - = @ - 9 9 5 8 9 9 & % - ",
"= = = = = = = = = & - - 5 5 l :.,.K j &.$.*.K < 2 g < & < & < 2 j $.<.:.j 5 - + - - 5 c w w c 9 ; w ",
"= = = = = = = = = & = = = : < &.k @ % 2 < & & + o @ @ @ @ % & < h g -.-.q V ~ n 9 4 9 w w w w w w w ",
"= = = = = = = = 9 9 9 w w 9 J -.j & < % + o . 4 5 > ~ 9._ C + + < & g &.L u.x.x.u./ 4 9 w w w w w w ",
"= = = = = = @ = w w w w w 9 K K 1 % o   . ( u.b.@.y d.D.Z.| d e . % % < 6.v.V.C.V.n.' 4 w w w w w w ",
"9 9 9 9 9 ; ; 5 w w c c x x q h & @ . 8 d i.D.H.i.r z.L.V.S d.F N @ % @ 5.N.D.D.D.V.x.e 5 w w w w w ",
"w w w w w w w 9 : 0 : 0 0 - < & & . O M d.Q G.H.d.r c.K.0.} e.Q t.O % % 0 b.D.A.D.D.N.` = w w w w w ",
"w w w w w w 4 e ' 9.9./ - O o + & . N W s.} c.K.d.r n.D.F s.F z.W Y @ o C M.D.D.S.D.V.w.@ w w w w w ",
"w 9 9 w w - V j.B.V.C.m.y.$ O + & = p @.^ X.X.H.z.y M.b.G X.P 0.Q h.% % - p.D.D.D.F.V.y.+ w w w w w ",
"9 c x x 5 V n.S.D.D.H.z.p #   8 + ( { Y 6 & z B.h.u n.w.g 5 ~ W e.w.= 1 @ e N.F.G.C.V.' + 9 9 9 c 9 ",
"9 9 x 0 b x.S.D.D.D.D.n.y W = - + ( >.g < o   6.d.S p.-   . 1 %.>.B * z 2 . t.D.h.E n.w - 9 9 9 x 9 ",
"9 x x : w.Z.D.S.V.N.m.h., { v w + ( I %.<.I   x i.s 0.. < $.=.z _ V o C L + w E r S _ > 9 9 9 9 9 9 ",
"w 9 0 0 x.Z.Z.B.h.( 0 -   : w f e Z { l.4.=.j o ' d ~ # =.A u.l.9.8 w U *.&   , Q > O M 4 x x 9 w w ",
"c 9 x n b.N.V.w.O . O O     - > Z / 6.#.a.g.} q 8 s m P l.m.e.P ` m ! *.;.e + 4 e   e ~ 5 w 9 9 w w ",
"x 9 x n x.V.n.# e 0.p.' -   + > + _ { L G ) s q + a w.0.H { z ) ~ m l -.-.k + + . 8 Q p 9 w w w w w ",
"9 9 v x u.N.` { V.v.q.Q d > . o + + w E } W N + # s M.Z.^ Q | W c @ $.*.*.l     o N s w Z 5 w w w w ",
"9 x n b ' g.9.V.q.y F @.s.s._ o o + + { } } m./ O ..V.H.B.s q.^   < -.*.&.1 . . + M 4 6 5.8 w 9 w w ",
"x v Z Z b w.m.} S W w.| E E d . + + . e 7.j.d.n.5.u.b.M.f.p.d w + k -.*.&.$ * = = O w E { e 9 9 w w ",
"V Z Z Z b ` ] E n.c > E e.s.q.e     . + w.h.( ` 0.8.' ( _ b.5.O + J -.;.K + = + O w h.{ ] v 5 w w w ",
"Z Z Z V n 7 a c.W   6.N.V.m.y.e     + + + 5. .@ @ . O O 0.6.+ # , 7 k &.g + + + N f.V.^ ] n 5 w w w ",
"Z Z n V V # q.| , + 5.x.h.Z . O . . o < 1 O Z 7._ _ _  ._   # , a , > h @ + 8 n f.b.N.E ] c 9 w w w ",
"Z Z Z Z C e 7.u t.w w y.e . c ` Z 9 + 1 L <   w  .6.0.N # O i a a a , 1 + 9 ` 9.b.N.z.s Z 0 9 w w w ",
"Z Z Z Z Z N p q.b.` + w > 6.z.c.j.j.w.C h k . O > - + + > 7 a a a a 6 @ + n 8.h.m.N.q.6 x 9 w w w w ",
"Z Z Z Z Z 5 M n.x.w.O # y.v.n.x.n.c.x.p.! h @ + > O   # M p a a a a 4 + - N w.x.m.b.d e 9 w w w w w ",
"Z Z Z Z Z e n h.v.9.# 9.x.x.v.x.n.v.x.x.p.C < + > # . e d u a i a a , @ - e y.x.m.d.p b w w w w w w ",
"Z Z Z Z Z Z + ( y.w.9.x.x.x.x.x.x.c.x.x.z.r.< o > +   5 a a i i a a > % - 4 N 8.y.{ p c w w w w w w ",
"Z Z Z Z Z Z b . e u.g.x.x.x.z.d.h.x.x.j.x.f.( # , +   > a a i a a a , $ - + @ 4 > , M 9 x w w w w w ",
"Z Z Z Z Z C / 9 - t.' w.j.z.j.j.` ' y.d.d.d.0.4 # + + a a a a i a a u 7 ) 4 < . O + 5 w w w w w w w ",
"Z Z Z Z Z C Z Z 9 ) ^ 4 r.h.j.f.y.n # n ..t.t.n # + , t t , > # u a t e f > .       + w w 9 w w w w ",
"Z Z Z Z Z V Z Z e o n + ( p.f.t.p.i._ + . 9 { ~ # , > > f ` ' _ W a i + . +     .   o w 9 9 w w c c ",
"n Z Z Z Z Z Z Z Z       - { i.i.i.i.p.8.w . # w 6 p ) 0.t._ _ 9.Y u i o               0 c w w w w w ",
"n Z Z Z Z Z Z Z Z b       + ) t.s.i.t.t.w. .n B r.w.u.8.w . . O > t > .           . . 0 c 9 w w w w ",
"V Z Z Z Z Z Z Z Z ( : . . . # e { 8.0.0.t.y.5.5.0.6.~ $ . O 5 - > > +           o o + x x c w w w w ",
"n V Z Z Z Z Z Z Z Z Z :     o . o $ 4 5 N  ...0.4 + p + . w { e B w .   O + = - 9 c 9 w c x 9 9 w w ",
"V Z Z Z Z Z Z Z Z C Z Z - .       . .   . 4  .w.5.' 8.n + { 8.' 8.N 5 - 4 - w w w w w w w w w 9 w w ",
"b Z Z Z Z Z Z Z Z Z Z v = # # o     o     +  .w.r.r.w...N 8.w.t.{ 8 4 e w w x c w 9 9 w w w w x 9 w ",
"9 n Z Z Z Z Z Z Z Z Z # . o 6 3 + + o     + ] 8.w.w.w.0.{ ....{ n N b : w 9 x 9 c x x 9 9 x x x 9 9 ",
"9 n Z Z Z ~ ~ ^ ^ ~ Z 3 > . o 3 , > > # o o e ] { { { N f B n - w } } 9 9 x x x x x x 9 x x x x 9 9 ",
"9 n Z ~ ] ] ] ] ^ - > > , > . + > , > > > > O 5 N N 8 O O o O # ) O.+.} b 8 0 x v 9 9 9 c x x x x x ",
"9 9 Z Z ] ] ] ) R w f e > > > + + + + # > > # .   . + # + + # f [ T Q +.O.} M - x v x x x x x x x x ",
"9 9 Z ~ ] ] ~ Z ] [ ^ R N 3 > , # o + + + + + o + + + # # o + ( T 6 O.+.o.+.O.~ 9 0 v x x c 9 9 9 x ",
"9 9 Z [ ^ b N ) ) } } E D b 7 > . + > > # # # # # # > , > . o e > n O.o.+.+.+.O.] w 0 v x 9 9 9 9 9 ",
"x n Z N e ~ ] ] ) O.+.] ] f p -   # , , , , , , > > > , > .   # 3 ) } o.o.o.o.o.] ] w x x 9 w 9 w w ",
"w 9 - e ] ] ] ] ] o.o.} _ ] 3 @ o o , , , , , , > > , , >   X & e _ } o.o.o.o.o.} ] ] 9 9 w w w w w "
};
