/* XPM */
static char *result[] = {
/* columns rows colors chars-per-pixel */
"50 50 256 2 ",
"   c #010203",
".  c #020609",
"X  c #050A0D",
"o  c #080A0D",
"O  c #010611",
"+  c #050B13",
"@  c #090E12",
"#  c #070D18",
"$  c #0C1116",
"%  c #0D1219",
"&  c #101316",
"*  c #11161D",
"=  c #13181F",
"-  c #151A22",
";  c #191E26",
":  c #1D1F29",
">  c #1C2026",
",  c #1C222C",
"<  c #1E2535",
"1  c #1F2A3C",
"2  c #232933",
"3  c #2B2C34",
"4  c #262F3F",
"5  c #2B2F3A",
"6  c #2A323D",
"7  c #32383F",
"8  c #2D3543",
"9  c #353944",
"0  c #353C49",
"q  c #383F4B",
"w  c #3D434C",
"e  c #3D4452",
"r  c #414651",
"t  c #444B55",
"y  c #484C57",
"u  c #454C5C",
"i  c #4D5256",
"p  c #47505D",
"a  c #4B515A",
"s  c #4E5763",
"d  c #4F5867",
"f  c #555B67",
"g  c #515A69",
"h  c #5A5D69",
"j  c #5B626C",
"k  c #5A6372",
"l  c #63666E",
"z  c #626973",
"x  c #686E77",
"c  c #616B7A",
"v  c #6D6F78",
"b  c #6F737C",
"n  c #6E7680",
"m  c #767780",
"M  c #767C84",
"N  c #757E8A",
"B  c #7B818B",
"V  c #7D8595",
"C  c #82878E",
"Z  c #848A92",
"A  c #8B8E96",
"S  c #848B99",
"D  c #8C929B",
"F  c #90949F",
"G  c #949AA3",
"H  c #9CA0A5",
"J  c #9CA3AC",
"K  c #A3A5AD",
"L  c #A8A7AD",
"P  c #A3AAB1",
"I  c #A9ADB3",
"U  c #A8AFB9",
"Y  c #AEB2BA",
"T  c #B2B6BA",
"R  c #B2B8BF",
"E  c #AEB6C0",
"W  c #B6BAC0",
"Q  c #BDBEC4",
"!  c #BAC1C9",
"~  c #C1C5CB",
"^  c #C6C9CC",
"/  c #CACACC",
"(  c #C9CED2",
")  c #CED2D5",
"_  c #CFD5D8",
"`  c #D4D5D6",
"'  c #D3D7D9",
"]  c #D4DADD",
"[  c #DADEDF",
"{  c #D7DBE1",
"}  c #D8DDE0",
"|  c #DDE0E1",
" . c #E1E4E6",
".. c #E2E6E9",
"X. c #E6EAEB",
"o. c #EAEDED",
"O. c #EAEFF1",
"+. c #EFF1F0",
"@. c #EEF1F1",
"#. c #EDF2F2",
"$. c #EFF3F5",
"%. c #EEF2F3",
"&. c #F0F2F2",
"*. c #F1F4F2",
"=. c #F2F4F2",
"-. c #F3F5F4",
";. c #F2F6F6",
":. c #F4F7F4",
">. c #F5F7F5",
",. c #F4F7F7",
"<. c #F1F4F3",
"1. c #F7F8F5",
"2. c #F5F8F6",
"3. c #F5F8F7",
"4. c #F7F8F5",
"5. c #F8FAF7",
"6. c #F8FBF7",
"7. c #F8FAF7",
"8. c #F7FAF9",
"9. c #FAFBF8",
"0. c #FBFCF9",
"q. c #FAFDF9",
"w. c #F9FCFB",
"e. c #FBFDFB",
"r. c #FCFDFA",
"t. c #FCFEFA",
"y. c #FDFEFB",
"u. c #F9FDFD",
"i. c #FEFEFC",
"p. c #FCFEFE",
"a. c #FEFEFE",
"s. c #FDFEFD",
"d. c black",
"f. c black",
"g. c black",
"h. c black",
"j. c black",
"k. c black",
"l. c black",
"z. c black",
"x. c black",
"c. c black",
"v. c black",
"b. c black",
"n. c black",
"m. c black",
"M. c black",
"N. c black",
"B. c black",
"V. c black",
"C. c black",
"Z. c black",
"A. c black",
"S. c black",
"D. c black",
"F. c black",
"G. c black",
"H. c black",
"J. c black",
"K. c black",
"L. c black",
"P. c black",
"I. c black",
"U. c black",
"Y. c black",
"T. c black",
"R. c black",
"E. c black",
"W. c black",
"Q. c black",
"!. c black",
"~. c black",
"^. c black",
"/. c black",
"(. c black",
"). c black",
"_. c black",
"`. c black",
"'. c black",
"]. c black",
"[. c black",
"{. c black",
"}. c black",
"|. c black",
" X c black",
".X c black",
"XX c black",
"oX c black",
"OX c black",
"+X c black",
"@X c black",
"#X c black",
"$X c black",
"%X c black",
"&X c black",
"*X c black",
"=X c black",
"-X c black",
";X c black",
":X c black",
">X c black",
",X c black",
"<X c black",
"1X c black",
"2X c black",
"3X c black",
"4X c black",
"5X c black",
"6X c black",
"7X c black",
"8X c black",
"9X c black",
"0X c black",
"qX c black",
"wX c black",
"eX c black",
"rX c black",
"tX c black",
"yX c black",
"uX c black",
"iX c black",
"pX c black",
"aX c black",
"sX c black",
"dX c black",
"fX c black",
"gX c black",
"hX c black",
"jX c black",
"kX c black",
"lX c black",
"zX c black",
"xX c black",
"cX c black",
"vX c black",
"bX c black",
"nX c black",
"mX c black",
"MX c black",
"NX c black",
"BX c black",
"VX c black",
"CX c black",
"ZX c black",
"AX c black",
"SX c black",
"DX c black",
"FX c black",
"GX c black",
"HX c black",
"JX c black",
"KX c black",
"LX c black",
"PX c black",
"IX c black",
"UX c black",
/* pixels */
"          .   i a.q.3.3.a.^     , *   X o .   3 a.y.a.E - o   X 6 2 2 , $ O + % @ , 2 . t [ a.3.3.3.",
"    . .   X X - o.a.3.3.a.,.,   & * .         3 a.y.a.G * .   * 2 ; * - & @ $ $ @ > X > F a.5.3.,.a.",
"      . X $ @   P a.3.3.9.a.x   * o .         3 a.y.a.S % *   ; 2 . % $ % $ $ @       p ..a.3.3.y.' ",
"@ @ @ o @ $ $   f a.9.3.5.a.H   X . X + .     ; #.a.a.c + @   - $ * % .   o .   .   = S a.5.3.5.a.x ",
"$ % % @ $ $ $ . , 5.a.3.3.a.[ :   . . . X     % ..a.a.a     . @   $ @ +   . . . . . 5 ~ a.3.3.a.#.; ",
"X @ %   @ % $ +   ~ a.3.3.y.,.e +       + .   $  .a.a.r     .   . o . .     O X   O h a.q.3.3.a.D   ",
"@   @ @ . % % $   M a.3.3.q.u.j X .     + +   $  .a.#.q   + O $ $ @     . X X     + Y a.3.3.a.u.,   ",
"o . . % . % % %   3 a.a.3.5.a.D         @ @   @  .a.| *   X X & . +   + o . .     6 8.a.3.3.a.I   + ",
"      @ . @ @ o     [ a.3.3.a.~ @   . . + X   @ | a.~   . . . X . X   +     @     D a.3.3.q.a.a   o ",
". . .   .   .   X   D a.5.3.a._ -     .   . . . ' a.Y   .     . * . . X   . .   % o.a.3.3.a.~ - X $ ",
".       . . .   .   j a.9.3.a.) %     . X .     ` a.H   .     % , . . X         z a.5.3.9.a.z . - * ",
"X .   . . . .   X   % $.a.9.a.E .   . . . X     / a.Z   .   ; = o   . .   .   . ) a.3.3.a...8 . - $ ",
"@ X X     .       n r W a.a.a.t     .   X X     I a.z     . > % .   +         w a.y.3.3.a.Z + $ = @ ",
". o       .     ; ;.a.o.a.! V 0     .   X @     F a.a   + . # @ .   . . .     L a.3.3.a.#.6   2 * @ ",
"    < w 6   r C , ;.a.a.q.t + ,     .   X X     F a.9   @ @ + X     X . .   % ,.a.3.3.a.P O % 3 + + ",
"  w X.a...D 3.3. .q.3.a.{ * . @ . . .   X .     J J +   X X . - @ . . .     v a.5.3.y.a.d   $ + + % ",
"  / a.y.a.a.a.y.a.3.3.a.O.8   . . X   .   . .   b y     .   . @ X + .       ) a.3.3.a.) @ o > . % 6 ",
"  Z a.5.3.5.5.5.3.3.3.q.a.j   . . .   . . . .   t f     X O   @ +   .   + B a.q.3.9.a.N   x w   3 $ ",
"j ' a.3.3.3.5.5.3.3.3.5.a.J   . o . .   X   O   k p   . . .   X @ . .   , $.a.3.3.a.8.2 $ n   m G > ",
"a.a.,.,.,.3.5.5.3.3.3.3.a.[ + X .   .   . . @ . u u           X + X     < ] a.3.3.a.{ X 2 3   X.a.3.",
"q.3.3.3.,.,.3.5.3.3.3.5.q.a.u     . . .   X @   : * . .     . + . X     u a.y.3.9.a.n   m   t a.y.a.",
"3.3.3.3.,.,.3.3.3.3.5.5.5.a.Z       . . . . +   @ - . X     . + X X     J a.3.3.5.q.( Q q.A ` a.3.3.",
"5.3.3.3.,.,.3.3.5.5.5.5.3.a.Q . .   . . . . +   @ >   .     . O   .     K a.5.3.3.3.a.a.a.a.a.,.3.3.",
"5.3.3.3.,.,.q.5.5.5.5.5.3.a.&.-     . .   . +   % > . X .   . +       - ( a.3.3.3.3.3.q.;.9.5.3.3.3.",
"5.5.3.3.3.3.q.a.y.q.5.5.3.q.a.a   . . .   X X   - >     X   . .   . X 8 U a.5.3.3.3.a.a.S 8.y.3.3.5.",
"3.y.q.3.a.a.D ) X.u.a.a.5.3.a.I           + + X X .     + X     w J u u ^ a.y.q.a.a.a.T s N 9.a.a.a.",
"5.o.a.a.a.a.y 8 D b J W a.9.y.q.f 3 @     X @ . X     . X   . M a.X.g z a.a.a.a.[ X.H - N Z a.a.~ I ",
"a.a h H 5 J R   >     . D a.9.9.a. .V -     + X X .       $ h a.a.a.g P a.$.f v V g % a u G C 2     ",
"a.B       . w     .       X.a.3.q.a.a.] H @   . X .       J a.y.3.9...3.a.I     5 O   @   O     *   ",
"q.a.Z w 9     @     : . C a.9.3.5.,.| q.a.T . %   .   - a } ;.3.3.3.a.y.a.A       . e , w V W H Y ` ",
"3.y.a.a.;.m B } z G a.R &.y.3.3.y.;.k | a.' s 7   . - c P ~ o.a.3.3.3.3.a.` r j M D a.#.a.a.a.a.a.a.",
"3.3.5.q.a.a.a.a.a.a.a.a.q.3.3.3.3.5.o.5.5...a.l     w c R a.=.` y.3.3.3.3.y.a.a.a.a.y.a.y.9.3.5.5.3.",
"y.3.3.3.3.5.5.,.5.5.5.5.5.3.3.3.3.3.y.;.q.a.W W -   e U a.y.] [ y.3.3.3.,.5.y.q.5.5.3.3.3.,.,.3.3.3.",
"X.q.3.3.3.5.,.,.,.,.5.5.3.5.,.,.3.5.=.} ( ..l W Y   8 ..a.} Q a.3.3.3.3.,.,.,.,.5.5.3.3.,.,.3.3.3.a.",
"A a.5.3.5.5.5.5.3.5.5.5.3.3.,.,.3.y.5.5.;.3.[ } X.k ) X.q.3.5.5.3.5.3.3.3.,.5.5.5.5.5.3.5.5.5.5.a.] ",
"> #.a.3.5.5.5.5.3.3.5.5.5.3.3.,.3.q.y.3.5.5.a.a.( 0 3.a.3.3.a.a.5.5.3.3.3.3.3.5.5.5.5.3.5.5.5.5.a.c ",
"  T a.3.3.3.5.5.5.5.3.3.5.5.5.y.&.v o.a.5.5.5.y.&.Z | a.3.q.;.X.5.5.3.3.3.3.5.5.5.5.3.3.5.5.5.a.[ * ",
"  t a.q.3.3.3.3.5.5.3.3.5.5.5.a.=.. T a.5.5.5.5.9.a.9.3.3.a.Z a a.5.3.3.3.3.5.5.5.5.3.3.5.5.5.a.M   ",
"    _ a.3.3.3.3.5.5.3.3.,.3.5.a.Q   a a.y.5.3.3.3.5.3.3.a.( X 2 #.a.5.3.3.3.5.5.5.5.3.3.,.,.a.X.*   ",
"    b a.5.3.3.3.5.5.,.,.,.3.3.a.^ =   B a.5.3.3.3.3.5.a.( 9   % N y.q.3.3.3.5.5.5.5.3.,.,.5.a.B   @ ",
".   @ o.a.3.3.3.5.5.3.3.3.5.5.5.a.o.~ b X.y.3.3.3.3.y.q.a 0 Y Z ~ =.5.5.3.3.3.3.5.5.3.3.3.a.;.&   C ",
".     C a.5.3.3.3.5.,.,.5.5.5.5.5.a.a.a.5.3.3.3.3.y.5.,.5.3.a.a.a.3.5.5.3.3.3.3.3.5.,.,.5.a.K   % X.",
"o     , u.a.3.3.3.,.,.,.3.5.5.5.3.3.5.5.5.3.3.3.5.o.,.5.y.y.3.5.3.3.q.a.q.9.3.3.3.,.,.,.y.a.9   n a.",
". .     K a.3.3.3.,.,.,.5.5.5.5.3.3.3.3.3.3.3.5.y.U 3.y.3.3.3.3.3.q.X.[ a.y.3.3.3.3.,.,.a.~   X  .a.",
".   @   5 a.a.3.9.3.3.5.a.a.5.=.5.3.3.3.3.3.3.9.a.B ~ a.5.3.5.3.3.a./ u c T a.3.3.3.3.5.a.f   j a.9.",
"@ @ o +   I a.3.a.a.a.3.T I V ' a.5.3.3.3.3.3.9.a.l 1 V o.y.5.3.3.3.a.<.4 Z a.5.3.3.3.a.] .   / a.3.",
"X .   .   5 a.a.B ^ ( R W D _ 5.5.5.3.5.3.5.3.5.a.! S ! @.q.5.3.3.3.9.a.Z < &.a.3.3.5.a.j   7 a.q.3.",
"    .       L a.z O u X.a.a.a.5.5.3.3.5.5.3.3.3.3.a.a.a.5.5.5.3.5.5.3.y.a.B Y 5.9.3.a.}     I a.,.a.",
"      . *   3 a.n < E a.5.5.3.3.3.3.3.3.5.5.5.5.5.5.5.,.,.,.3.3.3.3.3.3.y.a.~ D o.a.u.r   3 a.q.a./ ",
". 3 i . 8 .   M 2 E a.3.3.3.3.3.3.3.3.3.5.5.5.5.5.5.3.3.,.,.,.,.3.3.3.3.3.q.y. ...a.[ -   K a.y.&.g "
};
