/* XPM */
static char *result[] = {
/* columns rows colors chars-per-pixel */
"50 50 221 2 ",
"   c gray32",
".  c #929292",
"X  c gray57",
"o  c #606060",
"O  c #515151",
"+  c #5B5B5B",
"@  c #555555",
"#  c gray33",
"$  c #898989",
"%  c white",
"&  c gray92",
"*  c #676767",
"=  c #7C7C7C",
"-  c gray58",
";  c gray37",
":  c #A7A7A7",
">  c gray65",
",  c #AFAFAF",
"<  c #A9A9A9",
"1  c #797979",
"2  c #6D6D6D",
"3  c gray48",
"4  c gray49",
"5  c #838383",
"6  c #C0C0C0",
"7  c #9D9D9D",
"8  c #AEAEAE",
"9  c #B1B1B1",
"0  c #C5C5C5",
"q  c #BBBBBB",
"w  c #8D8D8D",
"e  c gray46",
"r  c DimGray",
"t  c gray91",
"y  c #4C4C4C",
"u  c #808080",
"i  c #A4A4A4",
"p  c gray71",
"a  c #888888",
"s  c #727272",
"d  c #565656",
"f  c #868686",
"g  c #818181",
"h  c gray39",
"j  c gray42",
"k  c #777777",
"l  c gray51",
"z  c #AAAAAA",
"x  c #626262",
"c  c #656565",
"v  c gray54",
"b  c gray61",
"n  c gray63",
"m  c #747474",
"M  c #090909",
"N  c black",
"B  c #6F6F6F",
"V  c gray64",
"C  c #959595",
"Z  c #7D5401",
"A  c gray68",
"S  c gray",
"D  c #6C6C6C",
"F  c gray45",
"G  c #0B0B0B",
"H  c #717171",
"J  c gray60",
"K  c #A5A5A5",
"L  c #6A6A6A",
"P  c #E9E9E9",
"I  c #C5BEB1",
"U  c #795713",
"Y  c #835801",
"T  c #885B01",
"R  c #9D6901",
"E  c #916101",
"W  c #835701",
"Q  c #AE9461",
"!  c gray75",
"~  c #535353",
"^  c gray4",
"/  c #727069",
"(  c #544E41",
")  c #755616",
"_  c #8B5D02",
"`  c #9C6901",
"'  c #895C01",
"]  c #A36D01",
"[  c #946201",
"{  c #865A01",
"}  c #855901",
"|  c #805501",
" . c #8F897F",
".. c gray47",
"X. c gray30",
"o. c #575044",
"O. c #7E5A12",
"+. c #8C5E01",
"@. c #8B5D01",
"#. c #9F6A01",
"$. c #946301",
"%. c #A16C01",
"&. c #8E5F01",
"*. c #585858",
"=. c gray56",
"-. c #1E1E1E",
";. c #705520",
":. c #9B6801",
">. c #926201",
",. c gray67",
"<. c gray50",
"1. c #686868",
"2. c #A0A0A0",
"3. c gray34",
"4. c #5F4D29",
"5. c #936406",
"6. c gray36",
"7. c #B9B9B9",
"8. c #B7B7B7",
"9. c #3C3C3C",
"0. c #5E491E",
"q. c #936407",
"w. c gray70",
"e. c gray19",
"r. c #554320",
"t. c #7F5809",
"y. c #8E8E8E",
"u. c gray43",
"i. c #5D5D5D",
"p. c #6D5118",
"a. c #845C0D",
"s. c #895D05",
"d. c #505050",
"f. c #695224",
"g. c #986603",
"h. c gray62",
"j. c #979797",
"k. c #848484",
"l. c gray44",
"z. c gray52",
"x. c #5A5A5A",
"c. c #9F6A03",
"v. c #8B5E05",
"b. c #916203",
"n. c #7B5811",
"m. c #40392A",
"M. c #5E491D",
"N. c #966606",
"B. c #694E19",
"V. c #483D27",
"C. c #815B0E",
"Z. c #7B7B7B",
"A. c #895F0C",
"S. c #4E4024",
"D. c #6A4F19",
"F. c #9F9F9F",
"G. c #8B610B",
"H. c #6C5018",
"J. c #6E4F12",
"K. c #634918",
"L. c gray73",
"P. c #7E5910",
"I. c #6A4F18",
"U. c #906003",
"Y. c #5E4618",
"T. c #6F5116",
"R. c #6E5421",
"E. c #996702",
"W. c #A06B03",
"Q. c #715216",
"!. c #413829",
"~. c #6B4F17",
"^. c #9D6903",
"/. c #745414",
"(. c #9B6904",
"). c #ACACAC",
"_. c #885C05",
"`. c #A2A2A2",
"'. c #564420",
"]. c #664D19",
"[. c #805808",
"{. c #7E7E7E",
"}. c #5B4B2C",
"|. c #916306",
" X c gray53",
".X c gray38",
"XX c gray35",
"oX c gray31",
"OX c #8B8B8B",
"+X c #909090",
"@X c #989898",
"#X c #9B9B9B",
"$X c #767676",
"%X c gray59",
"&X c #5D5D5E",
"*X c gray55",
"=X c #BCBCBC",
"-X c #5F5F5F",
";X c #9B6701",
":X c #504F4D",
">X c #514F4C",
",X c #755619",
"<X c #885C03",
"1X c #494741",
"2X c #6D5321",
"3X c #7F5910",
"4X c #966503",
"5X c #544F46",
"6X c #6E5522",
"7X c #76571A",
"8X c #986601",
"9X c #ECE9E4",
"0X c #6A5428",
"qX c #7D5B16",
"wX c #F4F4F4",
"eX c #9B9282",
"rX c #625333",
"tX c #795A1A",
"yX c #8F6001",
"uX c #51493B",
"iX c #5B513E",
/* pixels */
"  . X X X X X X X X X X X X X X X X X X X o O + + + + @ # $ X X X X X X X X X X X X X X X X X X .   ",
". % % % % % % % % % % % % % % % % % & * = - ; : > , < 1 $ 2 3 % % % % % % % % % % % % % % % % % % . ",
"X % % % % % % % % % % % % % % % % 4 5 - 6 7 ; 8 9 0 q 1 w > 5 e r & % % % % % % % % % % % % % % % X ",
"X % % % % % % % % % % % % % t y u i p . a s d u 5 f g h j k l < z s x % % % % % % % % % % % % % % X ",
"X % % % % % % % % % % % % % c v l b n m O M N N N N N N N c B V 7 3 C l q % % % % % Z Z Z Z % % % X ",
"X % % % % % % % % % % % % l A S b D F N N N N N N N N N N N G + H J z K L P % I U Y T R R E W Q % X ",
"X % % % % % % % % % % ! s 5 m = ~ ^ N N N N N N N N N N N N N N N r 2 = b / ( ) _ ` ' ] ] [ { } |  .",
"X % % % % % % % % % & 3 K - ..w N N N N N N N N N N N N N N N N N N ^ X.o.O.+.@.` #.' ] ] [ $.%.&.} ",
"X % % % % % % % % % *.=.m h x N N N N N N N N N N N N N N N N N N N N -.;.:.%.>.` #.' ] ] [ $.%.&.} ",
"X % % % % % % % % % *.> p f x N N N N N N N N N N N N N N N N N N N N -.;.:.%.>.` #.' ] ] [ $.%.&.} ",
"X % % % % % % % % %   u ,.f x N N N N N N N N N N N N N N N N N N N N -.;.:.%.>.` #.' ] ] [ $.%.&.} ",
"X % % % % % % % % % d <.1.+ x N N N N N N N N N N N N N N N N N N N N -.;.:.%.>.` #.' ] ] [ $.%.&.} ",
"X % % % % % % % % % *.7 2.<.x N N N N N N N N N N N N N N N N N N N N -.;.:.%.>.` #.' ] ] [ $.%.&.} ",
"X % % % % % % % % % 3.b , 4 x N N N N N N N N N N N N N N N N N N N N -.;.:.%.>.` #.' ] ] [ $.%.&.} ",
"X % % % % % % % % % # m 2 o x N N N N N N N N N N N N N N N N N N N N -.4.5.%.>.` #.' ] ] [ $.%.&.} ",
"X % % % % % % % % % 6.7.8.f x N N N N N N N N N N N N N N N N N N N N -.9.0.q.>.` #.' ] ] [ $.%.&.} ",
"X % % % % % % % % % *.K w.f x N N N N N N N N N N N N N N N N N N N N -.9.e.r.t.` #.' ] ] [ $.%.&.} ",
"X % % % % % % % % % *.y.u.i.x N N N N N N N N N N N N N N N N N N N N -.9.p.a.s.` #.' ] ] [ $.%.&.} ",
"X % % % % % % % % % d...8 u x N N N N N N N N N N N N N N N N N N N N -.f.g.%.>.` #.' ] ] [ $.%.&.} ",
"X % % % % % % % % % *.h.8.2.x N N N N N N N N N N N N N N N N N N N N -.;.:.%.>.` #.' ] ] [ $.%.&.} ",
"X % % % % % % % % % d a j.5 x N N N N N N N N N N N N N N N N N N N N -.;.:.%.>.` #.' ] ] [ $.%.&.} ",
"X % % % % % % % % % ~ e k.B x N N N N N N N N N N N N N N N N N N N N -.;.:.%.>.` #.' ] ] [ $.%.&.} ",
"X % % % % % % % % % *.K K l.x N N N N N N N N N N N N N N N N N N N N -.;.:.%.>.` #.' ] ] [ $.%.&.} ",
"X % % % % % % % % % *.h.> z.x N N N N N N N N N N N N N N N N N N N N -.;.:.%.>.` #.' ] ] [ $.%.&.} ",
"X % % % % % % % % % O i...g x N N N N N N N N N N N N N N N N N N N N -.;.:.%.>.` #.' ] ] [ $.%.&.} ",
"X % % % % % % % % % *.b $ x.x N N N N N N N N N N N N N N N N N N N N -.;.:.%.>.` #.' ] c.v.b.%.&.} ",
"X % % % % % % % % % *.h.> z.x N N N N N N N N N N N N N N N N N N N N -.;.:.%.>.` #.' ] n.m.M.N.&.} ",
"X % % % % % % % % % @ g f H x N N N N N N N N N N N N N N N N N N N N -.;.:.%.>.` #.' ] ] B.V.C.&.} ",
"X % % % % % % % % % # k Z.L x N N N N N N N N N N N N N N N N N N N N -.;.:.%.>.` #.' ] A.S.D.%.&.} ",
"X % % % % % % % % % *.F.> z.x N N N N N N N N N N N N N N N N N N N N -.;.:.%.>.` #.' G.H.J.K.C.&.} ",
"X % % % % % % % % % i.L.z z.x N N N N N N N N N N N N N N N N N N N N -.;.:.%.>.` #.' P.I.U.Y.T.&.} ",
"X % % % % % % % % % ; z 1.d x N N N N N N N N N N N N N N N N N N N N -.R.E.%.>.` #.' W.Q.!.~.^.&.} ",
"X % % % % % % % % % O l.F.z.x N N N N N N N N N N N N N N N N N N N N -.9./.(.>.` #.' ] ] $.$.%.&.} ",
"X % % % % % % % % % *.h.).=.x N N N N N N N N N N N N N N N N N N N N -.9.e.I._.` #.' ] ] [ $.%.&.} ",
"X % % % % % % % % % # 3 n `.x N N N N N N N N N N N N N N N N N N N N -.9.'.].[.` #.' ] ] [ $.%.&.} ",
"X % % % % % % % % % @ {.z.F x N N N N N N N N N N N N N N N N N N N N -.}.|.%.>.` #.' ] ] [ $.%.&.} ",
"X % % % % % % % % % *.F.7 ..x N N N N N N N N N N N N N N N N N N N N -.;.:.%.>.` #.' ] ] [ $.%.&.} ",
"X % % % % % % % % % *.).6  Xx N N N N N N N N N N N N N N N N N N N N -.;.:.%.>.` #.' ] ] [ $.%.&.} ",
"X % % % % % % % % % d.x.+ 3..XN N N ~ 3.*.*.*.+ + + XX~ oX~ # @ d ~ N -.;.:.%.>.` #.' ] ] [ $.%.&.} ",
"X % % % % % % % % % *.h.> z.oXoXoX6.k OX+X- @Xi 2.V #X$X.XL D 3 5 L d.  ;.:.%.>.` #.' ] ] [ $.%.&.} ",
"X % % % % % % % % % @  X`.z.i.F F e e e ..g l 4 l %Xn 7 +X2 r L F r 3.&X;.:.%.>.` #.' ] ] [ $.%.&.} ",
"X % % % % % % % % % 3.*X3 * H , A C 5 <.<.<.<.<.$X2 s e B D r @ x.x.*.; ;.:.%.>.` #.' ] ] [ $.%.&.} ",
"X % % % % % % % % % x.`.=.F H ,.z 8 z w., 8.> > J OXv v v v v 4 x.oXO   ;.:.%.>.` #.' ] ] [ $.%.&.} ",
"X % % % % % % % % % i.=X,.z.@ -X-X-X-Xx .Xh -X-X-X-X-X-X-X-X-X+ O oXoXoX;.' ;X>.` #.' ] ] [ $.%.&.} ",
"X % % % % % % % % % d.# ~ O oXoXoXoXoXoXoXoXoXoXoXoXoXoXoXoXoXoXoXoXoXoX:X>X,X<X;X#.' ] ] [ $.%.&.} ",
"X % % % % % % % % % % % % % % % % % % % % % % % % % % % % % % % % % % % % % 1X2X3X4X' ] ] [ $.%.&.} ",
"X % % % % % % % % % % % % % % % % % % % % % % % % % % % % % % % % % % % % % % =X5X6X7X8XR [ $.%.&.} ",
"X % % % % % % % % % % % % % % % % % % % % % % % % % % % % % % % % % % % % % % % % % 9X0XqX_ $.%.&.} ",
". % % % % % % % % % % % % % % % % % % % % % % % % % % % % % % % % % % % % wX% % % % % % eXrXtXyXT } ",
"  . X X X X X X X X X X X X X X X X X X X X X X X X X X X X X X X X X X X X X X X X X X X X uXiXiXiX"
};
