/* XPM */
static char *result[] = {
/* columns rows colors chars-per-pixel */
"50 50 241 2 ",
"   c #31312F",
".  c #32312F",
"X  c #34322E",
"o  c #38342B",
"O  c #3A352C",
"+  c gray19",
"@  c #313130",
"#  c #3E3E3E",
"$  c #423826",
"%  c #463B26",
"&  c #463C26",
"*  c #473C27",
"=  c #4A3E25",
"-  c #443A28",
";  c #53411D",
":  c #594419",
">  c #5C4618",
",  c #775209",
"<  c #73500C",
"1  c #75520E",
"2  c #7D570B",
"3  c #694C11",
"4  c #6D4F11",
"5  c #654C1A",
"6  c #664D1A",
"7  c #614A1C",
"8  c #765513",
"9  c #775613",
"0  c #7A5812",
"q  c #7B5812",
"w  c #7E5A10",
"e  c #534322",
"r  c #544321",
"t  c #574520",
"y  c #584520",
"u  c #5D4D2D",
"i  c #504634",
"p  c #554931",
"a  c #5E5137",
"s  c #5F5238",
"d  c #5D513B",
"f  c #5A513F",
"g  c #5B513F",
"h  c #5C513C",
"j  c #5D523C",
"k  c #624F2A",
"l  c #6D5524",
"z  c #645331",
"x  c #625335",
"c  c #615236",
"v  c gray28",
"b  c gray29",
"n  c #4C4C4C",
"m  c gray30",
"M  c #4E4E4E",
"N  c gray31",
"B  c #565044",
"V  c #595141",
"C  c #585142",
"Z  c #5C5341",
"A  c #53504A",
"S  c #545048",
"D  c #505050",
"F  c #515151",
"G  c gray32",
"H  c #535353",
"J  c gray33",
"K  c #555555",
"L  c #565656",
"P  c gray34",
"I  c #585858",
"U  c gray35",
"Y  c #5A5A5A",
"T  c #5B5B5B",
"R  c gray36",
"E  c #5D5D5D",
"W  c gray37",
"Q  c #5F5F5F",
"!  c #655943",
"~  c #655C4A",
"^  c #665F50",
"/  c #736B5B",
"(  c #606060",
")  c gray38",
"_  c #626262",
"`  c gray39",
"'  c #646464",
"]  c #656565",
"[  c gray40",
"{  c #676767",
"}  c #686868",
"|  c DimGray",
" . c #6A6A6A",
".. c gray42",
"X. c #6C6C6C",
"o. c #6D6D6D",
"O. c gray43",
"+. c #6F6F6F",
"@. c #7A7469",
"#. c gray44",
"$. c #717171",
"%. c #727272",
"&. c gray45",
"*. c gray46",
"=. c #767676",
"-. c #777777",
";. c gray47",
":. c #797979",
">. c gray48",
",. c #7B7B7B",
"<. c #7C7C7C",
"1. c gray49",
"2. c #7E7E7E",
"3. c gray50",
"4. c #855901",
"5. c #865901",
"6. c #865A01",
"7. c #885B01",
"8. c #895C01",
"9. c #8A5C01",
"0. c #8A5D01",
"q. c #8B5D01",
"w. c #8B5E02",
"e. c #8C5D01",
"r. c #8C5E01",
"t. c #8D5E01",
"y. c #8E5F01",
"u. c #885C05",
"i. c #845B08",
"p. c #865D0A",
"a. c #835B0D",
"s. c #815B0F",
"d. c #835C0E",
"f. c #875E0D",
"g. c #845D0E",
"h. c #855D0E",
"j. c #885D09",
"k. c #895E08",
"l. c #8A5F09",
"z. c #805A10",
"x. c #8F6001",
"c. c #8B600B",
"v. c #8C610B",
"b. c #956301",
"n. c #976501",
"m. c #9A6701",
"M. c #9B6701",
"N. c #986706",
"B. c #9C6801",
"V. c #9D6901",
"C. c #9F6A01",
"Z. c #9E6A03",
"A. c #9E6B03",
"S. c #9F6B03",
"D. c #906309",
"F. c #A06B01",
"G. c #A16C01",
"H. c #A26D01",
"J. c #A36D01",
"K. c #A06C02",
"L. c #A46D01",
"P. c #A46E01",
"I. c #808080",
"U. c #818181",
"Y. c gray51",
"T. c #838383",
"R. c #848484",
"E. c gray52",
"W. c #868686",
"Q. c gray53",
"!. c #888888",
"~. c gray54",
"^. c #8B8B8A",
"/. c #8B8B8B",
"(. c gray55",
"). c #8D8D8D",
"_. c #8E8E8E",
"`. c gray56",
"'. c #909090",
"]. c gray57",
"[. c #929292",
"{. c #939393",
"}. c gray58",
"|. c #959595",
" X c gray59",
".X c #979797",
"XX c #989898",
"oX c gray60",
"OX c #9B9B9B",
"+X c gray61",
"@X c gray62",
"#X c #9F9F9F",
"$X c #A0A0A0",
"%X c gray63",
"&X c #A2A2A2",
"*X c gray64",
"=X c #A4A4A4",
"-X c #A5A5A5",
";X c gray65",
":X c #A7A7A7",
">X c gray66",
",X c #A9A9A9",
"<X c #AAAAAA",
"1X c gray67",
"2X c #ACACAC",
"3X c gray68",
"4X c #AEAEAE",
"5X c #AFAFAF",
"6X c gray69",
"7X c #B2B2B2",
"8X c gray70",
"9X c #B4B4B4",
"0X c gray71",
"qX c #B6B6B6",
"wX c #B7B7B7",
"eX c gray72",
"rX c #B9B9B9",
"tX c gray73",
"yX c #BBBBBB",
"uX c #BCBCBC",
"iX c gray",
"pX c gray75",
"aX c #C0C0C0",
"sX c gray76",
"dX c #C3C3C3",
"fX c gray77",
"gX c #C5C5C5",
"hX c #C6C6C6",
"jX c #C8C8C8",
"kX c gray79",
"lX c #CACACA",
"zX c #CDCDCD",
"xX c #CECECE",
"cX c #D0D0D0",
"vX c gray83",
"bX c #D5D5D5",
"nX c gray84",
"mX c #D7D7D7",
"MX c gray87",
"NX c #DFDFDF",
"BX c None",
/* pixels */
"BXBXBXBXBXBXBXBXBXBXBXBXBXBXBXBXBXBXb F N F F F F F F F F N D n BXBXBXBXBXBXBXBXBXBXBXBXBXBXBXBXBXBX",
"BXBXBXBXBXBXBXBXBXBXBXBXBXBXBXH P Y }.[.N _.:X:X:X:X1X>X+XN R.%XK L J BXBXBXBXBXBXBXBXBXBXBXBXBXBXBX",
"BXBXBXBXBXBXBXBXBXBXBXBXP T Q '.5XMX9X[.N ).:X2X>X5XMXtX+XN T.;X;X%XOXI U U BXBXBXBXBXBXBXBXBXBXBXBX",
"BXBXBXBXBXBXBXBXBXv L ' OX0XnX*.>.kX-X!.N R.*XkX,X%XkX1X].N <.oXoX-.W :X<X4XT L D BXBXBXBXBXBXBXBXBX",
"BXBXBXBXBXBXBXm Q Q T.fX1X;X;XoXT.N B V V V V V V V V V V V V C N -..X;XiXvX X<.Q | U BXBXBXBXBXBXBX",
"BXBXBXBXBXBXR U.7X>X_._ /.{.{.^ g g z.9.4.9.e.e.e.e.e.e.q.4.8.u.f g Z }.{.{._ T.-XcX%X` BXBXBXBXBXBX",
"BXBXBXBXL ] ).,XcXXX'.'.~ j j a.t.t.V.B.4.M.J.J.J.J.J.J.F.4.n.G.r.t.w.h j d '.'.'.-X+X'.*.[ BXBXBXBX",
"BXBXBX*.(.;Xo.-.).! s s p.q.4.V.J.J.J.B.4.M.J.J.J.J.J.J.F.4.n.J.J.J.H.4.9.y.s s a ^.1.{ hX-X} BXBXBX",
"BXE ..3X#X~.~.@.c k.x.x.F.m.4.V.J.J.J.B.4.M.J.J.J.J.J.J.F.4.n.J.J.J.H.4.b.J.x.x.x.x / ~.~.~.~.+._ BX",
"N ;.:X$.+.+.G z 4.C.J.J.J.m.4.V.J.J.J.B.4.M.J.J.J.J.J.J.F.4.n.J.J.J.H.4.b.J.J.J.J.6.l N X.+.+.#XQ.N ",
"N ;.;XuX8X:XL z 4.C.J.J.J.m.4.V.J.J.J.B.4.M.J.J.J.J.J.J.F.4.n.J.J.J.H.4.b.J.J.J.J.6.l M $X;X;XtX|.N ",
"N [ 3.dXeX:XL z 4.C.J.J.J.m.4.V.J.J.J.B.4.M.J.J.J.J.J.J.F.4.n.J.J.J.H.4.b.J.J.J.J.6.l M wX0X;XsXOXN ",
"N ` ;.1.1.1.H z 4.C.J.J.J.m.4.V.J.J.J.B.4.M.J.J.J.J.J.J.F.4.n.J.J.J.H.4.b.J.J.J.J.6.l M |._.1.1.X.N ",
"N ;.:X1.,.<.H z 4.C.J.J.J.m.4.V.J.J.J.B.4.M.J.J.J.J.J.J.F.4.n.J.J.J.H.4.b.J.J.J.J.6.l N ;.,.,.,...N ",
"N ;.;XfXwX:XL z 4.C.J.J.J.m.4.V.J.J.J.B.4.M.J.J.J.J.J.J.F.4.n.J.J.J.H.4.b.J.J.J.J.6.l M $X;X;X;XQ.N ",
"N ( &.~.I.&.G z 4.C.J.J.J.m.4.V.J.J.J.B.4.M.J.J.J.J.J.J.F.4.n.J.J.J.H.4.b.J.J.J.J.6.l M $X;X;X:.[ N ",
"N :.>XW.E.E.H z 4.C.J.J.J.m.4.V.J.J.J.B.4.M.J.J.J.J.J.J.F.4.n.J.J.J.H.4.b.J.J.J.P.; i N O.#.#.T.%.N ",
"N U.rXlXyX:XL z 4.C.J.J.J.m.4.V.J.J.J.B.4.M.J.J.J.J.J.J.F.4.n.J.J.J.H.4.4 y y y y @ # N R.!.!.dX@XN ",
"N ;.;XwX6X:XL z 4.C.J.J.J.m.4.V.J.J.J.B.4.M.J.J.J.J.J.J.F.4.n.J.J.J.H.4.: + + + + + # M $X0XzXtX[.N ",
"N ;.:X| { { F z 4.C.J.J.J.m.4.V.J.J.J.B.4.M.J.J.J.J.J.J.F.4.n.J.J.J.H.4.i.g.g.g.h.. # N ] W.0X>XQ.N ",
"N U _ tX<X[.J z 4.C.J.J.J.m.4.V.J.J.J.B.4.M.J.J.J.J.J.J.F.4.n.J.J.J.H.4.b.J.J.J.L.< k M ).3.` ` R N ",
"N #.|.6XaXvXU z 4.C.J.J.J.m.4.V.J.J.J.B.4.M.J.J.J.J.J.J.F.4.n.J.J.J.H.4.b.J.J.J.J.6.l M $X#X|.|.<.N ",
"N ;.;X;X<X6XP z 4.C.J.J.J.m.4.V.J.J.J.B.4.M.J.J.J.J.J.J.F.4.n.J.J.J.H.4.b.J.J.J.J.6.l M $X;X;X;XQ.N ",
"N J Y Y ,.:XL z 4.C.J.J.J.m.4.V.J.J.J.B.4.M.J.J.J.J.J.J.F.4.n.J.J.J.H.4.b.J.J.J.J.6.l M $X;X;X;XQ.N ",
"N *.@XcX+XL D z 4.C.J.J.L.m.5.V.L.J.J.B.4.M.J.J.J.J.J.J.F.4.n.J.J.J.H.4.b.J.J.J.J.6.l M $XW.L L H N ",
"N ;.;X>X;X*XL z 4.C.J.J.* X X X e J.J.B.4.M.J.J.J.J.J.J.F.4.n.J.J.J.H.4.b.J.J.J.J.6.l N G %.&X&XR.N ",
"N ;.-X-X-X:XL z 4.C.J.J.H.w + c.H.J.J.B.4.M.J.J.J.J.J.J.F.4.n.J.J.J.H.4.b.J.J.J.J.6.l M #X;X;XnX<XN ",
"N F H H *.&XL z 4.C.J.J.Z.0 + f.A.J.J.B.4.M.J.J.J.J.J.J.F.4.n.J.J.J.H.4.b.J.J.J.J.6.l M OX%X%X%XT.N ",
"N ;.;X;XR.P D z 4.C.S.N.= O o O r N.K.B.4.M.J.J.J.J.J.J.F.4.n.J.J.J.H.4.b.J.J.J.J.6.l N L P P P J N ",
"N ;.;X;X;X:XL z 4.C.q + D.m.4.V.d.+ f.B.4.M.J.J.J.J.J.J.F.4.n.J.J.J.H.4.b.J.J.J.J.6.l M $X;X;X;XQ.N ",
"N $..X.X.XXXK z 4.C.s.- d.j., l.q - v.B.4.M.J.J.J.J.J.J.F.4.n.J.J.J.H.4.b.J.J.J.J.6.l M ,X2X;XoX1.N ",
"N P ) ) ) ) D z 4.C.J.J.t % $ & 7 J.J.B.4.M.J.J.J.J.J.J.F.4.n.J.J.J.H.4.b.J.J.J.J.6.l M eX5X}.{ Y N ",
"N ;.;X;X;X:XL z 4.C.J.J.J.m.4.V.J.J.J.B.4.M.J.J.J.J.J.J.F.4.n.J.J.J.H.4.b.J.J.J.J.6.l N ` ' ' @XQ.N ",
"N I.qX:X;X:XL z 4.C.J.J.J.m.4.V.J.J.J.B.4.M.J.J.J.J.J.J.F.4.n.J.J.J.H.4.b.J.J.J.J.6.l M $X;X;X9X].N ",
"N {.NX)././.J z 4.C.J.J.J.m.4.V.J.J.J.B.4.M.J.J.J.J.J.J.F.4.n.J.J.J.H.4.b.J.J.J.J.6.l N W. X;XjX#XN ",
"N ,.2X#.O.O.F z 4.C.J.J.J.m.4.V.J.J.J.B.4.M.J.J.J.J.J.J.F.4.n.J.J.J.H.4.b.J.J.J.L.3 u N X.;.Q.Q.&.N ",
"N Q #.=X;X:XL z 4.C.J.J.J.m.4.V.J.J.J.B.4.M.J.J.J.J.J.J.F.4.n.J.J.J.H.4.2 8 8 8 9 . # M $X].$.$.] N ",
"N ;.;X;X6XpXI z 4.C.J.J.J.m.4.V.J.J.J.B.4.M.J.J.J.J.J.J.F.4.n.J.J.J.H.4.: + + + + + # M $X;X;XyX XN ",
"N ] 2.2.>XNXY z 4.C.J.J.J.m.4.V.J.J.J.B.4.M.J.J.J.J.J.J.F.4.n.J.J.J.H.4.1 5 5 5 6   # N >._.;XmX1XN ",
"N ' >.>.Q..XK z 4.C.J.J.J.m.4.V.J.J.J.B.4.M.J.J.J.J.J.J.F.4.n.J.J.J.H.4.b.J.J.J.P.> p N -.>.,.{.1.N ",
"N ;.;X;X|.2.H z 4.C.J.J.J.m.4.V.J.J.J.B.4.M.J.J.J.J.J.J.F.4.n.J.J.J.H.4.b.J.J.J.J.6.l M $X X2.2.o.N ",
"N ;.;XgXeX:XL z 4.C.J.J.J.m.4.V.J.J.J.B.4.M.J.J.J.J.J.J.F.4.n.J.J.J.H.4.b.J.J.J.J.6.l M $X;X;X;XQ.N ",
"N Q $.W.1.$.G z 4.C.J.J.J.m.4.V.J.J.J.B.4.M.J.J.J.J.J.J.F.4.n.J.J.J.H.4.b.J.J.J.J.6.l M $X9XjX,.] N ",
"N  .Q.Q.Q.!.J z 4.C.J.J.J.m.4.V.J.J.J.B.4.M.J.J.J.J.J.J.F.4.n.J.J.J.H.4.b.J.J.J.J.6.l N X.=.Y.Q.&.N ",
"N ;.;X;X;X:XL z 4.C.J.J.J.m.4.V.J.J.J.B.4.M.J.J.J.J.J.J.F.4.n.J.J.J.H.4.b.J.J.J.J.6.l N W.~.~.fX#XN ",
"N T { =X;X:XL z 4.C.J.J.J.m.4.V.J.J.J.B.4.M.J.J.J.J.J.J.F.4.n.J.J.J.H.4.b.J.J.J.J.6.l M $XqXxXrX].N ",
"N Y.uX{ ' ' F z 4.C.J.J.J.m.4.V.J.J.J.B.4.M.J.J.J.J.J.J.F.4.n.J.J.J.H.4.b.J.J.J.J.6.l N ` |.MX3XQ.N ",
"N 2.7X|.}.}.K z 4.0.q.q.q.8.4.9.q.q.q.9.4.8.q.q.q.q.q.q.0.4.8.q.q.q.q.4.7.q.q.q.q.4.l M `.R.o._ T N ",
"N _.bX>X;X:XL A C C C C C C C C C C C C C C C C C C C C C C C C C C C C C C C C C C S M $X$X.XaXOXN ",
"N I _ T T T D N N N N N N N N N N N N N N N N N N N N N N N N N N N N N N N N N N N N N Y T T ) T N "
};
