/* XPM */
static char *result[] = {
/* columns rows colors chars-per-pixel */
"50 50 212 2 ",
"   c #3D362A",
".  c #3B362C",
"X  c gray19",
"o  c #303131",
"O  c #313131",
"+  c #483D26",
"@  c #413929",
"#  c #423A29",
"$  c #5B471E",
"%  c #7D5401",
"&  c #7E5401",
"*  c #76530D",
"=  c #74520E",
"-  c #785309",
";  c #604716",
":  c #624816",
">  c #694C12",
",  c #6E4F12",
"<  c #614818",
"1  c #634B1B",
"2  c #644B1A",
"3  c #644C1B",
"4  c #664D1A",
"5  c #614A1C",
"6  c #624B1C",
"7  c #705216",
"8  c #755514",
"9  c #795713",
"0  c #7A5712",
"q  c #7E5910",
"w  c #73561C",
"e  c #71551E",
"r  c #76591D",
"t  c #504123",
"y  c #524222",
"u  c #574520",
"i  c #594520",
"p  c #4F483B",
"a  c #5E5136",
"s  c #5B513E",
"d  c #6C5322",
"f  c #655129",
"g  c #6A5428",
"h  c #635333",
"j  c #655330",
"k  c gray27",
"l  c #494949",
"z  c gray29",
"x  c #4B4B4B",
"c  c #4C4C4C",
"v  c gray31",
"b  c #514D45",
"n  c #514F4C",
"m  c #585142",
"M  c #4F4F50",
"N  c #505050",
"B  c #515151",
"V  c gray32",
"C  c #535353",
"Z  c gray33",
"A  c #555555",
"S  c #565656",
"D  c gray34",
"F  c #585858",
"G  c gray35",
"H  c #5A5A5A",
"J  c #5B5B5B",
"K  c gray36",
"L  c #5D5D5D",
"P  c gray37",
"I  c #5F5F5F",
"U  c #66635C",
"Y  c #606060",
"T  c gray38",
"R  c #626262",
"E  c gray39",
"W  c #656565",
"Q  c gray40",
"!  c #676767",
"~  c DimGray",
"^  c #6A6A6A",
"/  c gray42",
"(  c #6C6C6C",
")  c #6D6D6D",
"_  c gray43",
"`  c #6F6F6F",
"'  c gray44",
"]  c #717171",
"[  c #727272",
"{  c gray45",
"}  c #747474",
"|  c gray46",
" . c #767676",
".. c #777777",
"X. c gray47",
"o. c #797979",
"O. c #7B7B7B",
"+. c #7C7C7C",
"@. c gray49",
"#. c #7E7E7E",
"$. c gray50",
"%. c #825701",
"&. c #805705",
"*. c #835801",
"=. c #845801",
"-. c #855901",
";. c #865A01",
":. c #845903",
">. c #855A03",
",. c #835904",
"<. c #845B07",
"1. c #885B01",
"2. c #8A5C01",
"3. c #8B5D01",
"4. c #8C5E01",
"5. c #8E5F01",
"6. c #8F5F01",
"7. c #895D05",
"8. c #825908",
"9. c #835B0C",
"0. c #825B0E",
"q. c #825C0E",
"w. c #845C0E",
"e. c #885F0C",
"r. c #8F6001",
"t. c #8E6003",
"y. c #906001",
"u. c #916101",
"i. c #926101",
"p. c #926201",
"a. c #936201",
"s. c #986601",
"d. c #996601",
"f. c #986704",
"g. c #996704",
"h. c #9C6801",
"j. c #9D6901",
"k. c #9E6A01",
"l. c #9F6A01",
"z. c #9C6902",
"x. c #9A6805",
"c. c #9C6904",
"v. c #9C6A04",
"b. c #916309",
"n. c #936408",
"m. c #A06B01",
"M. c #A16C01",
"N. c #A36D01",
"B. c #808080",
"V. c #818181",
"C. c gray51",
"Z. c #838383",
"A. c #848484",
"S. c gray52",
"D. c #868686",
"F. c gray53",
"G. c #888888",
"H. c #898989",
"J. c gray54",
"K. c gray55",
"L. c #8E8E8E",
"P. c gray56",
"I. c #909090",
"U. c gray57",
"Y. c #929292",
"T. c #939393",
"R. c #959595",
"E. c gray59",
"W. c #979797",
"Q. c #989898",
"!. c #9A9A9A",
"~. c #9B9B9B",
"^. c gray61",
"/. c #9D9D9D",
"(. c gray62",
"). c #9F9F9F",
"_. c #A0A0A0",
"`. c gray63",
"'. c #A2A2A2",
"]. c gray64",
"[. c #A4A4A4",
"{. c #A5A5A5",
"}. c gray65",
"|. c #A7A7A7",
" X c gray66",
".X c #A9A9A9",
"XX c #AAAAAA",
"oX c gray67",
"OX c gray68",
"+X c #AEAEAE",
"@X c #AFAFAF",
"#X c gray69",
"$X c #B1B1B1",
"%X c #B2B2B2",
"&X c gray70",
"*X c #B4B4B4",
"=X c #B6B6B6",
"-X c #B7B7B7",
";X c gray72",
":X c #B9B9B9",
">X c gray73",
",X c #BBBBBB",
"<X c gray75",
"1X c #C1C1C1",
"2X c gray76",
"3X c gray77",
"4X c #C8C8C8",
"5X c gray79",
"6X c gray80",
"7X c #CDCDCD",
"8X c gray95",
"9X c None",
/* pixels */
"9X9X9X9X9X9X9X9X9X9X9X9X9X9XG v J J J J J D V A 9X9X9X9X9X9X9X9X9X9X9X9X9X9X9X9X9X9X9X9X9X9X9X9X9X9X",
"9X9X9X9X9X9X9X9X9X9X9XR _ S.E.C |.}.}.#X+XF.R `.Q ! 9X9X9X9X9X9X9X9X9X9X9X9X9X9X9X9X9X9X9X9X9X9X9X9X",
"9X9X9X9X9X9X9X9X9X^ Z.S.OX6XE.C |.,XoX5X2XF.R }.}.S. .[ E 9X9X9X9X9X9X9X9X9X9X9X9X9X9X9X9X9X9X9X9X9X",
"9X9X9X9X9X9Xz N /.{.:XQ.F.G.` B ..L.@.F.A.~ F ....#.(.>X_.( x 9X9X9X9X9X9X9X9X9X9X9X9X9X9X9X9X9X9X9X",
"9X9X9X9X9XY J.J.@.`.}.C.P l 9X9X9X9X9X9X9X9X9X9Xv ~ !.%XI...T.].x 9X9X9X9X9X9X9X% % % % % 9X9X9X9X9X",
"9X9X9X9X' .X7X}.E.Q I 9X9X9X9X9X9X9X9X9X9X9X9X9X9X9XF I +./..X+XW.v 9X9X9Xj -.*.-.j.j.j.r.=.& 9X9X9X",
"9X9XS Z.Z.` R.C C 9X9X9X9X9X9X9X9X9X9X9X9X9X9X9X9X9X9X9X9XC ! E.V 4XU b d >.6.k.-.N.N.N.i.;.;.%.& 9X",
"9XY [.{.Y.$.l 9X9X9X9X9X9X9X9X9X9X9X9X9X9X9X9X9X9X9X9X9X9X9X9Xc v s 9.4.1.u.N.l.-.N.N.N.i.p.N.k.-.-.",
"v !.#._ T x 9X9X9X9X9X9X9X9X9X9X9X9X9X9X9X9X9X9X9X9X9X9X9X9X9X9XM :.k.N.a.u.N.l.-.N.N.N.i.p.N.k.-.-.",
"v !.>X%XB.x 9X9X9X9X9X9X9X9X9X9X9X9X9X9X9X9X9X9X9X9X9X9X9X9X9X9XM :.k.N.a.u.N.l.-.N.N.N.i.p.N.k.-.-.",
"v ^ {.@XB.x 9X9X9X9X9X9X9X9X9X9X9X9X9X9X9X9X9X9X9X9X9X9X9X9X9X9XM :.k.N.a.u.N.l.-.N.N.N.i.p.N.k.-.-.",
"v G.' E H x 9X9X9X9X9X9X9X9X9X9X9X9X9X9X9X9X9X9X9X9X9X9X9X9X9X9XM :.k.N.a.u.N.l.-.N.N.N.i.p.N.k.-.-.",
"v !.'.).O.x 9X9X9X9X9X9X9X9X9X9X9X9X9X9X9X9X9X9X9X9X9X9X9X9X9X9XM :.k.N.a.u.N.l.-.N.N.N.i.p.N.k.-.-.",
"v K.-XXX..x 9X9X9X9X9X9X9X9X9X9X9X9X9X9X9X9X9X9X9X9X9X9X9X9X9X9XM :.k.N.a.u.N.l.-.N.N.N.i.p.N.k.-.-.",
"v  .' / P x 9X9X9X9X9X9X9X9X9X9X9X9X9X9X9X9X9X9X9X9X9X9X9X9X9X9XM > g.N.a.u.N.l.-.N.N.N.i.p.N.k.-.-.",
"v *X1X$XB.x 9X9X9X9X9X9X9X9X9X9X9X9X9X9X9X9X9X9X9X9X9X9X9X9X9X9Xv O 3 n.a.u.N.l.-.N.N.N.i.p.N.k.-.-.",
"v !.-X#XB.x 9X9X9X9X9X9X9X9X9X9X9X9X9X9X9X9X9X9X9X9X9X9X9X9X9X9Xv O X t = u.N.l.-.N.N.N.i.p.N.k.-.-.",
"v !.o.! K x 9X9X9X9X9X9X9X9X9X9X9X9X9X9X9X9X9X9X9X9X9X9X9X9X9X9Xv O 8 w.<.u.N.l.-.N.N.N.i.p.N.k.-.-.",
"v G oX@Xo.x 9X9X9X9X9X9X9X9X9X9X9X9X9X9X9X9X9X9X9X9X9X9X9X9X9X9XM - z.N.a.u.N.l.-.N.N.N.i.p.N.k.-.-.",
"v !.}.2X~.x 9X9X9X9X9X9X9X9X9X9X9X9X9X9X9X9X9X9X9X9X9X9X9X9X9X9XM :.k.N.a.u.N.l.-.N.N.N.i.p.N.k.-.-.",
"v S.L.^.B.x 9X9X9X9X9X9X9X9X9X9X9X9X9X9X9X9X9X9X9X9X9X9X9X9X9X9XM :.k.N.a.u.N.l.-.N.N.N.i.p.N.k.-.-.",
"v ) Z.S.( x 9X9X9X9X9X9X9X9X9X9X9X9X9X9X9X9X9X9X9X9X9X9X9X9X9X9XM :.k.N.a.u.N.l.-.N.N.N.i.p.N.k.-.-.",
"v !.;X!.^ x 9X9X9X9X9X9X9X9X9X9X9X9X9X9X9X9X9X9X9X9X9X9X9X9X9X9XM :.k.N.a.u.N.l.-.N.N.N.i.p.N.k.-.-.",
"v !.}.}.B.x 9X9X9X9X9X9X9X9X9X9X9X9X9X9X9X9X9X9X9X9X9X9X9X9X9X9XM :.k.N.a.u.N.l.-.N.N.N.i.p.N.k.-.-.",
"v K P G.B.x 9X9X9X9X9X9X9X9X9X9X9X9X9X9X9X9X9X9X9X9X9X9X9X9X9X9XM :.k.N.a.u.N.l.-.N.N.N.i.p.N.k.-.-.",
"v W.].o.A x 9X9X9X9X9X9X9X9X9X9X9X9X9X9X9X9X9X9X9X9X9X9X9X9X9X9XM :.k.N.a.u.N.l.-.N.N.c.7.t.N.k.-.-.",
"v !.}.}.B.x 9X9X9X9X9X9X9X9X9X9X9X9X9X9X9X9X9X9X9X9X9X9X9X9X9X9XM :.k.N.a.u.N.l.-.N.N.1 . u b.k.-.-.",
"v #.D.D._ x 9X9X9X9X9X9X9X9X9X9X9X9X9X9X9X9X9X9X9X9X9X9X9X9X9X9XM :.k.N.a.u.N.l.-.N.N.N.5 # 7 k.-.-.",
"v } O.O.! x 9X9X9X9X9X9X9X9X9X9X9X9X9X9X9X9X9X9X9X9X9X9X9X9X9X9XM :.k.N.a.u.N.l.-.N.N.0 + 6 N.k.-.-.",
"v !.}.}.B.x 9X9X9X9X9X9X9X9X9X9X9X9X9X9X9X9X9X9X9X9X9X9X9X9X9X9XM :.k.N.a.u.N.l.-.N.3 7 , < 7 k.-.-.",
"v <X%X}.B.x 9X9X9X9X9X9X9X9X9X9X9X9X9X9X9X9X9X9X9X9X9X9X9X9X9X9XM :.k.N.a.u.N.l.-.N.@ q.i.; y k.-.-.",
"v 3X#.H A x 9X9X9X9X9X9X9X9X9X9X9X9X9X9X9X9X9X9X9X9X9X9X9X9X9X9XM &.j.N.a.u.N.l.-.N.x.i   2 c.k.-.-.",
"v K Y.}.B.x 9X9X9X9X9X9X9X9X9X9X9X9X9X9X9X9X9X9X9X9X9X9X9X9X9X9Xv o q v.a.u.N.l.-.N.N.N.p.p.N.k.-.-.",
"v !.}.#XJ.x 9X9X9X9X9X9X9X9X9X9X9X9X9X9X9X9X9X9X9X9X9X9X9X9X9X9Xv O X 4 8.u.N.l.-.N.N.N.i.p.N.k.-.-.",
"v X.#.=X).x 9X9X9X9X9X9X9X9X9X9X9X9X9X9X9X9X9X9X9X9X9X9X9X9X9X9Xv O $ 3 * u.N.l.-.N.N.N.i.p.N.k.-.-.",
"v O.Z.D.' x 9X9X9X9X9X9X9X9X9X9X9X9X9X9X9X9X9X9X9X9X9X9X9X9X9X9XM : f.N.a.u.N.l.-.N.N.N.i.p.N.k.-.-.",
"v !.}.Q.{ x 9X9X9X9X9X9X9X9X9X9X9X9X9X9X9X9X9X9X9X9X9X9X9X9X9X9XM :.k.N.a.u.N.l.-.N.N.N.i.p.N.k.-.-.",
"v !.5X,XB.x 9X9X9X9X9X9X9X9X9X9X9X9X9X9X9X9X9X9X9X9X9X9X9X9X9X9XM :.k.N.a.u.N.l.-.N.N.N.i.p.N.k.-.-.",
"v G J J S z 9X9X9X9XC S F F F F J J J J G A v v Z Z Z D S V 9X9XM :.k.N.a.u.N.l.-.N.N.N.i.p.N.k.-.-.",
"v !.}.}.B.v v v v P | G.P.U.R.E.}._._.[.(.Z.T T / / { D.C.! N C M :.k.N.a.u.N.l.-.N.N.N.i.p.N.k.-.-.",
"v O.^.}.B.H { { { | | | | o.C.C.C. .H.Q.`.`.E.K.~ ~ Q ' | ! A Q M :.k.N.a.u.N.l.-.N.N.N.i.p.N.k.-.-.",
"v Y.V. .W ~ .X;X}.T.Z.$.$.$.$.$.$.$.' ( ]  .} ( ( ( A A L H S ! M :.k.N.a.u.N.l.-.N.N.N.i.p.N.k.-.-.",
"v .XW.J.' ~  X#X}.@X.X*X%XOX;X}.}.}.U.J.J.J.J.J.J.J.J.! V v N Z M :.k.N.a.u.N.l.-.N.N.N.i.p.N.k.-.-.",
"v 1X&X}.B.Z I I I I I R R T E I I I I I I I I I I I I Z v v v v M :.2.h.a.u.N.l.-.N.N.N.i.p.N.k.-.-.",
"v Z C C B v v v v v v v v v v v v v v v v v v v v v v v v v v v v n n w ,.y.M.l.-.N.N.N.i.p.N.k.-.-.",
"9X9X9X9X9X9X9X9X9X9X9X9X9X9X9X9X9X9X9X9X9X9X9X9X9X9X9X9X9X9X9X9X9X9X9Xk f 9 0.d.-.N.N.N.i.p.N.k.-.-.",
"9X9X9X9X9X9X9X9X9X9X9X9X9X9X9X9X9X9X9X9X9X9X9X9X9X9X9X9X9X9X9X9X9X9X9X9X9Xc m e e s.s.m.i.p.N.k.-.-.",
"9X9X9X9X9X9X9X9X9X9X9X9X9X9X9X9X9X9X9X9X9X9X9X9X9X9X9X9X9X9X9X9X9X9X9X9X9X9X9X9X9Xg g e.3.p.N.k.-.-.",
"9X9X9X9X9X9X9X9X9X9X9X9X9X9X9X9X9X9X9X9X9X9X9X9X9X9X9X9X9X9X9X9X9X9X8X9X9X9X9X9X9X9X9Xa h r y.5.-.-.",
"9X9X9X9X9X9X9X9X9X9X9X9X9X9X9X9X9X9X9X9X9X9X9X9X9X9X9X9X9X9X9X9X9X9X9X9X9X9X9X9X9X9X9X9X9Xp s s s s "
};
