/* XPM */
static char *result[] = {
/* columns rows colors chars-per-pixel */
"50 50 140 2 ",
"   c #0D0B0A",
".  c #110907",
"X  c #130A08",
"o  c #190D09",
"O  c #161516",
"+  c #1C1C1C",
"@  c #271610",
"#  c #231E1D",
"$  c #291D1A",
"%  c #391F17",
"&  c #32221D",
"*  c #201F20",
"=  c #242323",
"-  c #2B2626",
";  c #282728",
":  c #2C2B2C",
">  c #352622",
",  c #3A2722",
"<  c #342927",
"1  c #3D2B25",
"2  c #322C2C",
"3  c #3F2E29",
"4  c #35312F",
"5  c #302E30",
"6  c #333233",
"7  c #3A3434",
"8  c #373638",
"9  c #393738",
"0  c #3D3C3C",
"q  c #42251B",
"w  c #47281E",
"e  c #432C25",
"r  c #4A2C22",
"t  c #46332D",
"y  c #4D332A",
"u  c #53362E",
"i  c #5C3A2F",
"p  c #413632",
"a  c #433835",
"s  c #4B3A36",
"d  c #5E3C31",
"f  c #45403F",
"g  c #4D403D",
"h  c #744C2D",
"j  c #644136",
"k  c #664338",
"l  c #6A473B",
"z  c #6E483D",
"x  c #744D37",
"c  c #744C3B",
"v  c #7A513B",
"b  c #413E40",
"n  c #444344",
"m  c #494443",
"M  c #484748",
"N  c #4C4A4B",
"B  c #54504F",
"V  c #514F51",
"C  c #545354",
"Z  c #5A5455",
"A  c #575658",
"S  c #585758",
"D  c #5C5B5C",
"F  c #754E41",
"G  c #6B534E",
"H  c #765146",
"J  c #7D5543",
"K  c #7E5548",
"L  c #625351",
"P  c #6E5954",
"I  c #665C5C",
"U  c #775850",
"Y  c #7D5D53",
"T  c #7D615A",
"R  c #5F5D60",
"E  c #605F60",
"W  c #636263",
"Q  c #6E6565",
"!  c #676768",
"~  c #686768",
"^  c #6B6A6B",
"/  c #6F6E70",
"(  c #747475",
")  c #797473",
"_  c #777578",
"`  c #787678",
"'  c #7B7A7B",
"]  c #805635",
"[  c #875D3E",
"{  c #885D3C",
"}  c #805642",
"|  c #875D46",
" . c #815749",
".. c #845A4C",
"X. c #885D4F",
"o. c #845E52",
"O. c #885D50",
"+. c #936646",
"@. c #90644D",
"#. c #9E704F",
"$. c #866156",
"%. c #8D6254",
"&. c #83645B",
"*. c #8B6459",
"=. c #836A5C",
"-. c #8F695E",
";. c #926654",
":. c #986B53",
">. c #916658",
",. c #95695B",
"<. c #996C5F",
"1. c #9E7051",
"2. c #9E7058",
"3. c #836861",
"4. c #8B6D64",
"5. c #806E6A",
"6. c #946C60",
"7. c #9C6F61",
"8. c #80726F",
"9. c #9D7062",
"0. c #897470",
"q. c #957971",
"w. c #A27263",
"e. c #A97665",
"r. c #A17568",
"t. c #9E837C",
"y. c #7F7F80",
"u. c #807F80",
"i. c #858585",
"p. c #898689",
"a. c #8C8B8C",
"s. c #8F8F90",
"d. c #908F91",
"f. c #959495",
"g. c #979798",
"h. c #989798",
"j. c #9B9A9B",
"k. c #9F9FA0",
"l. c #A2A1A3",
"z. c None",
/* pixels */
"z.z.z.z.z.z.z.z.z.z.z.z.z.z.z.z.z.z.z.z.z.z.z.z.z.z.z.z.z.z.z.z.z.z.z.z.z.z.z.z.z.z.z.z.z.z.z.z.z.z.",
"z.z.z.z.z.z.z.z.z.z.z.z.z.z.z.z.z.z.z.z.z.z.z.z.z.z.z.z.z.z.z.z.z.z.z.z.z.z.z.z.z.z.z.z.z.z.z.z.z.z.",
"z.z.z.z.z.z.z.z.z.z.z.z.z.z.z.z.z.z.z.z.z.z.z.z.: + : 6 z.z.z.z.z.z.z.z.z.z.z.z.z.z.z.z.z.z.z.z.z.z.",
"z.z.z.z.z.z.z.z.z.z.z.z.z.z.z.z.z.z.z.z.0 R ; _ ^ M y.i.W * M z.z.z.z.z.z.z.z.z.z.z.z.z.z.z.z.z.z.z.",
"z.z.z.z.z.z.z.z.z.z.z.z.z.z.z.z.z.z.= N h.p.6 2 5 # 5 2 9 M p.b * z.z.z.z.z.z.z.z.z.z.z.z.z.z.z.z.z.",
"z.z.z.z.z.z.z.z.z.z.z.z.z.z.z.z.z.( i.n D 7 , j k i z z y < b 0 S E = z.z.z.z.z.z.z.z.z.z.z.z.z.z.z.",
"z.z.z.z.z.z.z.z.z.z.z.z.z.z.z.z.N a.E # $ i >.7.,. .9.9.>.j u $ ! ~ b O z.z.z.z.z.z.z.z.z.z.z.z.z.z.",
"z.z.z.z.z.z.z.z.z.z.z.z.z.z.z.` N 9 1 z O. .<.7.>. .e.9.>.K 7.H e < 5 ( D z.z.z.z.z.z.z.z.z.z.z.z.z.",
"z.z.z.z.z.z.z.z.z.z.z.z.z.z.D / b , O.w.>.K ..;.>.K e.w.>. .w.,.H H g W C * z.z.z.z.z.z.z.z.z.z.z.z.",
"z.z.z.z.z.z.z.z.z.z.z.z.z.0 j.~ , c ,.7.>.K } +.>.K e.9.>. .e.>.K w.k # W C z.z.z.z.z.z.z.z.z.z.z.z.",
"z.z.z.z.z.z.z.z.z.z.z.z.z.S N N y F ,.w.>.K ] +.>.K w.w.>. .w.>.K 9.c a ' D + z.z.z.z.z.z.z.z.z.z.z.",
"z.z.z.z.z.z.z.z.z.z.z.z.A k.W > K K ,.e.>.K %.:.>. .9.9.>. .9.>.K 9.H e - N N z.z.z.z.z.z.z.z.z.z.z.",
"z.z.z.z.z.z.z.z.z.z.z.z.W ^ 9 u <.K ,.e.>.K 7.9.>.K 7.7.>. .7.>.K 9.K c p ^ A + z.z.z.z.z.z.z.z.z.z.",
"z.z.z.z.z.z.z.z.z.z.z.+ ! ! 2 l 7.K ,.e.>.K <.9.>. .7.%.O. .7.>.K %.J $.e D D 5 z.z.z.z.z.z.z.z.z.z.",
"z.z.z.z.z.z.z.z.z.z.z.6 l.d.7 l 7.K >.9.>.K 7.7.>.K 7.} [ K 7.>.K  .h X.p h.a.8 z.z.z.z.z.z.z.z.z.z.",
"z.z.z.z.z.z.z.z.z.z.z.+ D C = l 9. .;.9.>. .7.7.>.K 7.} [  .7.>.K } h X.1 D C = z.z.z.z.z.z.z.z.z.z.",
"z.z.z.z.z.z.z.z.z.z.z.= ' i.0 l 9.K >.7.>.K w.w.>.K 7.} { K 9.>. .K h %.s a.i.0 z.z.z.z.z.z.z.z.z.z.",
"z.z.z.z.z.z.z.z.z.z.z.+ D A = l w.K >.7.>.K e.w.>.K 9.J {  .9.>.} =.=.) m I V = z.z.z.z.z.z.z.z.z.z.",
"z.z.z.z.z.z.z.z.z.z.z.: a.a.a l 7. .>.7.>.K w.w.>.K 7.} {  .9.>.H Q ! ! b W W b z.z.z.z.z.z.z.z.z.z.",
"z.z.z.z.z.z.z.z.z.z.z.= ' ` : l >.H ,.7.>.} e.w.>.K 7.} { K 7.>.H I Z S 8 N ! 5 z.z.z.z.z.z.z.z.z.z.",
"z.z.z.z.z.z.z.z.z.z.z.* W E 4 z } h ,.w.>.K e.w.>.K 9.} | K 9.>.K <.U U 7 W D 5 z.z.z.z.z.z.z.z.z.z.",
"z.z.z.z.z.z.z.z.z.z.z.: j.j.9 l } h ;.2.>.K w.w.>.K 9...O.K 9.>.K 9.K | t g.g.0 z.z.z.z.z.z.z.z.z.z.",
"z.z.z.z.z.z.z.z.z.z.z.+ B N = l ..x >.#.@.K 7.7.>.K <.<.*.K 9.>.K 9.K O.1 D C * z.z.z.z.z.z.z.z.z.z.",
"z.z.z.z.z.z.z.z.z.z.z.+ N ( N l <.K >.:.;. .7.7.>.K 9.9.>.K 9.>.K w. .O.t a.f.V z.z.z.z.z.z.z.z.z.z.",
"z.z.z.z.z.z.z.z.z.z.z.+ ^ f.m l 9.K >.1.>.K <.9.>.K 7.9.>.K 7.>.K e. .X.t f.j.M z.z.z.z.z.z.z.z.z.z.",
"z.z.z.z.z.z.z.z.z.z.z.+ D C = l 9.K >.9.>.} 9.9.>.K 7.7.>.K 9.>.K e...X.1 B M = z.z.z.z.z.z.z.z.z.z.",
"z.z.z.z.z.z.z.z.z.z.z.; i.s.m l 9.K >.9.>.K 9.9.>.K 7.9.>.K 9.>.K e. .X.t W ^ b z.z.z.z.z.z.z.z.z.z.",
"z.z.z.z.z.z.z.z.z.z.z.: p.' 7 l 9.$.*.,.$.K <.9.>.K 9.e.>.K 7.>.K e...O.t ' D 5 z.z.z.z.z.z.z.z.z.z.",
"z.z.z.z.z.z.z.z.z.z.z.+ N b = l r.q.0.3.P G <.9.>.K w.e.>.K <.>.K 9.K O.1 C 0 * z.z.z.z.z.z.z.z.z.z.",
"z.z.z.z.z.z.z.z.z.z.z.: a.p.a l 9.$.t.9.-.T 9.9.>.K 9.e.>.K 9.>.K 9.K X.t a.i.0 z.z.z.z.z.z.z.z.z.z.",
"z.z.z.z.z.z.z.z.z.z.z.= ( W - l 9.H T ,.&.Y <.9.>.K w.e.>. .9.>.K 9. .X.t ` W : z.z.z.z.z.z.z.z.z.z.",
"z.z.z.z.z.z.z.z.z.z.z.+ ! W 6 l 9.K *.=.Y K 9.9.>.K w.e.>.} <.*.K 9.K $.1 R D 6 z.z.z.z.z.z.z.z.z.z.",
"z.z.z.z.z.z.z.z.z.z.z.6 l.k.m l e.K >.9.>.K 7.7.>.K w.e.>. .,.c } 9. .X.t a.j.M z.z.z.z.z.z.z.z.z.z.",
"z.z.z.z.z.z.z.z.z.z.z.; p.' 2 z e.K >.9.>.K 7.7.>.K 9.e.>.K >.h J 9.K O.t a.` 5 z.z.z.z.z.z.z.z.z.z.",
"z.z.z.z.z.z.z.z.z.z.z.+ C 0 # z e. .>.%.%.K 7.7.>.K 9.w.>.K >.h } 9.K O.1 A M * z.z.z.z.z.z.z.z.z.z.",
"z.z.z.z.z.z.z.z.z.z.z.= D D m z e.} >.K { K 7.7.>. .7.7.>.K >.h J 9.K X.p a.a.V z.z.z.z.z.z.z.z.z.z.",
"z.z.z.z.z.z.z.z.z.z.z.* D y.f z e.K >.} | K  .;.>.K 7.9.>. .,.x  .9.K X.t f.j.M z.z.z.z.z.z.z.z.z.z.",
"z.z.z.z.z.z.z.z.z.z.z.* ! D - z e.K >.} {  .] +.>.K 7.7.>.K 6...K 9.o.4.g ( I : z.z.z.z.z.z.z.z.z.z.",
"z.z.z.z.z.z.z.z.z.z.z.* W D 4 l 9.K >.} {  .%.<.>.K 7.7.>.K 7.>.K ) ) ^ 0 W D 6 z.z.z.z.z.z.z.z.z.z.",
"z.z.z.z.z.z.z.z.z.z.z.6 j.l.Z k 9.K >.} { K 7.9.>.K 7.7.>.K 9.>.H E I D M a.' M z.z.z.z.z.z.z.z.z.z.",
"z.z.z.z.z.z.z.z.z.z.z.; p.l.B l 7.K >.} {  .7.9.*.K 9.<.>.K 9.>.H T G Z 0 W W 0 z.z.z.z.z.z.z.z.z.z.",
"z.z.z.z.z.z.z.z.z.z.z.; i.' 7 l w.K >.} { K 7.7.>.K w.e.>.K 7.>.K 2.K X.3 W D 5 z.z.z.z.z.z.z.z.z.z.",
"z.z.z.z.z.z.z.z.z.z.z.+ C m # k @.K ,.%.%.K 7.7.>.K w.e.>.K 9.>.K 9.K $.1 C b * z.z.z.z.z.z.z.z.z.z.",
"z.z.z.z.z.z.z.z.z.z.z.: a.g.N d ] J >.9.>.K 7.7.>.K w.e.>.K 9.>.K %.v X.t a.a.N z.z.z.z.z.z.z.z.z.z.",
"z.z.z.z.z.z.z.z.z.z.z.; s.s.f k @.K >.7.>.K 7.7.>.K w.e.>.K 7.>.K } h O.t a.' 6 z.z.z.z.z.z.z.z.z.z.",
"z.z.z.z.z.z.z.z.z.z.z.; i.! 2 l 7.K >.7.>. .7.9.>.K 2.e.>.K 7.>.K *.J O.t y.R : z.z.z.z.z.z.z.z.z.z.",
"z.z.z.z.z.z.z.z.z.z.z.+ C n = i 7.K >.7.>.K 7.7.>.K 9.9.>.K 7.>. .w.H ..1 C n = z.z.z.z.z.z.z.z.z.z.",
"z.z.z.z.z.z.z.z.z.z.z.; i.` 7 w c K ,.7.,.K 7.X.z k X.7.>. .9.,.K  .i l , y.i.0 z.z.z.z.z.z.z.z.z.z.",
"z.z.z.z.z.z.z.z.z.z.z.; ! V - % w u k l k d k r q q r l k i l k i w q w & ` W : z.z.z.z.z.z.z.z.z.z.",
"z.z.z.z.z.z.z.z.z.z.z.z.O O   . . . . . o @ . . X X . . o @ . o @ X X X   # O z.z.z.z.z.z.z.z.z.z.z."
};
