/* XPM */
static char *result[] = {
/* columns rows colors chars-per-pixel */
"50 50 82 1 ",
"  c #3C362B",
". c #3F3F3F",
"X c #473C26",
"o c #493D25",
"O c #423A29",
"+ c #403F3F",
"@ c #5C461C",
"# c #7C5507",
"$ c #7B5509",
"% c #7F590F",
"& c #6D4F14",
"* c #614A1C",
"= c #694E19",
"- c #6E5117",
"; c #735315",
": c #795716",
"> c #7C5915",
", c #77581A",
"< c #7A5B1F",
"1 c #524221",
"2 c #45423C",
"3 c #494439",
"4 c #554A33",
"5 c #594C30",
"6 c #5B513D",
"7 c #614F2C",
"8 c #6B5426",
"9 c #66532C",
"0 c #69552D",
"q c #775F2E",
"w c #795F2B",
"e c #66573A",
"r c #66583E",
"t c #4E4E4E",
"y c #514F4C",
"u c #5C5341",
"i c #50504E",
"p c #545454",
"a c #5E5B56",
"s c #5B5B5B",
"d c #615E59",
"f c #6F6755",
"g c #6E675A",
"h c #6F6859",
"j c #636363",
"k c #6B6B6B",
"l c #726D62",
"z c #767167",
"x c #77736C",
"c c #7A756A",
"v c gray45",
"b c #7E7C77",
"n c #7B7B7B",
"m c #855A03",
"M c #8C5E01",
"N c #855D0D",
"B c #845D10",
"V c #8F6105",
"C c #8D6109",
"Z c #956402",
"A c #996701",
"S c #9D6901",
"D c #906309",
"F c #A26D01",
"G c #858076",
"H c #838383",
"J c #8C8984",
"K c #8B8B8B",
"L c #928F8A",
"P c #95938D",
"I c #919191",
"U c #9B9B9B",
"Y c #A4A4A4",
"T c #ABABAB",
"R c #B4B4B4",
"E c #BCBCBC",
"W c gray78",
"Q c #C9C9C9",
"! c gray84",
"~ c #DBDBDB",
"^ c gray88",
"/ c white",
/* pixels */
"pIIIIIIKIIIIIIIKIIIIHtiipttitHIIIIKIIIIIIIIIKIIIIp",
"I////////////////~QkKIjYYRTkKHkW~////////////////I",
"I//////////////!QIHKRUjYTRRkKUKvIW!//////////////I",
"I/////////////!nvUEHKbaJPPPdvnvTYjn~/////////////I",
"I////////////~KIHIUlr,:>>>>:>ehUInUU~////////////I",
"I///////////RIUTKxh<BZMZSASMZB>hlKYUUR///////////I",
"I//////////^KHKGfw:ZSSMSFFFMSSS:wfcHUI^//////////I",
"I/////////~UUKcq>DMSFSMFFFFMAFFMVBwxIKI~/////////I",
"I/////////sHvj0ZFFMFFFMFFFFVAFFMSFA8jxHj/////////K",
"I/////////jURK0AFFMAFAMAFFFVAFFMSFA8HYTj/////////I",
"I/////////pHYH0ZFFMFFFMFFFFVAFFMFFA8KYUj/////////I",
"K/////////snnx0ZFAMFFAMFFFFDAFFMSFA8nHvs/////////I",
"I/////////sIIn0ZFFMFFAMFFFFVAFFMSFA8vKHs/////////I",
"I/////////pHIv0ZFFMAFFMFFFFMAFFMFFA8HYKs/////////I",
"I/////////sHKv0ZFAMFFFMFFFFMAFFMSFV5kHns/////////I",
"I/////////sYTH0ZFFMFFFMFFFFVAFFm;;@2kHIj/////////I",
"I/////////sYRK0ZFFMFFFMSFFFMFFF$o  .nTTj/////////I",
"I/////////sHkj0ZFFMAFSMFFFFMZFFmNN=.jIYj/////////I",
"I/////////pnTn0AFAMFFSMSFFFVAFFMSFD9nvjp/////////K",
"I/////////dIRY0ZFFMFFSMFFFFVAFFMFFZ8HYIs/////////I",
"I/////////sHII0ZFFMFFFMFFFFMFFFMFFA8HYUj/////////I",
"I/////////pkHn0ZFFMAFAMSFFFMZFFMSFA8HUHs/////////I",
"I/////////sUTk8ZFN&BZSMFFFFMFFFMSFA8vnkp/////////I",
"K/////////sUYK0ZFNX$SFMFFFFMZFFmSFA0vUTk/////////I",
"I/////////pjHK0ZFDoZFAmFFFFMFFFmSFA8HYYj/////////I",
"I/////////pHHj0ZF;OoCFMFFFFMFFFMSFA8jxkp/////////I",
"I/////////sUYK9Z8;MZ=ZMFFFFZFFFmFFA8HYUj/////////I",
"I/////////sKUH0Z&&NN-ZmFFFFZZFFMSFA8KTIj/////////I",
"I/////////pknk0ZFB@=ZFMFFFFMFFFMSFA8HIvs/////////I",
"I/////////sUYK0ZFFMAFFMFFFFMZFFMFFA0knKj/////////K",
"I/////////jYUH0ZFFMFFFMFFFFMFFFMSFZ8nYTj/////////I",
"I/////////jInk8ZFFmFFFMFFFFMZFFmSFZ9jKKj/////////I",
"I/////////pHIH0ZFFMFFAMFFFFMFFFmNN&+nHvs/////////I",
"I/////////sKTI0ZFAMFFFMAFFFMAFF#1XX+HUIj/////////I",
"K/////////sHYT0ZFFMFFFMFFFFMAFFm*oo+vURk/////////I",
"I/////////pvHH0ZFFMAFAMFFFFMZFFMFFM4knHs/////////I",
"I/////////dIUk0AFAMFFAMFFFFMFFFmFFA8HLnp/////////I",
"I/////////sIYH0ZFFMFFFMAFFFZAFFMFFA8HTUs/////////I",
"I/////////pnHk0AFFMFFFMFFFFMFFFMAFA8nYKp/////////I",
"I/////////sHIn0ZFFMFFAMFFFFZZFFMFFA8knKj/////////I",
"I/////////sKYK0AFFMAFFMFFFFVZFFMFFZ8nUTk/////////K",
"I/////////sHnk0ZFFMFFAmFFFFMSFFMFFA8kRTj/////////I",
"I/////////sIHv0MVVMVZVMZZZZmZZZmVZM8kKns/////////I",
"I/////////jTYKu000908090000909090006HIIs/////////I",
"I/////////pvkspyyyyyyyyyyyyyyyyyyyytskks/////////I",
"I////////////////////////////////////////////////I",
"I////////////////////////////////////////////////I",
"K////////////////////////////////////////////////I",
"I////////////////////////////////////////////////I",
"pIIIIIIIIIIKIIIIIIIIKIIIIIIIIIIKILIIIIIIIIIIIKIIIp"
};
