/* XPM */
static char *result[] = {
/* columns rows colors chars-per-pixel */
"50 50 179 2 ",
"   c #191A1F",
".  c #1C1C22",
"X  c #202027",
"o  c #212129",
"O  c #2A2A2A",
"+  c #2C2C32",
"@  c #27343E",
"#  c #39393F",
"$  c #35353A",
"%  c #2A3A43",
"&  c #273A45",
"*  c #3D3E4A",
"=  c #3C3C41",
"-  c #413F48",
";  c #2D454F",
":  c #2D4653",
">  c #194A67",
",  c #1A5571",
"<  c #1E5078",
"1  c #345467",
"2  c #2A5A73",
"3  c #3C6B7F",
"4  c #46424C",
"5  c #494949",
"6  c #484551",
"7  c #454651",
"8  c #504B57",
"9  c #495257",
"0  c gray32",
"q  c #5B5B5C",
"w  c #6A4C5C",
"e  c #4F5C63",
"r  c #5A5F6B",
"t  c #6D5463",
"y  c #5B656D",
"u  c #44657F",
"i  c #546974",
"p  c #626262",
"a  c #67686D",
"s  c #6F6F79",
"d  c #666673",
"f  c #63747E",
"g  c #7B7B7B",
"h  c #717171",
"j  c #145481",
"k  c #05599B",
"l  c #1D648A",
"z  c #076099",
"x  c #08619F",
"c  c #196092",
"v  c #186C93",
"b  c #2B729F",
"n  c #367491",
"m  c #0769A8",
"M  c #0777A6",
"N  c #0871A8",
"B  c #0B7BAC",
"V  c #036AB2",
"C  c #036EB9",
"Z  c #077BB7",
"A  c #0978B2",
"S  c #0575B9",
"D  c #1578B2",
"F  c #2476A8",
"G  c #4C6D88",
"H  c #506E85",
"J  c #5B7F96",
"K  c #5B7A89",
"L  c #637984",
"P  c #757E83",
"I  c #057CC4",
"U  c #0277C1",
"Y  c #0983BC",
"T  c #178ABB",
"R  c #1181B5",
"E  c #2686AE",
"W  c #2888B6",
"Q  c #318EB5",
"!  c #2290BE",
"~  c #3E97BD",
"^  c #478098",
"/  c #4A809C",
"(  c #538195",
")  c #688D9F",
"_  c #6D8997",
"`  c #788D98",
"'  c #75919D",
"]  c #4F8BAE",
"[  c #5A92AE",
"{  c #4A9CBF",
"}  c #5C9CBA",
"|  c #6D8EA8",
" . c #6893A8",
".. c #7896A8",
"X. c #76A1BA",
"o. c #0683C3",
"O. c #0887C3",
"+. c #0789C0",
"@. c #098BC3",
"#. c #058BCD",
"$. c #0C8CCA",
"%. c #0485CF",
"&. c #1E89C7",
"*. c #0694CF",
"=. c #0A92CE",
"-. c #1291C6",
";. c #1391CA",
":. c #0289D7",
">. c #0E8ED0",
",. c #069DDC",
"<. c #0797D7",
"1. c #139CD6",
"2. c #218FC8",
"3. c #2293C2",
"4. c #2F98C4",
"5. c #279BCC",
"6. c #3DA0C9",
"7. c #25A1D5",
"8. c #0495E0",
"9. c #05A5E7",
"0. c #05A8EC",
"q. c #03ACF3",
"w. c #02AFF8",
"e. c #01B2FC",
"r. c #4B9CC2",
"t. c #46A2C8",
"y. c #51A6CA",
"u. c #65A6C2",
"i. c #78B0C8",
"p. c #75B3CD",
"a. c #7AAAC6",
"s. c #838383",
"d. c #878987",
"f. c #8C8C8D",
"g. c #82898E",
"h. c #808691",
"j. c #919191",
"k. c #95979A",
"l. c #9D9D9D",
"z. c #8097A9",
"x. c #8297A1",
"c. c #919EA4",
"v. c #9FA4A8",
"b. c #99A9B4",
"n. c #92AFBA",
"m. c #86A8B7",
"M. c #A4A4A4",
"N. c #A7ADAF",
"B. c #ABACAC",
"V. c #A3B1B9",
"C. c #ABB4BB",
"Z. c #A9B1B6",
"A. c #B4B4B4",
"S. c #BDBDBD",
"D. c #96AEC2",
"F. c #8FB8CA",
"G. c #8AB0C1",
"H. c #A6B9C1",
"J. c #B1BDC7",
"K. c #AFC1C8",
"L. c #BBCBD3",
"P. c #C3C3C4",
"I. c #CBCBCB",
"U. c #C5C6C8",
"Y. c #CECED0",
"T. c #CBD2D4",
"R. c #D3D3D3",
"E. c #D6D6D8",
"W. c #D5D9DD",
"Q. c #DBDCDC",
"!. c #C8D9E1",
"~. c #CEE0E7",
"^. c #CCE1EA",
"/. c #DCE8EC",
"(. c #E4E4E4",
"). c #ECECEC",
"_. c #EFEFF0",
"`. c #F3F3F3",
"'. c #FFFFFF",
/* pixels */
"0 j.j.j.j.j.j.j.j.j.j.j.j.j.j.j.j.j.j.j.j.j.j.j.j.j.j.j.j.j.j.j.j.j.j.j.j.j.j.j.j.j.j.j.j.j.j.j.j.0 ",
"j.'.'.'.'.'.'.'.'.'.'.'.'.'.'.'.'.'.'.'.'.'.'.'.'.(.`.'.'.'.'.'.'.'.'.'.'.'.'.'.'.'.'.'.'.'.'.'.'.j.",
"j.'.'.'.'.'.'.'.'.'.'.'.'.'.'.'.'.'.'.'.'.'.'.'.(.r h._.'.'.'.'.'.'.'.'.'.'.'.'.'.'.'.'.'.'.'.'.'.j.",
"j.'.'.'.'.'.'.'.'.'.'.'.'.'.'.'.'.'.'.'.'.'.'.'.).$ 8 (.'.'.'.'.'.'.'.'.'.'.'.'.'.'.'.'.'.'.'.'.'.j.",
"j.'.'.'.'.'.'.'.'.'.'.'.'.'.'.'.'.'.'.'.'.'.'.'.`.- w _.'.'.'.'.'.'.'.'.'.'.'.'.'.'.'.'.'.'.'.'.'.j.",
"j.'.'.'.'.'.'.'.'.'.'.'.'.'.'.'.'.'.'.'.'.'.'.'.`.- w ).'.'.'.'.'.'.'.'.'.'.'.'.'.'.'.'.'.'.'.'.'.j.",
"j.'.'.'.'.'.'.'.'.'.'.'.'.'.'.'.'.'.'.'.'.'.'.'.`.4 w _.'.'.'.'.'.'.'.'.'.'.'.'.'.'.'.'.'.'.'.'.'.j.",
"j.'.'.'.'.'.'.'.'.'.'.'.'.'.'.'.'.'.'.'.'.'.'.'.`.6 t `.'.'.'.'.'.'.'.'.'.'.'.'.'.'.'.'.'.'.'.'.'.j.",
"j.'.'.'.'.'.'.'.'.'.'.'.'.'.'.'.'.'.'.'.'.'.'.'._.- t `.'.'.'.'.'.'.'.'.'.'.'.'.'.'.'.'.'.'.'.'.'.j.",
"j.'.'.'.'.'.'.'.'.'.'.'.'.'.'.'.'.'.'.'.'.'.'.'._.7 d _.'.'.'.'.'.'.'.'.'.'.'.'.'.'.'.'.'.'.'.'.'.j.",
"j.'.'.'.'.'.'.'.'.'.'.'.'.'.'.'.'.'.'.'.'.'.'.'.).- p _.'.'.'.'.'.'.'.'.'.'.'.'.'.'.'.'.'.'.'.'.'.j.",
"j.'.'.'.'.'.'.'.'.'.'.'.'.'.'.'.'.'.'.'.'.'.'.P.# o * s Y.'.'.'.'.'.'.'.'.'.'.'.'.'.'.'.'.'.'.'.'.j.",
"j.'.'.'.'.'.'.'.'.'.'.'.'.'.'.'.'.'.'.'.'.'.'.f.. . . $ M.'.'.'.'.'.'.'.'.'.'.'.'.'.'.'.'.'.'.'.'.j.",
"j.'.'.'.'.'.'.'.'.'.'.'.'.'.'.'.'.'.'.'.'.'.'.`.A.+ = P.`.'.'.'.'.'.'.'.'.'.'.'.'.'.'.'.'.'.'.'.'.j.",
"j.'.'.'.'.'.'.'.'.'.'.'.'.'.'.'.'.'.'.'.'.'.'.'.'.O h '.'.'.'.'.'.'.'.'.'.'.'.'.'.'.'.'.'.'.'.'.'.j.",
"j.'.'.'.'.'.'.'.'.'.'.'.'.'.'.'.'.'.'.'.'.'.'.'.`.$ g '.'.'.'.'.'.'.'.'.'.'.'.'.'.'.'.'.'.'.'.'.'.j.",
"j.'.'.'.'.'.'.'.'.'.'.'.'.'.'.'.'.(.Q.A.(.'.`.`.'.4 g '.'.'.'.'.'.'.'.'.'.'.'.'.'.'.'.'.'.'.'.'.'.j.",
"j.'.'.'.'.'.'.'.'.'.'.'.'.'.'.'.).I.A.U.P.).`.).'.5 s.'.'.'.S.S.).'.'.'.'.'.'.'.'.'.'.'.'.'.'.'.'.j.",
"j.'.'.'.'.'.'.'.'.'.'.'.'.'.'.'.`.P.Q.A.).).`.'.'.q d.'.`.B.P.`.S.'.'.'.'.'.'.'.'.'.'.'.'.'.'.'.'.j.",
"j.'.'.'.'.'.'.'.'.'.'.'.'.'.'.'.`.M.B.M.).'.'.'.`.q d.'.(.).M.l.S.`.'.'.'.'.'.'.'.'.'.'.'.'.'.'.'.j.",
"j.'.'.'.'.'.'.'.'.'.'.'.'.'.'.'.E.'.(.U.S.'.'.(.'.5 d.Q.`.P.P.`.P.I.Y.'.'.'.'.'.'.'.'.'.'.'.'.'.'.j.",
"j.'.'.'.'.'.'.'.'.'.'.'.'.'.'.'.I.Q.A.C.z.S.P.Q.B.j.s.E.A.S.`.`.).E.E.'.'.'.'.'.'.'.'.'.'.'.'.'.'.j.",
"j.'.'.'.'.'.'.'.'.'.'.'.'.'.'.).B.S.M.^ p.Q.`.Q.B.N.N.' ' N.Q.'.).S.S.'.'.'.'.'.'.'.'.'.'.'.'.'.'.j.",
"j.'.'.'.'.'.'.'.'.'.'.'.'.'.'.`.B.S.U.I.'.).b.3.4.T -.B K _ x.S.(.(.I.`.'.'.'.'.'.'.'.'.'.'.'.'.'.j.",
"j.'.'.'.'.'.'.'.'.'.'.'.'.'.'.'.'.A.P.Y.J J 6.Y z I $.1.*.T ' ` M.A.A.'.'.'.'.'.'.'.'.'.'.'.'.'.'.j.",
"j.'.'.'.'.'.'.'.'.'.'.'.'.'.'.'.`.Q.T.Q @.,.N c $.B ) 5.T i p I.B.B.R.'.'.'.'.'.'.'.'.'.'.'.'.'.'.j.",
"j.'.'.'.'.'.'.'.'.'.'.'.'.'.'.'.(.R.H.o.<.o.N 3.G.0 | > n l i P.(.'.'.'.'.'.'.'.'.'.'.'.'.'.'.'.'.j.",
"j.'.'.'.'.'.'.'.'.'.'.'.'.'.'.'.(.Q.C.#.+.C #.p.`.p P y.0.5./ P.M.'.'.'.'.'.'.'.'.'.'.'.'.'.'.'.'.j.",
"j.'.'.'.'.'.'.'.'.'.'.'.'.'.'.'.(.(.X.N m B  .`.'.t l.!.1.0.;.} A.'.'.'.'.'.'.'.'.'.'.'.'.'.'.'.'.j.",
"j.'.'.'.'.'.'.'.'.'.'.'.'.'.'.'.Q...V :.Y m a.'.'.h l._.t.w.8.5.B.'.'.'.'.'.'.'.'.'.'.'.'.'.'.'.'.j.",
"j.'.'.'.'.'.'.'.'.'.'.'.'.'.'.'.`.z.C C C :.6./.`.g k.D.;.0.r.K.U.'.'.'.'.'.'.'.'.'.'.'.'.'.'.'.'.j.",
"j.'.'.'.'.'.'.'.'.'.'.'.'.'.'.'.).J.2 C Z e.*.0.6.e y | n ;.L.l.`.'.'.'.'.'.'.'.'.'.'.'.'.'.'.'.'.j.",
"j.'.'.'.'.'.'.'.'.'.'.'.'.'.'.'.'.`.u V 9.e.I o.w.: 2 u.V.k.P.(.`.R.).'.'.'.'.'.'.'.'.'.'.'.'.'.'.j.",
"j.'.'.'.'.'.'.'.'.'.'.'.'.'.'.'.'.'.E.j w.e.U V m % , O.D H A.U.J.Y.B.`.'.'.'.'.'.'.'.'.'.'.'.'.'.j.",
"j.'.'.'.'.'.'.'.'.'.'.'.'.'.'.'.'.'.'.Q.[ F m m k & > I #.=.L A.Q.`.Q.(.'.'.'.'.'.'.'.'.'.'.'.'.'.j.",
"j.'.'.'.'.'.'.'.'.'.'.'.'.'.'.'.'.'.'.'.'.P.v B +.& 9 ] -.q.A 2 Q.'.l.(.'.'.'.'.'.'.'.'.'.'.'.'.'.j.",
"j.'.'.'.'.'.'.'.'.'.'.'.'.'.'.'.'.'.'.'.'.R.E Y M & 1 ] J.V.b ;.m.(.B.'.'.'.'.'.'.'.'.'.'.'.'.'.'.j.",
"j.'.'.'.'.'.'.'.'.'.'.'.'.'.'.'.'.'.'.'.'.'.L.{ ,.; , Z W b.(.f (.I.Q.'.'.'.'.'.'.'.'.'.'.'.'.'.'.j.",
"j.'.'.'.'.'.'.'.'.'.'.'.'.'.'.'.'.'.'.'.'.'.'.`.~.9 L 2.I 2.W.M.(.A.'.'.'.'.'.'.'.'.'.'.'.'.'.'.'.j.",
"j.'.'.'.'.'.'.'.'.'.'.'.'.'.'.'.'.'.'.'.'.'.'.'.'.q l.F.I =.L.R.M.(.'.'.'.'.'.'.'.'.'.'.'.'.'.'.'.j.",
"j.'.'.'.'.'.'.'.'.'.'.'.'.'.'.'.'.'.'.'.'.'.`.`.`.d.c.n @.F Y.B.`.'.'.'.'.'.'.'.'.'.'.'.'.'.'.'.'.j.",
"j.'.'.'.'.'.'.'.'.'.'.'.'.'.'.'.'.'.'.'._.U.S.).`.g.! @.,.( f.S.'.'.'.'.'.'.'.'.'.'.'.'.'.'.'.'.'.j.",
"j.'.'.'.'.'.'.'.'.'.'.'.'.'.'.'.'.'.'.'.U.E.f.A.U.` E 7.} R.U.'.'.'.'.'.'.'.'.'.'.'.'.'.'.'.'.'.'.j.",
"j.'.'.'.'.'.'.'.'.'.'.'.'.'.'.'.'.'.'.'.R.(.I.I.`.`.n.W.`.).(.'.'.'.'.'.'.'.'.'.'.'.'.'.'.'.'.'.'.j.",
"j.'.'.'.'.'.'.'.'.'.'.'.'.'.'.'.'.'.'.'.I.I.M.(.'.(.U.Y.S.Y.'.'.'.'.'.'.'.'.'.'.'.'.'.'.'.'.'.'.'.j.",
"j.'.'.'.'.'.'.'.'.'.'.'.'.'.'.'.'.'.'.'.S.I.B.l.'.(.A.S.U.).'.'.'.'.'.'.'.'.'.'.'.'.'.'.'.'.'.'.'.j.",
"j.'.'.'.'.'.'.'.'.'.'.'.'.'.'.'.'.'.'.'.U.S.M.A.s.`.B.M.`.E.'.'.'.'.'.'.'.'.'.'.'.'.'.'.'.'.'.'.'.j.",
"j.'.'.'.'.'.'.'.'.'.'.'.'.'.'.'.'.'.'.'.'.E.).).A.I.Y.R.'.'.'.'.'.'.'.'.'.'.'.'.'.'.'.'.'.'.'.'.'.j.",
"j.'.'.'.'.'.'.'.'.'.'.'.'.'.'.'.'.'.'.'.'.'.'.'.'.).(.`.'.'.'.'.'.'.'.'.'.'.'.'.'.'.'.'.'.'.'.'.'.j.",
"0 j.j.j.j.j.j.j.j.j.j.j.j.j.j.j.j.j.j.j.j.j.j.j.j.j.j.j.j.j.j.j.j.j.j.j.j.j.j.j.j.j.j.j.j.j.j.j.j.0 "
};
