/* XPM */
static char *result[] = {
/* columns rows colors chars-per-pixel */
"50 50 174 2 ",
"   c #030303",
".  c #080606",
"X  c #050E0B",
"o  c #0B0A0A",
"O  c #18070A",
"+  c #120C0D",
"@  c #1A0D0F",
"#  c #05130F",
"$  c #08120F",
"%  c #1D0E11",
"&  c #0B1512",
"*  c #0A1A15",
"=  c #0D1F18",
"-  c #071A14",
";  c #151313",
":  c #1B1415",
">  c #1F1718",
",  c #1B1B1B",
"<  c #20070A",
"1  c #38050D",
"2  c #280F13",
"3  c #240F12",
"4  c #231315",
"5  c #241619",
"6  c #251C1C",
"7  c #2C1A1E",
"8  c #2F1419",
"9  c #31191C",
"0  c #3A191E",
"q  c #0C231B",
"w  c #0C281F",
"e  c #10261F",
"r  c #23201B",
"t  c #251F20",
"y  c #2F1E20",
"u  c #341B20",
"i  c #3B1C22",
"p  c #0D2C22",
"a  c #112921",
"s  c #0E3226",
"d  c #0D3F2F",
"f  c #113226",
"g  c #153429",
"h  c #123B2D",
"j  c #1F342A",
"k  c #163E31",
"l  c #242323",
"z  c #2B2223",
"x  c #272828",
"c  c #2D2A2B",
"v  c #2D2A26",
"b  c #322725",
"n  c #342B2C",
"m  c #3C2C2D",
"M  c #332B25",
"N  c #393329",
"B  c #343434",
"V  c #3B3233",
"C  c #3D3C3C",
"Z  c #48040F",
"A  c #401F26",
"S  c #591520",
"D  c #432C2F",
"F  c #542323",
"G  c #483A2F",
"H  c #5F2D35",
"J  c #423836",
"K  c #743235",
"L  c #742935",
"P  c #1B4335",
"I  c #164C39",
"U  c #1C4B3A",
"Y  c #114634",
"T  c #224A3C",
"R  c #484038",
"E  c #534336",
"W  c #5E4138",
"Q  c #1C5743",
"!  c #235543",
"~  c #275C49",
"^  c #21634C",
"/  c #2A6E57",
"(  c #2F6E58",
")  c #2E745C",
"_  c #434343",
"`  c #4A4D4D",
"'  c #574741",
"]  c #5F4F42",
"[  c #534E4D",
"{  c #5A4D4F",
"}  c #525353",
"|  c #555858",
" . c #5B5B5B",
".. c #585354",
"X. c #595547",
"o. c #67564A",
"O. c #6B5248",
"+. c #745146",
"@. c #6A4C51",
"#. c #7A4B52",
"$. c #665953",
"%. c #705052",
"&. c #705950",
"*. c #7C5F55",
"=. c #69615A",
"-. c #7E6655",
";. c #7B6258",
":. c #636262",
">. c #6A6767",
",. c #6A6768",
"<. c #676868",
"1. c #6C6B6B",
"2. c #6E6963",
"3. c #7B6D65",
"4. c #7C7369",
"5. c #6E7070",
"6. c #747474",
"7. c #7F7B77",
"8. c gray50",
"9. c #717976",
"0. c #825F53",
"q. c #89685D",
"w. c #8B5C64",
"e. c #806F69",
"r. c #8E7965",
"t. c #8C7B69",
"y. c #8D7662",
"u. c #897979",
"i. c #C24045",
"p. c #C07B71",
"a. c #348266",
"s. c #348C6D",
"d. c #3C8C70",
"f. c #3C9B7A",
"g. c #419A7A",
"h. c #98816B",
"j. c #AE8777",
"k. c #AE8A7B",
"l. c #A68A74",
"z. c #B38D7E",
"x. c #BE907E",
"c. c #CD7982",
"v. c #49AB88",
"b. c #848383",
"n. c #8D8D8D",
"m. c #8C8884",
"M. c #919191",
"N. c #9E9F9F",
"B. c #B48082",
"V. c #B39A9E",
"C. c #A2A3A3",
"Z. c gray67",
"A. c #B7B7B7",
"S. c #BEBEBE",
"D. c #C0BFBE",
"F. c #E7BEA8",
"G. c #DFC5A8",
"H. c #E8C6A8",
"J. c #EFCEB0",
"K. c #FED6BF",
"L. c #FADDBC",
"P. c #FFE0BF",
"I. c #BEC0C0",
"U. c #C1C1C1",
"Y. c #C6C8C8",
"T. c #CDCDCD",
"R. c #C9C0C2",
"E. c #D0D0D0",
"W. c #DEDEDE",
"Q. c #F4D2CE",
"!. c #E1E1E1",
"~. c #ECECEC",
"^. c #F6F6F6",
"/. c #FFFFFF",
/* pixels */
"} M.M.M.M.M.M.M.M.M.M.M.M.M.M.M.M.M.M.M.M.M.M.M.M.M.M.M.M.M.M.n.M.M.M.M.M.M.M.M.M.M.M.M.M.M.M.M.M.} ",
"M././././././././././././././././././././././././././././././././././././././././././././././././.M.",
"M././././././././././././././././././././././././././././././././././././././././././././././././.M.",
"M././././././././././././././././././././././././././././././././././././././././././././././././.M.",
"M././././././././././././././././././././././././././././././././././././././././././././././././.M.",
"M././././././././././././././././././././././././././././././././././././././././././././././././.M.",
"M././././././././././././././././././././././././././././././././.C._ _ ~.| 6././././././././././.M.",
"M./././././././././././././././././././././././././././././././.~.6.o 2 + o o o 6.^./././././././.M.",
"M./././././././././././././././././././././././././././././././.M., 3 8 u i u + : Y./././././././.M.",
"M././././././././././././././././././././././././././././.~.`   o + + D O 4 % i 5 o U././././././.M.",
"M./././././././././././././././././././././././././././././.U.  % y .   i @ i u 7 + U././././././.M.",
"M././././././././././././././././././././././././././././.~.6.o . 4 4 + i O y 5 : o U././././././.M.",
"M././././././././././././././././././././././././././././.!.x     + 0 5 A 4 O.R o 4 >././././././.M.",
"M././././././././././././././././././././././././././././.C o o % 2 u 5 4 B.H.j.9 + . /./././././.M.",
"M././././././././././././././././././././././././././././.n., o y m u z 0.W o.p.F o M././././././.M.",
"M././././././././././././././././././././././././././././., . . o ;.J %.G.h.. q.*.  U././././././.M.",
"M././././././././././././././././././././././.~.M.$ # a q Q Y . l %.v z.L.Q.p.q.6 I./././././././.M.",
"M././././././././././././././././.~.I.W.E.U.U.M.  q Y f./ q h l u.B.b H P.L.J.H.4.E./././././././.M.",
"M././././././././././././././././.C.  | c w T w     q I $ I P j K i.%., k.F.x.e.Z././././././././.M.",
"M././././././././././././././././.C.* *   p f.a.w   g &   . U p @ ` 6.c $ &.e.D./././././././././.M.",
"M./././././././././././././././.W.C w I #   f P a * k ( =   o x >.:.@ o 8 v.A././././././././././.M.",
"M././././././././././././././.S.4.y.X.h q   & s   U U a . o n z C <.C x R.^./././././././././././.M.",
"M././././././././././././././.$.l.l.o.w d # I /   & P #   C <.+ o t N.D./././././././././././././.M.",
"M././././././././././././././.[ r.G.r.j q p # d.f.X     V > ; M u.W./././././././././././././././.M.",
"M././././././././././././././.S.3.h.r.N I =   g a.q   > >.o 6 -.t.m.~././././././././././././././.M.",
"M./././././././././././././././.I.      ~ !       c  .>.[ _ z G h.o.G././././././././././././././.M.",
"M././././././././././././././.!.9.s = # ! v.f   , C.S.Y.I.m.v E E =.W././././././././././././././.M.",
"M././././././././././././././._ & d ) U ^ s.e + n :.[ ..1.C B m.>.T./././././././././././././././.M.",
"M././././././././././././././.n., P ( * X - Z.a ; 6 6 n V 6 l :.W././././././././././././././././.M.",
"M././././././././././././././.~.M.p f     n.W.c 6 t > z V m 6 o N././././././././././././././././.M.",
"M././././././././././././././././.Z.a M././.U.c v n : > 6 V z z + b./././././././././././././././.M.",
"M././././././././././././././././.^.W.E.U.I.t ; z y + o : z V n + 8./././././././././././././././.M.",
"M./././././././././././././././././.W.6.2 o B , : . . . o z n 6 o 8./././././././././././././././.M.",
"M././././././././././././././././.E.<.@.S O Y. .x 6.:., 5 6 6 + _ U./././././././././././././././.M.",
"M././././././././././././././././.C.` @.O o 6.1.M.E.I.x o : ; l S././././././././././././././././.M.",
"M././././././././././././././././.C.` #.< . o , _ B B $     B T./././././././././././././././././.M.",
"M././././././././././././././././.C.` { o 1.t Z.I.U.U.U.U.S.T././././././././././././././././././.M.",
"M./././././././././././././././.U.} :.. . . _ W./././././././././././././././././././././././././.M.",
"M./././././././././././././././.U. .6.o . . W././././././././././././././././././././././././././.M.",
"M./././././././././././././././.U.C { Z 1 R./././././././././././././././././././././././././././.M.",
"M./././././././././././././././.U.C w.H L V./././././././././././././././././././././././././././.M.",
"M./././././././././././././././.!.5.` | } , /././././././././././././././././././././././././././.M.",
"M././././././././././././././././.T.b.b.v.m./././././././././././././././././././././././././././.M.",
"M./././././././././././././././././././.^.^./././././././././././././././././././././././././././.M.",
"M././././././././././././././././././././././././././././././././././././././././././././././././.M.",
"M././././././././././././././././././././././././././././././././././././././././././././././././.M.",
"M././././././././././././././././././././././././././././././././././././././././././././././././.M.",
"M././././././././././././././././././././././././././././././././././././././././././././././././.M.",
"M././././././././././././././././././././././././././././././././././././././././././././././././.M.",
"} M.M.M.M.M.M.M.M.M.M.M.M.M.M.M.M.M.M.M.M.M.M.M.M.M.M.M.M.M.M.n.M.M.M.M.M.M.M.M.M.M.M.M.M.M.M.M.M.} "
};
