/* XPM */
static char *_dd5d7f2ce7f474296970e7db0d50b53LYoJgu1DliXjCCyl[] = {
/* columns rows colors chars-per-pixel */
"50 50 210 2 ",
"   c #030201",
".  c #0A0405",
"X  c #010B03",
"o  c #0B0709",
"O  c #0E0B0B",
"+  c #110201",
"@  c #120C0D",
"#  c #1A0A08",
"$  c #02170D",
"%  c #001A0C",
"&  c #05130A",
"*  c #150F10",
"=  c #0C1611",
"-  c #031D11",
";  c #0B1A13",
":  c #131111",
">  c #1C1315",
",  c #141916",
"<  c #191718",
"1  c #1D1B1C",
"2  c #121B18",
"3  c #270E0B",
"4  c #2A1A16",
"5  c #221D1C",
"6  c #2B1C1B",
"7  c #281514",
"8  c #2F1711",
"9  c #002415",
"0  c #0C241A",
"q  c #04281A",
"w  c #0B2A1D",
"e  c #0C2017",
"r  c #12291F",
"t  c #14251D",
"y  c #38221D",
"u  c #231F20",
"i  c #1B2D25",
"p  c #1A2922",
"a  c #0B3122",
"s  c #1B3328",
"d  c #17372A",
"f  c #1D3F31",
"g  c #252424",
"h  c #2B2425",
"j  c #2D2C2C",
"k  c #272A27",
"l  c #312324",
"z  c #332B2C",
"x  c #392A2A",
"c  c #22342C",
"v  c #2A302C",
"b  c #3B302F",
"n  c #332F30",
"m  c #2D3130",
"M  c #353333",
"N  c #3C3638",
"B  c #303F38",
"V  c #3C3A3A",
"C  c #3A3536",
"Z  c #472D29",
"A  c #433C3E",
"S  c #453637",
"D  c #583F3B",
"F  c #234135",
"G  c #2B453A",
"H  c #32433B",
"J  c #5D493F",
"K  c #413F40",
"L  c #4D3E43",
"P  c #394D44",
"I  c #2A5041",
"U  c #385448",
"Y  c #3F6355",
"T  c #454342",
"R  c #404F48",
"E  c #4A4B4A",
"W  c #4A4545",
"Q  c #544A4D",
"!  c #574746",
"~  c #44534C",
"^  c #4A534D",
"/  c #514F50",
"(  c #485C53",
")  c #545353",
"_  c #5D5B5C",
"`  c #5C5254",
"'  c #614A42",
"]  c #6D524B",
"[  c #70534B",
"{  c #655B5E",
"}  c #695A5A",
"|  c #4D695D",
" . c #55645D",
".. c #695E60",
"X. c #5E6B64",
"o. c #5F6160",
"O. c #5D756B",
"+. c #497262",
"@. c #656464",
"#. c #6A6665",
"$. c #6A6768",
"%. c #6D6D6B",
"&. c #666F6C",
"*. c #756A68",
"=. c #6B706E",
"-. c #74706F",
";. c #766F71",
":. c #6D7E76",
">. c #697571",
",. c #7F7473",
"<. c #7B7B7C",
"1. c #757676",
"2. c #827D7F",
"3. c #877774",
"4. c #5B8474",
"5. c #6C8379",
"6. c #72847C",
"7. c #98867C",
"8. c #7D9188",
"9. c #7EA797",
"0. c #848282",
"q. c #8B8386",
"w. c #838A86",
"e. c #8C8688",
"r. c #8D8C8D",
"t. c #94898C",
"y. c #819189",
"u. c #89928D",
"i. c #95928F",
"p. c #938F91",
"a. c #9D9C9C",
"s. c #959192",
"d. c #879691",
"f. c #A39897",
"g. c #B09E94",
"h. c #AE9388",
"j. c #8CA89C",
"k. c #A59EA1",
"l. c #94AEA3",
"z. c #A9A4A3",
"x. c #ADA9AB",
"c. c #A4A8A7",
"v. c #B2A8AA",
"b. c #B3B4B3",
"n. c #BBB5B7",
"m. c #BEBBBC",
"M. c #B7BBB9",
"N. c #A3B4AC",
"B. c #CBB6AD",
"V. c #C3BABD",
"C. c #D0B9B3",
"Z. c #AEC8BD",
"A. c #B8C1BC",
"S. c #CEC0B7",
"D. c #D2C1B7",
"F. c #CABEC2",
"G. c #BAC9C2",
"H. c #C8C7C6",
"J. c #D0C3C5",
"K. c #D3C7CA",
"L. c #D6CCCD",
"P. c #DDD2CC",
"I. c #D5D4D4",
"U. c #D9D6D5",
"Y. c #DCDBDB",
"T. c #D9DBD8",
"R. c #E8D3CC",
"E. c #F2DCCE",
"W. c #FBDFDB",
"Q. c #D0E1DB",
"!. c #F9E7DB",
"~. c #E3DFE1",
"^. c #DDE9E5",
"/. c #DCE7E3",
"(. c #E5E4E5",
"). c #E9E4E6",
"_. c #ECE7E8",
"`. c #EDEBEC",
"'. c #EAE9E7",
"]. c #F3EDEE",
"[. c #F0E5E9",
"{. c #EAF1EE",
"}. c #E3F8EF",
"|. c #FFF5E7",
" X c #F2EEF0",
".X c #FBEDF2",
"XX c #EAF7F3",
"oX c #F5F4F4",
"OX c #FBF4F5",
"+X c #FBF8F5",
"@X c #F7F6FB",
"#X c #FBF7F9",
"$X c #F5FEFB",
"%X c #FDFCFF",
"&X c #FCFDFF",
"*X c #FFFDFE",
"=X c #FEFCFF",
"-X c #FFFCFF",
";X c #FFFDFF",
":X c #FEFDFF",
">X c #FDFFFE",
",X c #FCFFFF",
"<X c #FDFEFF",
"1X c #FEFEFE",
"2X c #FFFEFF",
"3X c #FEFFFF",
"4X c white",
"5X c #FEFEFF",
"6X c #FFFDFD",
"7X c #FEFEFE",
/* pixels */
"4X4X4X4X4X4X4X4X4X4X4X4X4X4X4X4X4X,X4X6X6X6X6X6XOX6X#X[.4X#X#XT > i.@ H.oX6X@X4X6X%X6X6X6X6X#X6X6X4X",
"4X4X4X4X4X4X4X4X4X4X4X4X4X4X4X4X4X,X6X4X6X6X6X6X6X_.6X6X].4XoXb . 5 5 g 2.4X(.@X6X6X6X#X6X6X6X6X4X4X",
"4X4X4X4X4X4X4X4X4X4X4X4X4X4X4X4X>X>X,X6X6X6X6X6X4XoX#X6X]._.p.@ 6 z 7 o g Y.6X4X%X6X6X6X6X6X6X6X6X4X",
"4X4X4X4X4X4X4X4X4X4X4X4X4X4X4X4X>X>X,X4X6X6X6X4X#X4X4X].n...h . z L > n o 1.4X@X%X6X6X6X4X4X6X6X4X4X",
"4X4X4X4X4X4X4X4X4X4X4X4X4X4X4X4X6X4X4X6X,X6X6X6X4XoX4X#X0.  1 > l + x l > K OX@X%X%X%X,X4X6X4X6X4X4X",
"4X4X4X4X4X4X4X4X4X4X4X4X4X4X4X4X,X6X6X,X>X4X,X4X4X#XoX4XJ.o h l 7 # l Z > Q 6X@X%X%X%X,X,X,X4X4X4X4X",
"4X4X4X4X4X4X4X4X4X4X4X4X4X4X4X4X6X6X4X6X>X>X>X4X@X4X XoX).N O l 3 Z + S + Q 6X X6X6X%X,X,X,X4X,X4X4X",
"4X4X4X4X4X4X4X4X4X4X4X4X4X4X4X4X4X>X>X>X>X>X>X$X$X4X4X Xe.*   l 8 y 8 6 # S #X#X@X4X%X,X,X,X,X,X4X4X",
"4X4X4X4X4X4X4X4X4X4X4X4X4X4X4X4X4X4X4X4X$X$X$X$X,X,XoX@X6.  > 6 Z 8 D ' 8 # t.#X%X,X%X,X$X,X,X,X4X4X",
"4X4X4X4X4X4X4X4X4X4X4X4X4X4X4X4X4X#X#X,X,X$X$X$X{.$X(.Y.g . u 6 y Z E.B.7 3 q.oX%X%X%X,X,X,X,X,X4X4X",
"4X4X4X4X4X4X4X4X4X4X4X4X4X4X4X4X4X#X,X,X,X$X$X$XXX,X,Xb.< . x l 8 [ [ B.y b L.4X6X%X%X,X4X,X4X4X4X4X",
"4X4X4X4X4X4X4X4X4X4X4X4X4X4X4X4X4X4X4X,X,X$X$X$X,X/.XXI.k.n h ,.8 7.y *.} 7 #X6X6X%X%X,X6X4X4X4X4X4X",
"4X4X4X4X4X4X4X4X4X4X4X4X4X4X4X4X6X6X#X$X$X$X$X$X$X$X$X@X0.j o 3.J E.7.J Z *.6X.X6X6X6X6X6X4X4X4X4X4X",
"4X4X4X4X4X4X4X4X4X4X4X4X4X4X4X4X6X6X#X,X$X$X$X$X/.N.A.e.u @ S } 7.!.B.g.8 U.|.#X6X#X6X6X6X6X6X4X4X4X",
"4X4X4X4X4X4X4X4X4X4X4X4X4X4X4X4X4X4X,X@X$X$X$X{.d.  2 m E M e.f.J E.|.!.7.L.#XOX#X6X6X6X6X6X6X6X4X4X",
"4X4X4X4X4X4X4X4X4X4X4X4X4X4X4X4X4X4X@X{.{.}.^.Q.$ P >.&.V V $.,.+ S.S.f.3.+X].6X6X6X#X6X6X6X6X6X6X4X",
"4X4X4X4X4X4X4X4X4X4X4X4X4X>X>X>X+X+X,X^ X.w.X s X i 6.G H c w.g   #.'.%.P.4XoX4X4X4X4X4X4X4X4X4X4X4X",
"4X4X4X4X4X4X4X4X>X6X4X4X4X6X>X#X X+X4X=., ; :.~ e X i - (  .P M.o.  ) a.(.>X4XoX4X4X4X4X4X4X4X4X4X4X",
"4X4X4X4X4X4X4X4X#X4X4X4X4X6X6X>X+X6X6X=.  r +.l.d 0 F p c ~    .p.<.w.(.4XoX6X+X4X4X4X4X4X4X4X4X4X4X",
"4X4X4X4X4X4X4X4X4X4X4X4X4X,X4X#X6X).T., ~ 0 & O.F d 5.X   $ >.J r.4X`.oX4X@X X4X4X4X4X4X4X4X4X4X4X4X",
"4X4X4X4X4X4X4X4X,X4X4X4X4X>X>X6XOXOXu.c P r w X % f | H = g 0.-.~.+X@X`.@X4X4X>X4X4X4X4X4X4X4X4X4X4X",
"4X4X4X4X4X4X4X4X6X4X4X4X4X4X#X6X6XK.J b.P w % U a Y d e p V z H.4X`.4X6X4XoX4XoX4X4X4X4X4X4X4X4X4X4X",
"4X4X4X4X4X4X4X4X,X6X4X4X4X6X4X6X).s.v.w.i U d 4.9 9 G X w.S Q OXU.@X6XoX4XoX+X4X4X4X4X4X4X4X4X4X4X4X",
"4X4X4X4X4X4X4X4X6X>X4X4X4X4X6X#X+X` v.H.c F q 9.+.9 0 ; V > ..#X#X4X`.@X6X@X4X4X4X4X4X4X4X4X4X4X4X4X",
"4X4X4X4X4X4X4X4X4X4X4X4X4X#X>X#X6Xv.E (.O.w q G j.q X 6.@ ;.3.J.4X6XoX@X4X4XoX4X4X4X4X4X4X4X4X4X4X4X",
"4X4X4X4X4X4X4X4X4X4X4X4X4X4X>X+X+X+X=.1.U | a - U % $ R O { v.t.+X4X4X#X4X4X@X4X4X4X4X4X4X4X4X4X4X4X",
"4X4X4X4X4X4X4X4X4X4X4X4X4X>X#X>X`.6Xu.X X P F X 9 U :.^ ..l f.} '.oX6X$X#X4X4X@X4X4X4X4X4X4X4X4X4X4X",
"4X4X4X4X4X4X4X4X4X4X4X4X4X>X>X@X+X{.u.e X U d.% $ N.T.b.Y.l S *.'.@XoX#X>X>X4X#X4X4X4X4X4X4X4X4X4X4X",
"4X4X4X4X4X4X4X4X4X4X4X4X4X6X6X$X$XG.s &.c y.j.= ^ A.a.b.z.L > k.6X4X#X4X4XoX4X>X4X4X4X4X4X4X4X4X4X4X",
"4X4X4X4X4X4X4X4X4X4X4X4X4X4X+X$X$X5.X H 8.c @.p ^ b t k z @ . A I.4X@X>X4XoX4X4X4X4X4X4X4X4X4X4X4X4X",
"4X4X4X4X4X4X4X4X4X4X4X4X4X>X>X@X$XZ.X O.H = , ~ M   h h / M M   r.@XoXoX4X#X4X4X4X4X4X4X4X4X4X4X4X4X",
"4X4X4X4X4X4X4X4X4X4X4X4X4X>X6X$X$X}.5.H t   M 1 . *   5 5 N V g _ >X4XoX4X4X4X4X4X4X4X4X4X4X4X4X4X4X",
"4X6X4X6X4X4X4X4X#X4XoX4X,XXX6X,X^.<.>.2 o : j : <.p.E   u   M g =.4X4X@X6X4X4X4X4X4X4X4X4X4X4X4X4X4X",
"4X4X6X4X4X4X4X4X,X4XoX#X@XoX$X`.$.  1 N < m j / Y.@Xb.M < M V   _ `.@X#X@X,X4X4X4X4X4X4X4X4X4X4X4X4X",
"4X4X4X4X4X4X4X4X,X#X4X4X4X+X4X(.j 1 K / 1 1 1 x.4X@X6Xr.< M j : p.{.>X4X,X#X4X4X4X4X4X4X4X4X4X4X4X4X",
"4X4X4X4X4X4X4X4X4XoX$X4X@X{.@XI.g M n m E u K @XY.%XoX..: n j M (.4X#X4X4X4X4XoX4X4X4X4X4X4X4X4X4X4X",
"4X4X4X4X4X4X4X4X6X@XoX@X@X4X4XI.o m N T h   ) 6X6X4Xs.<.k.    g 4X4XoX@X4X6X4X#X4X4X4X4X4X4X4X4X4X4X",
"4X4X4X4X4X4X4X4XoX4X4X6XoX+X(.a.1 : O j : 1.Y.`.6XI.1 j @.g I.F.oXoX4X>X4XoX4X4X4X4X4X4X4X4X4X4X4X4X",
"4X4X4X4X4X4X4X6X#X4X4X6Xm.$._ _ <.V M u j K.4X`.6X$.O n T %.6X6XoX+X4X@X4XoX@X4X4X4X4X4X4X4X4X4X4X4X",
"4X4X4X4X4X4X6X4X6XoXOX#Xr.  h x.x.O o   a.,X X4Xm.g g   @.4X(.@X>X@X4X'.4X4X+X4X4X4X4X4X4X4X4X4X4X4X",
"4X,X4X4X4X4X4X6X#X4X.X).n g Q x.$.) j ` I.4X X6Xe.T ;.  ;.4X`.4X4X4X4X4X4X4X4X4X4X4X4X4X4X4X4X4X4X4X",
"4X4X4X4X4X4X6X4X4X~.#X~.S z z L #.(.6X`.`.6X6X6Xa.a.x.  E oX%X4X4X4X4X4X4X4X4X4X4X4X4X4X4X4X4X4X4X4X",
",X4X4X4X4X4X4X6XOX6X#Xt.` z z t.OX@X6X4X4X`.(.4X,XN 2.r.  `.4X(.4X4X4X4X4X4X4X4X4X4X4X4X4X4X4X4X4X4X",
",X4X4X4X4X4X6X4X4X_.4X2...z k.#X6XoX`. X%X6X4XoX4XM.  n.0.a.'.4X4X4X4X4X4X4X4X4X4X4X4X4X4X4X4X4X4X4X",
"4X4X4X,X4X4X4X6X6X[.#Xt.q.6 F.#X(.4X4X4X`.4X4XoX(.4XI.V $.,X4X#X4X4X4X4X4X4X4X4X4X4X4X4X4X4X4X4X4X4X",
"4X,X4X4X4X4X6X4X X#X#Xe.;.> F.6X4X].`.6X4XOXoX#X4X`.4Xe.z.#X_.4X4X4X4X4X4X4X4X4X4X4X4X4X4X4X4X4X4X4X",
",X,X,X4X4X4X6X4X#X X#XF.l L .X#X X#X4X4X4X4X4XoX4XOX(.4X'.@X4X@X4X4X4X4X4X4X4X4X4X4X4X4X4X4X4X4X4X4X",
"4X4X,X4X4X4X4X6X#X6X#X[.` V..X#X6X4XoXoX#X#X#X4X@X4X4X@X6X6X#X6X4X4X4X4X4X4X4X4X4X4X4X4X4X4X4X4X4X4X",
"4X4X4X4X4X4X4X4X6X4X4X4X6X6X#X4X4X4X4X4X4X4X4X4X4X4X4X4X4X4X4X4X4X4X4X4X4X4X4X4X4X4X4X4X4X4X4X4X4X4X",
"4X4X4X4X4X4X4X4X%X4X4X4X#X%X%X4X4X4X4X4X4X4X4X4X4X4X4X4X4X4X4X4X4X4X4X4X4X4X4X4X4X4X4X4X4X4X4X4X4X4X"
};
