/* XPM */
static char *result[] = {
/* columns rows colors chars-per-pixel */
"50 50 174 2 ",
"   c #030303",
".  c #080606",
"X  c #050E0B",
"o  c #0B0A0A",
"O  c #18070A",
"+  c #120C0D",
"@  c #1A0D0F",
"#  c #05130F",
"$  c #08120F",
"%  c #1D0E11",
"&  c #0B1512",
"*  c #0A1A15",
"=  c #0D1F18",
"-  c #071A14",
";  c #151313",
":  c #1B1415",
">  c #1F1718",
",  c #1B1B1B",
"<  c #20070A",
"1  c #38050D",
"2  c #280F13",
"3  c #240F12",
"4  c #231315",
"5  c #241619",
"6  c #251C1C",
"7  c #2C1A1E",
"8  c #2F1419",
"9  c #31191C",
"0  c #3A191E",
"q  c #0C231B",
"w  c #0C281F",
"e  c #10261F",
"r  c #23201B",
"t  c #251F20",
"y  c #2F1E20",
"u  c #341B20",
"i  c #3B1C22",
"p  c #0D2C22",
"a  c #112921",
"s  c #0E3226",
"d  c #0D3F2F",
"f  c #113226",
"g  c #153429",
"h  c #123B2D",
"j  c #1F342A",
"k  c #163E31",
"l  c #242323",
"z  c #2B2223",
"x  c #272828",
"c  c #2D2A2B",
"v  c #2D2A26",
"b  c #322725",
"n  c #342B2C",
"m  c #3C2C2D",
"M  c #332B25",
"N  c #393329",
"B  c #343434",
"V  c #3B3233",
"C  c #3D3C3C",
"Z  c #48040F",
"A  c #401F26",
"S  c #591520",
"D  c #432C2F",
"F  c #542323",
"G  c #483A2F",
"H  c #5F2D35",
"J  c #423836",
"K  c #743235",
"L  c #742935",
"P  c #1B4335",
"I  c #164C39",
"U  c #1C4B3A",
"Y  c #114634",
"T  c #224A3C",
"R  c #484038",
"E  c #534336",
"W  c #5E4138",
"Q  c #1C5743",
"!  c #235543",
"~  c #275C49",
"^  c #21634C",
"/  c #2A6E57",
"(  c #2F6E58",
")  c #2E745C",
"_  c #434343",
"`  c #4A4D4D",
"'  c #574741",
"]  c #5F4F42",
"[  c #534E4D",
"{  c #5A4D4F",
"}  c #525353",
"|  c #555858",
" . c #5B5B5B",
".. c #585354",
"X. c #595547",
"o. c #67564A",
"O. c #6B5248",
"+. c #745146",
"@. c #6A4C51",
"#. c #7A4B52",
"$. c #665953",
"%. c #705052",
"&. c #705950",
"*. c #7C5F55",
"=. c #69615A",
"-. c #7E6655",
";. c #7B6258",
":. c #636262",
">. c #6A6767",
",. c #6A6768",
"<. c #676868",
"1. c #6C6B6B",
"2. c #6E6963",
"3. c #7B6D65",
"4. c #7C7369",
"5. c #6E7070",
"6. c #747474",
"7. c #7F7B77",
"8. c gray50",
"9. c #717976",
"0. c #825F53",
"q. c #89685D",
"w. c #8B5C64",
"e. c #806F69",
"r. c #8E7965",
"t. c #8C7B69",
"y. c #8D7662",
"u. c #897979",
"i. c #C24045",
"p. c #C07B71",
"a. c #348266",
"s. c #348C6D",
"d. c #3C8C70",
"f. c #3C9B7A",
"g. c #419A7A",
"h. c #98816B",
"j. c #AE8777",
"k. c #AE8A7B",
"l. c #A68A74",
"z. c #B38D7E",
"x. c #BE907E",
"c. c #CD7982",
"v. c #49AB88",
"b. c #848383",
"n. c #8D8D8D",
"m. c #8C8884",
"M. c #919191",
"N. c #9E9F9F",
"B. c #B48082",
"V. c #B39A9E",
"C. c #A2A3A3",
"Z. c gray67",
"A. c #B7B7B7",
"S. c #BEBEBE",
"D. c #C0BFBE",
"F. c #E7BEA8",
"G. c #DFC5A8",
"H. c #E8C6A8",
"J. c #EFCEB0",
"K. c #FED6BF",
"L. c #FADDBC",
"P. c #FFE0BF",
"I. c #BEC0C0",
"U. c #C1C1C1",
"Y. c #C6C8C8",
"T. c #CDCDCD",
"R. c #C9C0C2",
"E. c #D0D0D0",
"W. c #DEDEDE",
"Q. c #F4D2CE",
"!. c #E1E1E1",
"~. c #ECECEC",
"^. c #F6F6F6",
"/. c #FFFFFF",
/* pixels */
"} M.M.M.M.M.M.M.M.M.M.M.M.M.M.M.M.M.M.M.M.M.M.M.M.M.M.M.M.M.M.M.n.M.M.M.M.M.M.M.M.M.M.M.M.M.M.M.M.} ",
"M././././././././././././././././././././././././././././././././././././././././././././././././.M.",
"M././././././././././././././././././././././././././././././././././././././././././././././././.M.",
"M././././././././././././././././././././././././././././././././././././././././././././././././.M.",
"M././././././././././././././././././././././././././././././././././././././././././././././././.M.",
"M././././././././././././././././././././././././././././././././././././././././././././././././.M.",
"M././././././././././.6. .~._ _ N././././././././././././././././././././././././././././././././.M.",
"M./././././././.^.6.. + o o 3 o 6.~./././././././././././././././././././././././././././././././.M.",
"M./././././././.Y.: o i i i 8 3 : M./././././././././././././././././././././././././././././././.M.",
"M././././././.U.o 5 i % 5 O D + + o . ` ~././././././././././././././././././././././././././././.M.",
"M././././././.U.+ 7 u m @ i   o y % . I./././././././././././././././././././././././././././././.M.",
"M././././././.U.o : 4 8 + i o 4 > o . 6.~././././././././././././././././././././././././././././.M.",
"M././././././.>.4 o G &.4 0 5 0 + . . x !././././././././././././././././././././././././././././.M.",
"M././././././.o + 8 j.F.z.5 5 u 3 O o o C /./././././././././././././././././././././././././././.M.",
"M././././././.M.o F p.o.' *.y u D z . , n././././././././././././././././././././././././././././.M.",
"M././././././.U.. *.q.. h.F.%.J ;.o . . , /./././././././././././././././././././././././././././.M.",
"M./././././././.I.r -.c.Q.Q.j.b $.z o k Q q p # X M.~././././././././././././././././././././././.M.",
"M./././././././.E.4.G.J.P.P.H n B.u.6 h q / f.Y q . M.I.U.E.!.U.~././././././././././././././././.M.",
"M././././././././.Z.5.x.H.k.5 @.i.K j P P # U q     q T w c } o C././././././././././././././././.M.",
"M./././././././././.G.3.&.+ c 5.` ; p U X   & g   w a.f.p   * * N././././././././././././././././.M.",
"M././././././././././.A.n., o ; :.,.l o   * ( k * e P f   # I p ! W.^././././././././././././././.M.",
"M./././././././././././.^.R.x C ,.J x n o X w U U   f $ . - h X.y.4.D././././././././././././././.M.",
"M./././././././././././././.S.N.l + + 1.C   - P &   / I # d p ] l.l.$././././././././././././././.M.",
"M./././././././././././././././.W.7.M ; 4 V .   X g.d.# s q j t.H.r.[ /./././././././././././././.M.",
"M././././././././././././././.~.m.t.-.6 o ,.> . q a.f   * U N t.t.3.S././././././././././././././.M.",
"M././././././././././././././.S.o.h.G z _ [ ,. .c       ! ~   . . U./././././././././././././././.M.",
"M././././././././././././././.W.=.E E n n.I.Y.A.C., . g v.Q # * p 9.W././././././././././././././.M.",
"M./././././././././././././././.E.2.b.B J ,...[ :.n X w s.^ U ) h & ` /./././././././././././././.n.",
"M././././././././././././././././.W.:.l 6 V n 6 6 ; t Z.* # - / P : M././././././././././././././.M.",
"M././././././././././././././././.N.$ 4 m V z > t t c !.M.    g p M.~././././././././././././././.M.",
"M./././././././././././././././.h.+ z z V 6 : ; n z c U././.n., Z././././././././././././././././.M.",
"M./././././././././././././.^.^.v.+ n V z > o ; z z ; r U.U.E.!.^././././././././././././././././.M.",
"M./././././././././././././././.8.o 6 n t + . . . , , B o 2 6.!./././././././././././././././././.M.",
"M./././././././././././././././.S._ ; 5 6 > , :.5.x  .Y.O S @.,.E././././././././././././././././.M.",
"M././././././././././././././././.S.t ; : o x S.E.M.1.6.. O @.` C././././././././././././././././.M.",
"M./././././././././././././././././.E.n   . o C B C , . o @ #.` C././././././././././././././././.M.",
"M././././././././././././././././././.T.D.D.D.S.U.U.Z., 5.+ { ` C././././././././././././././././.M.",
"M./././././././././././././././././././././././././.!._ . . o <.` D./././././././././././././././.M.",
"M././././././././././././././././././././././././././.!.. . . 6. .U./././././././././././././././.M.",
"M./././././././././././././././././././././././././././.R.1 Z ..C U./././././././././././././././.M.",
"M./././././././././././././././././././././././././././.V.L H w.C U./././././././././././././././.M.",
"M./././././././././././././././././././././././././././., } | ` 5.!./././././././././././././././.M.",
"M./././././././././././././././././././././././././././.v.u.b.b.E././././././././././././././././.M.",
"M././././././././././././././././././././././././././././.^./././././././././././././././././././.M.",
"M././././././././././././././././././././././././././././././././././././././././././././././././.M.",
"M././././././././././././././././././././././././././././././././././././././././././././././././.M.",
"M././././././././././././././././././././././././././././././././././././././././././././././././.M.",
"M././././././././././././././././././././././././././././././././././././././././././././././././.M.",
"M././././././././././././././././././././././././././././././././././././././././././././././././.M.",
"} M.M.M.M.M.M.M.M.M.M.M.M.M.M.M.M.M.M.M.M.M.M.M.n.M.M.M.M.M.M.M.M.M.M.M.M.M.M.M.M.M.M.M.M.M.M.M.M.} "
};
