/* XPM */
static char *result[] = {
/* columns rows colors chars-per-pixel */
"50 50 170 2 ",
"   c #030303",
".  c #080606",
"X  c #030907",
"o  c #0A0708",
"O  c #040D0A",
"+  c #0B0A0A",
"@  c #1A070A",
"#  c #120C0D",
"$  c #1A0D0F",
"%  c #140709",
"&  c #06140F",
"*  c #09110E",
"=  c #12100E",
"-  c #1D0E11",
";  c #071D16",
":  c #0B1B16",
">  c #071611",
",  c #151414",
"<  c #1B1415",
"1  c #1C1A1A",
"2  c #23070B",
"3  c #28060B",
"4  c #38050D",
"5  c #240F12",
"6  c #380E15",
"7  c #241315",
"8  c #241619",
"9  c #231B1B",
"0  c #2C1A1E",
"q  c #281818",
"w  c #311718",
"e  c #301A1E",
"r  c #3A191E",
"t  c #0B221B",
"y  c #22211B",
"u  c #2B1E20",
"i  c #341B20",
"p  c #3B1C22",
"a  c #0C2B21",
"s  c #112C23",
"d  c #0D3226",
"f  c #0E3D2D",
"g  c #133529",
"h  c #18372C",
"j  c #113629",
"k  c #163D30",
"l  c #232323",
"z  c #2B2323",
"x  c #2D2D2D",
"c  c #302723",
"v  c #332A2B",
"b  c #3A2827",
"n  c #39322A",
"m  c #382F30",
"M  c #2F3030",
"N  c #333333",
"B  c #3B3434",
"V  c #3D3D3D",
"C  c #48040F",
"Z  c #5C0311",
"A  c #511F1C",
"S  c #401F26",
"D  c #43292D",
"F  c #542323",
"G  c #592830",
"H  c #4B3235",
"J  c #403738",
"K  c #423836",
"L  c #5A3C37",
"P  c #733235",
"I  c #0D402F",
"U  c #144132",
"Y  c #1B4335",
"T  c #164938",
"R  c #1A4B3A",
"E  c #134836",
"W  c #19503E",
"Q  c #13503C",
"!  c #204739",
"~  c #204A3B",
"^  c #45413D",
"/  c #534336",
"(  c #5F4238",
")  c #463F40",
"_  c #3F4141",
"`  c #245846",
"'  c #245845",
"]  c #21634C",
"[  c #2F6E58",
"{  c #2B6D56",
"}  c #2E725B",
"|  c #327D62",
" . c #444444",
".. c #4F4748",
"X. c #4C4C4C",
"o. c #4A4446",
"O. c #574741",
"+. c #5F4F42",
"@. c #534E4E",
"#. c #4E5050",
"$. c #535353",
"%. c #5A5556",
"&. c #5C5C5C",
"*. c #525D5A",
"=. c #595548",
"-. c #67544B",
";. c #665A57",
":. c #775F54",
">. c #664449",
",. c #6C6156",
"<. c #7D6457",
"1. c #626363",
"2. c #6B6665",
"3. c #6D6C6C",
"4. c #766D6E",
"5. c #76716D",
"6. c #7F7669",
"7. c #6C7272",
"8. c #747474",
"9. c #7A7A7B",
"0. c #805F52",
"q. c #89685D",
"w. c #806F69",
"e. c #8E7E68",
"r. c #8D7865",
"t. c #947F68",
"y. c #987666",
"u. c #817E7A",
"i. c #C07B71",
"p. c #328468",
"a. c #378F71",
"s. c #3B9A78",
"d. c #449F7E",
"f. c #8E806C",
"g. c #9D866E",
"h. c #A18970",
"j. c #AD8E74",
"k. c #B28C7D",
"l. c #AB917A",
"z. c #CD7982",
"x. c #4BB28D",
"c. c #838383",
"v. c #8D8D8D",
"b. c #888889",
"n. c #919191",
"m. c #9E9F9F",
"M. c #A68C8D",
"N. c #BB9684",
"B. c #A4A3A3",
"V. c #ACACAC",
"C. c #B3B2B2",
"Z. c #BFBFBF",
"A. c #D7BBA2",
"S. c #E5B6A0",
"D. c #DFC5A8",
"F. c #E7C3A8",
"G. c #E4CCA8",
"H. c #EFCEB0",
"J. c #FADDBC",
"K. c #FFE0BF",
"L. c #C1C1C1",
"P. c #CBCBCB",
"I. c #D1D1D1",
"U. c #DFDFDF",
"Y. c #F4D4CF",
"T. c #FFE8C8",
"R. c #E2E2E2",
"E. c #EEEEEE",
"W. c #F5F5F5",
"Q. c white",
/* pixels */
"$.n.n.n.n.n.n.n.n.n.n.n.n.n.n.n.n.n.n.n.n.n.n.v.n.n.n.n.n.n.n.n.n.n.n.n.n.n.n.n.n.n.n.n.n.n.n.n.n.@.",
"n.Q.Q.Q.Q.Q.Q.Q.Q.Q.Q.Q.Q.Q.Q.Q.Q.Q.Q.Q.Q.Q.Q.Q.Q.Q.Q.Q.Q.Q.Q.Q.Q.Q.Q.Q.Q.Q.Q.Q.Q.Q.Q.Q.Q.Q.Q.Q.Q.n.",
"n.Q.Q.Q.Q.Q.Q.Q.Q.Q.Q.Q.Q.Q.Q.Q.Q.Q.Q.Q.Q.Q.Q.Q.Q.Q.Q.Q.Q.Q.Q.Q.Q.Q.Q.Q.Q.Q.Q.Q.Q.Q.Q.Q.Q.Q.Q.Q.Q.n.",
"n.Q.Q.Q.Q.Q.Q.Q.Q.Q.Q.Q.Q.Q.Q.Q.Q.Q.Q.Q.Q.Q.Q.Q.Q.Q.Q.Q.Q.Q.Q.Q.Q.Q.Q.Q.Q.Q.Q.Q.Q.Q.Q.Q.Q.Q.Q.Q.Q.n.",
"n.Q.Q.Q.Q.Q.Q.Q.Q.Q.Q.Q.Q.Q.Q.Q.Q.Q.Q.Q.Q.Q.Q.Q.Q.Q.Q.Q.Q.Q.Q.Q.Q.Q.Q.Q.Q.Q.Q.Q.Q.Q.Q.Q.Q.Q.Q.Q.Q.n.",
"n.Q.Q.Q.Q.Q.Q.Q.Q.Q.Q.Q.Q.Q.Q.Q.Q.Q.Q.Q.Q.Q.Q.Q.Q.Q.Q.Q.Q.Q.Q.Q.Q.Q.Q.Q.Q.Q.Q.Q.Q.Q.Q.Q.Q.Q.Q.Q.Q.n.",
"n.Q.Q.Q.Q.Q.Q.Q.Q.Q.Q.Q.Q.Q.Q.Q.Q.Q.Q.Q.Q.Q.Q.Q.Q.Q.Q.Q.Q.Q.Q.Q.Q.B. . .R.&.8.Q.Q.Q.Q.Q.Q.Q.Q.Q.Q.n.",
"n.Q.Q.Q.Q.Q.Q.Q.Q.Q.Q.Q.Q.Q.Q.Q.Q.Q.Q.Q.Q.Q.Q.Q.Q.Q.Q.Q.Q.Q.Q.Q.E.8.+ 7 # # + o 8.W.Q.Q.Q.Q.Q.Q.Q.n.",
"n.Q.Q.Q.Q.Q.Q.Q.Q.Q.Q.Q.Q.Q.Q.Q.Q.Q.Q.Q.Q.Q.Q.Q.Q.Q.Q.Q.Q.Q.Q.Q.n.1 5 0 p p p + , P.Q.Q.Q.Q.Q.Q.Q.n.",
"n.Q.Q.Q.Q.Q.Q.Q.Q.Q.Q.Q.Q.Q.Q.Q.Q.Q.Q.Q.Q.Q.Q.Q.Q.Q.Q.Q.Q.R.X.. + # = D # 5 - p 9 . Z.Q.Q.Q.Q.Q.Q.n.",
"n.Q.Q.Q.Q.Q.Q.Q.Q.Q.Q.Q.Q.Q.Q.Q.Q.Q.Q.Q.Q.Q.Q.Q.Q.Q.Q.Q.Q.Q.L.. - 0 o   p - p i u # Z.Q.Q.Q.Q.Q.Q.n.",
"n.Q.Q.Q.Q.Q.Q.Q.Q.Q.Q.Q.Q.Q.Q.Q.Q.Q.Q.Q.Q.Q.Q.Q.Q.Q.Q.Q.Q.E.8.. . 7 7 # p % u 8 < + Z.Q.Q.Q.Q.Q.Q.n.",
"n.Q.Q.Q.Q.Q.Q.Q.Q.Q.Q.Q.Q.Q.Q.Q.Q.Q.Q.Q.Q.Q.Q.Q.Q.Q.Q.Q.Q.U.l o . # r < r 7 L 5 . - 2.Q.Q.Q.Q.Q.Q.n.",
"n.Q.Q.Q.Q.Q.Q.Q.Q.Q.Q.Q.Q.Q.Q.Q.Q.Q.Q.Q.Q.Q.Q.Q.Q.Q.Q.Q.Q.V = . $ 5 r 8 q k.S.y.w # o Q.Q.Q.Q.Q.Q.n.",
"n.Q.Q.Q.Q.Q.Q.Q.Q.Q.Q.Q.Q.Q.Q.Q.Q.Q.Q.Q.Q.Q.Q.Q.Q.Q.Q.Q.Q.V.1 . u D p 8 0.O.-.i.F . n.Q.Q.Q.Q.Q.Q.n.",
"n.Q.Q.Q.Q.Q.Q.Q.Q.Q.Q.Q.Q.Q.Q.Q.Q.Q.Q.Q.Q.Q.Q.Q.Q.Q.Q.Q.Q.U.s X + <.K e A.u.. q.<.. L.Q.Q.Q.Q.Q.Q.n.",
"n.Q.Q.Q.Q.Q.Q.Q.Q.Q.Q.Q.Q.Q.Q.Q.Q.Q.Q.Q.Q.Q.Q.Q.E.1.O & a t W E , -.c k.T.Y.z.<.y D.W.Q.Q.Q.Q.Q.Q.n.",
"n.Q.Q.Q.Q.Q.Q.Q.Q.Q.Q.Q.Q.Q.Q.Q.Q.Q.U.Z.E.I.L.L.n.. t T s.R d U H M.M ( T.J.H.D.w.I.Q.Q.Q.Q.Q.Q.Q.n.",
"n.Q.Q.Q.Q.Q.Q.Q.Q.Q.Q.Q.Q.Q.Q.Q.Q.Q.c.o 9.x g Y :     g T X U Y A P &...N.F.N.w.V.Q.Q.Q.Q.Q.Q.Q.Q.n.",
"n.Q.Q.Q.Q.Q.Q.Q.Q.Q.Q.Q.Q.Q.Q.Q.Q.Q.c.: *   T a.p.:   R >   : ` : , 1.8.< :.6.Z.Q.Q.Q.Q.Q.Q.Q.Q.Q.n.",
"n.Q.Q.Q.Q.Q.Q.Q.Q.Q.Q.Q.Q.Q.Q.Q.Q.L.N a R & X s ! : t Y [     . l 2.J c.m.m.C.Q.Q.Q.Q.Q.Q.Q.Q.Q.Q.n.",
"n.Q.Q.Q.Q.Q.Q.Q.Q.Q.Q.Q.Q.Q.Q.W.L.;.t.=.E ; o : g   R s s   , B z ..C.W.Q.Q.Q.Q.Q.Q.Q.Q.Q.Q.Q.Q.Q.n.",
"n.Q.Q.Q.Q.Q.Q.Q.Q.Q.Q.Q.Q.Q.Q.I.6.l.j.+.f f * W |   > R > o J 9.* 3.E.Q.Q.Q.Q.Q.Q.Q.Q.Q.Q.Q.Q.Q.Q.n.",
"n.Q.Q.Q.Q.Q.Q.Q.Q.Q.Q.Q.Q.Q.Q.I.2.h.G.t.h t d a d.[ &   o J 1 , n 9.E.Q.Q.Q.Q.Q.Q.Q.Q.Q.Q.Q.Q.Q.Q.n.",
"n.Q.Q.Q.Q.Q.Q.Q.Q.Q.Q.Q.Q.Q.Q.W.D.;.g.r.y R X . h { t . < 8.1 9 t.f.B.E.Q.Q.Q.Q.Q.Q.Q.Q.Q.Q.Q.Q.Q.n.",
"n.Q.Q.Q.Q.Q.Q.Q.Q.Q.Q.Q.Q.Q.Q.Q.Q.m.X .   ` Y .     x &...%.N 9 / g.c D.Q.Q.Q.Q.Q.Q.Q.Q.Q.Q.Q.Q.Q.n.",
"n.Q.Q.Q.Q.Q.Q.Q.Q.Q.Q.Q.Q.Q.Q.Q.U.*.d t ; ' x.k   l b.V.C.m.c.^ / / 5.U.Q.Q.Q.Q.Q.Q.Q.Q.Q.Q.Q.Q.Q.n.",
"n.Q.Q.Q.Q.Q.Q.Q.Q.Q.Q.Q.Q.Q.Q.I.*.O T } d ] p.g , z @...7.%.;.B 9 9 Z.Q.Q.Q.Q.Q.Q.Q.Q.Q.Q.Q.Q.Q.Q.n.",
"n.Q.Q.Q.Q.Q.Q.Q.Q.Q.Q.Q.Q.Q.Q.E.n.  ` [ X O : 1 9 + o . 9 J J m l # N I.Q.Q.Q.Q.Q.Q.Q.Q.Q.Q.Q.Q.Q.n.",
"n.Q.Q.Q.Q.Q.Q.Q.Q.I. . .C.Q.Q.Q.E.9.j j     1 z o &.Z.N + z z v v 9 + N Q.Q.Q.Q.Q.Q.Q.Q.Q.Q.Q.Q.Q.n.",
"n.Q.Q.Q.Q.Q.Q.Q.V.#.b.o.# V.W.Q.Z.      9 u 9 < V Q.Q.Q.$.. # z B v u o Q.Q.Q.Q.Q.Q.Q.Q.Q.Q.Q.Q.Q.n.",
"n.Q.Q.Q.Q.Q.Q.Q._ 7.#.6 3 &.V.Z.n.  , u z v 9 1 3.Q.Q.Q.R.V # 9 u z z o Q.Q.Q.Q.Q.Q.Q.Q.Q.Q.Q.Q.Q.n.",
"n.Q.Q.Q.Q.Q.Q.Q.x 2.@ o v B.7.1 . + z m B z 9 3.Q.Q.Q.Q.Q.R.X.. < < . x Q.Q.Q.Q.Q.Q.Q.Q.Q.Q.Q.Q.Q.n.",
"n.Q.Q.Q.Q.Q.Q.Q.M 4.C 3 $.C.L.n.< # z v u < v.E.Q.Q.Q.Q.Q.Q.L.l 1.l   L.Q.Q.Q.Q.Q.Q.Q.Q.Q.Q.Q.Q.Q.n.",
"n.Q.Q.Q.Q.Q.Q.Q.8. .@ >.c.9.$.1., . 1 9 <   Q.Q.Q.Q.Q.Q.Q.Q.L.N Z.1.1.R.Q.Q.Q.Q.Q.Q.Q.Q.Q.Q.Q.Q.Q.n.",
"n.Q.Q.Q.Q.Q.Q.Q.E.P.L.U.Q.I.L.L.L.8.. o n.Z.Q.Q.Q.Q.Q.Q.Q.Q.L._ A.X.Z.Q.Q.Q.Q.Q.Q.Q.Q.Q.Q.Q.Q.Q.Q.n.",
"n.Q.Q.Q.Q.Q.Q.Q.Q.Q.Q.Q.Q.Q.Q.Q.Q.R.L.Z.E.Q.Q.Q.Q.Q.Q.Q.Q.Q.L.< n.7.L.Q.Q.Q.Q.Q.Q.Q.Q.Q.Q.Q.Q.Q.Q.n.",
"n.Q.Q.Q.Q.Q.Q.Q.Q.Q.Q.Q.Q.Q.Q.Q.Q.Q.Q.Q.Q.Q.Q.Q.Q.Q.Q.Q.Q.U.z % O & Z.Q.Q.Q.Q.Q.Q.Q.Q.Q.Q.Q.Q.Q.Q.n.",
"n.Q.Q.Q.Q.Q.Q.Q.Q.Q.Q.Q.Q.Q.Q.Q.Q.Q.Q.Q.Q.Q.Q.Q.Q.Q.Q.Q.Q.U.D Z o o L.Q.Q.Q.Q.Q.Q.Q.Q.Q.Q.Q.Q.Q.Q.n.",
"n.Q.Q.Q.Q.Q.Q.Q.Q.Q.Q.Q.Q.Q.Q.Q.Q.Q.Q.Q.Q.Q.Q.Q.Q.Q.Q.Q.Q.R.x b 4 # + n.Q.Q.Q.Q.Q.Q.Q.Q.Q.Q.Q.Q.Q.n.",
"n.Q.Q.Q.Q.Q.Q.Q.Q.Q.Q.Q.Q.Q.Q.Q.Q.Q.Q.Q.Q.Q.Q.Q.Q.Q.Q.Q.Q.R._ &.x G H N P.W.Q.Q.Q.Q.Q.Q.Q.Q.Q.Q.Q.n.",
"n.Q.Q.Q.Q.Q.Q.Q.Q.Q.Q.Q.Q.Q.Q.Q.Q.Q.Q.Q.Q.Q.Q.Q.Q.Q.Q.Q.Q.E.n.8.X.X.&.1.z U.Q.Q.Q.Q.Q.Q.Q.Q.Q.Q.Q.n.",
"n.Q.Q.Q.Q.Q.Q.Q.Q.Q.Q.Q.Q.Q.Q.Q.Q.Q.Q.Q.Q.Q.Q.Q.Q.Q.Q.Q.Q.Q.Q.U.x.y.c.c.n.E.Q.Q.Q.Q.Q.Q.Q.Q.Q.Q.Q.n.",
"n.Q.Q.Q.Q.Q.Q.Q.Q.Q.Q.Q.Q.Q.Q.Q.Q.Q.Q.Q.Q.Q.Q.Q.Q.Q.Q.Q.Q.Q.Q.Q.Q.W.Q.Q.Q.Q.Q.Q.Q.Q.Q.Q.Q.Q.Q.Q.Q.n.",
"n.Q.Q.Q.Q.Q.Q.Q.Q.Q.Q.Q.Q.Q.Q.Q.Q.Q.Q.Q.Q.Q.Q.Q.Q.Q.Q.Q.Q.Q.Q.Q.Q.Q.Q.Q.Q.Q.Q.Q.Q.Q.Q.Q.Q.Q.Q.Q.Q.n.",
"n.Q.Q.Q.Q.Q.Q.Q.Q.Q.Q.Q.Q.Q.Q.Q.Q.Q.Q.Q.Q.Q.Q.Q.Q.Q.Q.Q.Q.Q.Q.Q.Q.Q.Q.Q.Q.Q.Q.Q.Q.Q.Q.Q.Q.Q.Q.Q.Q.n.",
"n.Q.Q.Q.Q.Q.Q.Q.Q.Q.Q.Q.Q.Q.Q.Q.Q.Q.Q.Q.Q.Q.Q.Q.Q.Q.Q.Q.Q.Q.Q.Q.Q.Q.Q.Q.Q.Q.Q.Q.Q.Q.Q.Q.Q.Q.Q.Q.Q.n.",
"n.Q.Q.Q.Q.Q.Q.Q.Q.Q.Q.Q.Q.Q.Q.Q.Q.Q.Q.Q.Q.Q.Q.Q.Q.Q.Q.Q.Q.Q.Q.Q.Q.Q.Q.Q.Q.Q.Q.Q.Q.Q.Q.Q.Q.Q.Q.Q.Q.n.",
"n.Q.Q.Q.Q.Q.Q.Q.Q.Q.Q.Q.Q.Q.Q.Q.Q.Q.Q.Q.Q.Q.Q.Q.Q.Q.Q.Q.Q.Q.Q.Q.Q.Q.Q.Q.Q.Q.Q.Q.Q.Q.Q.Q.Q.Q.Q.Q.Q.n.",
"$.n.n.n.n.n.n.n.n.n.n.n.n.n.n.n.n.n.n.n.n.n.n.n.n.n.n.n.n.n.n.n.v.v.n.n.v.n.n.v.n.n.n.n.n.n.n.n.n.@."
};
