/* XPM */
static char *result[] = {
/* columns rows colors chars-per-pixel */
"50 50 178 2 ",
"   c #040404",
".  c #090607",
"X  c #050C09",
"o  c #0B0A0A",
"O  c #020A07",
"+  c #1A070A",
"@  c #130C0D",
"#  c #160A0C",
"$  c #05130E",
"%  c #140F10",
"&  c #1E0F12",
"*  c #071611",
"=  c #081712",
"-  c #071813",
";  c #0B1A15",
":  c #0D1F19",
">  c #141212",
",  c #1A1213",
"<  c #191817",
"1  c #171818",
"2  c #1D1B1B",
"3  c #20070B",
"4  c #28060B",
"5  c #38050D",
"6  c #2B151A",
"7  c #241B1C",
"8  c #2C191D",
"9  c #261215",
"0  c #31161B",
"q  c #3B1A1F",
"w  c #0D241C",
"e  c #0F281F",
"r  c #11221C",
"t  c #241F20",
"y  c #291F20",
"u  c #341D21",
"i  c #391C21",
"p  c #0D2C22",
"a  c #122B22",
"s  c #1D2623",
"d  c #0E3225",
"f  c #0E3A2B",
"g  c #133227",
"h  c #103428",
"j  c #18372C",
"k  c #143B2E",
"l  c #193B2F",
"z  c #143F31",
"x  c #1A3D31",
"c  c #242323",
"v  c #2C2324",
"b  c #2C2D2D",
"n  c #232F26",
"m  c #312426",
"M  c #322C25",
"N  c #3D262A",
"B  c #352C2D",
"V  c #382E2F",
"C  c #3F2C25",
"Z  c #253029",
"A  c #28312F",
"S  c #382F30",
"D  c #343434",
"F  c #3A3334",
"G  c #3D3D3D",
"H  c #4C0A0D",
"J  c #500410",
"K  c #580311",
"L  c #401F26",
"P  c #482022",
"I  c #44372D",
"U  c #4A2F32",
"Y  c #423B3C",
"T  c #483F3B",
"R  c #483536",
"E  c #513C35",
"W  c #7B3131",
"Q  c #0F4533",
"!  c #164233",
"~  c #184938",
"^  c #174838",
"/  c #3B403E",
"(  c #584739",
")  c #534339",
"_  c #1B5743",
"`  c #374641",
"'  c #255846",
"]  c #2A634E",
"[  c #276751",
"{  c #287057",
"}  c #2E745C",
"|  c #2B795F",
" . c #31745C",
".. c #327C62",
"X. c #444343",
"o. c #4A4747",
"O. c #4C4E4E",
"+. c #4C4845",
"@. c #574B49",
"#. c #57534B",
"$. c #554F50",
"%. c #535353",
"&. c #565A59",
"*. c #5C5C5C",
"=. c #634C43",
"-. c #674D4E",
";. c #64544B",
":. c #715147",
">. c #705E4C",
",. c #6A4C51",
"<. c #774C53",
"1. c #615D5B",
"2. c #6D5C5F",
"3. c #785F56",
"4. c #775D53",
"5. c #75604E",
"6. c #6B655A",
"7. c #766353",
"8. c #786055",
"9. c #635F60",
"0. c #646464",
"q. c #676868",
"w. c #696A6A",
"e. c #6E7070",
"r. c #747474",
"t. c #7C7C7C",
"y. c #7D7A77",
"u. c #76696A",
"i. c #B9363B",
"p. c #84705F",
"a. c #8A735F",
"s. c #806061",
"d. c #806960",
"f. c #867461",
"g. c #94776C",
"h. c #877A7D",
"j. c #A0776A",
"k. c #A77375",
"l. c #2D8164",
"z. c #429C7C",
"x. c #41A17F",
"c. c #97836B",
"v. c #9F917D",
"b. c #A38C77",
"n. c #B98A7C",
"m. c #B89A7E",
"M. c #A79378",
"N. c #CF7583",
"B. c #848484",
"V. c #8C8C8C",
"C. c #919191",
"Z. c #9D9C9B",
"A. c #B49F84",
"S. c #A2A3A3",
"D. c #ACACAC",
"F. c #AAA2A3",
"G. c #B4B4B4",
"H. c #BCBDBC",
"J. c #B6ACA7",
"K. c #C39280",
"L. c #D6B79A",
"P. c #DBA996",
"I. c #DFBDA2",
"U. c #EBBBA5",
"Y. c #EAC9AC",
"T. c #ECCFB1",
"R. c #F8CAB3",
"E. c #BEC0C0",
"W. c #C2C2C2",
"Q. c #CDCDCD",
"!. c #D0D0D0",
"~. c #DFDFDF",
"^. c #FFE4C1",
"/. c gray88",
"(. c #EDEDED",
"). c #FFEFE2",
"_. c #F7F7F7",
"`. c #FFFFFF",
/* pixels */
"%.C.C.C.C.C.C.C.C.C.C.C.C.C.C.C.C.C.C.C.C.C.C.C.C.C.C.C.C.C.C.C.C.C.C.C.C.C.C.C.C.C.C.C.C.C.C.C.C.%.",
"C.`.`.`.`.`.`.`.`.`.`.`.`.`.`.`.`.`.`.`.`.`.`.`.`.`.`.`.`.`.`.`.`.`.`.`.`.`.`.`.`.`.`.`.`.`.`.`.`.C.",
"C.`.`.`.`.`.`.`.`.`.`.`.`.`.`.`.`.`.`.`.`.`.`.`.`.`.`.`.`.`.`.`.`.`.`.`.`.`.`.`.`.`.`.`.`.`.`.`.`.C.",
"C.`.`.`.`.`.`.`.`.`.`.`.`.`.`.`.`.`.`.`.`.`.`.`.`.`.`.`.`.`.`.`.`.`.`.`.`.`.`.`.`.`.`.`.`.`.`.`.`.C.",
"C.`.`.`.`.`.`.`.`.`.`.`.`.`.`.`.`.`.`.`.`.`.`.`.`.`.`.`.`.`.`.`.`.`.`.`.`.`.`.`.`.`.`.`.`.`.`.`.`.C.",
"C.`.`.`.`.`.`.`.`.`.`.`.`.`.`.`.`.`.`.`.`.`.`.`.`.`.`.`.`.`.`.`.`.`.`.`.`.`.`.`.`.`.`.`.`.`.`.`.`.C.",
"C.`.`.`.`.`.`.`.`.`.`.`./.9.r.!.X.X.!.`.`.`.`.`.`.`.`.`.`.`.`.`.`.`.`.`.`.`.`.`.`.`.`.`.`.`.`.`.`.C.",
"C.`.`.`.`.`.`.`.`.`.(.G o o o % & . D._.`.`.`.`.`.`.`.`.`.`.`.`.`.`.`.`.`.`.`.`.`.`.`.`.`.`.`.`.`.C.",
"C.`.`.`.`.`.`.`.`.`.C.o , i i i 0 % 2 Q.`.`.`.`.`.`.`.`.`.`.`.`.`.`.`.`.`.`.`.`.`.`.`.`.`.`.`.`.`.C.",
"C.`.`.`.`.`.`.`.`.B.@ 8 i % 6 & m o @ o . X.`.`.`.`.`.`.`.`.`.`.`.`.`.`.`.`.`.`.`.`.`.`.`.`.`.`.`.C.",
"C.`.`.`.`.`.`.`.`.B., 8 i L # 6   # 0 @   r.`.`.`.`.`.`.`.`.`.`.`.`.`.`.`.`.`.`.`.`.`.`.`.`.`.`.`.C.",
"C.`.`.`.`.`.`.`.`.B.@ , 6 8 . q # 8 % . O S.`.`.`.`.`.`.`.`.`.`.`.`.`.`.`.`.`.`.`.`.`.`.`.`.`.`.`.C.",
"C.`.`.`.`.`.`.`.~.$., . ;.=.# q 8 0 . .   X.`.`.`.`.`.`.`.`.`.`.`.`.`.`.`.`.`.`.`.`.`.`.`.`.`.`.`.C.",
"C.`.`.`.`.`.`.`.E.o o L L.U.g.# 8 6 9 @ . 1 r.`.`.`.`.`.`.`.`.`.`.`.`.`.`.`.`.`.`.`.`.`.`.`.`.`.`.C.",
"C.`.`.`.`.`.`.`.(.0.. W n.) =.:.m 8 U & . c *.`.`.`.`.`.`.`.`.`.`.`.`.`.`.`.`.`.`.`.`.`.`.`.`.`.`.C.",
"C.`.`.`.`.`.`.`.`.B.. n.E   J.P.E 8.R o . ~.(.`.`.`.`.`.`.`.`.`.`.`.`.`.`.`.`.`.`.`.`.`.`.`.`.`.`.C.",
"C.`.`.`.`.`.`.`.`.`.B.M g.N.).R.4.@.T t . * ` H.E.E.Q._.`.`.`.`.`.`.`.`.`.`.`.`.`.`.`.`.`.`.`.`.`.C.",
"C.`.`.`.`.`.`.`.`.`.S.v.T.Y.^.I.P ;.k.u.= _ ^ e w $ 2 D.`.`.`.`.`.`.`.`.`.`.`.`.`.`.`.`.`.`.`.`.`.C.",
"C.`.`.`.`.`.`.`.`.`.`.B.g.K.Y.4.  H i.s.o ! g | ..f $   S.S.S.Q.W.D./.`.`.`.`.`.`.`.`.`.`.`.`.`.`.C.",
"C.`.`.`.`.`.`.`.`.`.`.`.S.d.=.  D w.%./ l ' p - k X     ! ' w X.D b W.`.`.`.`.`.`.`.`.`.`.`.`.`.`.C.",
"C.`.`.`.`.`.`.`.`.`.`.`._.D.r.  F *.F o p j     x r O z x.| * . w A E.`.`.`.`.`.`.`.`.`.`.`.`.`.`.C.",
"C.`.`.`.`.`.`.`.`.`.`.`.`.`.(.Z.2 > B.+.v .   x ' ! ; : l *   p ^ n +.(._.`.`.`.`.`.`.`.`.`.`.`.`.C.",
"C.`.`.`.`.`.`.`.`.`.`.`.`.`.`.(.0.. X.V v t   ; ; ..a   d     w d p.a.r.(.`.`.`.`.`.`.`.`.`.`.`.`.C.",
"C.`.`.`.`.`.`.`.`.`.`.`.`.`.`.`.`.S.X.< o y.v   p *   p x.d p Q w a.m.b.*.`.`.`.`.`.`.`.`.`.`.`.`.C.",
"C.`.`.`.`.`.`.`.`.`.`.`.`.`.`.`.`.(.D.#.M 7 v c O   e z.} $ w p n A.L.7.y.`.`.`.`.`.`.`.`.`.`.`.`.V.",
"C.`.`.`.`.`.`.`.`.`.`.`.`.`.`.`.`.!.6.M.4.= v $., . z  .    k ! I p.7.V.(.`.`.`.`.`.`.`.`.`.`.`.`.C.",
"C.`.`.`.`.`.`.`.`.`.`.`.`.`.`.`.`.t.c.5.) c *.9.t.q.1     ; ] g     . `.`.`.`.`.`.`.`.`.`.`.`.`.`.C.",
"C.`.`.`.`.`.`.`.`.`.`.`.`.`.`.`.`.!.@.( I t.S.D.G.S.e.o $ [ z._ $ d f B.(.`.`.`.`.`.`.`.`.`.`.`.`.C.",
"C.`.`.`.`.`.`.`.`.`.`.`.`.`.`.`.`.`.Q.1.D.D ) G F Y Y 7 < h | ! ] { p > q.`.`.`.`.`.`.`.`.`.`.`.`.C.",
"C.`.`.`.`.`.`.`.`.`.`.`.`.`.`.`.`.`.`.W.%.7 t > o 7 V V 7 < - O w ..a b G.`.`.`.`.`.`.`.`.`.`.`.`.C.",
"C.`.`.`.`.`.`.`.`.`.`.`.`.`.`.`.`.`.`.X.7 m F , . . 7 F 8 2   % o d s `._./.~.~._.`.`.`.`.`.`.`.`.C.",
"C.`.`.`.`.`.`.`.`.`.`.`.`.`.`.`.`.`.!.D 7 F B > . b c c S 2 o O.0.&.G._.F.N X.*.D.(.`.`.`.`.`.`.`.C.",
"C.`.`.`.`.`.`.`.`.`.`.`.`.`.`.`.`.`.G o 7 S 7 # c !.@.0 V v , . r.W.W.C.u J 2.W.&.W.`.`.`.`.`.`.`.C.",
"C.`.`.`.`.`.`.`.`.`.`.`.`.`.`.`.`.`.` . 7 F 2   z._.C.y m F m 7 o *.q.*.1 3 4 C.t.r.`.`.`.`.`.`.`.C.",
"C.`.`.`.`.`.`.`.`.`.`.`.`.`.`.`.`.`.G . 7 F 7 , o./.~.t c B v 7 o V.Q.S.0.o . <.h.b `.`.`.`.`.`.`.C.",
"C.`.`.`.`.`.`.`.`.`.`.`.`.`.`.`.`.`.!.D 7 y 8 7 , W._.W.@ t 8 , . t G A b o . + 9.b `.`.`.`.`.`.`.C.",
"C.`.`.`.`.`.`.`.`.`.`.`.`.`.`.`.`.`.`.G.7 o o o o W.`.`.C.@ 7 > y.W.W.W.W.E.W.O.s o `.`.`.`.`.`.`.C.",
"C.`.`.`.`.`.`.`.`.`.`.`.`.`.`.`.`.`.`.`.`.1 c G.t.G._.`.`.Q.c V.`.`.`.`.`.`.`.`.`.`.`.`.`.`.`.`.`.C.",
"C.`.`.`.`.`.`.`.`.`.`.`.`.`.`.`.`.`.`.`.`.D.G G.D.O.Q.`.`._.~.(.`.`.`.`.`.`.`.`.`.`.`.`.`.`.`.`.`.C.",
"C.`.`.`.`.`.`.`.`.`.`.`.`.`.`.`.`.`.`.`.`.`.W.D R K i /.`.`.`.`.`.`.`.`.`.`.`.`.`.`.`.`.`.`.`.`.`.C.",
"C.`.`.`.`.`.`.`.`.`.`.`.`.`.`.`.`.`.`.`.`.(.C.o 5 U D /.`.`.`.`.`.`.`.`.`.`.`.`.`.`.`.`.`.`.`.`.`.C.",
"C.`.`.`.`.`.`.`.`.`.`.`.`.`.`.`.`.`.`.`.`.0.+ 4 X.D.&./.`.`.`.`.`.`.`.`.`.`.`.`.`.`.`.`.`.`.`.`.`.C.",
"C.`.`.`.`.`.`.`.`.`.`.`.`.`.`.`.`.`.`.(.C.O.$.,.0.&.B.(.`.`.`.`.`.`.`.`.`.`.`.`.`.`.`.`.`.`.`.`.`.C.",
"C.`.`.`.`.`.`.`.`.`.`.`.`.`.`.`.`.`.`.`.`.`.`.`.`.`.`.`.`.`.`.`.`.`.`.`.`.`.`.`.`.`.`.`.`.`.`.`.`.C.",
"C.`.`.`.`.`.`.`.`.`.`.`.`.`.`.`.`.`.`.`.`.`.`.`.`.`.`.`.`.`.`.`.`.`.`.`.`.`.`.`.`.`.`.`.`.`.`.`.`.C.",
"C.`.`.`.`.`.`.`.`.`.`.`.`.`.`.`.`.`.`.`.`.`.`.`.`.`.`.`.`.`.`.`.`.`.`.`.`.`.`.`.`.`.`.`.`.`.`.`.`.C.",
"C.`.`.`.`.`.`.`.`.`.`.`.`.`.`.`.`.`.`.`.`.`.`.`.`.`.`.`.`.`.`.`.`.`.`.`.`.`.`.`.`.`.`.`.`.`.`.`.`.C.",
"C.`.`.`.`.`.`.`.`.`.`.`.`.`.`.`.`.`.`.`.`.`.`.`.`.`.`.`.`.`.`.`.`.`.`.`.`.`.`.`.`.`.`.`.`.`.`.`.`.C.",
"C.`.`.`.`.`.`.`.`.`.`.`.`.`.`.`.`.`.`.`.`.`.`.`.`.`.`.`.`.`.`.`.`.`.`.`.`.`.`.`.`.`.`.`.`.`.`.`.`.C.",
"%.C.C.C.C.C.C.C.C.C.C.C.C.C.C.C.C.C.C.C.C.C.C.C.C.C.C.C.C.C.C.V.C.C.C.C.C.C.C.C.C.C.C.C.C.C.C.C.C.%."
};
