/* XPM */
static char *result[] = {
/* columns rows colors chars-per-pixel */
"50 50 168 2 ",
"   c #030303",
".  c #080606",
"X  c #040907",
"o  c #0A0708",
"O  c #050E0B",
"+  c #0B0A0A",
"@  c #120C0D",
"#  c #1A0D0F",
"$  c #120709",
"%  c #04120D",
"&  c #15110E",
"*  c #1C0E10",
"=  c #061610",
"-  c #0A1C16",
";  c #0C1F18",
":  c #051912",
">  c #141313",
",  c #1C1415",
"<  c #1D1B1B",
"1  c #1F1914",
"2  c #20070B",
"3  c #38050D",
"4  c #260F13",
"5  c #241315",
"6  c #241619",
"7  c #241C1C",
"8  c #2D1A1E",
"9  c #2F1419",
"0  c #311518",
"q  c #301A1E",
"w  c #3A191E",
"e  c #3C151B",
"r  c #0C231B",
"t  c #0D291F",
"y  c #072219",
"u  c #10251D",
"i  c #24201D",
"p  c #2F1D20",
"a  c #341B20",
"s  c #3B1C22",
"d  c #0D2D23",
"f  c #112921",
"g  c #0F3A2C",
"h  c #123126",
"j  c #14352A",
"k  c #13392C",
"l  c #1D3328",
"z  c #163F31",
"x  c #1E3C32",
"c  c #242424",
"v  c #2C2324",
"b  c #2C2B2B",
"n  c #302723",
"m  c #382E26",
"M  c #312728",
"N  c #322B2C",
"B  c #3A2C28",
"V  c #3C342D",
"C  c #382F30",
"Z  c #2F3030",
"A  c #353434",
"S  c #3B3334",
"D  c #3F3738",
"F  c #3C3B3B",
"G  c #4E040F",
"H  c #50040F",
"J  c #470611",
"K  c #540612",
"L  c #401F26",
"P  c #591A23",
"I  c #432C2F",
"U  c #542323",
"Y  c #403738",
"T  c #433B3C",
"R  c #433531",
"E  c #5A3C37",
"W  c #0F4130",
"Q  c #114533",
"!  c #1C4134",
"~  c #154D3A",
"^  c #1F493A",
"/  c #45413E",
"(  c #5E4138",
")  c #1B5642",
"_  c #215342",
"`  c #205D48",
"'  c #2A614E",
"]  c #23604B",
"[  c #2C6A54",
"{  c #2F7059",
"}  c #444444",
"|  c #494747",
" . c #4E4748",
".. c #4F4E4E",
"X. c #574741",
"o. c #534D4E",
"O. c #5A554C",
"+. c #535353",
"@. c #5C5656",
"#. c #5D5C5C",
"$. c #635445",
"%. c #67544B",
"&. c #655A58",
"*. c #765E53",
"=. c #7D6656",
"-. c #7D6759",
";. c #5F6462",
":. c #646464",
">. c #6B6665",
",. c #6B6969",
"<. c #6F6964",
"1. c #726C6D",
"2. c #7F7669",
"3. c #747373",
"4. c #7D7D7D",
"5. c #7B7671",
"6. c #8E3442",
"7. c #8B4A4D",
"8. c #805F52",
"9. c #866B5B",
"0. c #806F69",
"q. c #8C7963",
"w. c #957766",
"e. c #817F7B",
"r. c #8D7374",
"t. c #A16063",
"y. c #C07B71",
"u. c #2D8164",
"i. c #37886B",
"p. c #3B8E70",
"a. c #399475",
"s. c #96856D",
"d. c #AC8B7B",
"f. c #B28C7D",
"g. c #B89A7E",
"h. c #CD7982",
"j. c #4BB18C",
"k. c #838585",
"l. c gray56",
"z. c #868989",
"x. c #97898B",
"c. c #919191",
"v. c #9E9E9E",
"b. c #9A9596",
"n. c #A68C8D",
"m. c #BA9982",
"M. c #A2A2A2",
"N. c gray67",
"B. c #B3B3B3",
"V. c #BDBDBD",
"C. c #D9BF9D",
"Z. c #D7BBA2",
"A. c #E5B6A0",
"S. c #DFC5A8",
"D. c #E5C1A7",
"F. c #EFCEB0",
"G. c #FADDBC",
"H. c #FFE0BF",
"J. c #C1C1C1",
"K. c #CCCCCC",
"L. c gray82",
"P. c #DEDEDE",
"I. c #F4D4CF",
"U. c #FFE8C8",
"Y. c #E3E2E2",
"T. c #ECECEC",
"R. c gray96",
"E. c #FFFFFF",
/* pixels */
"+.c.c.c.c.c.c.c.c.c.c.c.c.c.c.c.c.c.c.c.c.c.c.c.c.c.c.c.c.c.c.c.l.l.l.l.l.c.l.c.c.c.c.c.c.c.c.c.c.+.",
"c.E.E.E.E.E.E.E.E.E.E.E.E.E.E.E.E.E.E.E.E.E.E.E.E.E.E.E.E.E.E.E.E.E.E.E.E.E.E.E.E.E.E.E.E.E.E.E.E.c.",
"c.E.E.E.E.E.E.E.E.E.E.E.E.E.E.E.E.E.E.E.E.E.E.E.E.E.E.E.E.E.E.E.E.E.E.E.E.E.E.E.E.E.E.E.E.E.E.E.E.c.",
"c.E.E.E.E.E.E.E.E.E.E.E.E.E.E.E.E.E.E.E.E.E.E.E.E.E.E.E.E.E.E.E.E.E.E.E.E.E.E.E.E.E.E.E.E.E.E.E.E.c.",
"c.E.E.E.E.E.E.E.E.E.E.E.E.E.E.E.E.E.E.E.E.E.E.E.E.E.E.E.E.E.E.E.E.E.E.E.E.E.E.E.E.E.E.E.E.E.E.E.E.c.",
"c.E.E.E.E.E.E.E.E.E.E.E.E.E.E.E.E.E.E.E.E.E.E.E.E.E.E.E.E.E.E.E.E.E.E.E.E.E.E.E.E.E.E.E.E.E.E.E.E.c.",
"c.E.E.E.E.E.E.E.E.E.E.3.#.T.} } M.E.E.E.E.E.E.E.E.E.E.E.E.E.E.E.E.E.E.E.E.E.E.E.E.E.E.E.E.E.E.E.E.c.",
"c.E.E.E.E.E.E.E.R.3.o + + o 4 + 3.T.E.E.E.E.E.E.E.E.E.E.E.E.E.E.E.E.E.E.E.E.E.E.E.E.E.E.E.E.E.E.E.c.",
"c.E.E.E.E.E.E.E.K., + s s s 0 5 < c.E.E.E.E.E.E.E.E.E.E.E.E.E.E.E.E.E.E.E.E.E.E.E.E.E.E.E.E.E.E.E.c.",
"c.E.E.E.E.E.E.J.. 6 s * 5 $ I @ + + . c P.E.E.E.E.E.E.E.E.E.E.E.E.E.E.E.E.E.E.E.E.E.E.E.E.E.E.E.E.c.",
"c.E.E.E.E.E.E.J.@ p a B * a   o q * . ..T.E.E.E.E.E.E.E.E.E.E.E.E.E.E.E.E.E.E.E.E.E.E.E.E.E.E.E.E.c.",
"c.E.E.E.E.E.E.J.+ * 5 8 $ s @ 5 , + . 3.T.E.E.E.E.E.E.E.E.E.E.E.E.E.E.E.E.E.E.E.E.E.E.E.E.E.E.E.E.c.",
"c.E.E.E.E.E.E.>., o 5 E 5 L 6 w $ . . c Y.E.E.E.E.E.E.E.E.E.E.E.E.E.E.E.E.E.E.E.E.E.E.E.E.E.E.E.E.c.",
"c.E.E.E.E.E.E.+ @ 0 t.A.f.5 6 a 5 # . > F E.E.E.E.E.E.E.E.E.E.E.E.E.E.E.E.E.E.E.E.E.E.E.E.E.E.E.E.c.",
"c.E.E.E.E.E.E.c.o U y.%.( =.< a B p . < c E.E.E.E.E.E.E.E.E.E.E.E.E.E.E.E.E.E.E.E.E.E.E.E.E.E.E.E.c.",
"c.E.E.E.E.E.E.J.. *.0.o s.Z.p S -.+ . N.Y.E.E.E.E.E.E.E.E.E.E.E.E.E.E.E.E.E.E.E.E.E.E.E.E.E.E.E.E.c.",
"l.E.E.E.E.E.E.E.S.i 9.h.I.U.f.v &.v + O ; J.J.J.J.T.E.E.E.E.E.E.E.E.E.E.E.E.E.E.E.E.E.E.E.E.E.E.E.l.",
"l.E.E.E.E.E.E.E.K.0.Z.F.G.H.( b n.r.p Q ) r d % O c.T.E.E.E.E.E.E.E.E.E.E.E.E.E.E.E.E.E.E.E.E.E.E.c.",
"l.E.E.E.E.E.E.E.E.N.2.g.D.d.  > 7.t.f f f ] a.Q -   3.M.M.V.L.M.P.E.E.E.E.E.E.E.E.E.E.E.E.E.E.E.E.c.",
"l.E.E.E.E.E.E.E.E.E.V.2.*.@ c :.;.} x _ z % k -     j ` f c } . v.E.E.E.E.E.E.E.E.E.E.E.E.E.E.E.E.c.",
"l.E.E.E.E.E.E.E.E.E.E.B.v.v.b.#.} > ; k .   ; !   j i.a.r   - ; M.E.E.E.E.E.E.E.E.E.E.E.E.E.E.E.E.c.",
"c.E.E.E.E.E.E.E.E.E.E.E.E.E.R.M.1.>.b +   ; [ z t - j r   = ~ j F S.R.E.E.E.E.E.E.E.E.E.E.E.E.E.E.c.",
"l.E.E.E.E.E.E.E.E.E.E.E.E.E.E.T.l.T v p   O r _ _   r %   : k O.q.>.K.E.E.E.E.E.E.E.E.E.E.E.E.E.E.c.",
"l.E.E.E.E.E.E.E.E.E.E.E.E.E.E.E.E.k.o :.T . = f   u p.~ r W t $.g.m.V E.E.E.E.E.E.E.E.E.E.E.E.E.E.c.",
"l.E.E.E.E.E.E.E.E.E.E.E.E.E.E.E.P.e.M c p C + X O i.i.- d d l q.C.q.+.E.E.E.E.E.E.E.E.E.E.E.E.E.E.c.",
"l.E.E.E.E.E.E.E.E.E.E.E.E.E.E.T.5.s.9.i . ,.< + r [ -   - ) m 9.=.5.P.E.E.E.E.E.E.E.E.E.E.E.E.E.E.c.",
"c.E.E.E.E.E.E.E.E.E.E.E.E.E.E.V.$.q.@ +.;.@.3.3.Z       ] ^   X X J.E.E.E.E.E.E.E.E.E.E.E.E.E.E.E.c.",
"c.E.E.E.E.E.E.E.E.E.E.E.E.E.E.Y.<.7   z.b.V.M.B.z.< X k j.[ : r g :.L.E.E.E.E.E.E.E.E.E.E.E.E.E.E.c.",
"c.E.E.E.E.E.E.E.E.E.E.E.E.E.E.L.u   . S D o.D T  .D v ; u.) ) u.k + Z E.E.E.E.E.E.E.E.E.E.E.E.E.E.c.",
"c.E.E.E.E.E.E.E.E.E.E.E.E.E.K.Z # i N C Z p < @ < v S N - O - { Q , l.E.E.E.E.E.E.E.E.E.E.E.E.E.E.c.",
"c.E.E.E.E.E.E.E.E.E.E.E.E.E.V.% D S i 6 + . O p p f & 7 M     y - N.P.Y.E.E.E.E.E.E.E.E.E.E.E.E.E.c.",
"c.E.E.E.E.E.E.E.E.E.E.E.E.E.S.+ i v 6 > . } ,.P.P.Y.:.v N & + > b N b } V.E.E.E.E.E.E.E.E.E.E.E.E.c.",
"c.E.E.E.E.E.E.E.E.E.E.E.E.E.K.A 6 M C p X K.E.E.E.E.T.1.6 7 M S Y Y n . _ E.E.E.E.E.E.E.E.E.E.E.E.c.",
"c.E.E.E.E.E.E.E.E.E.E.E.E.E.E.J.o & 7 p 3.+.v.E.E.E.E.E.  > 7 M N M p , } E.E.E.E.E.E.E.E.E.E.E.E.c.",
"c.E.E.E.E.E.E.E.E.E.E.E.E.E.E.P.e.4.C f N.A c J.E.E.E.E.4.:., 7 7 p 7 < c B.E.E.E.E.E.E.E.E.E.E.E.c.",
"c.E.E.E.E.E.E.E.E.E.E.E.E.E.E.E.E.E.L.N.A * H b M.E.E.E.E.R.:., p 7 7 S c.&.@...@.L.E.E.E.E.E.E.E.c.",
"c.E.E.E.E.E.E.E.E.E.E.E.E.E.E.E.E.E.E.P.c + 3 3 c L.E.E.E.E.P.:.. . . F v.B.F J 4 S E.E.E.E.E.E.E.c.",
"c.E.E.E.E.E.E.E.E.E.E.E.E.E.E.E.E.E.E.K.c # ..V.:.K.E.E.E.E.E.E.E.E.E.K.| o.F $ K 0 Y.E.E.E.E.E.E.c.",
"c.E.E.E.E.E.E.E.E.E.E.E.E.E.E.E.E.E.E.+.+ 6.M.c 4.R.E.E.E.E.E.E.E.E.E.R.Y.b.@ G e :.#.Y.E.E.E.E.E.c.",
"c.E.E.E.E.E.E.E.E.E.E.E.E.E.E.E.E.E.E.4.z.4.} M.E.E.E.E.E.E.E.E.E.E.E.E.E.E.E.:.8 4.} P.E.E.E.E.E.c.",
"c.E.E.E.E.E.E.E.E.E.E.E.E.E.E.E.E.E.E.Y.#.3.E.E.E.E.E.E.E.E.E.E.E.E.E.E.E.E.E.:.P x.} Y.E.E.E.E.E.c.",
"c.E.E.E.E.E.E.E.E.E.E.E.E.E.E.E.E.E.E.E.E.E.E.E.E.E.E.E.E.E.E.E.E.E.E.E.E.E.E.B.Z D M.T.E.E.E.E.E.c.",
"c.E.E.E.E.E.E.E.E.E.E.E.E.E.E.E.E.E.E.E.E.E.E.E.E.E.E.E.E.E.E.E.E.E.E.E.E.E.E.E.M.k.E.E.E.E.E.E.E.c.",
"c.E.E.E.E.E.E.E.E.E.E.E.E.E.E.E.E.E.E.E.E.E.E.E.E.E.E.E.E.E.E.E.E.E.E.E.E.E.E.E.E.E.E.E.E.E.E.E.E.c.",
"c.E.E.E.E.E.E.E.E.E.E.E.E.E.E.E.E.E.E.E.E.E.E.E.E.E.E.E.E.E.E.E.E.E.E.E.E.E.E.E.E.E.E.E.E.E.E.E.E.c.",
"c.E.E.E.E.E.E.E.E.E.E.E.E.E.E.E.E.E.E.E.E.E.E.E.E.E.E.E.E.E.E.E.E.E.E.E.E.E.E.E.E.E.E.E.E.E.E.E.E.c.",
"c.E.E.E.E.E.E.E.E.E.E.E.E.E.E.E.E.E.E.E.E.E.E.E.E.E.E.E.E.E.E.E.E.E.E.E.E.E.E.E.E.E.E.E.E.E.E.E.E.c.",
"c.E.E.E.E.E.E.E.E.E.E.E.E.E.E.E.E.E.E.E.E.E.E.E.E.E.E.E.E.E.E.E.E.E.E.E.E.E.E.E.E.E.E.E.E.E.E.E.E.c.",
"c.E.E.E.E.E.E.E.E.E.E.E.E.E.E.E.E.E.E.E.E.E.E.E.E.E.E.E.E.E.E.E.E.E.E.E.E.E.E.E.E.E.E.E.E.E.E.E.E.c.",
"+.c.c.c.c.c.c.c.c.c.c.c.c.c.c.c.c.c.c.c.c.c.c.c.c.c.c.c.c.c.c.c.l.l.c.l.c.c.c.c.c.c.c.c.c.c.c.c.c.+."
};
