/* XPM */
static char *result[] = {
/* columns rows colors chars-per-pixel */
"50 50 168 2 ",
"   c #030303",
".  c #080606",
"X  c #040907",
"o  c #0A0708",
"O  c #050E0B",
"+  c #0B0A0A",
"@  c #120C0D",
"#  c #1A0D0F",
"$  c #120709",
"%  c #04120D",
"&  c #15110E",
"*  c #1C0E10",
"=  c #061610",
"-  c #0A1C16",
";  c #0C1F18",
":  c #051912",
">  c #141313",
",  c #1C1415",
"<  c #1D1B1B",
"1  c #1F1914",
"2  c #20070B",
"3  c #38050D",
"4  c #260F13",
"5  c #241315",
"6  c #241619",
"7  c #241C1C",
"8  c #2D1A1E",
"9  c #2F1419",
"0  c #311518",
"q  c #301A1E",
"w  c #3A191E",
"e  c #3C151B",
"r  c #0C231B",
"t  c #0D291F",
"y  c #072219",
"u  c #10251D",
"i  c #24201D",
"p  c #2F1D20",
"a  c #341B20",
"s  c #3B1C22",
"d  c #0D2D23",
"f  c #112921",
"g  c #0F3A2C",
"h  c #123126",
"j  c #14352A",
"k  c #13392C",
"l  c #1D3328",
"z  c #163F31",
"x  c #1E3C32",
"c  c #242424",
"v  c #2C2324",
"b  c #2C2B2B",
"n  c #302723",
"m  c #382E26",
"M  c #312728",
"N  c #322B2C",
"B  c #3A2C28",
"V  c #3C342D",
"C  c #382F30",
"Z  c #2F3030",
"A  c #353434",
"S  c #3B3334",
"D  c #3F3738",
"F  c #3C3B3B",
"G  c #4E040F",
"H  c #50040F",
"J  c #470611",
"K  c #540612",
"L  c #401F26",
"P  c #591A23",
"I  c #432C2F",
"U  c #542323",
"Y  c #403738",
"T  c #433B3C",
"R  c #433531",
"E  c #5A3C37",
"W  c #0F4130",
"Q  c #114533",
"!  c #1C4134",
"~  c #154D3A",
"^  c #1F493A",
"/  c #45413E",
"(  c #5E4138",
")  c #1B5642",
"_  c #215342",
"`  c #205D48",
"'  c #2A614E",
"]  c #23604B",
"[  c #2C6A54",
"{  c #2F7059",
"}  c #444444",
"|  c #494747",
" . c #4E4748",
".. c #4F4E4E",
"X. c #574741",
"o. c #534D4E",
"O. c #5A554C",
"+. c #535353",
"@. c #5C5656",
"#. c #5D5C5C",
"$. c #635445",
"%. c #67544B",
"&. c #655A58",
"*. c #765E53",
"=. c #7D6656",
"-. c #7D6759",
";. c #5F6462",
":. c #646464",
">. c #6B6665",
",. c #6B6969",
"<. c #6F6964",
"1. c #726C6D",
"2. c #7F7669",
"3. c #747373",
"4. c #7D7D7D",
"5. c #7B7671",
"6. c #8E3442",
"7. c #8B4A4D",
"8. c #805F52",
"9. c #866B5B",
"0. c #806F69",
"q. c #8C7963",
"w. c #957766",
"e. c #817F7B",
"r. c #8D7374",
"t. c #A16063",
"y. c #C07B71",
"u. c #2D8164",
"i. c #37886B",
"p. c #3B8E70",
"a. c #399475",
"s. c #96856D",
"d. c #AC8B7B",
"f. c #B28C7D",
"g. c #B89A7E",
"h. c #CD7982",
"j. c #4BB18C",
"k. c #838585",
"l. c gray56",
"z. c #868989",
"x. c #97898B",
"c. c #919191",
"v. c #9E9E9E",
"b. c #9A9596",
"n. c #A68C8D",
"m. c #BA9982",
"M. c #A2A2A2",
"N. c gray67",
"B. c #B3B3B3",
"V. c #BDBDBD",
"C. c #D9BF9D",
"Z. c #D7BBA2",
"A. c #E5B6A0",
"S. c #DFC5A8",
"D. c #E5C1A7",
"F. c #EFCEB0",
"G. c #FADDBC",
"H. c #FFE0BF",
"J. c #C1C1C1",
"K. c #CCCCCC",
"L. c gray82",
"P. c #DEDEDE",
"I. c #F4D4CF",
"U. c #FFE8C8",
"Y. c #E3E2E2",
"T. c #ECECEC",
"R. c gray96",
"E. c #FFFFFF",
/* pixels */
"+.c.c.c.c.c.c.c.c.c.c.c.c.c.c.c.c.c.c.c.c.c.c.c.c.c.c.c.c.c.c.c.c.c.c.c.c.c.c.c.c.c.c.c.c.c.c.c.c.+.",
"c.E.E.E.E.E.E.E.E.E.E.E.E.E.E.E.E.E.E.E.E.E.E.E.E.E.E.E.E.E.E.E.E.E.E.E.E.E.E.E.E.E.E.E.E.E.E.E.E.c.",
"c.E.E.E.E.E.E.E.E.E.E.E.E.E.E.E.E.E.E.E.E.E.E.E.E.E.E.E.E.E.E.E.E.E.E.E.E.E.E.E.E.E.E.E.E.E.E.E.E.c.",
"c.E.E.E.E.E.E.E.E.E.E.E.E.E.E.E.E.E.E.E.E.E.E.E.E.E.E.E.E.E.E.E.E.E.E.E.E.E.E.E.E.E.E.E.E.E.E.E.E.c.",
"c.E.E.E.E.E.E.E.E.E.E.E.E.E.E.E.E.E.E.E.E.E.E.E.E.E.E.E.E.E.E.E.E.E.E.E.E.E.E.E.E.E.E.E.E.E.E.E.E.c.",
"c.E.E.E.E.E.E.E.E.E.E.E.E.E.E.E.E.E.E.E.E.E.E.E.E.E.E.E.E.E.E.E.E.E.E.E.E.E.E.E.E.E.E.E.E.E.E.E.E.c.",
"c.E.E.E.E.E.E.E.E.E.E.E.E.E.E.E.E.E.E.E.E.E.E.E.E.E.E.E.E.E.E.E.E.M.} } T.@.3.E.E.E.E.E.E.E.E.E.E.c.",
"c.E.E.E.E.E.E.E.E.E.E.E.E.E.E.E.E.E.E.E.E.E.E.E.E.E.E.E.E.E.E.E.T.3.+ 5 + + + o 3.R.E.E.E.E.E.E.E.c.",
"c.E.E.E.E.E.E.E.E.E.E.E.E.E.E.E.E.E.E.E.E.E.E.E.E.E.E.E.E.E.E.E.c., 5 8 s s s + > K.E.E.E.E.E.E.E.c.",
"c.E.E.E.E.E.E.E.E.E.E.E.E.E.E.E.E.E.E.E.E.E.E.E.E.E.E.E.E.P.c . o @ @ I @ 5 * s 6 o J.E.E.E.E.E.E.c.",
"c.E.E.E.E.E.E.E.E.E.E.E.E.E.E.E.E.E.E.E.E.E.E.E.E.E.E.E.E.T...o * p o   s * s a 8 @ J.E.E.E.E.E.E.c.",
"c.E.E.E.E.E.E.E.E.E.E.E.E.E.E.E.E.E.E.E.E.E.E.E.E.E.E.E.E.T.3.o . 5 5 @ s $ p 6 , + J.E.E.E.E.E.E.c.",
"c.E.E.E.E.E.E.E.E.E.E.E.E.E.E.E.E.E.E.E.E.E.E.E.E.E.E.E.E.P.c o   $ w 6 e 4 E 4 o 5 ,.E.E.E.E.E.E.c.",
"c.E.E.E.E.E.E.E.E.E.E.E.E.E.E.E.E.E.E.E.E.E.E.E.E.E.E.E.E.F = o * 4 a 6 6 m.A.w.0 @ o E.E.E.E.E.E.c.",
"c.E.E.E.E.E.E.E.E.E.E.E.E.E.E.E.E.E.E.E.E.E.E.E.E.E.E.E.E.c < o a C a 6 8.X.%.y.U o c.E.E.E.E.E.E.c.",
"c.E.E.E.E.E.E.E.E.E.E.E.E.E.E.E.E.E.E.E.E.E.E.E.E.E.E.E.E.P.N.o @ *.R a Z.e.  9.=.. J.E.E.E.E.E.E.c.",
"c.E.E.E.E.E.E.E.E.E.E.E.E.E.E.E.E.E.E.E.E.E.E.E.T.J.J.J.V.- % o c %.n f.U.I.h.-.< J.E.E.E.E.E.E.E.c.",
"c.E.E.E.E.E.E.E.E.E.E.E.E.E.E.E.E.E.E.E.E.E.E.T.c.% % f r ) z f r.n.b ( U.G.F.S.2.L.E.E.E.E.E.E.E.c.",
"c.E.E.E.E.E.E.E.E.E.E.E.E.E.E.E.E.P.M.L.V.M.M.4.. : Q a.] d h p t.7.>   d.D.m.3.N.E.E.E.E.E.E.E.E.c.",
"c.E.E.E.E.E.E.E.E.E.E.E.E.E.E.E.E.M.o } c f ' h     - k O z ) x } :.:.v @ %.0.S.E.E.E.E.E.E.E.E.E.c.",
"c.E.E.E.E.E.E.E.E.E.E.E.E.E.E.E.E.M.y -   y a.i.j   x ;   X k ; , } #.b.M.v.B.E.E.E.E.E.E.E.E.E.E.c.",
"c.E.E.E.E.E.E.E.E.E.E.E.E.E.E.R.S./ l ~ %   r j - t z [ ;   + M ,.1.M.T.E.E.E.E.E.E.E.E.E.E.E.E.E.c.",
"c.E.E.E.E.E.E.E.E.E.E.E.E.E.E.K.;.s.O.g %   O t   _ ) u O . v v Y l.T.E.E.E.E.E.E.E.E.E.E.E.E.E.E.c.",
"c.E.E.E.E.E.E.E.E.E.E.E.E.E.E.V n.m.O.t Q r ~ p.u   d = . T :.o k.E.E.E.E.E.E.E.E.E.E.E.E.E.E.E.E.c.",
"c.E.E.E.E.E.E.E.E.E.E.E.E.E.E.o.q.C.q.l t d - i.i.O X o A 7 i m e.P.E.E.E.E.E.E.E.E.E.E.E.E.E.E.E.c.",
"c.E.E.E.E.E.E.E.E.E.E.E.E.E.E.P.5.=.-.m ) -   - [ r . 7 ,.+ i -.s.5.T.E.E.E.E.E.E.E.E.E.E.E.E.E.E.c.",
"c.E.E.E.E.E.E.E.E.E.E.E.E.E.E.E.J.X X   ^ '       Z 3.3.@.:.+.& q.$.V.E.E.E.E.E.E.E.E.E.E.E.E.E.E.c.",
"c.E.E.E.E.E.E.E.E.E.E.E.E.E.E.L.;.g t : [ j.z X < k.B.M.V.b.z.  1 <.T.E.E.E.E.E.E.E.E.E.E.E.E.E.E.c.",
"c.E.E.E.E.E.E.E.E.E.E.E.E.E.E.Z O g u._ ) { t b S  .T Y ..D A     < L.E.E.E.E.E.E.E.E.E.E.E.E.E.E.c.",
"c.E.E.E.E.E.E.E.E.E.E.E.E.E.E.l., ! { - O - b S M < & 6 7 S C N i @ A K.E.E.E.E.E.E.E.E.E.E.E.E.E.c.",
"c.E.E.E.E.E.E.E.E.E.E.E.E.E.T.P.N.y r     M < > c p f @ . o 6 v D S @ V.E.E.E.E.E.E.E.E.E.E.E.E.E.c.",
"c.E.E.E.E.E.E.E.E.E.E.E.E.V.} b b v > o > b v :.P.P.P.,.} . & < v v o V.E.E.E.E.E.E.E.E.E.E.E.E.E.c.",
"c.E.E.E.E.E.E.E.E.E.E.E.E./ . v S Y S M 7 6 1.T.E.E.E.E.L.  p A v 7 A L.E.E.E.E.E.E.E.E.E.E.E.E.E.c.",
"c.E.E.E.E.E.E.E.E.E.E.E.E.} , v N B v p > X E.E.E.E.E.M.+.3.p < & o V.E.E.E.E.E.E.E.E.E.E.E.E.E.E.c.",
"c.E.E.E.E.E.E.E.E.E.E.E.B.c , 7 v 7 7 , :.4.E.E.E.E.Z.l S N.f b 4.4.P.E.E.E.E.E.E.E.E.E.E.E.E.E.E.c.",
"c.E.E.E.E.E.E.E.K.#...@.#.c.A p 7 7 , :.T.E.E.E.E.M.b J 2 Y N.L.E.E.E.E.E.E.E.E.E.E.E.E.E.E.E.E.E.c.",
"c.E.E.E.E.E.E.E.A 4 J F B.M.D o o o :.P.E.E.E.E.K.c 3 3 o c P.E.E.E.E.E.E.E.E.E.E.E.E.E.E.E.E.E.E.c.",
"c.E.E.E.E.E.E.T.0 K @ F o.| K.E.E.E.E.E.E.E.E.E.K.:.V...* c K.E.E.E.E.E.E.E.E.E.E.E.E.E.E.E.E.E.E.c.",
"c.E.E.E.E.E.Y.#.:.e G @ b.Y.R.E.E.E.E.E.E.E.E.E.R.4.c M.6.+ +.E.E.E.E.E.E.E.E.E.E.E.E.E.E.E.E.E.E.c.",
"c.E.E.E.E.E.P.} 4.8 :.E.E.E.E.E.E.E.E.E.E.E.E.E.E.E.M.} 4.z.4.E.E.E.E.E.E.E.E.E.E.E.E.E.E.E.E.E.E.c.",
"c.E.E.E.E.E.P.} x.P :.E.E.E.E.E.E.E.E.E.E.E.E.E.E.E.E.E.3.#.Y.E.E.E.E.E.E.E.E.E.E.E.E.E.E.E.E.E.E.c.",
"c.E.E.E.E.E.T.M.F N B.E.E.E.E.E.E.E.E.E.E.E.E.E.E.E.E.E.E.E.E.E.E.E.E.E.E.E.E.E.E.E.E.E.E.E.E.E.E.c.",
"c.E.E.E.E.E.E.E.k.M.E.E.E.E.E.E.E.E.E.E.E.E.E.E.E.E.E.E.E.E.E.E.E.E.E.E.E.E.E.E.E.E.E.E.E.E.E.E.E.c.",
"c.E.E.E.E.E.E.E.E.E.E.E.E.E.E.E.E.E.E.E.E.E.E.E.E.E.E.E.E.E.E.E.E.E.E.E.E.E.E.E.E.E.E.E.E.E.E.E.E.c.",
"c.E.E.E.E.E.E.E.E.E.E.E.E.E.E.E.E.E.E.E.E.E.E.E.E.E.E.E.E.E.E.E.E.E.E.E.E.E.E.E.E.E.E.E.E.E.E.E.E.c.",
"c.E.E.E.E.E.E.E.E.E.E.E.E.E.E.E.E.E.E.E.E.E.E.E.E.E.E.E.E.E.E.E.E.E.E.E.E.E.E.E.E.E.E.E.E.E.E.E.E.c.",
"c.E.E.E.E.E.E.E.E.E.E.E.E.E.E.E.E.E.E.E.E.E.E.E.E.E.E.E.E.E.E.E.E.E.E.E.E.E.E.E.E.E.E.E.E.E.E.E.E.c.",
"c.E.E.E.E.E.E.E.E.E.E.E.E.E.E.E.E.E.E.E.E.E.E.E.E.E.E.E.E.E.E.E.E.E.E.E.E.E.E.E.E.E.E.E.E.E.E.E.E.c.",
"c.E.E.E.E.E.E.E.E.E.E.E.E.E.E.E.E.E.E.E.E.E.E.E.E.E.E.E.E.E.E.E.E.E.E.E.E.E.E.E.E.E.E.E.E.E.E.E.E.c.",
"+.c.c.c.c.c.c.c.c.c.c.c.c.c.c.c.c.c.c.c.c.c.c.c.c.c.c.c.c.c.c.c.c.c.c.c.c.c.c.c.c.c.c.c.c.c.c.c.c.+."
};
