/* XPM */
static char *result[] = {
/* columns rows colors chars-per-pixel */
"50 50 178 2 ",
"   c #040404",
".  c #090607",
"X  c #050C09",
"o  c #0B0A0A",
"O  c #020A07",
"+  c #1A070A",
"@  c #130C0D",
"#  c #160A0C",
"$  c #05130E",
"%  c #140F10",
"&  c #1E0F12",
"*  c #071611",
"=  c #081712",
"-  c #071813",
";  c #0B1A15",
":  c #0D1F19",
">  c #141212",
",  c #1A1213",
"<  c #191817",
"1  c #171818",
"2  c #1D1B1B",
"3  c #20070B",
"4  c #28060B",
"5  c #38050D",
"6  c #2B151A",
"7  c #241B1C",
"8  c #2C191D",
"9  c #261215",
"0  c #31161B",
"q  c #3B1A1F",
"w  c #0D241C",
"e  c #0F281F",
"r  c #11221C",
"t  c #241F20",
"y  c #291F20",
"u  c #341D21",
"i  c #391C21",
"p  c #0D2C22",
"a  c #122B22",
"s  c #1D2623",
"d  c #0E3225",
"f  c #0E3A2B",
"g  c #133227",
"h  c #103428",
"j  c #18372C",
"k  c #143B2E",
"l  c #193B2F",
"z  c #143F31",
"x  c #1A3D31",
"c  c #242323",
"v  c #2C2324",
"b  c #2C2D2D",
"n  c #232F26",
"m  c #312426",
"M  c #322C25",
"N  c #3D262A",
"B  c #352C2D",
"V  c #382E2F",
"C  c #3F2C25",
"Z  c #253029",
"A  c #28312F",
"S  c #382F30",
"D  c #343434",
"F  c #3A3334",
"G  c #3D3D3D",
"H  c #4C0A0D",
"J  c #500410",
"K  c #580311",
"L  c #401F26",
"P  c #482022",
"I  c #44372D",
"U  c #4A2F32",
"Y  c #423B3C",
"T  c #483F3B",
"R  c #483536",
"E  c #513C35",
"W  c #7B3131",
"Q  c #0F4533",
"!  c #164233",
"~  c #184938",
"^  c #174838",
"/  c #3B403E",
"(  c #584739",
")  c #534339",
"_  c #1B5743",
"`  c #374641",
"'  c #255846",
"]  c #2A634E",
"[  c #276751",
"{  c #287057",
"}  c #2E745C",
"|  c #2B795F",
" . c #31745C",
".. c #327C62",
"X. c #444343",
"o. c #4A4747",
"O. c #4C4E4E",
"+. c #4C4845",
"@. c #574B49",
"#. c #57534B",
"$. c #554F50",
"%. c #535353",
"&. c #565A59",
"*. c #5C5C5C",
"=. c #634C43",
"-. c #674D4E",
";. c #64544B",
":. c #715147",
">. c #705E4C",
",. c #6A4C51",
"<. c #774C53",
"1. c #615D5B",
"2. c #6D5C5F",
"3. c #785F56",
"4. c #775D53",
"5. c #75604E",
"6. c #6B655A",
"7. c #766353",
"8. c #786055",
"9. c #635F60",
"0. c #646464",
"q. c #676868",
"w. c #696A6A",
"e. c #6E7070",
"r. c #747474",
"t. c #7C7C7C",
"y. c #7D7A77",
"u. c #76696A",
"i. c #B9363B",
"p. c #84705F",
"a. c #8A735F",
"s. c #806061",
"d. c #806960",
"f. c #867461",
"g. c #94776C",
"h. c #877A7D",
"j. c #A0776A",
"k. c #A77375",
"l. c #2D8164",
"z. c #429C7C",
"x. c #41A17F",
"c. c #97836B",
"v. c #9F917D",
"b. c #A38C77",
"n. c #B98A7C",
"m. c #B89A7E",
"M. c #A79378",
"N. c #CF7583",
"B. c #848484",
"V. c #8C8C8C",
"C. c #919191",
"Z. c #9D9C9B",
"A. c #B49F84",
"S. c #A2A3A3",
"D. c #ACACAC",
"F. c #AAA2A3",
"G. c #B4B4B4",
"H. c #BCBDBC",
"J. c #B6ACA7",
"K. c #C39280",
"L. c #D6B79A",
"P. c #DBA996",
"I. c #DFBDA2",
"U. c #EBBBA5",
"Y. c #EAC9AC",
"T. c #ECCFB1",
"R. c #F8CAB3",
"E. c #BEC0C0",
"W. c #C2C2C2",
"Q. c #CDCDCD",
"!. c #D0D0D0",
"~. c #DFDFDF",
"^. c #FFE4C1",
"/. c gray88",
"(. c #EDEDED",
"). c #FFEFE2",
"_. c #F7F7F7",
"`. c #FFFFFF",
/* pixels */
"%.C.C.C.C.C.C.C.C.C.C.C.C.C.C.C.C.C.C.C.C.C.C.C.C.C.C.C.C.C.C.C.C.C.C.C.C.C.C.C.C.C.C.C.C.C.C.C.C.%.",
"C.`.`.`.`.`.`.`.`.`.`.`.`.`.`.`.`.`.`.`.`.`.`.`.`.`.`.`.`.`.`.`.`.`.`.`.`.`.`.`.`.`.`.`.`.`.`.`.`.C.",
"C.`.`.`.`.`.`.`.`.`.`.`.`.`.`.`.`.`.`.`.`.`.`.`.`.`.`.`.`.`.`.`.`.`.`.`.`.`.`.`.`.`.`.`.`.`.`.`.`.C.",
"C.`.`.`.`.`.`.`.`.`.`.`.`.`.`.`.`.`.`.`.`.`.`.`.`.`.`.`.`.`.`.`.`.`.`.`.`.`.`.`.`.`.`.`.`.`.`.`.`.C.",
"C.`.`.`.`.`.`.`.`.`.`.`.`.`.`.`.`.`.`.`.`.`.`.`.`.`.`.`.`.`.`.`.`.`.`.`.`.`.`.`.`.`.`.`.`.`.`.`.`.C.",
"C.`.`.`.`.`.`.`.`.`.`.`.`.`.`.`.`.`.`.`.`.`.`.`.`.`.`.`.`.`.`.`.`.`.`.`.`.`.`.`.`.`.`.`.`.`.`.`.`.C.",
"C.`.`.`.`.`.`.`.`.`.`.`.`.`.`.`.`.`.`.`.`.`.`.`.`.`.`.`.`.`.`.Q.X.X.!.r.*.(.`.`.`.`.`.`.`.`.`.`.`.C.",
"C.`.`.`.`.`.`.`.`.`.`.`.`.`.`.`.`.`.`.`.`.`.`.`.`.`.`.`.`.`._.D.. & # o o . G (.`.`.`.`.`.`.`.`.`.C.",
"C.`.`.`.`.`.`.`.`.`.`.`.`.`.`.`.`.`.`.`.`.`.`.`.`.`.`.`.`.`.Q.2 # 0 q u i , @ C.`.`.`.`.`.`.`.`.`.C.",
"C.`.`.`.`.`.`.`.`.`.`.`.`.`.`.`.`.`.`.`.`.`.`.`.`.`.`.`.X.. . @ o m 9 9 # i u o B.`.`.`.`.`.`.`.`.C.",
"C.`.`.`.`.`.`.`.`.`.`.`.`.`.`.`.`.`.`.`.`.`.`.`.`.`.`.`.r.. @ 0 ,   0 . L i 6 , B.`.`.`.`.`.`.`.`.C.",
"C.`.`.`.`.`.`.`.`.`.`.`.`.`.`.`.`.`.`.`.`.`.`.`.`.`.`.`.S.O . % 8 # q + y 6 , % B.`.`.`.`.`.`.`.`.C.",
"C.`.`.`.`.`.`.`.`.`.`.`.`.`.`.`.`.`.`.`.`.`.`.`.`.`.`.`.X..   . 0 8 q . =.;.. , +./.`.`.`.`.`.`.`.C.",
"C.`.`.`.`.`.`.`.`.`.`.`.`.`.`.`.`.`.`.`.`.`.`.`.`.`.`.r.1 . @ 9 6 0 # g.U.L.L o o W.`.`.`.`.`.`.`.C.",
"C.`.`.`.`.`.`.`.`.`.`.`.`.`.`.`.`.`.`.`.`.`.`.`.`.`.`.*.c . , U 8 m :.-.) n.W . 0.(.`.`.`.`.`.`.`.C.",
"C.`.`.`.`.`.`.`.`.`.`.`.`.`.`.`.`.`.`.`.`.`.`.`.`.`.`.(./.. o R 4.E P.J.  E n.. B.`.`.`.`.`.`.`.`.C.",
"V.`.`.`.`.`.`.`.`.`.`.`.`.`.`.`.`.`.`.`.`.`._.Q.I.E.H.` $   t Y ( 4.R.).N.g.M B.`.`.`.`.`.`.`.`.`.C.",
"C.`.`.`.`.`.`.`.`.`.`.`.`.`.`.`.`.`.`.`.`.`.D.r * w w _ _ * u.k.-.I I.^.Y.R.v.Z.`.`.`.`.`.`.`.`.`.C.",
"C.`.`.`.`.`.`.`.`.`.`.`.`.`.`.(.D.W.!.S.S.S.. X f ..| h z % s.i.H   8.Y.K.g.V.`.`.`.`.`.`.`.`.`.`.C.",
"C.`.`.`.`.`.`.`.`.`.`.`.`.`.`.E.b D X.w ' !     $ f : p ' x / %.w.F   @.d.Z.`.`.`.`.`.`.`.`.`.`.`.C.",
"C.`.`.`.`.`.`.`.`.`.`.`.`.`.`.H.A w   * | x.k O : l     j w o D 1.F . r.D._.`.`.`.`.`.`.`.`.`.`.`.C.",
"C.`.`.`.`.`.`.`.`.`.`.`.`._.(.+.Z ^ e   = k w ; ! ' l   . b o.B.> 1 Z.(.`.`.`.`.`.`.`.`.`.`.`.`.`.C.",
"C.`.`.`.`.`.`.`.`.`.`.`.`.(.r.a.u.g p   . p   g ..; =   t m F Y . 0.(.`.`.`.`.`.`.`.`.`.`.`.`.`.`.C.",
"C.`.`.`.`.`.`.`.`.`.`.`.`.*.b.m.a.w Q p d x.e   * p   b t.. 1 o.S.`.`.`.`.`.`.`.`.`.`.`.`.`.`.`.`.C.",
"C.`.`.`.`.`.`.`.`.`.`.`.`.y.7.L.A.n p p X { z.p   X v v s M #.G.(.`.`.`.`.`.`.`.`.`.`.`.`.`.`.`.`.C.",
"C.`.`.`.`.`.`.`.`.`.`.`.`.(.V.7.f.I ! x     } z . , %.c % >.b.6.Q.`.`.`.`.`.`.`.`.`.`.`.`.`.`.`.`.C.",
"C.`.`.`.`.`.`.`.`.`.`.`.`.`.`.      g ] =     1 q.t.1.*.c ) >.c.t.`.`.`.`.`.`.`.`.`.`.`.`.`.`.`.`.C.",
"C.`.`.`.`.`.`.`.`.`.`.`.`.(.B.d h $ _ z.[ X o e.S.G.D.S.t.I ( @.Q.`.`.`.`.`.`.`.`.`.`.`.`.`.`.`.`.C.",
"C.`.`.`.`.`.`.`.`.`.`.`.`.w.= p { ] k | j 1 7 Y G F G ) F D.6.Q.`.`.`.`.`.`.`.`.`.`.`.`.`.`.`.`.`.C.",
"C.`.`.`.`.`.`.`.`.`.`.`.`.G.S a ..: O - < 7 S V 7 X > 7 7 %.E.`.`.`.`.`.`.`.`.`.`.`.`.`.`.`.`.`.`.C.",
"C.`.`.`.`.`.`.`.`._./././._.`.s p o =   < y S 7 . . , F m 7 X.`.`.`.`.`.`.`.`.`.`.`.`.`.`.`.`.`.`.C.",
"C.`.`.`.`.`.`.`._.D.&.X.N F.(.H.&.0.$.. 7 V y c D   , B F 7 D Q.`.`.`.`.`.`.`.`.`.`.`.`.`.`.`.`.`.C.",
"C.`.`.`.`.`.`.`.E.&.W.9.K i C.W.W.t.. , v V 7 o.!.c % 7 F 7 . ) `.`.`.`.`.`.`.`.`.`.`.`.`.`.`.`.`.C.",
"C.`.`.`.`.`.`.`.r.t.C.4 3 1 *.q.*.. < v F m 7 C.`.t.  2 V 7 . / `.`.`.`.`.`.`.`.`.`.`.`.`.`.`.`.`.C.",
"C.`.`.`.`.`.`.`.b h.<.X X 0.F.Q.V.@ 7 v B v c ~./.+.> 7 F 7 . G `.`.`.`.`.`.`.`.`.`.`.`.`.`.`.`.`.C.",
"C.`.`.`.`.`.`.`.b 1.+ . . b b G c . , 7 7 @ W.`.W., 7 7 v 7 D !.`.`.`.`.`.`.`.`.`.`.`.`.`.`.`.`.`.C.",
"C.`.`.`.`.`.`.`.> 2 O.W.W.W.W.E.E.t.> 7 @ C.`.`.W.. o o o 7 G.`.`.`.`.`.`.`.`.`.`.`.`.`.`.`.`.`.`.C.",
"C.`.`.`.`.`.`.`.`.`.`.`.`.`.`.`.`.`.V.c W.`.`._.G.t.G.c 1 `.`.`.`.`.`.`.`.`.`.`.`.`.`.`.`.`.`.`.`.C.",
"C.`.`.`.`.`.`.`.`.`.`.`.`.`.`.`.`.`.(.~.`.`.`.Q.O.D.G.G D.`.`.`.`.`.`.`.`.`.`.`.`.`.`.`.`.`.`.`.`.C.",
"C.`.`.`.`.`.`.`.`.`.`.`.`.`.`.`.`.`.`.`.`.`./.N K R D W.`.`.`.`.`.`.`.`.`.`.`.`.`.`.`.`.`.`.`.`.`.C.",
"C.`.`.`.`.`.`.`.`.`.`.`.`.`.`.`.`.`.`.`.`.`./.D U 5 . C.(.`.`.`.`.`.`.`.`.`.`.`.`.`.`.`.`.`.`.`.`.C.",
"C.`.`.`.`.`.`.`.`.`.`.`.`.`.`.`.`.`.`.`.`.`./.%.D.X.4 + q.`.`.`.`.`.`.`.`.`.`.`.`.`.`.`.`.`.`.`.`.C.",
"C.`.`.`.`.`.`.`.`.`.`.`.`.`.`.`.`.`.`.`.`.`.(.B.&.0.,.$.O.C.(.`.`.`.`.`.`.`.`.`.`.`.`.`.`.`.`.`.`.C.",
"C.`.`.`.`.`.`.`.`.`.`.`.`.`.`.`.`.`.`.`.`.`.`.`.`.`.`.`.`.`.`.`.`.`.`.`.`.`.`.`.`.`.`.`.`.`.`.`.`.C.",
"C.`.`.`.`.`.`.`.`.`.`.`.`.`.`.`.`.`.`.`.`.`.`.`.`.`.`.`.`.`.`.`.`.`.`.`.`.`.`.`.`.`.`.`.`.`.`.`.`.C.",
"C.`.`.`.`.`.`.`.`.`.`.`.`.`.`.`.`.`.`.`.`.`.`.`.`.`.`.`.`.`.`.`.`.`.`.`.`.`.`.`.`.`.`.`.`.`.`.`.`.C.",
"C.`.`.`.`.`.`.`.`.`.`.`.`.`.`.`.`.`.`.`.`.`.`.`.`.`.`.`.`.`.`.`.`.`.`.`.`.`.`.`.`.`.`.`.`.`.`.`.`.C.",
"C.`.`.`.`.`.`.`.`.`.`.`.`.`.`.`.`.`.`.`.`.`.`.`.`.`.`.`.`.`.`.`.`.`.`.`.`.`.`.`.`.`.`.`.`.`.`.`.`.C.",
"C.`.`.`.`.`.`.`.`.`.`.`.`.`.`.`.`.`.`.`.`.`.`.`.`.`.`.`.`.`.`.`.`.`.`.`.`.`.`.`.`.`.`.`.`.`.`.`.`.C.",
"%.C.C.C.C.C.C.C.C.C.C.C.C.C.C.C.C.C.C.C.C.C.C.C.C.C.C.C.C.C.C.C.C.V.C.C.C.C.V.C.C.C.C.C.C.C.C.C.C.%."
};
