/* XPM */
static char *result[] = {
/* columns rows colors chars-per-pixel */
"50 50 170 2 ",
"   c #030303",
".  c #080606",
"X  c #030907",
"o  c #0A0708",
"O  c #040D0A",
"+  c #0B0A0A",
"@  c #1A070A",
"#  c #120C0D",
"$  c #1A0D0F",
"%  c #140709",
"&  c #06140F",
"*  c #09110E",
"=  c #12100E",
"-  c #1D0E11",
";  c #071D16",
":  c #0B1B16",
">  c #071611",
",  c #151414",
"<  c #1B1415",
"1  c #1C1A1A",
"2  c #23070B",
"3  c #28060B",
"4  c #38050D",
"5  c #240F12",
"6  c #380E15",
"7  c #241315",
"8  c #241619",
"9  c #231B1B",
"0  c #2C1A1E",
"q  c #281818",
"w  c #311718",
"e  c #301A1E",
"r  c #3A191E",
"t  c #0B221B",
"y  c #22211B",
"u  c #2B1E20",
"i  c #341B20",
"p  c #3B1C22",
"a  c #0C2B21",
"s  c #112C23",
"d  c #0D3226",
"f  c #0E3D2D",
"g  c #133529",
"h  c #18372C",
"j  c #113629",
"k  c #163D30",
"l  c #232323",
"z  c #2B2323",
"x  c #2D2D2D",
"c  c #302723",
"v  c #332A2B",
"b  c #3A2827",
"n  c #39322A",
"m  c #382F30",
"M  c #2F3030",
"N  c #333333",
"B  c #3B3434",
"V  c #3D3D3D",
"C  c #48040F",
"Z  c #5C0311",
"A  c #511F1C",
"S  c #401F26",
"D  c #43292D",
"F  c #542323",
"G  c #592830",
"H  c #4B3235",
"J  c #403738",
"K  c #423836",
"L  c #5A3C37",
"P  c #733235",
"I  c #0D402F",
"U  c #144132",
"Y  c #1B4335",
"T  c #164938",
"R  c #1A4B3A",
"E  c #134836",
"W  c #19503E",
"Q  c #13503C",
"!  c #204739",
"~  c #204A3B",
"^  c #45413D",
"/  c #534336",
"(  c #5F4238",
")  c #463F40",
"_  c #3F4141",
"`  c #245846",
"'  c #245845",
"]  c #21634C",
"[  c #2F6E58",
"{  c #2B6D56",
"}  c #2E725B",
"|  c #327D62",
" . c #444444",
".. c #4F4748",
"X. c #4C4C4C",
"o. c #4A4446",
"O. c #574741",
"+. c #5F4F42",
"@. c #534E4E",
"#. c #4E5050",
"$. c #535353",
"%. c #5A5556",
"&. c #5C5C5C",
"*. c #525D5A",
"=. c #595548",
"-. c #67544B",
";. c #665A57",
":. c #775F54",
">. c #664449",
",. c #6C6156",
"<. c #7D6457",
"1. c #626363",
"2. c #6B6665",
"3. c #6D6C6C",
"4. c #766D6E",
"5. c #76716D",
"6. c #7F7669",
"7. c #6C7272",
"8. c #747474",
"9. c #7A7A7B",
"0. c #805F52",
"q. c #89685D",
"w. c #806F69",
"e. c #8E7E68",
"r. c #8D7865",
"t. c #947F68",
"y. c #987666",
"u. c #817E7A",
"i. c #C07B71",
"p. c #328468",
"a. c #378F71",
"s. c #3B9A78",
"d. c #449F7E",
"f. c #8E806C",
"g. c #9D866E",
"h. c #A18970",
"j. c #AD8E74",
"k. c #B28C7D",
"l. c #AB917A",
"z. c #CD7982",
"x. c #4BB28D",
"c. c #838383",
"v. c #8D8D8D",
"b. c #888889",
"n. c #919191",
"m. c #9E9F9F",
"M. c #A68C8D",
"N. c #BB9684",
"B. c #A4A3A3",
"V. c #ACACAC",
"C. c #B3B2B2",
"Z. c #BFBFBF",
"A. c #D7BBA2",
"S. c #E5B6A0",
"D. c #DFC5A8",
"F. c #E7C3A8",
"G. c #E4CCA8",
"H. c #EFCEB0",
"J. c #FADDBC",
"K. c #FFE0BF",
"L. c #C1C1C1",
"P. c #CBCBCB",
"I. c #D1D1D1",
"U. c #DFDFDF",
"Y. c #F4D4CF",
"T. c #FFE8C8",
"R. c #E2E2E2",
"E. c #EEEEEE",
"W. c #F5F5F5",
"Q. c white",
/* pixels */
"$.n.n.n.n.n.n.n.n.n.n.n.n.n.n.n.n.n.n.n.n.n.n.n.n.n.n.n.n.n.v.n.n.n.n.n.n.n.n.n.n.n.n.n.n.n.n.n.n.#.",
"n.Q.Q.Q.Q.Q.Q.Q.Q.Q.Q.Q.Q.Q.Q.Q.Q.Q.Q.Q.Q.Q.Q.Q.Q.Q.Q.Q.Q.Q.Q.Q.Q.Q.Q.Q.Q.Q.Q.Q.Q.Q.Q.Q.Q.Q.Q.Q.Q.n.",
"n.Q.Q.Q.Q.Q.Q.Q.Q.Q.Q.Q.Q.Q.Q.Q.Q.Q.Q.Q.Q.Q.Q.Q.Q.Q.Q.Q.Q.Q.Q.Q.Q.Q.Q.Q.Q.Q.Q.Q.Q.Q.Q.Q.Q.Q.Q.Q.Q.n.",
"n.Q.Q.Q.Q.Q.Q.Q.Q.Q.Q.Q.Q.Q.Q.Q.Q.Q.Q.Q.Q.Q.Q.Q.Q.Q.Q.Q.Q.Q.Q.Q.Q.Q.Q.Q.Q.Q.Q.Q.Q.Q.Q.Q.Q.Q.Q.Q.Q.n.",
"n.Q.Q.Q.Q.Q.Q.Q.Q.Q.Q.Q.Q.Q.Q.Q.Q.Q.Q.Q.Q.Q.Q.Q.Q.Q.Q.Q.Q.Q.Q.Q.Q.Q.Q.Q.Q.Q.Q.Q.Q.Q.Q.Q.Q.Q.Q.Q.Q.n.",
"n.Q.Q.Q.Q.Q.Q.Q.Q.Q.Q.Q.Q.Q.Q.Q.Q.Q.Q.Q.Q.Q.Q.Q.Q.Q.Q.Q.Q.Q.Q.Q.Q.Q.Q.Q.Q.Q.Q.Q.Q.Q.Q.Q.Q.Q.Q.Q.Q.n.",
"n.Q.Q.Q.Q.Q.Q.Q.Q.Q.Q.8.&.R.) o.B.Q.Q.Q.Q.Q.Q.Q.Q.Q.Q.Q.Q.Q.Q.Q.Q.Q.Q.Q.Q.Q.Q.Q.Q.Q.Q.Q.Q.Q.Q.Q.Q.n.",
"n.Q.Q.Q.Q.Q.Q.Q.W.8.o + # + 7 + 8.E.Q.Q.Q.Q.Q.Q.Q.Q.Q.Q.Q.Q.Q.Q.Q.Q.Q.Q.Q.Q.Q.Q.Q.Q.Q.Q.Q.Q.Q.Q.Q.n.",
"n.Q.Q.Q.Q.Q.Q.Q.P., # i p p w - 1 n.Q.Q.Q.Q.Q.Q.Q.Q.Q.Q.Q.Q.Q.Q.Q.Q.Q.Q.Q.Q.Q.Q.Q.Q.Q.Q.Q.Q.Q.Q.Q.n.",
"n.Q.Q.Q.Q.Q.Q.L.o 8 p - 7 # D # + + . X.R.Q.Q.Q.Q.Q.Q.Q.Q.Q.Q.Q.Q.Q.Q.Q.Q.Q.Q.Q.Q.Q.Q.Q.Q.Q.Q.Q.Q.n.",
"n.Q.Q.Q.Q.Q.Q.L.# u i D - p   o e - . L.Q.Q.Q.Q.Q.Q.Q.Q.Q.Q.Q.Q.Q.Q.Q.Q.Q.Q.Q.Q.Q.Q.Q.Q.Q.Q.Q.Q.Q.n.",
"n.Q.Q.Q.Q.Q.Q.L.+ - 8 q % p # 5 8 o . 8.E.Q.Q.Q.Q.Q.Q.Q.Q.Q.Q.Q.Q.Q.Q.Q.Q.Q.Q.Q.Q.Q.Q.Q.Q.Q.Q.Q.Q.n.",
"n.Q.Q.Q.Q.Q.Q.2.7 . 3 L 7 S 8 i % . . l U.Q.Q.Q.Q.Q.Q.Q.Q.Q.Q.Q.Q.Q.Q.Q.Q.Q.Q.Q.Q.Q.Q.Q.Q.Q.Q.Q.Q.n.",
"n.Q.Q.Q.Q.Q.Q.o # w y.S.k.7 7 i 7 $ o * V Q.Q.Q.Q.Q.Q.Q.Q.Q.Q.Q.Q.Q.Q.Q.Q.Q.Q.Q.Q.Q.Q.Q.Q.Q.Q.Q.Q.n.",
"n.Q.Q.Q.Q.Q.Q.n.. F i.-.( <.u i D z . 1 V.Q.Q.Q.Q.Q.Q.Q.Q.Q.Q.Q.Q.Q.Q.Q.Q.Q.Q.Q.Q.Q.Q.Q.Q.Q.Q.Q.Q.n.",
"n.Q.Q.Q.Q.Q.Q.L.. :.w.. f.A.u J <.+   l U.Q.Q.Q.Q.Q.Q.Q.Q.Q.Q.Q.Q.Q.Q.Q.Q.Q.Q.Q.Q.Q.Q.Q.Q.Q.Q.Q.Q.n.",
"n.Q.Q.Q.Q.Q.Q.Q.Z.y q.z.Y.T.k.c ;., I R t s & O 1.E.Q.Q.Q.Q.Q.Q.Q.Q.Q.Q.Q.Q.Q.Q.Q.Q.Q.Q.Q.Q.Q.Q.Q.n.",
"n.Q.Q.Q.Q.Q.Q.Q.P.6.G.H.J.K.( x M.H U g W s.Q t . n.L.L.I.E.L.U.Q.Q.Q.Q.Q.Q.Q.Q.Q.Q.Q.Q.Q.Q.Q.Q.Q.n.",
"n.Q.Q.Q.Q.Q.Q.Q.Q.V.5.k.F.N.X.&.P A Y U   T j     t U g x 9.. c.Q.Q.Q.Q.Q.Q.Q.Q.Q.Q.Q.Q.Q.Q.Q.Q.Q.n.",
"n.Q.Q.Q.Q.Q.Q.Q.Q.Q.Z.6.:.9 8.2., : ` >   : R   : p.a.Y   * : c.Q.Q.Q.Q.Q.Q.Q.Q.Q.Q.Q.Q.Q.Q.Q.Q.Q.n.",
"n.Q.Q.Q.Q.Q.Q.Q.Q.Q.Q.C.m.m.c.K 2.z o     { Y t : R g   & R a N P.Q.Q.Q.Q.Q.Q.Q.Q.Q.Q.Q.Q.Q.Q.Q.Q.n.",
"n.Q.Q.Q.Q.Q.Q.Q.Q.Q.Q.Q.Q.Q.E.C.O.z B ,   t s Y   j : . ; E =.t.,.L.W.Q.Q.Q.Q.Q.Q.Q.Q.Q.Q.Q.Q.Q.Q.n.",
"n.Q.Q.Q.Q.Q.Q.Q.Q.Q.Q.Q.Q.Q.Q.W.3.+ 9. .. : R :   | W * f f +.j.l.8.P.Q.Q.Q.Q.Q.Q.Q.Q.Q.Q.Q.Q.Q.Q.n.",
"n.Q.Q.Q.Q.Q.Q.Q.Q.Q.Q.Q.Q.Q.Q.E.9.n = 9 J o   O [ d.s d t g e.G.h.1.P.Q.Q.Q.Q.Q.Q.Q.Q.Q.Q.Q.Q.Q.Q.n.",
"n.Q.Q.Q.Q.Q.Q.Q.Q.Q.Q.Q.Q.Q.E.B.f.t.9 1 8.< . t { h . X R y r.g.;.D.W.Q.Q.Q.Q.Q.Q.Q.Q.Q.Q.Q.Q.Q.Q.n.",
"n.Q.Q.Q.Q.Q.Q.Q.Q.Q.Q.Q.Q.Q.Z.v g./ 9 N %...&.x     X Y `   X   B.Q.Q.Q.Q.Q.Q.Q.Q.Q.Q.Q.Q.Q.Q.Q.Q.n.",
"n.Q.Q.Q.Q.Q.Q.Q.Q.Q.Q.Q.Q.Q.U.5./ /  .b.m.C.V.b.1   k x.W ; : d *.U.Q.Q.Q.Q.Q.Q.Q.Q.Q.Q.Q.Q.Q.Q.Q.n.",
"n.Q.Q.Q.Q.Q.Q.Q.Q.Q.Q.Q.Q.Q.Q.Z.9 9 N ;.%.3...$.x < s p.] g | T O &.I.Q.Q.Q.Q.Q.Q.Q.Q.Q.Q.Q.Q.Q.Q.n.",
"n.Q.Q.Q.Q.Q.Q.Q.Q.Q.Q.Q.Q.Q.I.N = z m B J u . o . 9 1 : O X [ `   n.W.Q.Q.Q.Q.Q.Q.Q.Q.Q.Q.Q.Q.Q.Q.n.",
"n.Q.Q.Q.Q.Q.Q.Q.Q.Q.Q.Q.Q.Q.N + 9 c v c z o M Z.1.+ z 9     j j 8.E.Q.Q.Q.Z. . .P.Q.Q.Q.Q.Q.Q.Q.Q.n.",
"n.Q.Q.Q.Q.Q.Q.Q.Q.Q.Q.Q.Q.Q.o z v B z # o %.Q.Q.Q.V < 9 u 1       Z.Q.W.V.. o.b.$.V.Q.Q.Q.Q.Q.Q.Q.n.",
"n.Q.Q.Q.Q.Q.Q.Q.Q.Q.Q.Q.Q.Q.+ z 9 u 9 = V R.Q.Q.Q.7.< 9 v z 9 < . v.L.V.&.2 6 #.7.V Q.Q.Q.Q.Q.Q.Q.n.",
"n.Q.Q.Q.Q.Q.Q.Q.Q.Q.Q.Q.Q.Q.x o < < o o.R.Q.Q.Q.Q.Q.3.9 z m v u # o 1 7.B.M . @ 2.M Q.Q.Q.Q.Q.Q.Q.n.",
"n.Q.Q.Q.Q.Q.Q.Q.Q.Q.Q.Q.Q.Q.Z.  l &.l L.Q.Q.Q.Q.Q.Q.E.v.< u v c + 1 n.Z.C.$.3 C 4.M Q.Q.Q.Q.Q.Q.Q.n.",
"n.Q.Q.Q.Q.Q.Q.Q.Q.Q.Q.Q.Q.Q.R.1.1.Z.N L.Q.Q.Q.Q.Q.Q.Q.Q.  < 9 < . , 1.$.9.c.>.@  .8.Q.Q.Q.Q.Q.Q.Q.n.",
"n.Q.Q.Q.Q.Q.Q.Q.Q.Q.Q.Q.Q.Q.Q.Z.$.Z._ Z.Q.Q.Q.Q.Q.Q.Q.Q.L.n.+ . 8.L.L.L.I.Q.U.Z.P.E.Q.Q.Q.Q.Q.Q.Q.n.",
"n.Q.Q.Q.Q.Q.Q.Q.Q.Q.Q.Q.Q.Q.Q.Z.8.n.1 Z.Q.Q.Q.Q.Q.Q.Q.Q.Q.E.Z.Z.E.Q.Q.Q.Q.Q.Q.Q.Q.Q.Q.Q.Q.Q.Q.Q.Q.n.",
"n.Q.Q.Q.Q.Q.Q.Q.Q.Q.Q.Q.Q.Q.Q.L.. . % x U.Q.Q.Q.Q.Q.Q.Q.Q.Q.Q.Q.Q.Q.Q.Q.Q.Q.Q.Q.Q.Q.Q.Q.Q.Q.Q.Q.Q.n.",
"n.Q.Q.Q.Q.Q.Q.Q.Q.Q.Q.Q.Q.Q.Q.L.. o Z D U.Q.Q.Q.Q.Q.Q.Q.Q.Q.Q.Q.Q.Q.Q.Q.Q.Q.Q.Q.Q.Q.Q.Q.Q.Q.Q.Q.Q.n.",
"n.Q.Q.Q.Q.Q.Q.Q.Q.Q.Q.Q.Q.Q.n.% % 4 p N U.Q.Q.Q.Q.Q.Q.Q.Q.Q.Q.Q.Q.Q.Q.Q.Q.Q.Q.Q.Q.Q.Q.Q.Q.Q.Q.Q.Q.n.",
"v.Q.Q.Q.Q.Q.Q.Q.Q.Q.Q.Q.W.P.N H G x &._ R.Q.Q.Q.Q.Q.Q.Q.Q.Q.Q.Q.Q.Q.Q.Q.Q.Q.Q.Q.Q.Q.Q.Q.Q.Q.Q.Q.Q.n.",
"n.Q.Q.Q.Q.Q.Q.Q.Q.Q.Q.Q.U.l 1.1.X.X.7.n.E.Q.Q.Q.Q.Q.Q.Q.Q.Q.Q.Q.Q.Q.Q.Q.Q.Q.Q.Q.Q.Q.Q.Q.Q.Q.Q.Q.Q.n.",
"n.Q.Q.Q.Q.Q.Q.Q.Q.Q.Q.Q.E.n.x.y.c.c.U.Q.Q.Q.Q.Q.Q.Q.Q.Q.Q.Q.Q.Q.Q.Q.Q.Q.Q.Q.Q.Q.Q.Q.Q.Q.Q.Q.Q.Q.Q.n.",
"n.Q.Q.Q.Q.Q.Q.Q.Q.Q.Q.Q.Q.Q.Q.W.Q.Q.Q.Q.Q.Q.Q.Q.Q.Q.Q.Q.Q.Q.Q.Q.Q.Q.Q.Q.Q.Q.Q.Q.Q.Q.Q.Q.Q.Q.Q.Q.Q.n.",
"n.Q.Q.Q.Q.Q.Q.Q.Q.Q.Q.Q.Q.Q.Q.Q.Q.Q.Q.Q.Q.Q.Q.Q.Q.Q.Q.Q.Q.Q.Q.Q.Q.Q.Q.Q.Q.Q.Q.Q.Q.Q.Q.Q.Q.Q.Q.Q.Q.n.",
"n.Q.Q.Q.Q.Q.Q.Q.Q.Q.Q.Q.Q.Q.Q.Q.Q.Q.Q.Q.Q.Q.Q.Q.Q.Q.Q.Q.Q.Q.Q.Q.Q.Q.Q.Q.Q.Q.Q.Q.Q.Q.Q.Q.Q.Q.Q.Q.Q.n.",
"n.Q.Q.Q.Q.Q.Q.Q.Q.Q.Q.Q.Q.Q.Q.Q.Q.Q.Q.Q.Q.Q.Q.Q.Q.Q.Q.Q.Q.Q.Q.Q.Q.Q.Q.Q.Q.Q.Q.Q.Q.Q.Q.Q.Q.Q.Q.Q.Q.n.",
"n.Q.Q.Q.Q.Q.Q.Q.Q.Q.Q.Q.Q.Q.Q.Q.Q.Q.Q.Q.Q.Q.Q.Q.Q.Q.Q.Q.Q.Q.Q.Q.Q.Q.Q.Q.Q.Q.Q.Q.Q.Q.Q.Q.Q.Q.Q.Q.Q.n.",
"n.Q.Q.Q.Q.Q.Q.Q.Q.Q.Q.Q.Q.Q.Q.Q.Q.Q.Q.Q.Q.Q.Q.Q.Q.Q.Q.Q.Q.Q.Q.Q.Q.Q.Q.Q.Q.Q.Q.Q.Q.Q.Q.Q.Q.Q.Q.Q.Q.n.",
"@.n.n.n.n.n.n.n.n.n.n.n.n.n.n.n.n.n.n.n.n.n.n.n.n.n.n.n.n.n.n.n.n.n.n.n.n.n.n.n.n.n.n.n.n.n.n.n.n.@."
};
