/* XPM */
static char *c04bb65e94124693fff6d849199cadb2J2ikBis60oHg9RG2[] = {
/* columns rows colors chars-per-pixel */
"50 50 127 2 ",
"   c #2D242A",
".  c #352C2F",
"X  c #362C33",
"o  c #382E36",
"O  c #3A3136",
"+  c #3D333A",
"@  c #40373E",
"#  c #42393E",
"$  c #413740",
"%  c #453B42",
"&  c #483F46",
"*  c #493F48",
"=  c #4A4145",
"-  c #4D444A",
";  c #51474E",
":  c #52494E",
">  c #554B52",
",  c #584F55",
"<  c #5A5156",
"1  c #5D545A",
"2  c #60575D",
"3  c #62595E",
"4  c #615760",
"5  c #655C62",
"6  c #685E66",
"7  c #695F68",
"8  c #6A6166",
"9  c #6D646A",
"0  c #70676D",
"q  c #72696E",
"w  c #716770",
"e  c #756C72",
"r  c #786F74",
"t  c #7A7176",
"y  c #7E747A",
"u  c #80777C",
"i  c #837A7E",
"p  c #867C82",
"a  c #887F84",
"s  c #8B8285",
"d  c #8D848A",
"f  c #90878C",
"g  c #92898E",
"h  c #938A8F",
"j  c #91888D",
"k  c #948B8E",
"l  c #958C8D",
"z  c #968D8E",
"x  c #978E8F",
"c  c #938A8D",
"v  c #918790",
"b  c #928890",
"n  c #938991",
"m  c #948B90",
"M  c #948A92",
"N  c #958B93",
"B  c #958C91",
"V  c #968D90",
"C  c #968D92",
"Z  c #978E93",
"A  c #968C94",
"S  c #978D95",
"D  c #968C92",
"F  c #988F94",
"G  c #988E96",
"H  c #998F97",
"J  c #988F94",
"K  c #999093",
"L  c #9A9192",
"P  c #9B9293",
"I  c #999095",
"U  c #9A9194",
"Y  c #9B9295",
"T  c #9A9196",
"R  c #9B9297",
"E  c #9D9495",
"W  c #9D9497",
"Q  c #9E9596",
"!  c #9A9195",
"~  c #9A9098",
"^  c #9B9199",
"/  c #9C9398",
"(  c #9C929A",
")  c #9D939B",
"_  c #9D9499",
"`  c #9E9598",
"'  c #9E959A",
"]  c #9F969B",
"[  c #9F959D",
"{  c #9D949A",
"}  c #A0979C",
"|  c #A0969E",
" . c #A1979F",
".. c #A0979C",
"X. c #A2999A",
"o. c #A1989D",
"O. c #A2999E",
"+. c #A39A9F",
"@. c #A2999E",
"#. c #A49BA0",
"$. c #A59CA1",
"%. c #A69DA2",
"&. c #A79EA3",
"*. c #A59BA2",
"=. c #A89FA5",
"-. c #A9A0A5",
";. c #AAA1A6",
":. c #ABA2A7",
">. c #AAA1A6",
",. c #AAA0A8",
"<. c #ACA3A8",
"1. c #ADA4A9",
"2. c #AEA5AA",
"3. c #AEA4AC",
"4. c #AFA5AD",
"5. c #ACA3A9",
"6. c #B0A7AC",
"7. c #B1A8AD",
"8. c #B2A9AE",
"9. c #B3AAAF",
"0. c #B3AAAF",
"q. c #B1A7B0",
"w. c #B4ABB0",
"e. c #B6ADB2",
"r. c #B7ADB6",
"t. c #B8AEB7",
"y. c #BDB3BC",
/* pixels */
"y p h I Z D D ' %.<.6.1.:.:.:.-.+.O./ %.0 - i / / T } $.] %.:./ I I o./ y 5 s C d d h j d i i < , y ",
"I I I o.#.o.' ' / ] +.O.O.O.} ' ] ' Z O.0 & i / ] / } +.+.-.:.+.o.+.%.F 8 = s 2.+.+.&.o.+./ R 3 8 h ",
"I D m D I F D Z m F / Y / ' ' Y Z / B ' 8 & i Y } O.R C R / R T h I +.I 5 O y &.I C / h R R h : < p ",
"s a a a p u y p s f m j f j m m m Z m Y 5 % y F } } d u p p y p a p j C q # r / d i s j I R m - < p ",
"s p u y u t e q r i p i t t i p j Z g F 5 % u F ] F i q r r q u h a a s 9 = y #.f e i C ] Z m : 3 s ",
"s t q r p p t 9 e t y r e e t i a m j F 3 % u Z R f t q t y i s L d d j 9 = y #.g q y Z T f f : < p ",
"y q 9 e y u y t t i t r e r t y y s s C 3 % i F T a y y y p d d d d g g 9 # t F C e a T Z g m , 3 s ",
"p y y y t r t u i r e 9 9 e r e t a s B 3 & p / T p y p y i d p h d d a 5 % t F d e a m s d m : 3 j ",
"d j m m g f s s s f y s d p d i a R d I 5 # s R j j m j j j j C h ! %.h q O r ' C d d B g F a 3 < p ",
"q q q q 8 8 1 1 > 1 1 1 , - , : < 1 , 8 < - t t y y y t t r e e 9 < : < 5 = 1 : 1 < 3 5 8 r r 5 : q ",
"# = + % + + + O + = + + O X + + O . . # + O = O + + O + O O . . O # # = =   O O # O + O X O + X O - ",
", 1 1 1 5 8 8 8 t 1 + 1 9 r r e i t i y q r q 5 5 3 3 3 5 5 5 3 < : O > 3 < 1 1 < 2 3 2 , > , : : : ",
"] ] -.>.6.0.e.e.+.q = t Q -.] $.#.#.7.-.#.-.$.%.2.;.&.#.#.O.#.O.! e = r 7.8.8.2.$.<.1.1.,.*. . ./ / ",
"R R R / / / ] ` l 3 + y U ] C ] B j B j Z R C Z ' ' R Z C B C T j 5 O 8 :.#.#.%.} %.#.}  .A v ) ' / ",
"` R F Z Z F R / d 8 + y f U g R ] ] I R ] T m j j B Z C j d j j ' 9 O 1 8.#.' a p d j B ~ v v  .T F ",
"m j d s f C ` #.f 9 % r s ] C I m ! B / ] j j j B K ' K d a p a d 9 = < <.' ] j 9 y i p p y y d / C ",
"v d p y p d A [ H , ; w M A d T m c R l d Q K c l c L d i s s s p 4 * > 3. .N p y u p a p y y d v v ",
"d p w w w y v H v , % w A d p d s c X.P m T m K l c l s s i s s d 7 $ 1 3.| d u y p v a y w y p v v ",
"u r 7 5 4 w u v A w % w A e 9 e y i p i a f s H c l s s s i i s a 1 o 7 ,.| a d p a S S u y a v v d ",
"u u u w w w u s a w = 9 v w w e q 8 8 8 y a u p s E m c l s l l u 7 * t [ | d N H v S [ v p d ~ G A ",
"7 4 7 4 2 1 4 5 7 w $ > 8 : > > : - : - 1 5 > ; , 6 7 4 3 5 9 8 2 1 % 4 8 8 1 8 7 1 1 4 , > > , 4 4 ",
"$ $ $ + o X X o $ ; o o $ O + X # O % + o + + + + X + + . O O X o % o $ + + O O + * $ o $ $ $ + $ $ ",
", 1 , 4 1 1 1 1 > , , , 1 1 3 3 , # 1 e 7 9 e r w + 1 9 7 9 3 6 2 8 3 8 5 5 5 3 ; 4 ; * , * + 1 , > ",
"v A ^  .-.-.*.| ,.[ *.*.' Y V j 5 % t y.y.t.r.q.v + 7 B ~ &.C -.*.&.] &.:.$.%.` G v p d v > * d ) ~ ",
"s v Z T T T T T E Q L U B B B i < + 4 S T B x L 7 + w v *.,. .,.@.$.%.%.$.@.$.%.` X.X.X.t : = s | ) ",
"a d C T / T Z Z x L x U Z Z L p 2 + 4 v d y y i 7 + 7 a *.,.G H l l C ! ` ` ! L m l l L t < = l  . .",
"s d j j f p y y p l s l Z U ] d 1 o 4 v s e r i w + 4 p | | d p i a s l ! L j s d s i l t < = i | ) ",
"s d d s i y q 9 r i i l L U ] d < X 4 S d r y s w + 7 i ^ G u y a s l x x d p y a i y s t < = i | [ ",
"s s s s p i y y q y i l x x P i 1 X 4 Z s q t s q . 8 p ^ v u y s l l x l i t t t t t s t < - s C B ",
"s s s s s s s s u i s l l z z u 1 X 1 V l i i s q O 8 s ^ v u p s l P L s s i i u u i c r < - l i p ",
"s s s i i i t t i i i s s s z i < . 1 l z s s s q . 8 s W z u a s s l l l i p p p s s l r : = j a s ",
"s i i i i u t q i i t i i s L s 3 O 1 f z l s s e O 5 s ] K p a t i s s s s i i p p a l t > - c s s ",
"i l s i y y i p i s d d f V V V 9 O 8 i F s t ! e # 8 y &.] / +.R ] F f v N v v d d ^ d y , * A p u ",
"i i t r t e r 9 q r y i y i s d 5 O q j @.! s d q - i k &.m a a s s a s A N d v A v H p u 4 * d v p ",
"1 < = # = = = = + = = - = % = - < X > 1 3 3 9 5 < # 8 < < = # # * * $ * ; * % * * * - ; 4 1 ; t 4 4 ",
". O = = % + + = # = % # + + + + # # = X O O + O = . - O O + % + X + + + + o o $ $ + + o $ $   $ o X ",
"= < d %.Q Q l R I Z Z Z L I Z Z s d q : t i i p y r s i i s y 1 , e p y y p p p p p p u d v p v u y ",
": , d 1.2.w.-.:.-.$.] ] $.%.+.] >.h 3 O y %.' >.:.&.:.>.%.+.s : , a =. .| *.*.+. .,.*.}  .| ~ ~ ) S ",
"8 1 s X.X.1.] +.] R Y I I I Z B d 9 1 # r ' h d h d s s s d y - ; y [ ' ^ ) ~ I A ' ~ F A v v d v p ",
"3 , l %.] +.c l Z I I I B Y U ] h < 5 = 3 h B F j j a i t p t : , t A R H A I ] ~ ' C B v d p u v a ",
", , d +.O.i p m d d d f f Z ] ] d 8 1 % 5 C ' h y u y y u a u ; < r h / W L x X.C d s d j d p p v a ",
"> 1 d / / p i a a s a s s f S / C q 3 # 3 j I d p p u p u p r * < y h L W X.P l s p p s a p p s v a ",
": 1 d m Z p y r y a a a a s f F T e 5 # 5 j h s u u u d d a y - : y L d L } x i y y i i i i p d v p ",
": < s j f t 0 9 t y p s s s f Y B e 3 # 8 h h s t t y v v a u > , y h k h L s t e t y y y i p a v a ",
": , p j s 9 5 6 9 w y p a a s B s q 3 # 0 C v a p u p v d p y ; , y x L l s i r q t t r t i i i v p ",
": < p f p 8 6 0 5 7 e i i u i a s e 3 % e F s i a a a d d a y ; , y P x l i t i t i t e e y y r p p ",
": 3 d s p r e e w w r i a u u a s e 5 % r R d p i a a d a a u > , i X.z s s s i y s i t e y i t p u ",
"> 3 d p a p p t p u i s d a p d s e 3 % r } j v i d d a p a u ; : a o.j s l l s i s d i r u i i p y ",
"2 5 5 , * * * - ; ; * ; ; > ; ; ; ; ; > > > ; ; ; > , ; ; ; ; 1 : < : - : > : ; - * ; ; - > 1 > 5 7 ",
"$ $ + + + $ $ $ * $ $ % % * * % o o o + + + + $ + + $ + + + $ $ % = # # % * $ * * % * * $ % * * + $ "
};
